<svg xmlns="http://www.w3.org/2000/svg" xmlns:xlink="http://www.w3.org/1999/xlink" width="97.26" height="83.196" viewBox="0 0 97.26 83.196">
  <defs>
    <clipPath id="clip-path">
      <rect id="Rect치ngulo_402041" data-name="Rect치ngulo 402041" width="96.826" height="69.455" fill="none"/>
    </clipPath>
  </defs>
  <g id="Grupo_1100944" data-name="Grupo 1100944" transform="translate(-751.37 -4835.8)">
    <path id="Trazado_875596" data-name="Trazado 875596" d="M81.81,72.052c-9.959-1.375-20.48-1.039-29.542,3.314C39.7,81.4,31.445,95.089,31.129,109.028s6.945,27.636,18.163,35.916,26.012,11.215,39.731,8.728c13.834-2.507,26.818-10.635,34.034-22.7,4.627-7.737,6.79-17.291,4.234-25.936a35.433,35.433,0,0,0-8.409-13.822A62.129,62.129,0,0,0,81.81,72.052Z" transform="translate(720.251 4764.468)" fill="#26aab7"/>
    <g id="Grupo_1100831" data-name="Grupo 1100831" transform="translate(751.587 4842.599)">
      <g id="Grupo_1100831-2" data-name="Grupo 1100831" transform="translate(0 0)" clip-path="url(#clip-path)">
        <path id="Trazado_874490" data-name="Trazado 874490" d="M14.044,67.008a3.491,3.491,0,0,1-1.653-.418l-.065-.04H5.268A3.466,3.466,0,0,1,1.8,63.087V58.075h8.77V5.055a3.471,3.471,0,0,1,3.471-3.463H83.767A3.469,3.469,0,0,1,87.23,5.055v53.02h6.51v5.012a3.466,3.466,0,0,1-3.465,3.463h-4.8l-.059.04a3.508,3.508,0,0,1-1.647.418Z" transform="translate(0.996 0.879)" fill="#fff"/>
        <path id="Trazado_874491" data-name="Trazado 874491" d="M14.1,49.879a3.488,3.488,0,0,1-3.485-3.489V8.472A3.487,3.487,0,0,1,14.1,4.989H72.3A3.491,3.491,0,0,1,75.78,8.472V46.389A3.492,3.492,0,0,1,72.3,49.879Z" transform="translate(5.859 2.755)" fill="#77cfd7"/>
        <rect id="Rect치ngulo_402040" data-name="Rect치ngulo 402040" width="47.078" height="16.56" transform="translate(24.745 14.867)" fill="#ffd154"/>
        <path id="Trazado_874492" data-name="Trazado 874492" d="M8.177,69.456a7.817,7.817,0,0,1-6.9-3.367,9.229,9.229,0,0,1-.987-7.1,1.477,1.477,0,0,1,1.444-1.136H8.2V5.974A5.977,5.977,0,0,1,14.176,0H83.252a5.977,5.977,0,0,1,5.974,5.974V57.857h6.116a1.48,1.48,0,0,1,1.484,1.476c0,2.123-.118,4.68-1.346,6.712-1.321,2.17-3.705,3.412-7.437,3.412ZM88.044,66.5a7.774,7.774,0,0,0,3.339-.6,3.5,3.5,0,0,0,1.568-1.391,7.849,7.849,0,0,0,.877-3.609l.006-.09H2.99l-.026.234a5.621,5.621,0,0,0,.8,3.424A4.877,4.877,0,0,0,8.177,66.5Zm-74.8-1.439a1.483,1.483,0,0,1,0-2.966h3.177a1.483,1.483,0,0,1,0,2.966Zm8.391,0a1.483,1.483,0,0,1,0-2.966h3.184a1.483,1.483,0,0,1,0,2.966Zm60.371,0A1.483,1.483,0,0,1,82,62.1H85.18a1.483,1.483,0,0,1,0,2.966Zm4.261-7.207V5.974a3.023,3.023,0,0,0-3.013-3.021H14.176a3.026,3.026,0,0,0-3.019,3.021V57.857ZM19.438,54.321a4.974,4.974,0,0,1-4.967-4.967V11.437a4.972,4.972,0,0,1,4.967-4.965h58.2A4.967,4.967,0,0,1,82.6,11.437V49.354a4.968,4.968,0,0,1-4.965,4.967Zm58.2-2.954a2.012,2.012,0,0,0,2.005-2.013V11.437a2.011,2.011,0,0,0-2.005-2.005h-58.2a2.011,2.011,0,0,0-2.007,2.005V49.354a2.013,2.013,0,0,0,2.007,2.013ZM25.091,47.615a1.189,1.189,0,0,1-1.184-1.189V41.1a1.182,1.182,0,0,1,1.184-1.177H38.167A1.18,1.18,0,0,1,39.344,41.1v5.326a1.187,1.187,0,0,1-1.177,1.189Zm16.748,0a1.188,1.188,0,0,1-1.183-1.189V41.1a1.181,1.181,0,0,1,1.183-1.177H54.911A1.181,1.181,0,0,1,56.094,41.1v5.326a1.188,1.188,0,0,1-1.183,1.189Zm16.77,0a1.187,1.187,0,0,1-1.177-1.189V41.1a1.18,1.18,0,0,1,1.177-1.177H71.685A1.185,1.185,0,0,1,72.868,41.1v5.326a1.192,1.192,0,0,1-1.183,1.189ZM36.984,42.283H26.273v2.96H36.984Zm16.744,0h-10.7v2.96h10.7Zm16.775,0H59.8v2.96H70.5ZM25.11,37.467a1.18,1.18,0,1,1,0-2.359H38.273a1.18,1.18,0,1,1,0,2.359Zm16.678,0a1.18,1.18,0,1,1,0-2.359H54.95a1.18,1.18,0,1,1,0,2.359Zm16.795,0a1.18,1.18,0,1,1,0-2.359h13.4a1.18,1.18,0,1,1,0,2.359ZM24.62,32.742a1.193,1.193,0,0,1-1.183-1.183V14.286A1.19,1.19,0,0,1,24.62,13.1H72.17a1.185,1.185,0,0,1,1.183,1.183V31.559a1.187,1.187,0,0,1-1.183,1.183ZM70.987,15.468H25.8V30.377H70.987ZM53.022,26.945a1.183,1.183,0,0,1,0-2.366H66.183a1.183,1.183,0,1,1,0,2.366Zm0-4.731a1.183,1.183,0,0,1,0-2.366H66.183a1.183,1.183,0,1,1,0,2.366Z" transform="translate(0 0)" fill="#333"/>
      </g>
    </g>
  </g>
</svg>
