<svg xmlns="http://www.w3.org/2000/svg" width="170.627" height="70.003" viewBox="0 0 170.627 70.003">
  <g id="hbo.5b41df58" transform="translate(-301.835 -268)">
    <path id="Trazado_873484" data-name="Trazado 873484" d="M449.243,318.3a13.314,13.314,0,1,0-13.29-13.314,13.314,13.314,0,0,0,13.29,13.314Z" transform="translate(-11.802 -2.082)" fill="#12263f" fill-rule="evenodd"/>
    <path id="Trazado_873485" data-name="Trazado 873485" d="M442.754,268a34.872,34.872,0,0,0-32.93,23.441,33.05,33.05,0,0,0,.263-4.4,17.572,17.572,0,0,0-7.041-13.514,20.717,20.717,0,0,0-12.483-4.5H360.379V337.77h28.3c5.589,0,10.377-2.053,15.154-5.483a17.954,17.954,0,0,0,7.238-14.1c0-.249,0-.5-.008-.741A34.871,34.871,0,1,0,442.748,268Zm-64.743,15.918h7.38c3.6,0,7.38.631,7.38,5.226.263,4.149-2.217,6.608-7.189,6.608l-7.57.028V283.918ZM391.7,320.892c-1.533,1.266-3.61,1.176-5.506,1.176h-8.214V309.445h7.491c4.536,0,8.418,1.177,8.615,6.476a6.893,6.893,0,0,1-2.387,4.971Zm16.612-13.251a19.988,19.988,0,0,0-6.163-5.12,13.339,13.339,0,0,0,6.508-6.408,35.251,35.251,0,0,0-.345,11.536Zm34.279,13.417A18.159,18.159,0,1,1,460.723,302.9a18.159,18.159,0,0,1-18.129,18.158Z" transform="translate(-5.152 0)" fill="#12263f" fill-rule="evenodd"/>
    <path id="Trazado_873486" data-name="Trazado 873486" d="M333.651,294.336H319.405V268.98h-17.57v68.993H319.32V311.046h14.245v26.929h17.8v-69H333.651Z" transform="translate(0 -0.085)" fill="#12263f" fill-rule="evenodd"/>
    <path id="Trazado_873487" data-name="Trazado 873487" d="M480.927,340.291a2.037,2.037,0,1,0,2.11,2.037,2.013,2.013,0,0,0-2.11-2.037Zm0,3.49a1.455,1.455,0,1,1,1.47-1.453,1.436,1.436,0,0,1-1.47,1.453Z" transform="translate(-15.547 -6.361)" fill="#12263f" fill-rule="evenodd"/>
    <path id="Trazado_873488" data-name="Trazado 873488" d="M481.44,342.562a.511.511,0,0,0,.528-.576c0-.528-.345-.661-.921-.661h-.827v2.189h.552v-.932h.093l.5.932h.639l-.561-.951Zm-.355-.353h-.314V341.7h.266c.162,0,.349.02.349.231s-.109.276-.3.276Z" transform="translate(-15.698 -6.452)" fill="#12263f" fill-rule="evenodd"/>
  </g>
</svg>
