<svg xmlns="http://www.w3.org/2000/svg" xmlns:xlink="http://www.w3.org/1999/xlink" width="98.743" height="98.743" viewBox="0 0 98.743 98.743">
  <defs>
    <clipPath id="clip-path">
      <rect id="Rectángulo_401418" data-name="Rectángulo 401418" width="98.743" height="98.743" fill="none"/>
    </clipPath>
  </defs>
  <g id="Grupo_1099528" data-name="Grupo 1099528" transform="translate(0)">
    <g id="Grupo_1099514" data-name="Grupo 1099514" transform="translate(0)" clip-path="url(#clip-path)">
      <path id="Trazado_873632" data-name="Trazado 873632" d="M74.5,88.491a1.151,1.151,0,0,1-.681-.221L53.723,73.656H18.868A4.874,4.874,0,0,1,14,68.789V61.371a1.159,1.159,0,0,1,2.318,0v7.417a2.553,2.553,0,0,0,2.55,2.55H54.1a1.16,1.16,0,0,1,.681.221L73.016,84.821,71.493,72.64a1.156,1.156,0,0,1,1.15-1.3h9.272a2.553,2.553,0,0,0,2.55-2.55V16.868a2.553,2.553,0,0,0-2.55-2.55H65.226a1.159,1.159,0,0,1,0-2.318H81.915a4.874,4.874,0,0,1,4.868,4.868V68.789a4.874,4.874,0,0,1-4.868,4.868H73.956l1.691,13.533a1.157,1.157,0,0,1-.562,1.14,1.133,1.133,0,0,1-.588.161" transform="translate(11.961 10.252)" fill="#262626"/>
      <path id="Trazado_873633" data-name="Trazado 873633" d="M12.285,76.491a1.133,1.133,0,0,1-.588-.161,1.157,1.157,0,0,1-.562-1.14l1.691-13.533H4.868A4.874,4.874,0,0,1,0,56.789V4.868A4.874,4.874,0,0,1,4.868,0H67.915a4.874,4.874,0,0,1,4.868,4.868V56.789a4.874,4.874,0,0,1-4.868,4.868H33.059L12.965,76.27a1.151,1.151,0,0,1-.681.221M4.868,2.318a2.553,2.553,0,0,0-2.55,2.55V56.789a2.553,2.553,0,0,0,2.55,2.55h9.272a1.156,1.156,0,0,1,1.15,1.3L13.767,72.821,32,59.559a1.16,1.16,0,0,1,.681-.221H67.915a2.553,2.553,0,0,0,2.55-2.55V4.868a2.553,2.553,0,0,0-2.55-2.55Z" fill="#262626"/>
      <path id="Trazado_873634" data-name="Trazado 873634" d="M32.12,45.4C16.267,45.4,5.6,27.058,5.152,26.279a1.163,1.163,0,0,1,0-1.153C5.6,24.347,16.267,6,32.12,6S58.639,24.347,59.087,25.125a1.173,1.173,0,0,1,0,1.153C58.639,27.058,47.971,45.4,32.12,45.4M7.515,25.7C9.44,28.775,19.11,43.086,32.12,43.086S54.8,28.775,56.723,25.7C54.8,22.63,45.128,8.318,32.12,8.318S9.44,22.63,7.515,25.7" transform="translate(4.271 5.126)" fill="#262626"/>
      <path id="Trazado_873635" data-name="Trazado 873635" d="M23.576,29.152a8.576,8.576,0,1,1,8.576-8.576,1.159,1.159,0,1,1-2.318,0,6.258,6.258,0,1,0-6.258,6.258,1.159,1.159,0,1,1,0,2.318" transform="translate(12.815 10.252)" fill="#262626"/>
    </g>
  </g>
</svg>
