<svg xmlns="http://www.w3.org/2000/svg" width="179.782" height="173.668" viewBox="0 0 179.782 173.668">
  <g id="logo-sena-naranja.43e61d0f" transform="translate(0)">
    <g id="Grupo_1099559" data-name="Grupo 1099559" transform="translate(0 0)">
      <path id="Trazado_873656" data-name="Trazado 873656" d="M90.61.8a19.416,19.416,0,1,0,19.416,19.416A19.336,19.336,0,0,0,90.61.8Zm25.169,44.945V63.724L99.959,45.745H85.216V71.994H96V54.734l15.1,17.259h15.1V45.745Zm-66.879,0h0l-.36,26.248H80.183V66.241H60.047V61.207H78.025V55.454l-17.619.36V51.858H79.463V46.1L48.9,45.745Zm109.307,0H145.623L127.645,71.994h11.506l2.876-5.034h18.338l2.876,5.034h12.225Zm-130.521,0H25.529a34.885,34.885,0,0,0-6.113.36,23.865,23.865,0,0,0-7.191,2.157A5.408,5.408,0,0,0,8.63,53.3a4.324,4.324,0,0,0,.719,2.877c.36.36.36.719.719,1.079a12.1,12.1,0,0,0,6.113,2.877,73.641,73.641,0,0,0,8.63,1.8L30.2,63l2.157,1.079a1.094,1.094,0,0,1,0,1.438h0a8.038,8.038,0,0,1-3.6,1.079H23.372c-2.157-.36-3.236-1.079-3.6-2.157V63H8.63v.36a2.694,2.694,0,0,0,.36,1.8c.719,2.877,2.877,4.674,6.832,5.753a27.755,27.755,0,0,0,5.393.719h7.551c8.27-.36,13.663-2.157,15.461-5.393a6.666,6.666,0,0,0,.719-2.517,5.8,5.8,0,0,0-1.079-3.236,7.157,7.157,0,0,0-4.315-2.877,36.511,36.511,0,0,0-8.989-2.157,42.416,42.416,0,0,1-7.191-1.438l-2.157-1.079v-.719c.36-.719,1.8-1.079,3.6-1.438h4.315A4.083,4.083,0,0,1,32,51.858c.36.36.36.719.719,1.079,0,.36,0,.36.36.36H43.867v-.36a3.242,3.242,0,0,0-.36-1.8q-1.079-4.315-9.708-5.393Zm123.33,6.472,5.753,9.349H145.263Zm-67.6,25.169L0,77.747V91.41H26.967c25.889,0,26.967,0,27.686.36a3.667,3.667,0,0,1,1.8,2.877c.36,2.157.719,0-20.136,35.956L24.091,151.817l10.068,9.349,49.26-83.778Zm12.944.36,49.62,83.419,10.068-9.349L143.466,130.6c-20.855-35.6-20.5-33.8-20.136-35.956a3.2,3.2,0,0,1,1.8-2.877c.719-.36,1.8-.36,27.686-.36h26.967V77.747ZM89.531,92.129,44.586,168.716l11.866,5.393L81.98,130.243l4.315-7.551c.719-1.079,1.079-1.438,3.236-1.438a3.5,3.5,0,0,1,3.236,1.438l4.674,7.91,26.248,43.867,11.866-6.832L89.531,92.129Z" transform="translate(0 -0.8)" fill="#ff6b00" fill-rule="evenodd"/>
    </g>
  </g>
</svg>
