<svg xmlns="http://www.w3.org/2000/svg" width="154.762" height="154.785" viewBox="0 0 154.762 154.785">
  <g id="pepsi.36af5a16" transform="translate(-38.672 -23.371)">
    <g id="Grupo_1099561" data-name="Grupo 1099561" transform="translate(38.672 23.371)">
      <g id="Grupo_1099560" data-name="Grupo 1099560" transform="translate(0 0)">
        <path id="Trazado_873657" data-name="Trazado 873657" d="M4382.772,269.039a77.377,77.377,0,0,1-136.756,49.624,76.022,76.022,0,0,1-6.286-8.683,77.381,77.381,0,1,1,143.042-40.941Z" transform="translate(-4228.01 -191.65)" fill="#fff"/>
        <path id="Trazado_873658" data-name="Trazado 873658" d="M4350.321,209.7c-32.424,83.25-81.824,98.327-107.166,100.19A74.449,74.449,0,0,1,4350.321,209.7Z" transform="translate(-4228.098 -191.741)" fill="#ee3e42"/>
        <path id="Trazado_873659" data-name="Trazado 873659" d="M4380.516,270.075a74.455,74.455,0,0,1-131.225,48.208c11.991-5.744,35.955-9.7,40.534-10.643,22.867-4.706,52.661-8.45,66.33-29.92,9.246-14.523,10.575-33.568,10.1-51.39A74.007,74.007,0,0,1,4380.516,270.075Z" transform="translate(-4228.645 -192.686)" fill="#0069aa"/>
        <path id="Trazado_873660" data-name="Trazado 873660" d="M4379.971,269.129a74.495,74.495,0,1,1-74.495-74.5,74.454,74.454,0,0,1,74.495,74.5Z" transform="translate(-4228.099 -191.74)" fill="none"/>
      </g>
    </g>
  </g>
</svg>
