<svg xmlns="http://www.w3.org/2000/svg" xmlns:xlink="http://www.w3.org/1999/xlink" width="64.7" height="77.015" viewBox="0 0 64.7 77.015">
  <defs>
    <clipPath id="clip-path">
      <rect id="Rectángulo_402011" data-name="Rectángulo 402011" width="61.943" height="74.543" fill="#636363"/>
    </clipPath>
    <clipPath id="clip-path-2">
      <rect id="Rectángulo_401997" data-name="Rectángulo 401997" width="61.943" height="74.543" transform="translate(0 0)" fill="#636363"/>
    </clipPath>
    <clipPath id="clip-path-3">
      <rect id="Rectángulo_401996" data-name="Rectángulo 401996" width="36.825" height="68.301" transform="translate(10.499 4.138)" fill="#636363"/>
    </clipPath>
    <clipPath id="clip-path-5">
      <rect id="Rectángulo_402002" data-name="Rectángulo 402002" width="20.579" height="70.922" transform="translate(9.786 1.517)" fill="#636363"/>
    </clipPath>
    <clipPath id="clip-path-7">
      <rect id="Rectángulo_402008" data-name="Rectángulo 402008" width="9.625" height="70.283" transform="translate(9.625 2.155)" fill="#636363"/>
    </clipPath>
    <clipPath id="clip-path-8">
      <rect id="Rectángulo_402011-2" data-name="Rectángulo 402011" width="61.943" height="74.543" fill="none"/>
    </clipPath>
    <clipPath id="clip-path-9">
      <rect id="Rectángulo_401997-2" data-name="Rectángulo 401997" width="61.943" height="74.543" transform="translate(0 0)" fill="none"/>
    </clipPath>
    <clipPath id="clip-path-10">
      <rect id="Rectángulo_401996-2" data-name="Rectángulo 401996" width="36.825" height="68.301" transform="translate(10.499 4.138)" fill="none"/>
    </clipPath>
    <clipPath id="clip-path-12">
      <rect id="Rectángulo_402002-2" data-name="Rectángulo 402002" width="20.579" height="70.922" transform="translate(9.786 1.517)" fill="none"/>
    </clipPath>
    <clipPath id="clip-path-14">
      <rect id="Rectángulo_402008-2" data-name="Rectángulo 402008" width="9.625" height="70.283" transform="translate(9.625 2.155)" fill="none"/>
    </clipPath>
  </defs>
  <g id="Grupo_1100939" data-name="Grupo 1100939" transform="translate(11774.92 11885.543)">
    <g id="Grupo_1100910" data-name="Grupo 1100910">
      <g id="Grupo_1100907" data-name="Grupo 1100907" transform="translate(-11772.163 -11883.071)" opacity="0.167">
        <g id="Grupo_1100802" data-name="Grupo 1100802" clip-path="url(#clip-path)">
          <rect id="Rectángulo_401993" data-name="Rectángulo 401993" width="70.283" height="19.25" transform="matrix(0.398, -0.917, 0.917, 0.398, 1.672, 64.772)" fill="#636363"/>
          <rect id="Rectángulo_401994" data-name="Rectángulo 401994" width="36.162" height="19.25" transform="matrix(0.398, -0.917, 0.917, 0.398, 15.262, 33.473)" fill="#636363"/>
          <g id="Grupo_1100791" data-name="Grupo 1100791">
            <g id="Grupo_1100790" data-name="Grupo 1100790" clip-path="url(#clip-path-2)">
              <g id="Grupo_1100789" data-name="Grupo 1100789" opacity="0.3" style="mix-blend-mode: overlay;isolation: isolate">
                <g id="Grupo_1100788" data-name="Grupo 1100788">
                  <g id="Grupo_1100787" data-name="Grupo 1100787" clip-path="url(#clip-path-3)">
                    <rect id="Rectángulo_401995" data-name="Rectángulo 401995" width="70.284" height="9.625" transform="matrix(0.398, -0.917, 0.917, 0.398, 10.498, 68.604)" fill="#636363"/>
                  </g>
                </g>
              </g>
            </g>
          </g>
          <rect id="Rectángulo_401998" data-name="Rectángulo 401998" width="1.916" height="11.083" transform="matrix(0.398, -0.917, 0.917, 0.398, 30.47, 8.703)" fill="#636363"/>
          <rect id="Rectángulo_401999" data-name="Rectángulo 401999" width="70.283" height="19.249" transform="translate(0.281 69.405) rotate(-80.935)" fill="#636363"/>
          <rect id="Rectángulo_402000" data-name="Rectángulo 402000" width="36.162" height="19.25" transform="translate(5.657 35.71) rotate(-80.934)" fill="#636363"/>
          <g id="Grupo_1100796" data-name="Grupo 1100796">
            <g id="Grupo_1100795" data-name="Grupo 1100795" clip-path="url(#clip-path-2)">
              <g id="Grupo_1100794" data-name="Grupo 1100794" opacity="0.3" style="mix-blend-mode: overlay;isolation: isolate">
                <g id="Grupo_1100793" data-name="Grupo 1100793">
                  <g id="Grupo_1100792" data-name="Grupo 1100792" clip-path="url(#clip-path-5)">
                    <rect id="Rectángulo_402001" data-name="Rectángulo 402001" width="70.283" height="9.625" transform="translate(9.784 70.921) rotate(-80.932)" fill="#636363"/>
                  </g>
                </g>
              </g>
            </g>
          </g>
          <rect id="Rectángulo_402004" data-name="Rectángulo 402004" width="1.917" height="11.083" transform="matrix(0.158, -0.988, 0.988, 0.158, 14.325, 7.304)" fill="#636363"/>
          <rect id="Rectángulo_402005" data-name="Rectángulo 402005" width="19.25" height="70.283" transform="translate(0 2.155)" fill="#636363"/>
          <rect id="Rectángulo_402006" data-name="Rectángulo 402006" width="19.25" height="36.161" transform="translate(0 2.155)" fill="#636363"/>
          <g id="Grupo_1100801" data-name="Grupo 1100801">
            <g id="Grupo_1100800" data-name="Grupo 1100800" clip-path="url(#clip-path-2)">
              <path id="Trazado_874475" data-name="Trazado 874475" d="M15.708,64a2.662,2.662,0,1,1-2.662-2.663A2.662,2.662,0,0,1,15.708,64" fill="#636363"/>
              <g id="Grupo_1100799" data-name="Grupo 1100799" opacity="0.3" style="mix-blend-mode: overlay;isolation: isolate">
                <g id="Grupo_1100798" data-name="Grupo 1100798">
                  <g id="Grupo_1100797" data-name="Grupo 1100797" clip-path="url(#clip-path-7)">
                    <rect id="Rectángulo_402007" data-name="Rectángulo 402007" width="9.625" height="70.283" transform="translate(9.625 2.155)" fill="#636363"/>
                  </g>
                </g>
              </g>
              <rect id="Rectángulo_402009" data-name="Rectángulo 402009" width="11.083" height="1.917" transform="translate(4.084 6.655)" fill="#636363"/>
              <path id="Trazado_874476" data-name="Trazado 874476" d="M57.679,51.321a6.784,6.784,0,0,0-1.793-.521,7.906,7.906,0,0,0-8.432,6.1c-.934,4.21,1.926,7.124,4.383,10.1a12.076,12.076,0,0,1,2.756,7.542c-.011-.331,3.7-5.478,4.356-6.672a25.163,25.163,0,0,0,2.812-7.631,9.382,9.382,0,0,0-.41-5.2,7.142,7.142,0,0,0-3.672-3.718" fill="#636363"/>
              <path id="Trazado_874477" data-name="Trazado 874477" d="M50.272,27.357c0-12.357,1.941-22.375,4.336-22.375S58.943,15,58.943,27.357,57,49.732,54.608,49.732s-4.336-10.017-4.336-22.375" fill="#636363"/>
              <path id="Trazado_874478" data-name="Trazado 874478" d="M52.31,46.335h4.6l3.475,7.342H48.835Z" fill="#636363"/>
            </g>
          </g>
        </g>
      </g>
      <g id="Grupo_1100820" data-name="Grupo 1100820" transform="translate(-11774.92 -11885.543)">
        <g id="Grupo_1100802-2" data-name="Grupo 1100802" clip-path="url(#clip-path-8)">
          <rect id="Rectángulo_401993-2" data-name="Rectángulo 401993" width="70.283" height="19.25" transform="matrix(0.398, -0.917, 0.917, 0.398, 1.672, 64.772)" fill="#00b8d4"/>
          <rect id="Rectángulo_401994-2" data-name="Rectángulo 401994" width="36.162" height="19.25" transform="matrix(0.398, -0.917, 0.917, 0.398, 15.262, 33.473)" fill="#0091ea"/>
          <g id="Grupo_1100791-2" data-name="Grupo 1100791">
            <g id="Grupo_1100790-2" data-name="Grupo 1100790" clip-path="url(#clip-path-9)">
              <g id="Grupo_1100789-2" data-name="Grupo 1100789" opacity="0.3" style="mix-blend-mode: overlay;isolation: isolate">
                <g id="Grupo_1100788-2" data-name="Grupo 1100788">
                  <g id="Grupo_1100787-2" data-name="Grupo 1100787" clip-path="url(#clip-path-10)">
                    <rect id="Rectángulo_401995-2" data-name="Rectángulo 401995" width="70.284" height="9.625" transform="matrix(0.398, -0.917, 0.917, 0.398, 10.498, 68.604)" fill="#fff"/>
                  </g>
                </g>
              </g>
            </g>
          </g>
          <rect id="Rectángulo_401998-2" data-name="Rectángulo 401998" width="1.916" height="11.083" transform="matrix(0.398, -0.917, 0.917, 0.398, 30.47, 8.703)" fill="#fff"/>
          <rect id="Rectángulo_401999-2" data-name="Rectángulo 401999" width="70.283" height="19.249" transform="translate(0.281 69.405) rotate(-80.935)" fill="#00b8d4"/>
          <rect id="Rectángulo_402000-2" data-name="Rectángulo 402000" width="36.162" height="19.25" transform="translate(5.657 35.71) rotate(-80.934)" fill="#ffab00"/>
          <g id="Grupo_1100796-2" data-name="Grupo 1100796">
            <g id="Grupo_1100795-2" data-name="Grupo 1100795" clip-path="url(#clip-path-9)">
              <g id="Grupo_1100794-2" data-name="Grupo 1100794" opacity="0.3" style="mix-blend-mode: overlay;isolation: isolate">
                <g id="Grupo_1100793-2" data-name="Grupo 1100793">
                  <g id="Grupo_1100792-2" data-name="Grupo 1100792" clip-path="url(#clip-path-12)">
                    <rect id="Rectángulo_402001-2" data-name="Rectángulo 402001" width="70.283" height="9.625" transform="translate(9.784 70.921) rotate(-80.932)" fill="#fff"/>
                  </g>
                </g>
              </g>
            </g>
          </g>
          <rect id="Rectángulo_402004-2" data-name="Rectángulo 402004" width="1.917" height="11.083" transform="matrix(0.158, -0.988, 0.988, 0.158, 14.325, 7.304)" fill="#fff"/>
          <rect id="Rectángulo_402005-2" data-name="Rectángulo 402005" width="19.25" height="70.283" transform="translate(0 2.155)" fill="#00b8d4"/>
          <rect id="Rectángulo_402006-2" data-name="Rectángulo 402006" width="19.25" height="36.161" transform="translate(0 2.155)" fill="#dd2c00"/>
          <g id="Grupo_1100801-2" data-name="Grupo 1100801">
            <g id="Grupo_1100800-2" data-name="Grupo 1100800" clip-path="url(#clip-path-9)">
              <path id="Trazado_874475-2" data-name="Trazado 874475" d="M15.708,64a2.662,2.662,0,1,1-2.662-2.663A2.662,2.662,0,0,1,15.708,64" fill="#dd2c00"/>
              <g id="Grupo_1100799-2" data-name="Grupo 1100799" opacity="0.3" style="mix-blend-mode: overlay;isolation: isolate">
                <g id="Grupo_1100798-2" data-name="Grupo 1100798">
                  <g id="Grupo_1100797-2" data-name="Grupo 1100797" clip-path="url(#clip-path-14)">
                    <rect id="Rectángulo_402007-2" data-name="Rectángulo 402007" width="9.625" height="70.283" transform="translate(9.625 2.155)" fill="#fff"/>
                  </g>
                </g>
              </g>
              <rect id="Rectángulo_402009-2" data-name="Rectángulo 402009" width="11.083" height="1.917" transform="translate(4.084 6.655)" fill="#fff"/>
              <path id="Trazado_874476-2" data-name="Trazado 874476" d="M57.679,51.321a6.784,6.784,0,0,0-1.793-.521,7.906,7.906,0,0,0-8.432,6.1c-.934,4.21,1.926,7.124,4.383,10.1a12.076,12.076,0,0,1,2.756,7.542c-.011-.331,3.7-5.478,4.356-6.672a25.163,25.163,0,0,0,2.812-7.631,9.382,9.382,0,0,0-.41-5.2,7.142,7.142,0,0,0-3.672-3.718" fill="#ffab00"/>
              <path id="Trazado_874477-2" data-name="Trazado 874477" d="M50.272,27.357c0-12.357,1.941-22.375,4.336-22.375S58.943,15,58.943,27.357,57,49.732,54.608,49.732s-4.336-10.017-4.336-22.375" fill="#00b8d4"/>
              <path id="Trazado_874478-2" data-name="Trazado 874478" d="M52.31,46.335h4.6l3.475,7.342H48.835Z" fill="#00b8d4"/>
            </g>
          </g>
        </g>
      </g>
    </g>
  </g>
</svg>
