<svg xmlns="http://www.w3.org/2000/svg" xmlns:xlink="http://www.w3.org/1999/xlink" width="97.26" height="83.196" viewBox="0 0 97.26 83.196">
  <defs>
    <clipPath id="clip-path">
      <rect id="Rectángulo_402033" data-name="Rectángulo 402033" width="69.297" height="69.739" fill="none"/>
    </clipPath>
  </defs>
  <g id="Grupo_1100946" data-name="Grupo 1100946" transform="translate(-1077.413 -4386.172)">
    <g id="Grupo_1100942" data-name="Grupo 1100942">
      <path id="Trazado_875594" data-name="Trazado 875594" d="M81.81,72.052c-9.959-1.375-20.48-1.039-29.542,3.314C39.7,81.4,31.445,95.089,31.129,109.028s6.945,27.636,18.163,35.916,26.012,11.215,39.731,8.728c13.834-2.507,26.818-10.635,34.034-22.7,4.627-7.737,6.79-17.291,4.234-25.936a35.433,35.433,0,0,0-8.409-13.822A62.129,62.129,0,0,0,81.81,72.052Z" transform="translate(1046.294 4314.84)" fill="#26aab7"/>
    </g>
    <g id="Grupo_1100824" data-name="Grupo 1100824" transform="translate(1098.175 4392.901)">
      <g id="Grupo_1100823" data-name="Grupo 1100823" clip-path="url(#clip-path)">
        <path id="Trazado_874482" data-name="Trazado 874482" d="M52.863,64.867a3.541,3.541,0,0,1-2.612-.722L5.423,29.2a3.556,3.556,0,0,1-.617-4.979L15.863,10.045a3.547,3.547,0,0,1,4.979-.617L65.665,44.362a3.557,3.557,0,0,1,.617,4.981L55.226,63.528a3.535,3.535,0,0,1-2.363,1.339" transform="translate(2.267 4.846)" fill="#fff"/>
        <path id="Trazado_874483" data-name="Trazado 874483" d="M37.479,66.938A3.548,3.548,0,0,1,33.2,64.32L19.934,9.059a3.545,3.545,0,0,1,2.625-4.278l17.48-4.2A3.544,3.544,0,0,1,44.316,3.2L57.584,58.468a3.548,3.548,0,0,1-2.618,4.278Z" transform="translate(11.077 0.269)" fill="#fff"/>
        <rect id="Rectángulo_402027" data-name="Rectángulo 402027" width="63.931" height="25.071" rx="2.274" transform="translate(1.941 42.351)" fill="#fff"/>
        <rect id="Rectángulo_402028" data-name="Rectángulo 402028" width="24.255" height="11.719" transform="translate(33.668 19.578) rotate(-12.746)" fill="#fcd769"/>
        <rect id="Rectángulo_402029" data-name="Rectángulo 402029" width="24.256" height="11.716" transform="translate(36.823 33.532) rotate(-12.753)" fill="#77deea"/>
        <rect id="Rectángulo_402030" data-name="Rectángulo 402030" width="24.25" height="11.712" transform="translate(16.142 39.811) rotate(-51.457)" fill="#77deea"/>
        <path id="Trazado_874484" data-name="Trazado 874484" d="M35.329,32.7l-15.183-.57L31.188,19.095l9.167,7.3Z" transform="translate(11.252 10.664)" fill="#83c8ec"/>
        <rect id="Rectángulo_402031" data-name="Rectángulo 402031" width="11.712" height="24.245" transform="translate(15.315 43.06)" fill="#fcd769"/>
        <rect id="Rectángulo_402032" data-name="Rectángulo 402032" width="11.712" height="24.245" transform="translate(29.625 43.06)" fill="#ff8e68"/>
        <path id="Trazado_874485" data-name="Trazado 874485" d="M6.154,69.627A6.162,6.162,0,0,1,0,63.473V46.8a6.164,6.164,0,0,1,6.154-6.161H13.1l-5.48-4.384A6.156,6.156,0,0,1,6.673,27.6L17.092,14.6a6.14,6.14,0,0,1,8.648-.957l5.106,4.047-1.47-6.41a6.159,6.159,0,0,1,4.613-7.381L50.235.16a6.152,6.152,0,0,1,7.383,4.613L66.239,42.18l-.118.026.3.243a6.137,6.137,0,0,1,1.811,4.35V63.473a6.165,6.165,0,0,1-6.162,6.154ZM13.4,66.544V43.723H6.154A3.084,3.084,0,0,0,3.084,46.8V63.473a3.075,3.075,0,0,0,3.07,3.072ZM26.521,43.723H16.481V66.544h10.04Zm13.2,0H29.6V66.544H39.723ZM62.065,66.544a3.081,3.081,0,0,0,3.078-3.072V46.8a3.086,3.086,0,0,0-3.078-3.076H42.807V66.544Zm-7.651-3.99a7.31,7.31,0,1,1,7.309-7.317,7.313,7.313,0,0,1-7.309,7.317m0-3.084a4.229,4.229,0,1,0-4.225-4.233,4.232,4.232,0,0,0,4.225,4.233M7.04,51.229A1.541,1.541,0,0,1,5.95,48.6L8.53,46.025H10.7a1.53,1.53,0,0,1,0,2.173L8.129,50.777a1.526,1.526,0,0,1-1.089.452m55.7-10.518-2.861-12.4L47.782,31.118l12.007,9.521h2.277ZM16.3,40.639,16,40.4l-.19.237Zm13.9,0L39.763,28.7,31.9,22.462,17.341,40.639Zm16.924,0L50.116,36.9l-7.933-6.292L34.153,40.639Zm7.71,0-2.3-1.819-1.463,1.819ZM15.209,38.375,29.488,20.547l-5.67-4.5a3.067,3.067,0,0,0-4.317.472L9.081,29.53a3.072,3.072,0,0,0,.472,4.317Zm29.862-9.409-.086-.368,14.2-3.287-2.25-9.784L34.7,20.651l.02.092-.006.008ZM34.008,17.647,56.24,12.529,54.611,5.462a3.082,3.082,0,0,0-3.681-2.3L34.684,6.905a3.072,3.072,0,0,0-2.3,3.681Zm2.737-3.937a1.542,1.542,0,0,1-1.089-2.631l2.573-2.573h2.177a1.535,1.535,0,0,1,0,2.179l-2.572,2.572a1.534,1.534,0,0,1-1.089.454" transform="translate(0 0)" fill="#333"/>
      </g>
    </g>
  </g>
</svg>
