<svg xmlns="http://www.w3.org/2000/svg" width="96.922" height="60.022" viewBox="0 0 96.922 60.022">
  <g id="Grupo_1099445" data-name="Grupo 1099445" transform="translate(-233.466 -1019.566)">
    <g id="Grupo_1099444" data-name="Grupo 1099444" transform="translate(233.466 1019.566)">
      <path id="Trazado_873431" data-name="Trazado 873431" d="M382.41,593.473c-.317.047-.623,1.218-1.234,1.827-.449.438-1.015.406-1.305.954-.114.2-.077.55-.2.881-.25.664-1.133.723-1.133,1.447,0,.783.735.932,1.374,1.488.5.444.546.753,1.151.972.516.175,1.283-.406,1.973-.193.568.168,1.11.29,1.238.873.114.538,0,1.37-.7,1.275a7.554,7.554,0,0,0-2.472-.233c-1.492.171-3.19.656-3.357,2.318a1.908,1.908,0,0,0,2.165,1.8c.767-.15.406-1.056.812-1.5.548-.562,3.653,1.965,6.533,1.965a3.766,3.766,0,0,0,3.014-1.246c.083-.071.187-.225.317-.236a1.133,1.133,0,0,1,.406.181c2.322,1.865,4.078,5.612,12.614,5.654a5.755,5.755,0,0,1,3.684,1.6,10.122,10.122,0,0,1,2.145,3.808,20.325,20.325,0,0,0,4.7,6.661c.128.126,2.03,1.611,2.192,1.723a.925.925,0,0,1,.116.538c-.057,1.421-.262,5.533,2.807,5.717.749.039.554-.489.554-.852a4.3,4.3,0,0,1,.246-2.163c.518-1.015-1.1-1.474-1.049-3.653.034-1.624-1.333-1.35-2.03-2.59a3.349,3.349,0,0,1-.729-1.979,17.01,17.01,0,0,0-1.654-8.991c-.471-.609-.858-.84-.428-1.12a7.885,7.885,0,0,0,3.142-3.266c1.362-3.2,2.588-6.125,4.274-7.412a12.476,12.476,0,0,1,1.747-1.173,11.462,11.462,0,0,0,2.864-1.64,2.553,2.553,0,0,0,.609-3.069c-.865-1.1-2.356-.227-3.016.164-4.709,2.795-5.4,7.723-7.033,10.554a7.6,7.6,0,0,1-5.307,4.059,9.431,9.431,0,0,1-4.465-.85,22.561,22.561,0,0,1-6.2-4.088c-.995-.767-8.713-8.345-14.968-8.654,0,0-.777-1.555-.972-1.581-.457-.059-.925.927-1.26,1.043s-.846-1.068-1.165-1.015Z" transform="translate(-330.148 -593.303)" fill="#12263f" fill-rule="evenodd"/>
      <path id="Trazado_873432" data-name="Trazado 873432" d="M335.4,654.59a1.114,1.114,0,0,1-1.09-1.094v-19.51h-6.43V655.5a1.912,1.912,0,0,0,1.9,1.914h11.24a1.9,1.9,0,0,0,1.9-1.914V633.986H336.5V653.5a1.116,1.116,0,0,1-1.092,1.094Z" transform="translate(-310.674 -609.193)" fill="#12263f" fill-rule="evenodd"/>
      <path id="Trazado_873433" data-name="Trazado 873433" d="M367.971,633.986h-9.73a2.094,2.094,0,0,0-2.09,2.1V657.4h6.436V637.85a1.092,1.092,0,0,1,2.184-.016v19.573h6.409V637.834a1.09,1.09,0,1,1,2.18.016v19.555h6.434V636.095a2.095,2.095,0,0,0-2.091-2.1Z" transform="translate(-321.715 -609.193)" fill="#12263f" fill-rule="evenodd"/>
      <path id="Trazado_873434" data-name="Trazado 873434" d="M312.56,651.52h-6.495v5.886h-6.428V633.986H312.6a2.076,2.076,0,0,1,2.066,2.109v13.314a2.1,2.1,0,0,1-2.109,2.111Zm-4.315-13.629a1.1,1.1,0,0,0-1.088-1.114h-1.1v11.851h1.092a1.086,1.086,0,0,0,1.088-1.1v-9.637Z" transform="translate(-299.638 -609.193)" fill="#12263f" fill-rule="evenodd"/>
      <path id="Trazado_873435" data-name="Trazado 873435" d="M432.225,666.016a2.868,2.868,0,1,1-.847-2.047A2.866,2.866,0,0,1,432.225,666.016Zm-2.894-2.46a2.415,2.415,0,1,0,.041,0Z" transform="translate(-349.196 -620.58)" fill="#12263f" fill-rule="evenodd"/>
      <path id="Trazado_873436" data-name="Trazado 873436" d="M431.9,668.473h-.767l-.986-1.313v1.313h-.625v-3.32h.658c.9,0,1.372.337,1.372.986a.968.968,0,0,1-.672.929l-.047.016,1.07,1.388Zm-1.646-1.853c.446,0,.682-.158.682-.475,0-.282-.227-.426-.664-.426h-.128v.9Z" transform="translate(-350.375 -621.369)" fill="#12263f" fill-rule="evenodd"/>
      <path id="Trazado_873437" data-name="Trazado 873437" d="M407.142,657.4v-5.886h-2.184V657.4h-6.424V636.091a2.093,2.093,0,0,1,2.088-2.1h10.852a2.094,2.094,0,0,1,2.092,2.1V657.4Zm0-8.78V637.838a1.092,1.092,0,0,0-2.184.016v10.769Z" transform="translate(-338.273 -609.189)" fill="#12263f" fill-rule="evenodd"/>
      <path id="Trazado_873438" data-name="Trazado 873438" d="M299.935,687.608v-6.434h.719v.609a1.745,1.745,0,0,1,.574-.532,1.568,1.568,0,0,1,.775-.179,1.844,1.844,0,0,1,1.051.307,1.873,1.873,0,0,1,.688.865,3.147,3.147,0,0,1,.233,1.218,3.1,3.1,0,0,1-.258,1.285,1.948,1.948,0,0,1-1.772,1.179,1.481,1.481,0,0,1-.706-.166,1.608,1.608,0,0,1-.513-.42V687.6Zm.712-4.082a2.029,2.029,0,0,0,.363,1.327,1.118,1.118,0,0,0,.881.428,1.139,1.139,0,0,0,.9-.445,2.109,2.109,0,0,0,.375-1.376,2.056,2.056,0,0,0-.365-1.331,1.1,1.1,0,0,0-.873-.442,1.136,1.136,0,0,0-.893.471,2.106,2.106,0,0,0-.388,1.37Z" transform="translate(-299.754 -627.585)" fill="#12263f" fill-rule="evenodd"/>
      <path id="Trazado_873439" data-name="Trazado 873439" d="M318.518,685.9v-.682a1.705,1.705,0,0,1-1.478.787,1.9,1.9,0,0,1-.769-.156,1.265,1.265,0,0,1-.53-.406,1.465,1.465,0,0,1-.244-.585,4.058,4.058,0,0,1-.049-.737v-2.88h.787v2.58a4.658,4.658,0,0,0,.049.834.834.834,0,0,0,.314.489.985.985,0,0,0,.6.176,1.3,1.3,0,0,0,.666-.18,1.015,1.015,0,0,0,.44-.5,2.485,2.485,0,0,0,.13-.909v-2.492h.787v4.652Z" transform="translate(-305.817 -627.659)" fill="#12263f" fill-rule="evenodd"/>
      <path id="Trazado_873440" data-name="Trazado 873440" d="M331.025,685.826v-4.652h.7v.651a1.666,1.666,0,0,1,.583-.55,1.638,1.638,0,0,1,.828-.2,1.528,1.528,0,0,1,.846.215,1.142,1.142,0,0,1,.467.609,1.674,1.674,0,0,1,1.437-.812,1.421,1.421,0,0,1,1.066.384,1.638,1.638,0,0,1,.371,1.179v3.195h-.783V682.9a2.16,2.16,0,0,0-.077-.682.679.679,0,0,0-.278-.335.878.878,0,0,0-.475-.128,1.1,1.1,0,0,0-.812.327,1.439,1.439,0,0,0-.325,1.043v2.7h-.787V682.8a1.33,1.33,0,0,0-.2-.79.729.729,0,0,0-.631-.264,1.13,1.13,0,0,0-.609.176.986.986,0,0,0-.406.512,2.874,2.874,0,0,0-.128.972v2.413Z" transform="translate(-311.9 -627.585)" fill="#12263f" fill-rule="evenodd"/>
      <path id="Trazado_873441" data-name="Trazado 873441" d="M353.505,685.247a2.978,2.978,0,0,1-.844.526,2.452,2.452,0,0,1-.871.152,1.69,1.69,0,0,1-1.177-.373,1.24,1.24,0,0,1-.406-.956,1.267,1.267,0,0,1,.156-.625,1.283,1.283,0,0,1,.406-.453,1.922,1.922,0,0,1,.568-.26,5.569,5.569,0,0,1,.7-.118,7.172,7.172,0,0,0,1.406-.272v-.2a.865.865,0,0,0-.223-.678,1.309,1.309,0,0,0-.9-.268,1.4,1.4,0,0,0-.822.2,1.2,1.2,0,0,0-.392.692l-.771-.108a1.923,1.923,0,0,1,.345-.8,1.511,1.511,0,0,1,.7-.469,3.1,3.1,0,0,1,1.055-.164,2.8,2.8,0,0,1,.966.14,1.3,1.3,0,0,1,.55.353,1.27,1.27,0,0,1,.246.538,4.554,4.554,0,0,1,.039.727v1.051a10.983,10.983,0,0,0,.051,1.39,1.739,1.739,0,0,0,.2.56h-.824a1.665,1.665,0,0,1-.156-.574Zm-.065-1.762a5.729,5.729,0,0,1-1.287.3,2.938,2.938,0,0,0-.688.158.688.688,0,0,0-.183,1.157,1.03,1.03,0,0,0,.7.2,1.622,1.622,0,0,0,.812-.2,1.217,1.217,0,0,0,.522-.546,1.885,1.885,0,0,0,.128-.787v-.29Z" transform="translate(-319.39 -627.582)" fill="#12263f" fill-rule="evenodd"/>
      <path id="Trazado_873442" data-name="Trazado 873442" d="M366.555,688.3v-.9h.9v.9Z" transform="translate(-325.779 -630.063)" fill="#12263f" fill-rule="evenodd"/>
      <path id="Trazado_873443" data-name="Trazado 873443" d="M380.52,684.123l.775.1a2,2,0,0,1-.649,1.254,1.893,1.893,0,0,1-1.287.453,2,2,0,0,1-1.534-.623,2.529,2.529,0,0,1-.583-1.788,3.248,3.248,0,0,1,.25-1.319,1.743,1.743,0,0,1,.761-.849,2.244,2.244,0,0,1,1.108-.282,1.93,1.93,0,0,1,1.24.384,1.758,1.758,0,0,1,.609,1.088l-.767.118a1.28,1.28,0,0,0-.388-.706,1.014,1.014,0,0,0-.672-.235,1.218,1.218,0,0,0-.968.428,2.03,2.03,0,0,0-.371,1.349,2.093,2.093,0,0,0,.359,1.364,1.172,1.172,0,0,0,.938.424,1.1,1.1,0,0,0,.775-.286,1.406,1.406,0,0,0,.394-.877Z" transform="translate(-329.957 -627.588)" fill="#12263f" fill-rule="evenodd"/>
      <path id="Trazado_873444" data-name="Trazado 873444" d="M391.879,683.5a2.391,2.391,0,0,1,.719-1.914,2.166,2.166,0,0,1,1.461-.518,2.083,2.083,0,0,1,1.569.629,2.387,2.387,0,0,1,.609,1.735,3.078,3.078,0,0,1-.27,1.421,1.906,1.906,0,0,1-.783.8,2.28,2.28,0,0,1-1.124.284,2.088,2.088,0,0,1-1.579-.627,2.494,2.494,0,0,1-.609-1.8Zm.812,0a1.978,1.978,0,0,0,.39,1.338,1.3,1.3,0,0,0,1.959,0,2.03,2.03,0,0,0,.39-1.362,1.92,1.92,0,0,0-.392-1.307,1.3,1.3,0,0,0-1.955,0,1.972,1.972,0,0,0-.39,1.336Z" transform="translate(-335.676 -627.588)" fill="#12263f" fill-rule="evenodd"/>
      <path id="Trazado_873445" data-name="Trazado 873445" d="M407.9,685.826v-4.652h.7v.651a1.667,1.667,0,0,1,.583-.55,1.639,1.639,0,0,1,.828-.2,1.525,1.525,0,0,1,.846.215,1.147,1.147,0,0,1,.467.609,1.672,1.672,0,0,1,1.437-.812,1.421,1.421,0,0,1,1.065.383,1.638,1.638,0,0,1,.371,1.179v3.195h-.783V682.9a2.165,2.165,0,0,0-.077-.682.675.675,0,0,0-.278-.335.878.878,0,0,0-.475-.128,1.1,1.1,0,0,0-.812.327,1.439,1.439,0,0,0-.325,1.043v2.7h-.787V682.8a1.33,1.33,0,0,0-.2-.79.729.729,0,0,0-.631-.264,1.129,1.129,0,0,0-.609.176.986.986,0,0,0-.406.512,2.874,2.874,0,0,0-.126.972v2.413Z" transform="translate(-341.93 -627.586)" fill="#12263f" fill-rule="evenodd"/>
    </g>
  </g>
</svg>
