<svg xmlns="http://www.w3.org/2000/svg" xmlns:xlink="http://www.w3.org/1999/xlink" width="97.26" height="84.468" viewBox="0 0 97.26 84.468">
  <defs>
    <clipPath id="clip-path">
      <rect id="Rectángulo_402038" data-name="Rectángulo 402038" width="71.187" height="77.74" fill="none"/>
    </clipPath>
  </defs>
  <g id="Grupo_1100941" data-name="Grupo 1100941" transform="translate(-779.74 -4384.9)">
    <path id="Trazado_875593" data-name="Trazado 875593" d="M81.81,72.052c-9.959-1.375-20.48-1.039-29.542,3.314C39.7,81.4,31.445,95.089,31.129,109.028s6.945,27.636,18.163,35.916,26.012,11.215,39.731,8.728c13.834-2.507,26.818-10.635,34.034-22.7,4.627-7.737,6.79-17.291,4.234-25.936a35.433,35.433,0,0,0-8.409-13.822A62.129,62.129,0,0,0,81.81,72.052Z" transform="translate(748.621 4314.84)" fill="#26aab7"/>
    <g id="Grupo_1100827" data-name="Grupo 1100827" transform="translate(785.949 4384.9)">
      <rect id="Rectángulo_402034" data-name="Rectángulo 402034" width="8.548" height="8.544" transform="translate(16.39 9.877) rotate(-52.567)" fill="#ff8e68"/>
      <rect id="Rectángulo_402035" data-name="Rectángulo 402035" width="8.546" height="8.541" transform="translate(19.636 33.939) rotate(-52.543)" fill="#77cfd7"/>
      <rect id="Rectángulo_402036" data-name="Rectángulo 402036" width="8.548" height="8.544" transform="translate(28.042 69.468) rotate(-52.567)" fill="#ffd154"/>
      <rect id="Rectángulo_402037" data-name="Rectángulo 402037" width="8.544" height="8.543" transform="matrix(0.608, -0.794, 0.794, 0.608, 52.109, 28.019)" fill="#9ed8ff"/>
      <g id="Grupo_1100826" data-name="Grupo 1100826" transform="translate(0 0)">
        <g id="Grupo_1100825" data-name="Grupo 1100825" clip-path="url(#clip-path)">
          <path id="Trazado_874486" data-name="Trazado 874486" d="M35.069,77.74a1.536,1.536,0,0,1-.847-.3l-8.664-6.346a1.538,1.538,0,0,1-.33-2.146l2.482-3.384-.327-.293a25.605,25.605,0,0,1-7.526-18.162c0-.769.03-1.536.106-2.292L6.712,63.558l.227.293a4,4,0,0,1,.3,1.47A3.618,3.618,0,1,1,3.62,61.7l.6.061L20.973,37.982l-3.445-2.53a1.534,1.534,0,0,1-.33-2.146l6.347-8.664a1.545,1.545,0,0,1,2.148-.329l2.353,1.725.779-1.457.841-3a7.867,7.867,0,0,0-.956-4.974l-1.483-1.854-.433-.329L24.57,17.453a1.5,1.5,0,0,1-1,.61,1.541,1.541,0,0,1-1.145-.281l-8.658-6.346a1.528,1.528,0,0,1-.33-2.146L19.786.626A1.533,1.533,0,0,1,21.93.3l8.663,6.346a1.544,1.544,0,0,1,.33,2.153l-2.3,3.134.209.133a10.8,10.8,0,0,1,3.865,6.9l.017,2.152,10.561-15-.335-.45a4.054,4.054,0,0,1-.287-1.476,3.618,3.618,0,1,1,3.6,3.622l-.382-.038-11.5,16.322,4.889-1.878a25.86,25.86,0,0,1,10.17-.469l3.5.805,2.754-3.683a1.523,1.523,0,0,1,2.142-.323l8.663,6.347a1.528,1.528,0,0,1,.329,2.146l-2.187,2.987.694.756a25.665,25.665,0,0,1-19.8,42,26.024,26.024,0,0,1-5.184-.518l-.342-.091-3.628,4.944a1.514,1.514,0,0,1-1.024.61l-.256.019ZM34.8,74.057l4.531-6.182-6.183-4.531-4.536,6.184ZM45.52,69.7a22.594,22.594,0,0,0,19.6-33.833l-2.169-3.121-.178-.2-2.3,3.151a1.555,1.555,0,0,1-1,.6,1.5,1.5,0,0,1-1.143-.281l-8.67-6.346a1.536,1.536,0,0,1-.327-2.146l1.694-2.305-.95-.243-1.72-.269-1.061-.1L45.52,24.52A22.471,22.471,0,0,0,35,27.116l-2.938,1.859,2.3,1.69a1.525,1.525,0,0,1,.329,2.139l-6.346,8.67a1.536,1.536,0,0,1-1,.61,1.566,1.566,0,0,1-1.141-.285l-2.184-1.591-.065.194a22.641,22.641,0,0,0,2.84,19.334l2.756,3.341,2.042-2.792a1.537,1.537,0,0,1,2.148-.329L42.385,66.3a1.538,1.538,0,0,1,.335,2.146l-.7.957,1.187.19Zm-41.9-3.25a1.135,1.135,0,1,0-1.14-1.134,1.135,1.135,0,0,0,1.14,1.134m23.145-28.04L31.3,32.233,25.121,27.7l-4.538,6.183ZM58.9,32.641l4.525-6.182-6.183-4.531-4.528,6.184ZM23.009,14.4l4.53-6.189L21.351,3.68,16.814,9.862ZM46.275,5.326a1.134,1.134,0,1,0-1.14-1.14,1.142,1.142,0,0,0,1.14,1.14" transform="translate(0 0)" fill="#333"/>
        </g>
      </g>
    </g>
  </g>
</svg>
