<svg xmlns="http://www.w3.org/2000/svg" xmlns:xlink="http://www.w3.org/1999/xlink" width="97.26" height="83.196" viewBox="0 0 97.26 83.196">
  <defs>
    <clipPath id="clip-path">
      <rect id="Rectángulo_402039" data-name="Rectángulo 402039" width="82.537" height="59.546" fill="none"/>
    </clipPath>
  </defs>
  <g id="Grupo_1100943" data-name="Grupo 1100943" transform="translate(-435.852 -4835.8)">
    <path id="Trazado_875597" data-name="Trazado 875597" d="M81.81,72.052c-9.959-1.375-20.48-1.039-29.542,3.314C39.7,81.4,31.445,95.089,31.129,109.028s6.945,27.636,18.163,35.916,26.012,11.215,39.731,8.728c13.834-2.507,26.818-10.635,34.034-22.7,4.627-7.737,6.79-17.291,4.234-25.936a35.433,35.433,0,0,0-8.409-13.822A62.129,62.129,0,0,0,81.81,72.052Z" transform="translate(404.733 4764.468)" fill="#26aab7"/>
    <g id="Grupo_1100830" data-name="Grupo 1100830" transform="translate(444.331 4847.28)">
      <path id="Trazado_874487" data-name="Trazado 874487" d="M1.152,57.417,20.949.96h9.219l18.61,55.646H37.953l-4.923-11.9H15.276L12.09,57.417ZM29.722,36.66l-4.21-17.542L19.429,35.941Z" transform="translate(0.411 0.342)" fill="#ffd154"/>
      <g id="Grupo_1100829" data-name="Grupo 1100829" transform="translate(0 0)">
        <g id="Grupo_1100828" data-name="Grupo 1100828" clip-path="url(#clip-path)">
          <path id="Trazado_874488" data-name="Trazado 874488" d="M45.689,53.7c-4.432.091-8.329-2.959-11.275-11.6-.532-10.56,8.681-13.651,22.459-13.24,3.822-9.133-4.991-8.7-17.267-5.638L37.013,15.08l10.372-1.874c6.667-.509,12.663.023,17.182,2.856,4.706,4.158,4.472,13.452,3.044,23.978a28.105,28.105,0,0,0,.9,12.619L60,52.481l-1.612-4.747c-4.461,3.331-8.79,5.873-12.7,5.964m3.536-9.482q3.008.163,7.916-3.37v-5.1c-7.916-.422-14.656-.148-11.452,5.992a4.053,4.053,0,0,0,3.536,2.473" transform="translate(12.267 4.649)" fill="#fcd769"/>
          <path id="Trazado_874489" data-name="Trazado 874489" d="M58.9,59.548a15.738,15.738,0,0,1-5.541-.925,13,13,0,0,1-2.342-1.155l-.057-.045.011.132A1.6,1.6,0,0,1,49.4,58.914H38.017a1.592,1.592,0,0,1-1.5-1.057l-4.043-11.2H17.751L13.924,57.834a1.593,1.593,0,0,1-1.509,1.08H1.6a1.6,1.6,0,0,1-1.5-2.137L20,1.064A1.61,1.61,0,0,1,21.509,0h7.98a1.6,1.6,0,0,1,1.5,1.064L45.762,42.406l.5-1.439a10.415,10.415,0,0,1,.834-1.553,13.339,13.339,0,0,1,5.278-4.587,24.789,24.789,0,0,1,7.768-2.29,48.869,48.869,0,0,1,7.128-.434l1.08.028.028-.5a6.4,6.4,0,0,0-.566-3.392c-.32-.532-1.3-1.172-3.929-1.172a34.041,34.041,0,0,0-6.233.606,22.126,22.126,0,0,0-5.267,1.53,1.589,1.589,0,0,1-2.192-.954l-2.45-7.665a1.6,1.6,0,0,1,.867-1.943,35.637,35.637,0,0,1,7.854-2.365,50.706,50.706,0,0,1,9.391-.856A22.365,22.365,0,0,1,73.265,16.5a11.476,11.476,0,0,1,7.676,8.242,23.736,23.736,0,0,1,.726,6.1q0,3.529-.24,7.1c-.16,2.319-.246,4.587-.274,6.825q-.035,3.333.194,6.461a23.576,23.576,0,0,0,1.108,5.66,1.6,1.6,0,0,1-1.514,2.1H72.573a1.6,1.6,0,0,1-1.525-1.131l-.891-2.93-.417.445a16.942,16.942,0,0,1-2.747,2.142A14.885,14.885,0,0,1,58.9,59.548m0-3.187a11.739,11.739,0,0,0,6.375-1.532,12.516,12.516,0,0,0,3.9-3.747,1.591,1.591,0,0,1,1.338-.737h.4a1.6,1.6,0,0,1,1.525,1.131L73.756,55.8H78.84L78.6,54.767a28.018,28.018,0,0,1-.44-3.3c-.16-2.176-.228-4.426-.2-6.728s.119-4.633.279-7c.155-2.313.235-4.6.235-6.888a20.811,20.811,0,0,0-.617-5.279,8.328,8.328,0,0,0-5.672-6.06,19.089,19.089,0,0,0-6.34-.9,47.251,47.251,0,0,0-8.779.8,35.836,35.836,0,0,0-5.6,1.507l-.24.1,1.479,4.632,1.069-.349a33.753,33.753,0,0,1,3.3-.771,37.915,37.915,0,0,1,6.809-.657c2.844,0,5.4.646,6.653,2.7,1.085,1.777,1.229,4.375.852,7.386a1.586,1.586,0,0,1-1.651,1.393,50.7,50.7,0,0,0-9.151.343,21.565,21.565,0,0,0-6.768,1.982,10.187,10.187,0,0,0-4.05,3.479,9.45,9.45,0,0,0-1.359,5.254,10.622,10.622,0,0,0,.742,4.09,9.362,9.362,0,0,0,2.091,3.112,9.248,9.248,0,0,0,3.245,2.017,12.407,12.407,0,0,0,4.415.731m-47.632-.646,3.822-11.161a1.587,1.587,0,0,1,1.514-1.08H33.6a1.605,1.605,0,0,1,1.5,1.051l4.039,11.19h8L28.363,3.194H22.628L3.858,55.715ZM62.3,51.1a6.635,6.635,0,0,1-4.683-1.657,6.064,6.064,0,0,1-1.811-4.6A5.124,5.124,0,0,1,57.3,41.1a8.418,8.418,0,0,1,3.405-1.977,18.862,18.862,0,0,1,4.363-.776,28.861,28.861,0,0,1,4.97.08,1.593,1.593,0,0,1,1.439,1.587v5.14a1.55,1.55,0,0,1-.194.765,11.174,11.174,0,0,1-3.119,3.468A9.461,9.461,0,0,1,62.3,51.1m0-3.192a6.316,6.316,0,0,0,3.936-1.057A8.94,8.94,0,0,0,68.1,45l.194-.3V41.515l-.834-.045c-.737-.012-1.463.005-2.158.057a15.362,15.362,0,0,0-3.622.639,5.16,5.16,0,0,0-2.119,1.188A1.95,1.95,0,0,0,59,44.84a2.93,2.93,0,0,0,.8,2.278,3.488,3.488,0,0,0,2.5.79M19.372,37.956a1.589,1.589,0,0,1-1.513-2.091l4-12.144L23.5,19.41a1.592,1.592,0,0,1,1.566-1.3h.393a1.592,1.592,0,0,1,1.566,1.3l1.639,4.233L32.738,35.86a1.6,1.6,0,0,1-1.513,2.1Zm9.637-3.187L25.6,24.545a1.043,1.043,0,0,1-.057-.206l-.286-1.486-.292,1.566a1.165,1.165,0,0,1-.052.2l-3.34,10.151Z" transform="translate(0 -0.001)" fill="#333"/>
        </g>
      </g>
    </g>
  </g>
</svg>
