<svg xmlns="http://www.w3.org/2000/svg" xmlns:xlink="http://www.w3.org/1999/xlink" width="97.26" height="83.196" viewBox="0 0 97.26 83.196">
  <defs>
    <clipPath id="clip-path">
      <rect id="Rectángulo_402042" data-name="Rectángulo 402042" width="75.473" height="69.312" fill="none"/>
    </clipPath>
  </defs>
  <g id="Grupo_1100945" data-name="Grupo 1100945" transform="translate(-1067 -4835.8)">
    <path id="Trazado_875595" data-name="Trazado 875595" d="M81.81,72.052c-9.959-1.375-20.48-1.039-29.542,3.314C39.7,81.4,31.445,95.089,31.129,109.028s6.945,27.636,18.163,35.916,26.012,11.215,39.731,8.728c13.834-2.507,26.818-10.635,34.034-22.7,4.627-7.737,6.79-17.291,4.234-25.936a35.433,35.433,0,0,0-8.409-13.822A62.129,62.129,0,0,0,81.81,72.052Z" transform="translate(1035.881 4764.468)" fill="#26aab7"/>
    <g id="Grupo_1100833" data-name="Grupo 1100833" transform="translate(1077.414 4842.742)">
      <g id="Grupo_1100832" data-name="Grupo 1100832" transform="translate(0 0)" clip-path="url(#clip-path)">
        <path id="Trazado_874493" data-name="Trazado 874493" d="M15.745,66.531a3.2,3.2,0,0,1-3.194-3.2V4.011A3.2,3.2,0,0,1,15.745.817H48.2a3.2,3.2,0,0,1,3.194,3.194V63.33a3.2,3.2,0,0,1-3.194,3.2Z" transform="translate(5.416 0.352)" fill="#fff"/>
        <path id="Trazado_874494" data-name="Trazado 874494" d="M19.158,56.2a2.977,2.977,0,0,1-2.978-2.983V9.61a2.982,2.982,0,0,1,2.978-2.983H41.982A2.992,2.992,0,0,1,44.971,9.61V53.217A2.987,2.987,0,0,1,41.982,56.2Z" transform="translate(6.983 2.859)" fill="#ff8e68"/>
        <path id="Trazado_874495" data-name="Trazado 874495" d="M29.32,37.924c-16-.807-12.018-19.757.295-16.961,15.857-.21,10.946,17.98-.295,16.961" transform="translate(8.11 8.924)" fill="#fcd769"/>
        <path id="Trazado_874496" data-name="Trazado 874496" d="M21.68,69.313A5.118,5.118,0,0,1,16.563,64.2V5.118A5.124,5.124,0,0,1,21.68,0H53.238a5.12,5.12,0,0,1,5.111,5.118V64.2a5.114,5.114,0,0,1-5.111,5.112Zm31.559-2.538A2.587,2.587,0,0,0,55.823,64.2V5.118a2.588,2.588,0,0,0-2.585-2.58H21.68a2.583,2.583,0,0,0-2.585,2.58V64.2a2.582,2.582,0,0,0,2.585,2.574Zm-17.3-2.223a1.263,1.263,0,1,1,0-2.525h2.719a1.263,1.263,0,1,1,0,2.525Zm-9.992-4.66A4.242,4.242,0,0,1,21.7,55.649V12.042a4.252,4.252,0,0,1,4.249-4.249H48.766a4.248,4.248,0,0,1,4.249,4.249V55.649a4.239,4.239,0,0,1-4.249,4.243Zm22.819-2.52a1.72,1.72,0,0,0,1.724-1.724V12.042a1.715,1.715,0,0,0-1.724-1.718H25.947a1.722,1.722,0,0,0-1.724,1.718V55.649a1.727,1.727,0,0,0,1.724,1.724ZM34.878,48.531c-.2.006-.391.006-.578-.006a8.4,8.4,0,0,1-5.623-2.369,11.649,11.649,0,0,1-3.333-7.739,10.12,10.12,0,0,1,2.73-7.811,8.668,8.668,0,0,1,7.341-2.146l.548.084.115-.621.127-.584-.266.024c-.2,0-.391.006-.578.006-2.266.017-4.1-.531-5.237-1.911a5.022,5.022,0,0,1-1.038-3.273,12.036,12.036,0,0,1,.784-3.834,1.485,1.485,0,0,1,1.639-.958,9.262,9.262,0,0,1,5,2.345A7.664,7.664,0,0,1,38.2,22.222l.054-.115a25.3,25.3,0,0,1,1.724-2.67A1.468,1.468,0,1,1,42.328,21.2a18.861,18.861,0,0,0-3.055,6.044l-.314,1.267.295-.049A8.659,8.659,0,0,1,46.6,30.607a10.094,10.094,0,0,1,2.73,7.811,11.642,11.642,0,0,1-3.333,7.739,8.4,8.4,0,0,1-5.623,2.369,9.835,9.835,0,0,1-2.4-.218l-.633-.163-.633.163a10.472,10.472,0,0,1-1.827.223M11.4,46.68a1.089,1.089,0,0,1-.248-.036C3.61,44.776-.03,37.845,0,31.269c.024-6.6,3.736-13.313,11.229-14.676a1.267,1.267,0,0,1,.445,2.5C5.689,20.168,2.55,25.513,2.525,31.275,2.507,37.007,5.6,42.66,11.765,44.185a1.267,1.267,0,0,1-.361,2.5m52.658,0a1.267,1.267,0,0,1-.355-2.5c6.147-1.525,9.258-7.159,9.239-12.91s-3.152-11.1-9.149-12.187a1.267,1.267,0,1,1,.439-2.5c7.5,1.363,11.21,8.1,11.235,14.676S71.85,44.776,64.321,46.644a1.3,1.3,0,0,1-.259.036M34.856,45.6a8.321,8.321,0,0,0,1.885-.321,1.382,1.382,0,0,1,.586-.047h.024a1.358,1.358,0,0,1,.578.047,5.856,5.856,0,0,0,6.033-1.241A8.77,8.77,0,0,0,46.4,38.273a7.17,7.17,0,0,0-1.844-5.557C43.395,31.6,41.5,30.9,38.526,31.564H38.5l-.062.223a1.454,1.454,0,0,1-1.265.843,1.27,1.27,0,0,1-.15-.006,1.492,1.492,0,0,1-1.3-.982l-.037-.175-.115-.024c-2.651-.452-4.369.235-5.448,1.271a7.191,7.191,0,0,0-1.844,5.557,8.714,8.714,0,0,0,2.435,5.762A5.5,5.5,0,0,0,34.856,45.6M12.024,41.209a1.233,1.233,0,0,1-.259-.031c-4.8-1.192-7.123-5.569-7.118-9.769.03-4.249,2.435-8.486,7.2-9.342a1.261,1.261,0,1,1,.447,2.482c-3.4.621-5.1,3.695-5.118,6.866-.011,3.261,1.754,6.455,5.2,7.311a1.276,1.276,0,0,1,.922,1.53,1.26,1.26,0,0,1-1.278.953m51.43,0a1.254,1.254,0,0,1-1.29-.953,1.275,1.275,0,0,1,.928-1.53c3.46-.856,5.2-4.063,5.2-7.311-.019-3.158-1.712-6.244-5.118-6.866a1.261,1.261,0,0,1,.447-2.482c4.756.856,7.178,5.075,7.2,9.342.024,4.183-2.29,8.576-7.119,9.769a1.1,1.1,0,0,1-.241.031M35.3,24.434c.15,0,.295,0,.452-.006l.1-.006-.145-.507a5.055,5.055,0,0,0-1.253-2.073,5.148,5.148,0,0,0-1.917-1.157l-.283-.09c-.422,1.663-.218,2.555.15,3.006.338.417,1.151.832,2.9.832m12.41-18.1a1.269,1.269,0,1,1,0-2.538h2.719a1.269,1.269,0,0,1,0,2.538Z" transform="translate(0 -0.001)" fill="#333"/>
      </g>
    </g>
  </g>
</svg>
