<svg xmlns="http://www.w3.org/2000/svg" width="190" height="152.067" viewBox="0 0 190 152.067">
  <g id="Grupo_1100950" data-name="Grupo 1100950" transform="translate(-248.5 -501.936)">
    <g id="Grupo_1099741" data-name="Grupo 1099741" transform="translate(248.5 502.121)">
      <g id="Grupo_1099727" data-name="Grupo 1099727" transform="translate(44.755 0)">
        <path id="Trazado_874047" data-name="Trazado 874047" d="M177.959,60h-16.2V43.8h16.2Zm-15.847-.351h15.5v-15.5h-15.5Z" transform="translate(-161.76 -43.8)" fill="#e0e0e0"/>
        <g id="Grupo_1099725" data-name="Grupo 1099725" transform="translate(0.175 0.176)">
          <path id="Trazado_874048" data-name="Trazado 874048" d="M178.106,44.3c.036.036-3.484,3.613-7.859,7.988s-7.953,7.9-7.989,7.859,3.483-3.612,7.859-7.989S178.068,44.263,178.106,44.3Z" transform="translate(-162.259 -44.299)" fill="#e0e0e0"/>
        </g>
        <g id="Grupo_1099726" data-name="Grupo 1099726" transform="translate(0.734 0.455)">
          <path id="Trazado_874049" data-name="Trazado 874049" d="M178.317,60.763a.986.986,0,0,1-.142-.167L177.8,60.1c-.323-.434-.8-1.057-1.391-1.819-1.187-1.527-2.882-3.592-4.881-5.76S167.6,48.5,166.169,47.2c-.713-.653-1.3-1.175-1.7-1.532L164,45.249a.974.974,0,0,1-.153-.155.972.972,0,0,1,.177.126l.486.39c.421.34,1.017.848,1.743,1.49,1.45,1.283,3.394,3.127,5.4,5.3s3.687,4.257,4.849,5.806c.581.774,1.04,1.409,1.346,1.856l.35.516a.968.968,0,0,1,.115.185Z" transform="translate(-163.85 -45.094)" fill="#e0e0e0"/>
        </g>
      </g>
      <g id="Grupo_1099733" data-name="Grupo 1099733" transform="translate(2.369 68.541)">
        <path id="Trazado_874053" data-name="Trazado 874053" d="M50.869,254.953H34.67v-16.2h16.2ZM35.021,254.6h15.5v-15.5h-15.5Z" transform="translate(-34.67 -238.755)" fill="#e0e0e0"/>
        <g id="Grupo_1099731" data-name="Grupo 1099731" transform="translate(0.176 0.176)">
          <path id="Trazado_874054" data-name="Trazado 874054" d="M51.017,239.255c.036.036-3.483,3.613-7.858,7.988s-7.954,7.9-7.989,7.859,3.483-3.612,7.859-7.989S50.981,239.219,51.017,239.255Z" transform="translate(-35.17 -239.255)" fill="#e0e0e0"/>
        </g>
        <g id="Grupo_1099732" data-name="Grupo 1099732" transform="translate(0.737 0.452)">
          <path id="Trazado_874055" data-name="Trazado 874055" d="M51.233,255.715a.966.966,0,0,1-.142-.167l-.378-.5c-.323-.434-.8-1.057-1.391-1.82-1.187-1.526-2.882-3.592-4.881-5.76s-3.926-4.022-5.355-5.327c-.713-.653-1.3-1.175-1.7-1.532l-.464-.416a1.007,1.007,0,0,1-.153-.155,1,1,0,0,1,.177.127l.486.39c.421.34,1.018.848,1.743,1.491,1.45,1.283,3.393,3.127,5.4,5.3s3.687,4.257,4.849,5.805c.582.774,1.041,1.41,1.346,1.857l.35.516a1,1,0,0,1,.115.187Z" transform="translate(-36.766 -240.043)" fill="#e0e0e0"/>
        </g>
      </g>
      <g id="Grupo_1099740" data-name="Grupo 1099740" transform="translate(0 20.909)">
        <path id="Trazado_874062" data-name="Trazado 874062" d="M37.393,114.568h-5.42l-.645,1.494a3.317,3.317,0,0,0-.317,1.234,1.025,1.025,0,0,0,.52.948,4.385,4.385,0,0,0,1.506.272v.419h-5.1v-.418a2.282,2.282,0,0,0,1.358-.684,9.119,9.119,0,0,0,1.313-2.314l5.489-12.245h.215l5.534,12.585a7.65,7.65,0,0,0,1.3,2.252,1.778,1.778,0,0,0,1.087.407v.419H36.8v-.419h.306a2.326,2.326,0,0,0,1.256-.249.6.6,0,0,0,.249-.52,1.394,1.394,0,0,0-.067-.419q-.023-.1-.34-.848Zm-.384-.837-2.287-5.285-2.355,5.285Z" transform="translate(-27.932 -103.273)" fill="#e0e0e0"/>
      </g>
    </g>
    <g id="Grupo_1099790" data-name="Grupo 1099790" transform="translate(322.324 501.936)">
      <g id="Grupo_1099742" data-name="Grupo 1099742" transform="translate(0.171 0.091)">
        <path id="Trazado_874063" data-name="Trazado 874063" d="M354.235,43.533H238.4v99.722h51.575v8.81l8.445-8.81h55.812Z" transform="translate(-238.4 -43.533)" fill="#fff"/>
      </g>
      <g id="Grupo_1099746" data-name="Grupo 1099746" transform="translate(0 0.091)">
        <rect id="Rectángulo_401515" data-name="Rectángulo 401515" width="116.176" height="7.228" fill="#e0e0e0"/>
        <g id="Grupo_1099743" data-name="Grupo 1099743" transform="translate(2.625 2.279)">
          <path id="Trazado_874064" data-name="Trazado 874064" d="M248.525,51.587a1.573,1.573,0,1,1-1.573-1.573,1.573,1.573,0,0,1,1.573,1.573Z" transform="translate(-245.38 -50.014)" fill="#fff"/>
        </g>
        <g id="Grupo_1099744" data-name="Grupo 1099744" transform="translate(7.149 2.279)">
          <path id="Trazado_874065" data-name="Trazado 874065" d="M261.392,51.587a1.573,1.573,0,1,1-1.573-1.573A1.573,1.573,0,0,1,261.392,51.587Z" transform="translate(-258.247 -50.014)" fill="#fff"/>
        </g>
        <g id="Grupo_1099745" data-name="Grupo 1099745" transform="translate(11.672 2.279)">
          <path id="Trazado_874066" data-name="Trazado 874066" d="M274.259,51.587a1.573,1.573,0,1,1-1.573-1.573A1.573,1.573,0,0,1,274.259,51.587Z" transform="translate(-271.114 -50.014)" fill="#fff"/>
        </g>
      </g>
      <g id="Grupo_1099747" data-name="Grupo 1099747" transform="translate(0.078)">
        <path id="Trazado_874067" data-name="Trazado 874067" d="M354.059,143.169c0-.652-.033-39.673-.084-99.806l.084.078-115.823.014.1-.091v6.253c0,33.644-.007,65.463-.01,93.554l-.089-.082,51.569.014h.074v.068c0,3.1,0,5.953,0,8.724l-.121-.044,8.444-8.579.019-.02h.028l55.814-.082-55.813.2.047-.02-8.435,8.586-.121.124v-.167c0-2.771,0-5.624,0-8.724l.074.068-51.571.013h-.089v-.082c0-28.091-.007-59.911-.01-93.554V43.272h.1l115.822.014h.081v.078C354.092,103.5,354.059,142.518,354.059,143.169Z" transform="translate(-238.137 -43.272)" fill="#263238"/>
      </g>
      <g id="Grupo_1099751" data-name="Grupo 1099751" transform="translate(5.979 21.77)">
        <rect id="Rectángulo_401516" data-name="Rectángulo 401516" width="16.421" height="2.306" fill="#e0e0e0"/>
        <g id="Grupo_1099748" data-name="Grupo 1099748" transform="translate(0.057 8.091)">
          <path id="Trazado_874068" data-name="Trazado 874068" d="M287.813,128.3c0,.05-7.327.091-16.363.091s-16.364-.041-16.364-.091,7.325-.092,16.364-.092S287.813,128.248,287.813,128.3Z" transform="translate(-255.086 -128.207)" fill="#263238"/>
        </g>
        <g id="Grupo_1099749" data-name="Grupo 1099749" transform="translate(0.058 17.786)">
          <path id="Trazado_874069" data-name="Trazado 874069" d="M278.014,155.877c0,.051-5.132.091-11.463.091s-11.464-.041-11.464-.091,5.132-.091,11.464-.091S278.014,155.826,278.014,155.877Z" transform="translate(-255.087 -155.785)" fill="#263238"/>
        </g>
        <g id="Grupo_1099750" data-name="Grupo 1099750" transform="translate(0.057 12.552)">
          <path id="Trazado_874070" data-name="Trazado 874070" d="M287.813,140.986c0,.051-7.327.092-16.363.092s-16.364-.041-16.364-.092,7.325-.091,16.364-.091S287.813,140.936,287.813,140.986Z" transform="translate(-255.086 -140.895)" fill="#263238"/>
        </g>
      </g>
      <g id="Grupo_1099762" data-name="Grupo 1099762" transform="translate(12.229 73.316)">
        <g id="Grupo_1099752" data-name="Grupo 1099752" transform="translate(25.379)">
          <path id="Trazado_874071" data-name="Trazado 874071" d="M358.083,265.01h-13.2v-13.2h13.2Zm-12.85-.351h12.5v-12.5h-12.5Z" transform="translate(-344.882 -251.809)" fill="#12263f"/>
        </g>
        <g id="Grupo_1099753" data-name="Grupo 1099753" transform="translate(0.548)">
          <path id="Trazado_874072" data-name="Trazado 874072" d="M287.458,265.01h-13.2v-13.2h13.2Zm-12.85-.351h12.5v-12.5h-12.5Z" transform="translate(-274.257 -251.809)" fill="#12263f"/>
        </g>
        <g id="Grupo_1099754" data-name="Grupo 1099754" transform="translate(0 16.033)">
          <path id="Trazado_874073" data-name="Trazado 874073" d="M286.995,297.5c0,.051-3.2.091-7.149.091s-7.149-.041-7.149-.091,3.2-.091,7.149-.091S286.995,297.453,286.995,297.5Z" transform="translate(-272.697 -297.412)" fill="#263238"/>
        </g>
        <g id="Grupo_1099755" data-name="Grupo 1099755" transform="translate(0.667 18.962)">
          <path id="Trazado_874074" data-name="Trazado 874074" d="M286.993,305.834c0,.051-2.776.092-6.2.092s-6.2-.041-6.2-.092,2.775-.091,6.2-.091S286.993,305.783,286.993,305.834Z" transform="translate(-274.594 -305.742)" fill="#263238"/>
        </g>
        <g id="Grupo_1099756" data-name="Grupo 1099756" transform="translate(25.188 16.033)">
          <path id="Trazado_874075" data-name="Trazado 874075" d="M358.638,297.5c0,.051-3.2.091-7.149.091s-7.149-.041-7.149-.091,3.2-.091,7.149-.091S358.638,297.453,358.638,297.5Z" transform="translate(-344.34 -297.412)" fill="#263238"/>
        </g>
        <g id="Grupo_1099757" data-name="Grupo 1099757" transform="translate(25.855 18.962)">
          <path id="Trazado_874076" data-name="Trazado 874076" d="M358.636,305.834c0,.051-2.776.092-6.2.092s-6.2-.041-6.2-.092,2.775-.091,6.2-.091S358.636,305.783,358.636,305.834Z" transform="translate(-346.237 -305.742)" fill="#263238"/>
        </g>
        <g id="Grupo_1099758" data-name="Grupo 1099758" transform="translate(25.554 0.176)">
          <path id="Trazado_874077" data-name="Trazado 874077" d="M358.232,252.309c.036.036-2.812,2.941-6.359,6.489s-6.454,6.4-6.49,6.359,2.811-2.941,6.359-6.49S358.2,252.272,358.232,252.309Z" transform="translate(-345.382 -252.308)" fill="#12263f"/>
        </g>
        <g id="Grupo_1099759" data-name="Grupo 1099759" transform="translate(26.01 0.401)">
          <path id="Trazado_874078" data-name="Trazado 874078" d="M358.4,265.656c-.005,0-.046-.042-.118-.132l-.309-.4c-.264-.35-.649-.855-1.132-1.472-.964-1.235-2.343-2.908-3.961-4.666s-3.18-3.262-4.335-4.322c-.577-.531-1.048-.955-1.376-1.246l-.374-.34c-.084-.079-.127-.123-.122-.128a.669.669,0,0,1,.146.1l.4.314c.342.274.828.685,1.417,1.2a61.033,61.033,0,0,1,8.312,9.008c.47.629.841,1.145,1.087,1.506l.279.42A.671.671,0,0,1,358.4,265.656Z" transform="translate(-346.676 -252.95)" fill="#12263f"/>
        </g>
        <g id="Grupo_1099760" data-name="Grupo 1099760" transform="translate(0.587 0.956)">
          <path id="Trazado_874079" data-name="Trazado 874079" d="M287.081,254.53c.035.037-2.784,2.754-6.295,6.068s-6.387,5.973-6.421,5.936,2.784-2.753,6.3-6.069S287.047,254.492,287.081,254.53Z" transform="translate(-274.364 -254.529)" fill="#12263f"/>
        </g>
        <g id="Grupo_1099761" data-name="Grupo 1099761" transform="translate(0.9 0.534)">
          <path id="Trazado_874080" data-name="Trazado 874080" d="M287.516,265.757a.672.672,0,0,1-.123-.13l-.324-.394c-.279-.346-.681-.843-1.188-1.45-1.011-1.217-2.454-2.863-4.147-4.583s-3.322-3.184-4.525-4.212c-.6-.515-1.092-.927-1.434-1.208l-.391-.33c-.088-.077-.132-.119-.128-.125a.663.663,0,0,1,.151.1l.411.3c.356.264.86.662,1.473,1.164a60.2,60.2,0,0,1,8.689,8.814c.495.62.885,1.13,1.143,1.489l.3.416a.662.662,0,0,1,.093.15Z" transform="translate(-275.257 -253.326)" fill="#12263f"/>
        </g>
      </g>
      <g id="Grupo_1099773" data-name="Grupo 1099773" transform="translate(69.432 73.119)">
        <g id="Grupo_1099763" data-name="Grupo 1099763" transform="translate(23.615)">
          <path id="Trazado_874081" data-name="Trazado 874081" d="M490.238,264.45h-13.2v-13.2h13.2Zm-12.85-.351h12.5V251.6h-12.5Z" transform="translate(-477.04 -251.249)" fill="#12263f"/>
        </g>
        <g id="Grupo_1099764" data-name="Grupo 1099764" transform="translate(0.546)">
          <path id="Trazado_874082" data-name="Trazado 874082" d="M424.626,264.45h-13.2v-13.2h13.2Zm-12.85-.351h12.5V251.6h-12.5Z" transform="translate(-411.425 -251.249)" fill="#12263f"/>
        </g>
        <g id="Grupo_1099765" data-name="Grupo 1099765" transform="translate(0 16.033)">
          <path id="Trazado_874083" data-name="Trazado 874083" d="M424.167,296.944c0,.05-3.2.092-7.148.092s-7.149-.041-7.149-.092,3.2-.092,7.149-.092S424.167,296.893,424.167,296.944Z" transform="translate(-409.87 -296.852)" fill="#263238"/>
        </g>
        <g id="Grupo_1099766" data-name="Grupo 1099766" transform="translate(0.664 18.962)">
          <path id="Trazado_874084" data-name="Trazado 874084" d="M424.161,305.274c0,.051-2.776.092-6.2.092s-6.2-.041-6.2-.092,2.775-.091,6.2-.091S424.161,305.224,424.161,305.274Z" transform="translate(-411.762 -305.183)" fill="#263238"/>
        </g>
        <g id="Grupo_1099767" data-name="Grupo 1099767" transform="translate(23.424 16.033)">
          <path id="Trazado_874085" data-name="Trazado 874085" d="M490.795,296.944c0,.05-3.2.092-7.149.092s-7.149-.041-7.149-.092,3.2-.092,7.149-.092S490.795,296.893,490.795,296.944Z" transform="translate(-476.497 -296.852)" fill="#263238"/>
        </g>
        <g id="Grupo_1099768" data-name="Grupo 1099768" transform="translate(24.09 18.962)">
          <path id="Trazado_874086" data-name="Trazado 874086" d="M490.793,305.274c0,.051-2.776.092-6.2.092s-6.2-.041-6.2-.092,2.775-.091,6.2-.091S490.793,305.224,490.793,305.274Z" transform="translate(-478.394 -305.183)" fill="#263238"/>
        </g>
        <g id="Grupo_1099769" data-name="Grupo 1099769" transform="translate(23.79 0.176)">
          <path id="Trazado_874087" data-name="Trazado 874087" d="M490.389,251.749c.036.036-2.812,2.941-6.359,6.489s-6.454,6.4-6.49,6.359,2.811-2.941,6.359-6.49S490.353,251.713,490.389,251.749Z" transform="translate(-477.54 -251.748)" fill="#12263f"/>
        </g>
        <g id="Grupo_1099770" data-name="Grupo 1099770" transform="translate(24.246 0.402)">
          <path id="Trazado_874088" data-name="Trazado 874088" d="M490.562,265.1a.649.649,0,0,1-.118-.132l-.309-.4c-.263-.35-.649-.855-1.132-1.471-.964-1.236-2.34-2.909-3.961-4.666s-3.18-3.262-4.336-4.322c-.577-.53-1.048-.955-1.376-1.246l-.374-.34a.089.089,0,1,1,.024-.028l.4.314c.343.274.828.685,1.416,1.2a60.976,60.976,0,0,1,8.312,9.005c.47.629.841,1.145,1.087,1.506l.279.42A.653.653,0,0,1,490.562,265.1Z" transform="translate(-478.835 -252.391)" fill="#12263f"/>
        </g>
        <g id="Grupo_1099771" data-name="Grupo 1099771" transform="translate(0.583 0.956)">
          <path id="Trazado_874089" data-name="Trazado 874089" d="M424.248,253.97c.035.037-2.784,2.754-6.3,6.069s-6.387,5.973-6.421,5.936,2.784-2.753,6.3-6.069S424.214,253.931,424.248,253.97Z" transform="translate(-411.531 -253.969)" fill="#12263f"/>
        </g>
        <g id="Grupo_1099772" data-name="Grupo 1099772" transform="translate(0.897 0.534)">
          <path id="Trazado_874090" data-name="Trazado 874090" d="M424.683,265.2a.671.671,0,0,1-.123-.13l-.324-.394c-.279-.346-.681-.843-1.187-1.45-1.011-1.217-2.454-2.863-4.147-4.583s-3.322-3.184-4.525-4.212c-.6-.515-1.092-.927-1.434-1.208l-.39-.33c-.088-.077-.132-.12-.128-.125a.668.668,0,0,1,.151.1l.411.3c.356.264.86.662,1.473,1.164a60.2,60.2,0,0,1,8.689,8.814c.494.62.884,1.13,1.144,1.489l.3.415A.638.638,0,0,1,424.683,265.2Z" transform="translate(-412.424 -252.767)" fill="#12263f"/>
        </g>
      </g>
      <g id="Grupo_1099788" data-name="Grupo 1099788" transform="translate(60.826 13.988)">
        <path id="Trazado_874091" data-name="Trazado 874091" d="M430.136,127.8H385.4V83.057h44.741Zm-44.391-.351h44.04V83.408H385.747Z" transform="translate(-385.395 -83.057)" fill="#12263f"/>
        <g id="Grupo_1099774" data-name="Grupo 1099774" transform="translate(1.971 1.97)">
          <path id="Trazado_874092" data-name="Trazado 874092" d="M431.7,129.364H391v-40.7h40.7Zm-40.351-.35h40v-40h-40Z" transform="translate(-391 -88.661)" fill="#12263f"/>
        </g>
        <g id="Grupo_1099775" data-name="Grupo 1099775" transform="translate(2.604 14.678)">
          <path id="Trazado_874093" data-name="Trazado 874093" d="M393.079,152.249l-.279-.211,11.972-15.927,8.3,4.607,10.484-15.909.294.194-10.665,16.182-8.312-4.617Z" transform="translate(-392.8 -124.809)" fill="#12263f"/>
        </g>
        <g id="Grupo_1099776" data-name="Grupo 1099776" transform="translate(15.594 8.514)">
          <path id="Trazado_874094" data-name="Trazado 874094" d="M435.113,118a5.363,5.363,0,1,1,5.363-5.363A5.363,5.363,0,0,1,435.113,118Zm0-10.376a5.012,5.012,0,1,0,5.012,5.012A5.012,5.012,0,0,0,435.113,107.622Z" transform="translate(-429.75 -107.272)" fill="#12263f"/>
        </g>
        <g id="Grupo_1099777" data-name="Grupo 1099777" transform="translate(14.292 25.879)">
          <rect id="Rectángulo_401517" data-name="Rectángulo 401517" width="0.663" height="0.663" fill="#12263f"/>
        </g>
        <g id="Grupo_1099778" data-name="Grupo 1099778" transform="translate(22.555 30.451)">
          <rect id="Rectángulo_401518" data-name="Rectángulo 401518" width="0.663" height="0.663" fill="#12263f"/>
        </g>
        <g id="Grupo_1099779" data-name="Grupo 1099779" transform="translate(33.172 14.539)">
          <rect id="Rectángulo_401519" data-name="Rectángulo 401519" width="0.663" height="0.663" fill="#12263f"/>
        </g>
        <g id="Grupo_1099780" data-name="Grupo 1099780" transform="translate(20.626 18.733)">
          <rect id="Rectángulo_401520" data-name="Rectángulo 401520" width="0.663" height="0.663" fill="#12263f"/>
        </g>
        <g id="Grupo_1099781" data-name="Grupo 1099781" transform="translate(20.626 8.319)">
          <rect id="Rectángulo_401521" data-name="Rectángulo 401521" width="0.663" height="0.663" fill="#12263f"/>
        </g>
        <g id="Grupo_1099782" data-name="Grupo 1099782" transform="translate(25.832 13.545)">
          <rect id="Rectángulo_401522" data-name="Rectángulo 401522" width="0.663" height="0.663" transform="translate(0 0.663) rotate(-90)" fill="#12263f"/>
        </g>
        <g id="Grupo_1099783" data-name="Grupo 1099783" transform="translate(15.42 13.545)">
          <rect id="Rectángulo_401523" data-name="Rectángulo 401523" width="0.663" height="0.663" transform="translate(0 0.663) rotate(-90)" fill="#12263f"/>
        </g>
        <g id="Grupo_1099784" data-name="Grupo 1099784" transform="translate(2.412 41.683)">
          <rect id="Rectángulo_401524" data-name="Rectángulo 401524" width="0.663" height="0.663" fill="#12263f"/>
        </g>
        <g id="Grupo_1099785" data-name="Grupo 1099785" transform="translate(33.412 8.415)">
          <path id="Trazado_874095" data-name="Trazado 874095" d="M480.521,120.565c-.051,0-.091-3.039-.091-6.786s.041-6.787.091-6.787.092,3.038.092,6.787S480.571,120.565,480.521,120.565Z" transform="translate(-480.429 -106.992)" fill="#12263f"/>
        </g>
        <g id="Grupo_1099786" data-name="Grupo 1099786" transform="translate(33.258 8.17)">
          <path id="Trazado_874096" data-name="Trazado 874096" d="M480.483,106.541a.245.245,0,1,1-.245-.245A.245.245,0,0,1,480.483,106.541Z" transform="translate(-479.993 -106.296)" fill="#12263f"/>
        </g>
        <g id="Grupo_1099787" data-name="Grupo 1099787" transform="translate(33.258 21.889)">
          <circle id="Elipse_11513" data-name="Elipse 11513" cx="0.245" cy="0.245" r="0.245" transform="translate(0 0)" fill="#12263f"/>
        </g>
      </g>
      <g id="Grupo_1099789" data-name="Grupo 1099789" transform="translate(29.933 66.717)">
        <path id="Trazado_874097" data-name="Trazado 874097" d="M379.154,233.128c0,.051-18.275.091-40.813.091s-40.817-.041-40.817-.091,18.271-.091,40.817-.091S379.154,233.076,379.154,233.128Z" transform="translate(-297.524 -233.036)" fill="#e0e0e0"/>
      </g>
    </g>
    <g id="Grupo_1099815" data-name="Grupo 1099815" transform="translate(391.055 615.604)">
      <g id="Grupo_1099795" data-name="Grupo 1099795" transform="translate(17.421 5.863)">
        <g id="Grupo_1099791" data-name="Grupo 1099791" transform="translate(0.075 0.006)">
          <path id="Trazado_874098" data-name="Trazado 874098" d="M512.094,383.278l.581,26.616-28.925.407-.581-26.616Z" transform="translate(-483.169 -383.278)" fill="#fafafa"/>
        </g>
        <path id="Trazado_874099" data-name="Trazado 874099" d="M511.954,383.27s-.049,0-.14.007l-.406.011-1.571.032-5.921.106-20.885.335.073-.088.59,26.614v0l-.086-.1,28.926-.39-.068.081c-.16-8.015-.293-14.658-.385-19.3-.044-2.324-.077-4.147-.1-5.4-.01-.62-.017-1.1-.023-1.424s0-.494,0-.494.008.159.018.476.022.795.039,1.408c.031,1.244.078,3.061.135,5.377.112,4.658.269,11.318.459,19.354v.08h-.07l-28.925.423h-.084v-.1c-.207-9.61-.4-18.691-.572-26.614v-.086h.075l20.935-.251,5.905-.06,1.557-.012h.4Z" transform="translate(-482.954 -383.264)" fill="#263238"/>
        <g id="Grupo_1099792" data-name="Grupo 1099792" transform="translate(1.108 2.057)">
          <path id="Trazado_874100" data-name="Trazado 874100" d="M486.617,412.759l26.893-.378L513,389.115l-26.893.378Z" transform="translate(-486.109 -389.115)" fill="#167377"/>
        </g>
        <g id="Grupo_1099793" data-name="Grupo 1099793" transform="translate(1.617 11.11)" opacity="0.3">
          <path id="Trazado_874101" data-name="Trazado 874101" d="M487.555,429.455l9.077-14.593,6.016,8.966,3.841-4.892,7.959,10.142Z" transform="translate(-487.555 -414.862)"/>
        </g>
        <g id="Grupo_1099794" data-name="Grupo 1099794" transform="translate(14.699 6.976)" opacity="0.3">
          <path id="Trazado_874102" data-name="Trazado 874102" d="M529.019,405.511a2.273,2.273,0,0,1-2.064,2.467,2.316,2.316,0,0,1-2.171-2.407,2.273,2.273,0,0,1,2.064-2.467A2.316,2.316,0,0,1,529.019,405.511Z" transform="translate(-524.775 -403.103)"/>
        </g>
      </g>
      <g id="Grupo_1099802" data-name="Grupo 1099802" transform="translate(10.185 3.385)">
        <g id="Grupo_1099796" data-name="Grupo 1099796" transform="translate(0.075 0.004)">
          <path id="Trazado_874103" data-name="Trazado 874103" d="M491.516,376.226l.581,26.616-28.925.407-.581-26.616Z" transform="translate(-462.591 -376.226)" fill="#fafafa"/>
        </g>
        <path id="Trazado_874104" data-name="Trazado 874104" d="M491.376,376.22s-.048,0-.141.007l-.406.011-1.571.033-5.921.106-20.885.335.073-.087c.175,7.921.377,17,.59,26.613v0l-.086-.1,28.926-.39-.068.081c-.16-8.014-.293-14.658-.385-19.3-.043-2.324-.077-4.147-.1-5.4-.01-.62-.017-1.1-.023-1.424s0-.494,0-.494.008.159.018.476.022.795.038,1.409c.031,1.244.078,3.061.136,5.376.112,4.658.269,11.319.459,19.357v.08h-.07l-28.925.423h-.084v-.1c-.207-9.61-.4-18.691-.572-26.614v-.087h.075l20.935-.252,5.905-.06,1.557-.012h.4Z" transform="translate(-462.375 -376.215)" fill="#263238"/>
        <g id="Grupo_1099797" data-name="Grupo 1099797" transform="translate(1.108 1.695)">
          <path id="Trazado_874105" data-name="Trazado 874105" d="M466.039,404.678l26.893-.378-.508-23.266-26.893.378Z" transform="translate(-465.531 -381.034)" fill="#455a64"/>
        </g>
        <g id="Grupo_1099798" data-name="Grupo 1099798" transform="translate(1.617 10.745)">
          <path id="Trazado_874106" data-name="Trazado 874106" d="M466.976,421.368l9.077-14.593,6.016,8.966,3.841-4.892,7.959,10.142Z" transform="translate(-466.976 -406.775)" fill="#455a64"/>
        </g>
        <g id="Grupo_1099799" data-name="Grupo 1099799" transform="translate(14.7 6.449)">
          <path id="Trazado_874107" data-name="Trazado 874107" d="M508.441,396.964a2.274,2.274,0,0,1-2.064,2.467,2.317,2.317,0,0,1-2.171-2.408,2.274,2.274,0,0,1,2.064-2.467,2.316,2.316,0,0,1,2.171,2.408Z" transform="translate(-504.197 -394.556)" fill="#455a64"/>
        </g>
        <g id="Grupo_1099800" data-name="Grupo 1099800" transform="translate(1.617 10.745)" opacity="0.3">
          <path id="Trazado_874108" data-name="Trazado 874108" d="M466.976,421.368l9.077-14.593,6.016,8.966,3.841-4.892,7.959,10.142Z" transform="translate(-466.976 -406.775)"/>
        </g>
        <g id="Grupo_1099801" data-name="Grupo 1099801" transform="translate(14.7 6.449)" opacity="0.3">
          <path id="Trazado_874109" data-name="Trazado 874109" d="M508.441,396.964a2.274,2.274,0,0,1-2.064,2.467,2.317,2.317,0,0,1-2.171-2.408,2.274,2.274,0,0,1,2.064-2.467,2.316,2.316,0,0,1,2.171,2.408Z" transform="translate(-504.197 -394.556)"/>
        </g>
      </g>
      <g id="Grupo_1099807" data-name="Grupo 1099807" transform="translate(7.048 0)">
        <g id="Grupo_1099803" data-name="Grupo 1099803" transform="translate(0.075 0.007)">
          <path id="Trazado_874110" data-name="Trazado 874110" d="M482.592,366.605l.581,26.616-28.925.407-.581-26.616Z" transform="translate(-453.667 -366.605)" fill="#fafafa"/>
        </g>
        <path id="Trazado_874111" data-name="Trazado 874111" d="M482.452,366.6s-.049,0-.14.007l-.406.011-1.571.033-5.921.106-20.885.335L453.6,367c.176,7.921.377,17,.59,26.614h0l-.086-.1,28.926-.39-.068.081c-.16-8.014-.293-14.658-.385-19.3-.044-2.324-.077-4.147-.1-5.4-.01-.62-.018-1.1-.023-1.424s0-.494,0-.494.008.159.018.476.022.795.038,1.408c.031,1.244.078,3.061.136,5.376.112,4.658.269,11.319.459,19.357v.08h-.07l-28.925.423h-.084v-.1c-.207-9.61-.4-18.692-.572-26.614v-.086h.075l20.935-.252,5.905-.06,1.557-.012h.4C482.409,366.6,482.452,366.6,482.452,366.6Z" transform="translate(-453.452 -366.589)" fill="#263238"/>
        <g id="Grupo_1099804" data-name="Grupo 1099804" transform="translate(1.108 2.061)">
          <path id="Trazado_874112" data-name="Trazado 874112" d="M457.115,396.092l26.893-.378-.508-23.265-26.893.378Z" transform="translate(-456.607 -372.448)" fill="#7d6eb2"/>
        </g>
        <g id="Grupo_1099805" data-name="Grupo 1099805" transform="translate(1.617 11.111)" opacity="0.3">
          <path id="Trazado_874113" data-name="Trazado 874113" d="M458.052,412.782l9.077-14.593,6.016,8.966,3.841-4.892,7.959,10.142Z" transform="translate(-458.052 -398.189)"/>
        </g>
        <g id="Grupo_1099806" data-name="Grupo 1099806" transform="translate(14.699 6.978)" opacity="0.3">
          <path id="Trazado_874114" data-name="Trazado 874114" d="M499.517,388.839a2.273,2.273,0,0,1-2.064,2.467,2.317,2.317,0,0,1-2.171-2.408,2.274,2.274,0,0,1,2.064-2.467A2.316,2.316,0,0,1,499.517,388.839Z" transform="translate(-495.273 -386.432)"/>
        </g>
      </g>
      <g id="Grupo_1099812" data-name="Grupo 1099812" transform="translate(1.337 3.435)">
        <g id="Grupo_1099808" data-name="Grupo 1099808" transform="translate(0.082 0.002)">
          <path id="Trazado_874115" data-name="Trazado 874115" d="M468.707,376.361l.629,26.616-31.264.407-.628-26.616Z" transform="translate(-437.443 -376.361)" fill="#fafafa"/>
        </g>
        <path id="Trazado_874116" data-name="Trazado 874116" d="M468.554,376.356s-.052,0-.152.007l-.438.011-1.7.032-6.4.106-22.574.335.079-.088c.19,7.921.408,17,.638,26.614v0l-.093-.1,31.265-.391-.074.081c-.172-8.015-.316-14.658-.417-19.3-.046-2.324-.083-4.147-.108-5.4-.01-.62-.019-1.1-.025-1.424s0-.494,0-.494.009.159.02.476.023.795.042,1.408c.033,1.244.083,3.061.146,5.377.119,4.658.29,11.318.5,19.357v.08h-.075l-31.264.423h-.091v-.1h0c-.223-9.61-.435-18.692-.619-26.614v-.086h.081l22.628-.252,6.383-.06,1.683-.012h.43C468.507,376.354,468.554,376.356,468.554,376.356Z" transform="translate(-437.208 -376.354)" fill="#263238"/>
        <g id="Grupo_1099809" data-name="Grupo 1099809" transform="translate(1.196 1.692)">
          <path id="Trazado_874117" data-name="Trazado 874117" d="M441.164,404.812l29.068-.378-.549-23.265-29.068.378Z" transform="translate(-440.615 -381.168)" fill="#ffd947"/>
        </g>
        <g id="Grupo_1099810" data-name="Grupo 1099810" transform="translate(1.748 10.742)" opacity="0.3">
          <path id="Trazado_874118" data-name="Trazado 874118" d="M442.183,421.5l9.811-14.593,6.5,8.966,4.151-4.892,8.6,10.142Z" transform="translate(-442.183 -406.91)"/>
        </g>
        <g id="Grupo_1099811" data-name="Grupo 1099811" transform="translate(15.895 6.447)" opacity="0.3">
          <path id="Trazado_874119" data-name="Trazado 874119" d="M487.006,397.1a2.337,2.337,0,0,1-2.231,2.467,2.4,2.4,0,0,1-2.346-2.407,2.337,2.337,0,0,1,2.231-2.467A2.4,2.4,0,0,1,487.006,397.1Z" transform="translate(-482.424 -394.692)"/>
        </g>
      </g>
      <g id="Grupo_1099813" data-name="Grupo 1099813" transform="translate(17.993 19.381)">
        <rect id="Rectángulo_401525" data-name="Rectángulo 401525" width="29.452" height="18.052" fill="#263238"/>
      </g>
      <g id="Grupo_1099814" data-name="Grupo 1099814" transform="translate(0 19.381)">
        <rect id="Rectángulo_401526" data-name="Rectángulo 401526" width="32.284" height="18.052" fill="#455a64"/>
      </g>
    </g>
    <g id="Grupo_1099903" data-name="Grupo 1099903" transform="translate(264.765 513.889)">
      <g id="Grupo_1099902" data-name="Grupo 1099902" transform="translate(0 0)">
        <g id="Grupo_1099816" data-name="Grupo 1099816" transform="translate(25.424 26.593)">
          <path id="Trazado_874120" data-name="Trazado 874120" d="M146.511,152.912h14.7l-.252,9.324-11.809,2.69Z" transform="translate(-146.511 -152.912)" fill="#12263f"/>
        </g>
        <g id="Grupo_1099834" data-name="Grupo 1099834" transform="translate(0.057 56.726)">
          <g id="Grupo_1099823" data-name="Grupo 1099823" transform="translate(12.28 67.457)">
            <path id="Trazado_874121" data-name="Trazado 874121" d="M119.667,432.932l-2.743,6.652s5.839,5.021,5.452,6.3l-13.088-4.856,3.849-10.539Z" transform="translate(-109.288 -430.49)" fill="#12263f"/>
            <g id="Grupo_1099817" data-name="Grupo 1099817" transform="translate(3.2 7.023)">
              <path id="Trazado_874122" data-name="Trazado 874122" d="M118.989,450.465a.57.57,0,0,0-.6.473.548.548,0,0,0,.464.595.6.6,0,0,0,.629-.5c.005-.279-.273-.6-.551-.565" transform="translate(-118.39 -450.463)" fill="#e0e0e0"/>
            </g>
            <g id="Grupo_1099818" data-name="Grupo 1099818" transform="translate(0 9.491)">
              <path id="Trazado_874123" data-name="Trazado 874123" d="M109.288,458.534l.43-1.047,12.388,5.048s.488.47.271.855Z" transform="translate(-109.288 -457.487)" fill="#263238"/>
            </g>
            <g id="Grupo_1099819" data-name="Grupo 1099819" transform="translate(6.41 8.91)">
              <path id="Trazado_874124" data-name="Trazado 874124" d="M128.984,456.028c-.026.063-.356-.026-.747.062s-.658.3-.707.248.183-.381.658-.48S129.019,455.975,128.984,456.028Z" transform="translate(-127.522 -455.833)" fill="#263238"/>
            </g>
            <g id="Grupo_1099820" data-name="Grupo 1099820" transform="translate(7.825 10.102)">
              <path id="Trazado_874125" data-name="Trazado 874125" d="M132.754,459.3c-.008.067-.326.073-.643.263s-.486.452-.549.426.031-.4.43-.631S132.775,459.242,132.754,459.3Z" transform="translate(-131.544 -459.223)" fill="#263238"/>
            </g>
            <g id="Grupo_1099821" data-name="Grupo 1099821" transform="translate(9.177 11.183)">
              <path id="Trazado_874126" data-name="Trazado 874126" d="M135.418,463.232c-.063-.008-.033-.36.26-.649s.645-.318.652-.254-.247.182-.485.423S135.484,463.248,135.418,463.232Z" transform="translate(-135.391 -462.3)" fill="#263238"/>
            </g>
            <g id="Grupo_1099822" data-name="Grupo 1099822" transform="translate(6.942 6.975)">
              <path id="Trazado_874127" data-name="Trazado 874127" d="M130.422,450.878c-.049.049-.309-.149-.679-.258s-.694-.1-.707-.167.343-.195.777-.06S130.471,450.84,130.422,450.878Z" transform="translate(-129.034 -450.333)" fill="#263238"/>
            </g>
          </g>
          <g id="Grupo_1099830" data-name="Grupo 1099830" transform="translate(8.676 71.032)">
            <path id="Trazado_874128" data-name="Trazado 874128" d="M106.385,440.659l-.216,7.581s7.633,2.766,7.73,4.171l-14.715.108-.147-11.826Z" transform="translate(-99.036 -440.659)" fill="#12263f"/>
            <g id="Grupo_1099824" data-name="Grupo 1099824" transform="translate(2.157 6.963)">
              <path id="Trazado_874129" data-name="Trazado 874129" d="M105.588,460.467a.6.6,0,0,0-.411.689.577.577,0,0,0,.679.413.634.634,0,0,0,.431-.732.6.6,0,0,0-.754-.351" transform="translate(-105.166 -460.453)" fill="#e0e0e0"/>
            </g>
            <g id="Grupo_1099825" data-name="Grupo 1099825" transform="translate(0.124 11.009)">
              <path id="Trazado_874130" data-name="Trazado 874130" d="M99.4,473.135l-.016-1.147,14.152-.014s.658.279.587.742Z" transform="translate(-99.388 -471.974)" fill="#263238"/>
            </g>
            <g id="Grupo_1099826" data-name="Grupo 1099826" transform="translate(6.037 7.442)">
              <path id="Trazado_874131" data-name="Trazado 874131" d="M117.541,461.888c0,.072-.361.107-.713.341s-.538.537-.6.509.037-.446.469-.719S117.554,461.821,117.541,461.888Z" transform="translate(-116.206 -461.825)" fill="#263238"/>
            </g>
            <g id="Grupo_1099827" data-name="Grupo 1099827" transform="translate(7.95 8.105)">
              <path id="Trazado_874132" data-name="Trazado 874132" d="M122.617,463.737c.017.07-.293.194-.535.5s-.31.628-.382.625-.12-.409.188-.781S122.615,463.669,122.617,463.737Z" transform="translate(-121.649 -463.71)" fill="#263238"/>
            </g>
            <g id="Grupo_1099828" data-name="Grupo 1099828" transform="translate(9.721 8.729)">
              <path id="Trazado_874133" data-name="Trazado 874133" d="M126.772,466.73c-.065.016-.167-.343.014-.737s.517-.554.547-.494-.175.272-.32.6S126.843,466.721,126.772,466.73Z" transform="translate(-126.684 -465.486)" fill="#263238"/>
            </g>
            <g id="Grupo_1099829" data-name="Grupo 1099829" transform="translate(5.699 5.519)">
              <path id="Trazado_874134" data-name="Trazado 874134" d="M116.775,456.609c-.03.066-.36-.031-.766,0s-.721.161-.759.1.265-.32.743-.349S116.81,456.552,116.775,456.609Z" transform="translate(-115.246 -456.356)" fill="#263238"/>
            </g>
          </g>
          <g id="Grupo_1099831" data-name="Grupo 1099831" transform="translate(10.201 3.846)">
            <path id="Trazado_874135" data-name="Trazado 874135" d="M122.732,249.56s6,24.232,6.992,32.012a25.7,25.7,0,0,1-.831,10.062,3.013,3.013,0,0,1-.356,1.037l-12.966,25.153-8.96-3.109s6.716-20.282,8.184-23.545l1.652-2.937-13.073-33.108Z" transform="translate(-103.374 -249.56)" fill="#167377"/>
          </g>
          <path id="Trazado_874136" data-name="Trazado 874136" d="M97.556,247.7c.167.665-7.71,39.632-7.71,39.632l1.012,27.917-8.283.223s-4.24-15.21-4.407-24.184.847-10.506.112-16.11c-.773-5.907-5.512-18.074-3.364-26.33a19.125,19.125,0,0,1,6.427-10.223Z" transform="translate(-74.362 -238.622)" fill="#167377"/>
          <g id="Grupo_1099832" data-name="Grupo 1099832" transform="translate(15.405 14.835)">
            <path id="Trazado_874137" data-name="Trazado 874137" d="M119.267,342.838a.69.69,0,0,0,.006-.143c0-.105,0-.244,0-.421-.009-.383-.021-.926-.037-1.621-.042-1.422-.1-3.465-.176-6l-.669-20.1v.025c.19-.953.39-1.966.6-2.99,1.668-8.491,3.18-16.177,4.274-21.752.535-2.776.968-5.027,1.27-6.6l.335-1.8c.035-.2.061-.352.081-.469a.9.9,0,0,0,.021-.161.836.836,0,0,0-.042.156l-.1.464c-.089.421-.214,1.021-.375,1.785-.319,1.566-.775,3.812-1.339,6.582l-4.337,21.739c-.2,1.024-.406,2.037-.6,2.99v.026c.293,7.94.553,15.006.741,20.1.1,2.531.186,4.574.244,5.994.033.695.056,1.237.076,1.618.011.176.019.315.025.42A.74.74,0,0,0,119.267,342.838Z" transform="translate(-118.17 -280.817)" fill="#455a64"/>
          </g>
          <g id="Grupo_1099833" data-name="Grupo 1099833" transform="translate(23.201 41.977)">
            <path id="Trazado_874138" data-name="Trazado 874138" d="M140.345,358.021a4.08,4.08,0,0,0,2.838,2.157c.022-.064-.751-.327-1.533-.928S140.4,357.983,140.345,358.021Z" transform="translate(-140.345 -358.019)" fill="#455a64"/>
          </g>
        </g>
        <g id="Grupo_1099835" data-name="Grupo 1099835" transform="translate(0.897 3.176)">
          <path id="Trazado_874139" data-name="Trazado 874139" d="M82.748,86.993a3.291,3.291,0,0,0-3.593-.279,4.752,4.752,0,0,0-2.236,2.975,3.952,3.952,0,0,0-.091,1.956,2.327,2.327,0,0,0,1.141,1.542,1.674,1.674,0,0,1,.725.466c.3.472-.179,1.1-.027,1.644a.973.973,0,0,0,1.127.582,2.343,2.343,0,0,0,1.16-.734,8.941,8.941,0,0,0,2.51-5.285A2.622,2.622,0,0,0,82.748,86.993Z" transform="translate(-76.746 -86.308)" fill="#263238"/>
        </g>
        <g id="Grupo_1099853" data-name="Grupo 1099853" transform="translate(31.229 20.155)">
          <g id="Grupo_1099844" data-name="Grupo 1099844" transform="translate(0.501 1.854)">
            <g id="Grupo_1099836" data-name="Grupo 1099836" transform="translate(0.101 0.144)">
              <path id="Trazado_874140" data-name="Trazado 874140" d="M194.312,244.851l-24.712-.9a4.99,4.99,0,0,1-4.863-5.155l3.98-93.722A5.064,5.064,0,0,1,174,140.29l24.712.9a4.99,4.99,0,0,1,4.863,5.155l-3.98,93.722a5.064,5.064,0,0,1-5.285,4.785Z" transform="translate(-164.734 -140.285)" fill="#fafafa"/>
            </g>
            <path id="Trazado_874141" data-name="Trazado 874141" d="M194.133,244.585s.06-.006.177-.01a4.318,4.318,0,0,0,.524-.032,5.1,5.1,0,0,0,4.134-3.012,5.285,5.285,0,0,0,.411-2.032q.044-1.124.095-2.391c.279-6.763.675-16.54,1.168-28.62s1.1-26.471,1.771-42.445q.252-5.991.516-12.268l.267-6.336a7.793,7.793,0,0,0-.209-3.133,4.9,4.9,0,0,0-3.4-3.087,7.448,7.448,0,0,0-1.63-.175l-3.371-.122-6.822-.248-13.937-.507a5.1,5.1,0,0,0-3.2,1,4.9,4.9,0,0,0-1.811,2.746,8.361,8.361,0,0,0-.161,1.668q-.036.851-.072,1.7-.073,1.7-.144,3.379-.287,6.735-.565,13.261c-.372,8.694-.731,17.08-1.073,25.068-.691,15.976-1.312,30.363-1.834,42.447q-.1,2.265-.192,4.421-.047,1.078-.093,2.127a5.753,5.753,0,0,0,.142,2.028,4.9,4.9,0,0,0,2.383,2.98,5.055,5.055,0,0,0,1.792.575c.614.066,1.252.06,1.86.092l12.568.482,7.942.316,2.064.09c.465.022.7.04.7.04s-.239,0-.7-.011l-2.064-.061-7.944-.262-12.57-.433c-.614-.031-1.227-.021-1.875-.088a5.224,5.224,0,0,1-1.859-.585,5.081,5.081,0,0,1-2.477-3.083,5.946,5.946,0,0,1-.153-2.084q.043-1.049.088-2.127.089-2.155.183-4.422c.5-12.084,1.1-26.472,1.771-42.451.335-7.989.69-16.375,1.056-25.069q.276-6.52.561-13.261.072-1.684.143-3.38.036-.847.072-1.7a8.6,8.6,0,0,1,.167-1.723,5.2,5.2,0,0,1,1.919-2.911,5.4,5.4,0,0,1,3.391-1.057l13.937.508,6.822.249,3.37.123a7.717,7.717,0,0,1,1.692.184,5.188,5.188,0,0,1,3.6,3.269,4.744,4.744,0,0,1,.279,1.626c0,.549-.039,1.074-.056,1.61q-.137,3.2-.271,6.336l-.526,12.267L200.85,208.5c-.533,12.078-.964,21.854-1.262,28.617q-.056,1.267-.108,2.391a5.359,5.359,0,0,1-.432,2.064,5.048,5.048,0,0,1-2.24,2.414,4.923,4.923,0,0,1-1.972.593,3.71,3.71,0,0,1-.527.017C194.193,244.59,194.133,244.585,194.133,244.585Z" transform="translate(-164.454 -139.875)" fill="#263238"/>
            <g id="Grupo_1099837" data-name="Grupo 1099837" transform="translate(4.728 6.701)">
              <path id="Trazado_874142" data-name="Trazado 874142" d="M209.955,176.19l-32.061-1.168.683-16.089,32.061,1.168Z" transform="translate(-177.894 -158.933)" fill="#167377"/>
            </g>
            <g id="Grupo_1099838" data-name="Grupo 1099838" transform="translate(3.76 29.493)">
              <path id="Trazado_874143" data-name="Trazado 874143" d="M207.2,241.012l-32.061-1.165.683-16.089,32.061,1.167Z" transform="translate(-175.142 -223.758)" fill="#b54273"/>
            </g>
            <g id="Grupo_1099839" data-name="Grupo 1099839" transform="translate(2.792 52.281)">
              <path id="Trazado_874144" data-name="Trazado 874144" d="M204.45,305.831l-32.061-1.167.683-16.089,32.061,1.167Z" transform="translate(-172.389 -288.575)" fill="#7d6eb2"/>
            </g>
            <g id="Grupo_1099841" data-name="Grupo 1099841" transform="translate(1.825 75.069)">
              <g id="Grupo_1099840" data-name="Grupo 1099840" transform="translate(0 0)">
                <path id="Trazado_874145" data-name="Trazado 874145" d="M201.7,370.651l-32.061-1.168.683-16.089,32.061,1.167Z" transform="translate(-169.637 -353.394)" fill="#ff725e"/>
              </g>
            </g>
            <g id="Grupo_1099843" data-name="Grupo 1099843" transform="translate(1.825 75.069)" opacity="0.4">
              <g id="Grupo_1099842" data-name="Grupo 1099842" transform="translate(0 0)">
                <path id="Trazado_874146" data-name="Trazado 874146" d="M201.7,370.651l-32.061-1.168.683-16.089,32.061,1.167Z" transform="translate(-169.637 -353.394)"/>
              </g>
            </g>
          </g>
          <g id="Grupo_1099845" data-name="Grupo 1099845" transform="translate(0.135 0.149)">
            <path id="Trazado_874147" data-name="Trazado 874147" d="M192.982,241.714l-23.971.249a4.78,4.78,0,0,1-4.7-4.863l-.9-96.867a4.792,4.792,0,0,1,4.6-4.96l23.971-.249a4.78,4.78,0,0,1,4.7,4.863l.9,96.867A4.792,4.792,0,0,1,192.982,241.714Z" transform="translate(-163.408 -135.024)" fill="#fafafa"/>
          </g>
          <path id="Trazado_874148" data-name="Trazado 874148" d="M192.729,241.444c0-.014.23,0,.669-.079a4.452,4.452,0,0,0,1.815-.751,4.853,4.853,0,0,0,1.872-2.64,6.387,6.387,0,0,0,.195-2.128q-.014-1.158-.029-2.464c-.076-6.969-.185-17.043-.32-29.491s-.273-27.278-.438-43.74q-.06-6.174-.123-12.642-.031-3.231-.063-6.529c-.011-.546,0-1.11-.029-1.643a5.054,5.054,0,0,0-.353-1.562,4.779,4.779,0,0,0-2.051-2.333,4.312,4.312,0,0,0-1.465-.492,10.641,10.641,0,0,0-1.578-.042l-3.221.034-6.519.069-13.319.139a4.407,4.407,0,0,0-2.972,1.223,4.8,4.8,0,0,0-1.462,2.97c-.056.558-.025,1.152-.026,1.736l.016,1.75q.016,1.748.032,3.483.064,6.941.126,13.667c.08,8.959.158,17.6.233,25.834.142,16.464.271,31.29.378,43.743q.02,2.335.037,4.556.009,1.111.018,2.192a5.908,5.908,0,0,0,.263,2.071,4.759,4.759,0,0,0,2.518,2.845,8.169,8.169,0,0,0,3.549.371l12.012-.1,7.591-.051,1.975-.006c.446,0,.673.008.673.008s-.228.013-.673.022l-1.974.035-7.59.107-12.011.15-1.785.018a4.463,4.463,0,0,1-1.829-.391,4.935,4.935,0,0,1-2.622-2.945,6.1,6.1,0,0,1-.279-2.131q-.011-1.082-.023-2.192-.023-2.221-.047-4.556c-.125-12.453-.273-27.278-.438-43.743-.079-8.232-.163-16.874-.249-25.833q-.064-6.72-.13-13.667-.016-1.735-.033-3.483l-.016-1.75a17.576,17.576,0,0,1,.027-1.774,5.1,5.1,0,0,1,1.553-3.156,4.686,4.686,0,0,1,3.158-1.3l13.319-.138,6.519-.067,3.221-.033a10.752,10.752,0,0,1,1.618.045,4.58,4.58,0,0,1,1.556.523,5.063,5.063,0,0,1,2.176,2.477,5.35,5.35,0,0,1,.373,1.655c.033.568.018,1.107.029,1.661q.03,3.3.059,6.529.056,6.463.112,12.642c.142,16.462.271,31.286.378,43.74s.176,22.522.23,29.492q.008,1.306.017,2.464c.006.385.006.759-.016,1.125l-.073.53c-.042.167-.076.339-.123.5a4.9,4.9,0,0,1-1.921,2.664,4.382,4.382,0,0,1-1.841.73,3.174,3.174,0,0,1-.5.046C192.786,241.445,192.729,241.444,192.729,241.444Z" transform="translate(-163.021 -134.604)" fill="#263238"/>
          <g id="Grupo_1099846" data-name="Grupo 1099846" transform="translate(1.494 6.997)">
            <path id="Trazado_874149" data-name="Trazado 874149" d="M198.023,171.06l-30.6.319-.155-16.559,30.6-.319Z" transform="translate(-167.269 -154.501)" fill="#7d6eb2"/>
          </g>
          <g id="Grupo_1099847" data-name="Grupo 1099847" transform="translate(1.711 30.452)">
            <path id="Trazado_874150" data-name="Trazado 874150" d="M198.642,237.775l-30.6.318-.155-16.559,30.6-.319Z" transform="translate(-167.888 -221.216)" fill="#ffd947"/>
          </g>
          <g id="Grupo_1099848" data-name="Grupo 1099848" transform="translate(1.93 53.907)">
            <path id="Trazado_874151" data-name="Trazado 874151" d="M199.264,304.487l-30.6.319-.155-16.558,30.6-.319Z" transform="translate(-168.51 -287.929)" fill="#c1507f"/>
          </g>
          <g id="Grupo_1099850" data-name="Grupo 1099850" transform="translate(2.149 77.361)">
            <g id="Grupo_1099849" data-name="Grupo 1099849" transform="translate(0)">
              <path id="Trazado_874152" data-name="Trazado 874152" d="M199.887,371.2l-30.6.319-.155-16.559,30.6-.319Z" transform="translate(-169.133 -354.64)" fill="#167377"/>
            </g>
          </g>
          <g id="Grupo_1099852" data-name="Grupo 1099852" transform="translate(22.626 97.242)">
            <g id="Grupo_1099851" data-name="Grupo 1099851" transform="translate(0.148 0.134)">
              <path id="Trazado_874153" data-name="Trazado 874153" d="M235.487,416.3a3.889,3.889,0,1,1-2.957-4.639A3.889,3.889,0,0,1,235.487,416.3Z" transform="translate(-227.8 -411.57)" fill="#455a64"/>
            </g>
            <path id="Trazado_874154" data-name="Trazado 874154" d="M235.218,416.055c-.032-.005.056-.342.029-.952a3.883,3.883,0,0,0-.94-2.331,3.794,3.794,0,0,0-3.371-1.276,3.755,3.755,0,0,0-1.526,6.88,3.793,3.793,0,0,0,3.595.268,3.881,3.881,0,0,0,1.836-1.715c.283-.54.345-.884.376-.875a.792.792,0,0,1-.037.248,3.045,3.045,0,0,1-.235.679,3.87,3.87,0,0,1-1.852,1.854,3.937,3.937,0,0,1-1.8.385,4.008,4.008,0,0,1-2.028-.614,4.012,4.012,0,1,1,5.2-5.972,3.869,3.869,0,0,1,.893,2.463,3.028,3.028,0,0,1-.074.715A.791.791,0,0,1,235.218,416.055Z" transform="translate(-227.383 -411.189)" fill="#263238"/>
          </g>
        </g>
        <g id="Grupo_1099858" data-name="Grupo 1099858" transform="translate(31.435 39.515)">
          <g id="Grupo_1099854" data-name="Grupo 1099854" transform="translate(7.603 5.081)">
            <path id="Trazado_874155" data-name="Trazado 874155" d="M185.936,205.185l-.35.3a.209.209,0,0,1-.132.065c-.064,0-.112-.06-.139-.117a.82.82,0,0,1-.02-.649,1.36,1.36,0,0,1,.39-.536.4.4,0,0,1,.272-.127.417.417,0,0,1,.255.155,4.04,4.04,0,0,1,.273.312.229.229,0,0,1,.069.181.235.235,0,0,1-.094.119c-.152.123-.37.176-.522.3" transform="translate(-185.236 -204.118)" fill="#8e4842"/>
          </g>
          <path id="Trazado_874156" data-name="Trazado 874156" d="M169.344,189.915c.5-.019,2.741-.25,2.741-.25l3.754.9a1.307,1.307,0,0,1-1.076.669c-1-.021-2.4-.128-2.4-.128l-.446.264s1.7,1.147,1.72,1.374a.992.992,0,0,1-.119.473,1.77,1.77,0,0,1,.047,1.244l-.056,1.6-1.618,1.112a1.283,1.283,0,0,1-.13-.865c.112-.451.731-.712.731-.712l-.373-.669-.566-.2a29.863,29.863,0,0,1-4.569.974l-2.962,1.473-.412-4.335S168.848,189.934,169.344,189.915Z" transform="translate(-163.611 -189.665)" fill="#b2655f"/>
          <g id="Grupo_1099855" data-name="Grupo 1099855" transform="translate(7.969 3.617)">
            <path id="Trazado_874157" data-name="Trazado 874157" d="M186.277,199.946c-.016.044.456.238.986.565s.919.656.948.623a3.458,3.458,0,0,0-1.936-1.188Z" transform="translate(-186.275 -199.946)" fill="#8e4842"/>
          </g>
          <g id="Grupo_1099856" data-name="Grupo 1099856" transform="translate(7.68 2.363)">
            <path id="Trazado_874158" data-name="Trazado 874158" d="M185.451,196.38a164.855,164.855,0,0,1,2.142,1.235,4.742,4.742,0,0,0-2.142-1.233Z" transform="translate(-185.451 -196.38)" fill="#8e4842"/>
          </g>
          <g id="Grupo_1099857" data-name="Grupo 1099857" transform="translate(6.527 0.547)">
            <path id="Trazado_874159" data-name="Trazado 874159" d="M182.173,191.217a6.968,6.968,0,0,0,.881.665,3,3,0,0,0,.964.549,5.725,5.725,0,0,0-.872-.679,2.746,2.746,0,0,0-.972-.536Z" transform="translate(-182.173 -191.217)" fill="#8e4842"/>
          </g>
        </g>
        <g id="Grupo_1099862" data-name="Grupo 1099862" transform="translate(43.651 18.24)">
          <path id="Trazado_874160" data-name="Trazado 874160" d="M204.663,131.344a4.985,4.985,0,0,0-.725-1.15.961.961,0,0,0-.956-.178l-.228.135s-.919-.654-1.473-.4c0,0-.869-.644-1.431-.216,0,0-.644-.628-1.04-.271a1.753,1.753,0,0,0-.426,1.468c.079.395.114,1.7.331,1.762,0,0,.577.18.72-.123s.206-.45.206-.45,0,1.171.261,1.283.784.183.9-.308c0,0,.177.424.446.364s.607-.18.641-.491.091-.618.091-.618.046.473.288.42.462.013.662-.34.669-1.035.669-1.035Z" transform="translate(-198.357 -129.152)" fill="#b2655f"/>
          <g id="Grupo_1099859" data-name="Grupo 1099859" transform="translate(3.525 0.968)">
            <path id="Trazado_874161" data-name="Trazado 874161" d="M208.5,133.911c.015,0-.021-.131-.033-.338a1.788,1.788,0,0,1,.576-1.444,3.152,3.152,0,0,0,.256-.223.721.721,0,0,0-.3.167,1.632,1.632,0,0,0-.6,1.506A.711.711,0,0,0,208.5,133.911Z" transform="translate(-208.381 -131.906)" fill="#8e4842"/>
          </g>
          <g id="Grupo_1099860" data-name="Grupo 1099860" transform="translate(2.316 0.591)">
            <path id="Trazado_874162" data-name="Trazado 874162" d="M205.488,130.832a1.578,1.578,0,0,0-.218.418,4.484,4.484,0,0,0-.291,2.241,1.591,1.591,0,0,0,.1.46A6.081,6.081,0,0,1,205.488,130.832Z" transform="translate(-204.944 -130.832)" fill="#8e4842"/>
          </g>
          <g id="Grupo_1099861" data-name="Grupo 1099861" transform="translate(1.199 0.39)">
            <path id="Trazado_874163" data-name="Trazado 874163" d="M202.029,130.262a4.836,4.836,0,0,0-.2,2.4c.03,0-.011-.543.046-1.207S202.058,130.269,202.029,130.262Z" transform="translate(-201.761 -130.262)" fill="#8e4842"/>
          </g>
        </g>
        <g id="Grupo_1099863" data-name="Grupo 1099863" transform="translate(8.187 6.409)">
          <path id="Trazado_874164" data-name="Trazado 874164" d="M97.482,95.5" transform="translate(-97.482 -95.5)" fill="none" stroke="#4e585d" stroke-miterlimit="10" stroke-width="1"/>
        </g>
        <g id="Grupo_1099872" data-name="Grupo 1099872" transform="translate(0 25.506)">
          <g id="Grupo_1099864" data-name="Grupo 1099864" transform="translate(28.459 9.956)">
            <path id="Trazado_874165" data-name="Trazado 874165" d="M155.175,178.374l-.032-.237C155.151,178.19,155.166,178.3,155.175,178.374Z" transform="translate(-155.143 -178.137)" fill="#455a64"/>
          </g>
          <g id="Grupo_1099865" data-name="Grupo 1099865" transform="translate(28.459 9.939)">
            <path id="Trazado_874166" data-name="Trazado 874166" d="M155.142,178.105v-.017Z" transform="translate(-155.142 -178.088)" fill="#455a64"/>
          </g>
          <g id="Grupo_1099866" data-name="Grupo 1099866" transform="translate(28.491 10.194)">
            <path id="Trazado_874167" data-name="Trazado 874167" d="M155.241,178.869l-.007-.056Z" transform="translate(-155.234 -178.813)" fill="#455a64"/>
          </g>
          <path id="Trazado_874168" data-name="Trazado 874168" d="M102.735,174.731a47.323,47.323,0,0,0,5.058-2.964l-1.618-5.4-2.283.365c-.2-2.349-.928-4.623-1.2-6.664l-2.77-9.162-6.036-.551-7.337-.537-4.671.675c-2.566.372-5.555,1.78-6.79,4.062a12.543,12.543,0,0,0-.834,3.682c-.384,3.9,1.067,15.816,5.139,20.058l-2.064,6.147c-2.949,9.195,27.379,5.327,27.114,1.768-.357-1.689-1.993-8.9-1.993-8.9Z" transform="translate(-74.197 -149.818)" fill="#12263f"/>
          <g id="Grupo_1099867" data-name="Grupo 1099867" transform="translate(28.458 9.93)">
            <path id="Trazado_874169" data-name="Trazado 874169" d="M155.137,178.071Z" transform="translate(-155.137 -178.062)" fill="#455a64"/>
          </g>
          <g id="Grupo_1099868" data-name="Grupo 1099868" transform="translate(10.519 19.584)">
            <path id="Trazado_874170" data-name="Trazado 874170" d="M106.568,205.517a6.671,6.671,0,0,0-2.463,3.5A4.38,4.38,0,0,1,106.568,205.517Z" transform="translate(-104.105 -205.517)" fill="#263238"/>
          </g>
          <g id="Grupo_1099869" data-name="Grupo 1099869" transform="translate(5.328 24.979)" opacity="0.3">
            <path id="Trazado_874171" data-name="Trazado 874171" d="M89.351,224.384a4.9,4.9,0,0,0,3.261,2.48,11.45,11.45,0,0,0,4.205.112c5.608-.657,15.079-6.214,14.921-6.107C104.643,224.868,92.141,226.418,89.351,224.384Z" transform="translate(-89.351 -220.866)"/>
          </g>
          <g id="Grupo_1099870" data-name="Grupo 1099870" transform="translate(4.363 21.95)">
            <path id="Trazado_874172" data-name="Trazado 874172" d="M115.836,212.249a.287.287,0,0,1-.065.049l-.2.127c-.177.112-.436.272-.776.471-.678.4-1.67.968-2.921,1.623a55.494,55.494,0,0,1-10.208,4.128,24.226,24.226,0,0,1-3.093.6c-1.007.139-1.983.234-2.912.311s-1.814.135-2.645.171a17.915,17.915,0,0,1-2.313-.052,7.245,7.245,0,0,1-3.195-.945,3.722,3.722,0,0,1-.7-.58l-.155-.18c-.034-.041-.05-.063-.048-.065a5.31,5.31,0,0,0,.943.764,7.378,7.378,0,0,0,3.169.877,18.3,18.3,0,0,0,2.295.03c.825-.041,1.71-.108,2.637-.187s1.9-.18,2.9-.32a24.513,24.513,0,0,0,3.068-.6,58.6,58.6,0,0,0,10.2-4.072c1.256-.638,2.256-1.185,2.944-1.569l.793-.441.209-.112A.255.255,0,0,1,115.836,212.249Z" transform="translate(-86.603 -212.249)" fill="#263238"/>
          </g>
          <g id="Grupo_1099871" data-name="Grupo 1099871" transform="translate(7.962 7.624)">
            <path id="Trazado_874173" data-name="Trazado 874173" d="M120.857,180.428a.292.292,0,0,1-.081.022l-.239.047-.924.167-3.4.573-11.24,1.822-3.095.493-.07.011-.027-.065-3.557-8.549-1.03-2.523q-.167-.428-.269-.681a1.506,1.506,0,0,1-.083-.24,1.489,1.489,0,0,1,.112.228l.3.669,1.081,2.5,3.614,8.525-.1-.056,3.094-.5,11.248-1.769,3.413-.516.929-.131.242-.03A.284.284,0,0,1,120.857,180.428Z" transform="translate(-96.839 -171.505)" fill="#263238"/>
          </g>
        </g>
        <g id="Grupo_1099873" data-name="Grupo 1099873" transform="translate(26.728 30.832)">
          <path id="Trazado_874174" data-name="Trazado 874174" d="M150.217,164.968a8.15,8.15,0,0,0,.412,1.122c.267.686.618,1.64.945,2.713s.568,2.061.73,2.779a8.156,8.156,0,0,0,.284,1.161,5.45,5.45,0,0,0-.134-1.191,23.57,23.57,0,0,0-1.684-5.522A5.461,5.461,0,0,0,150.217,164.968Z" transform="translate(-150.217 -164.968)" fill="#263238"/>
        </g>
        <g id="Grupo_1099901" data-name="Grupo 1099901" transform="translate(5.112)">
          <g id="Grupo_1099874" data-name="Grupo 1099874" transform="translate(18.372 9.255)">
            <path id="Trazado_874175" data-name="Trazado 874175" d="M143.463,118.547a1.185,1.185,0,0,1-.451.641,1.033,1.033,0,0,1-.871.167,1.082,1.082,0,0,1-.737-.87.993.993,0,0,1,.142-.663,2.068,2.068,0,0,1,.523-.561,4.407,4.407,0,0,0,1.331-1.175,2.418,2.418,0,0,0,.227-1.944,2.835,2.835,0,0,0-.493-.934,4.174,4.174,0,0,0-.794-.73,5.568,5.568,0,0,1-.794-.675,1.377,1.377,0,0,1-.382-.87,1.692,1.692,0,0,1,.261-.9,3.38,3.38,0,0,1,.586-.718,7,7,0,0,0,1.213-1.295,2.658,2.658,0,0,0,.382-1.506,3.432,3.432,0,0,0-.339-1.233,6.488,6.488,0,0,1-.34-.887,2.008,2.008,0,0,1-.049-.8s-.009.017-.019.051a.853.853,0,0,0-.034.155,1.6,1.6,0,0,0,.036.609,5.943,5.943,0,0,0,.315.908,3.4,3.4,0,0,1,.306,1.2,2.546,2.546,0,0,1-.381,1.423,7.039,7.039,0,0,1-1.2,1.256,3.538,3.538,0,0,0-.619.75,1.857,1.857,0,0,0-.288.987,1.547,1.547,0,0,0,.423.979,5.675,5.675,0,0,0,.818.7,4.013,4.013,0,0,1,.764.7,2.677,2.677,0,0,1,.465.875,2.262,2.262,0,0,1-.2,1.812,4.355,4.355,0,0,1-1.283,1.143,2.2,2.2,0,0,0-.551.607,1.12,1.12,0,0,0-.147.75,1.185,1.185,0,0,0,.832.948,1.142,1.142,0,0,0,1.306-.7A.618.618,0,0,0,143.463,118.547Z" transform="translate(-140.994 -103.6)" fill="#263238"/>
          </g>
          <g id="Grupo_1099875" data-name="Grupo 1099875" transform="translate(1.317 6.254)">
            <path id="Trazado_874176" data-name="Trazado 874176" d="M94.278,95.2a1.1,1.1,0,0,1,.229.787,5.8,5.8,0,0,1-.384,1.928,1.1,1.1,0,0,1-.513.639c-.238.1-.558-.013-.808-.373a1.814,1.814,0,0,1-.279-.688,2.38,2.38,0,0,1,.345-1.729,1.816,1.816,0,0,1,.522-.528C93.761,95,94.1,95.016,94.278,95.2Z" transform="translate(-92.484 -95.059)" fill="#167377"/>
          </g>
          <g id="Grupo_1099876" data-name="Grupo 1099876" transform="translate(0.128)">
            <path id="Trazado_874177" data-name="Trazado 874177" d="M89.2,93.274a3.834,3.834,0,0,1,.427-2.926A20.083,20.083,0,0,0,91,87.641c.339-1.043.319-2.186.735-3.2a4.016,4.016,0,0,1,2.415-2.254,7.2,7.2,0,0,0,1.941-.664,7.359,7.359,0,0,0,1.324-1.653,6.248,6.248,0,0,1,2.467-2.124,6.084,6.084,0,0,1,4.2-.2,3.509,3.509,0,0,1,1.729,1.69,7.356,7.356,0,0,1,.664,2.366c1.245.239,1.964,1.513,2.516,2.654a5.148,5.148,0,0,1,.652,2.019,14.93,14.93,0,0,1-1.04,4.215c-1.987,3.592-4.943,4.348-8.535,6.334-1.387.768-2.245,2.53-3.828,2.469-1.845-.071-3.64-.143-4.711-1.647s-2.278-2.925-2.435-4.764" transform="translate(-89.079 -77.264)" fill="#263238"/>
          </g>
          <g id="Grupo_1099877" data-name="Grupo 1099877" transform="translate(5.528 4.765)">
            <path id="Trazado_874178" data-name="Trazado 874178" d="M118.177,96.389c-.1-2.573-1.729-5.765-4.3-5.555l-8.038,1.83a1.506,1.506,0,0,0-1.384,1.495l.4,19.293-.056.011s1.68,5.482,7,3.961c1.056-.3,1.562-1.435,1.8-2.608l.056.008c.006-.14.011-.27.016-.4a12.614,12.614,0,0,0,.1-2.645h0c.056-1.555.07-2.193.071-2.179s3.295-.467,4.076-4.732A45.962,45.962,0,0,0,118.177,96.389Z" transform="translate(-104.459 -90.824)" fill="#b2655f"/>
          </g>
          <g id="Grupo_1099887" data-name="Grupo 1099887" transform="translate(9.218 11.497)">
            <g id="Grupo_1099881" data-name="Grupo 1099881" transform="translate(2.405 0.023)">
              <g id="Grupo_1099878" data-name="Grupo 1099878" transform="translate(0 1.518)">
                <path id="Trazado_874179" data-name="Trazado 874179" d="M122.894,114.868a.549.549,0,0,1-.542.542.525.525,0,0,1-.554-.508.549.549,0,0,1,.542-.542.525.525,0,0,1,.554.508Z" transform="translate(-121.797 -114.359)" fill="#263238"/>
              </g>
              <g id="Grupo_1099879" data-name="Grupo 1099879" transform="translate(5.651 1.518)">
                <path id="Trazado_874180" data-name="Trazado 874180" d="M138.969,114.868a.549.549,0,0,1-.543.542.525.525,0,0,1-.554-.508.549.549,0,0,1,.542-.542.526.526,0,0,1,.555.508Z" transform="translate(-137.872 -114.359)" fill="#263238"/>
              </g>
              <g id="Grupo_1099880" data-name="Grupo 1099880" transform="translate(4.674)">
                <path id="Trazado_874181" data-name="Trazado 874181" d="M137.463,110.727c-.069.094-.544-.279-1.188-.249s-1.1.423-1.171.335c-.037-.04.03-.206.226-.39a1.472,1.472,0,0,1,.93-.379,1.457,1.457,0,0,1,.952.312C137.422,110.52,137.5,110.684,137.463,110.727Z" transform="translate(-135.094 -110.041)" fill="#263238"/>
              </g>
            </g>
            <g id="Grupo_1099882" data-name="Grupo 1099882" transform="translate(0.973 0)">
              <path id="Trazado_874182" data-name="Trazado 874182" d="M120.242,110.768c-.084.084-.547-.328-1.232-.368s-1.208.3-1.278.2c-.034-.042.056-.2.283-.355a1.663,1.663,0,0,1,1.029-.273,1.621,1.621,0,0,1,.975.4C120.221,110.564,120.282,110.729,120.242,110.768Z" transform="translate(-117.725 -109.971)" fill="#263238"/>
            </g>
            <g id="Grupo_1099883" data-name="Grupo 1099883" transform="translate(5.303 0.106)">
              <path id="Trazado_874183" data-name="Trazado 874183" d="M130.185,115.2a3.919,3.919,0,0,1,.964-.151c.151-.012.295-.038.322-.141a.766.766,0,0,0-.09-.449l-.419-1.16a19.771,19.771,0,0,1-.93-3.029,19.753,19.753,0,0,1,1.171,2.947c.139.407.273.795.4,1.166a.871.871,0,0,1,.064.594.379.379,0,0,1-.253.215,1.038,1.038,0,0,1-.257.03A3.841,3.841,0,0,1,130.185,115.2Z" transform="translate(-130.032 -110.275)" fill="#263238"/>
            </g>
            <g id="Grupo_1099884" data-name="Grupo 1099884" transform="translate(0 10.372)">
              <path id="Trazado_874184" data-name="Trazado 874184" d="M120.655,141.142a10.9,10.9,0,0,1-5.7-1.666s1.369,3.068,5.664,2.77Z" transform="translate(-114.957 -139.476)" fill="#8e4842"/>
            </g>
            <g id="Grupo_1099885" data-name="Grupo 1099885" transform="translate(3.399 6.032)">
              <path id="Trazado_874185" data-name="Trazado 874185" d="M126.4,127.552a1.064,1.064,0,0,0-.945-.418.972.972,0,0,0-.68.344.614.614,0,0,0-.063.7.715.715,0,0,0,.77.214,2.242,2.242,0,0,0,.766-.433.65.65,0,0,0,.173-.171.2.2,0,0,0,0-.22" transform="translate(-124.627 -127.13)" fill="#8e4842"/>
            </g>
            <g id="Grupo_1099886" data-name="Grupo 1099886" transform="translate(3.603 5.403)">
              <path id="Trazado_874186" data-name="Trazado 874186" d="M125.31,125.342c.1,0,.082.638.62,1.106s1.223.414,1.227.5c.008.04-.156.121-.446.122a1.6,1.6,0,0,1-1.024-.384,1.391,1.391,0,0,1-.479-.927C125.191,125.494,125.266,125.337,125.31,125.342Z" transform="translate(-125.205 -125.342)" fill="#263238"/>
            </g>
          </g>
          <g id="Grupo_1099888" data-name="Grupo 1099888" transform="translate(10.15 9.819)">
            <path id="Trazado_874187" data-name="Trazado 874187" d="M120.312,105.668c-.062.16-.65.069-1.345.137s-1.26.243-1.349.1c-.04-.07.061-.219.291-.369a2.352,2.352,0,0,1,2.053-.177C120.214,105.463,120.337,105.59,120.312,105.668Z" transform="translate(-117.609 -105.198)" fill="#263238"/>
          </g>
          <g id="Grupo_1099889" data-name="Grupo 1099889" transform="translate(15.968 9.771)">
            <path id="Trazado_874188" data-name="Trazado 874188" d="M136.454,105.705c-.122.132-.584-.018-1.143-.038-.558-.037-1.035.066-1.141-.078-.046-.069.032-.2.242-.324a1.755,1.755,0,0,1,.935-.2,1.729,1.729,0,0,1,.905.291C136.446,105.5,136.508,105.642,136.454,105.705Z" transform="translate(-134.157 -105.064)" fill="#263238"/>
          </g>
          <g id="Grupo_1099890" data-name="Grupo 1099890" transform="translate(3.298 4.662)">
            <path id="Trazado_874189" data-name="Trazado 874189" d="M99.948,92.912a3.5,3.5,0,0,1,1.887-1,39.347,39.347,0,0,1,9.238-1.386,1.6,1.6,0,0,1-.746,1.9,7.134,7.134,0,0,1-2.106.7A2.772,2.772,0,0,0,106.4,94.3c-.376.695-.207,1.58-.548,2.293-.587,1.227-2.4,1.458-2.984,2.688-.438.93-.152.717-.114,1.745.042,1.165-.674,1.339-1.595,2.055a5.414,5.414,0,0,1-3.04,1.135c.157-3.674,1.109-5.44,1.266-9.113A3.664,3.664,0,0,1,99.948,92.912Z" transform="translate(-98.117 -90.531)" fill="#263238"/>
          </g>
          <g id="Grupo_1099891" data-name="Grupo 1099891" transform="translate(10.265 0.548)">
            <path id="Trazado_874190" data-name="Trazado 874190" d="M117.934,79.484a.35.35,0,0,1,.076-.056,2.293,2.293,0,0,1,.231-.141,3.662,3.662,0,0,1,.933-.35,4.072,4.072,0,0,1,1.476-.067,3.775,3.775,0,0,1,2.886,2A4.068,4.068,0,0,1,124,82.273a3.643,3.643,0,0,1,0,1,2.375,2.375,0,0,1-.05.266.341.341,0,0,1-.026.091,4.79,4.79,0,0,0,.007-1.343,4.119,4.119,0,0,0-.467-1.373,3.746,3.746,0,0,0-2.822-1.952,4.121,4.121,0,0,0-1.45.046A4.785,4.785,0,0,0,117.934,79.484Z" transform="translate(-117.934 -78.833)" fill="#455a64"/>
          </g>
          <g id="Grupo_1099892" data-name="Grupo 1099892" transform="translate(6.149 2.469)">
            <path id="Trazado_874191" data-name="Trazado 874191" d="M106.226,86.5a.622.622,0,0,1,.124,0,1.6,1.6,0,0,0,.349-.033,2.111,2.111,0,0,0,.522-.186,4.371,4.371,0,0,0,.621-.4c.22-.164.451-.358.708-.558a4.671,4.671,0,0,1,.876-.562,4.826,4.826,0,0,1,2.325-.454,4.7,4.7,0,0,1,2.261.707,4.827,4.827,0,0,1,1.4,1.343A4.6,4.6,0,0,1,116,87.521a3.2,3.2,0,0,1,.1.342.565.565,0,0,1,.023.122c-.011,0-.046-.167-.155-.452a4.94,4.94,0,0,0-2-2.45,4.671,4.671,0,0,0-2.22-.686,4.8,4.8,0,0,0-2.283.438,4.68,4.68,0,0,0-.866.546c-.257.2-.492.387-.716.548a4.277,4.277,0,0,1-.638.39,2.034,2.034,0,0,1-.538.175,1.394,1.394,0,0,1-.356.016.617.617,0,0,1-.122-.013Z" transform="translate(-106.226 -84.295)" fill="#455a64"/>
          </g>
          <g id="Grupo_1099893" data-name="Grupo 1099893" transform="translate(2.536 9.248)">
            <path id="Trazado_874192" data-name="Trazado 874192" d="M95.959,103.577a7.764,7.764,0,0,0,.223,1.048,4.742,4.742,0,0,0,3.661,3.269,7.687,7.687,0,0,0,1.067.1.213.213,0,0,1-.075.012c-.049,0-.121.012-.215.012a4.257,4.257,0,0,1-.79-.062,4.648,4.648,0,0,1-3.713-3.316,4.223,4.223,0,0,1-.151-.778c-.011-.093-.01-.167-.013-.215a.23.23,0,0,1,.005-.075Z" transform="translate(-95.953 -103.577)" fill="#455a64"/>
          </g>
          <g id="Grupo_1099894" data-name="Grupo 1099894" transform="translate(2.038 10.664)">
            <path id="Trazado_874193" data-name="Trazado 874193" d="M99.1,112.547a1.618,1.618,0,0,1-.29-.046c-.185-.037-.452-.1-.775-.2a5.885,5.885,0,0,1-2.3-1.283,3.829,3.829,0,0,1-1.188-2.326,2.759,2.759,0,0,1,.029-.8,1.7,1.7,0,0,1,.052-.212.232.232,0,0,1,.026-.072,3.794,3.794,0,0,0-.04,1.079,3.879,3.879,0,0,0,1.186,2.265,6.127,6.127,0,0,0,2.254,1.287c.318.107.581.18.763.228A1.882,1.882,0,0,1,99.1,112.547Z" transform="translate(-94.534 -107.605)" fill="#455a64"/>
          </g>
          <g id="Grupo_1099895" data-name="Grupo 1099895" transform="translate(17.324 3.861)">
            <path id="Trazado_874194" data-name="Trazado 874194" d="M140.729,88.38a4.131,4.131,0,0,0-2.716.518,1.241,1.241,0,0,1,.343-.243,3.223,3.223,0,0,1,1.966-.375,1.252,1.252,0,0,1,.408.1Z" transform="translate(-138.013 -88.254)" fill="#263238"/>
          </g>
          <g id="Grupo_1099896" data-name="Grupo 1099896" transform="translate(17.408 1.767)">
            <path id="Trazado_874195" data-name="Trazado 874195" d="M139.171,82.3a1.455,1.455,0,0,1,.032.449,3.875,3.875,0,0,1-.663,2.05,1.466,1.466,0,0,1-.288.346A5.06,5.06,0,0,0,139.171,82.3Z" transform="translate(-138.252 -82.3)" fill="#263238"/>
          </g>
          <g id="Grupo_1099897" data-name="Grupo 1099897" transform="translate(3.941 13.745)">
            <path id="Trazado_874196" data-name="Trazado 874196" d="M102.651,116.528c-.066-.032-2.678-.914-2.7,1.785a2.031,2.031,0,0,0,2.7,2.091C102.649,120.327,102.651,116.528,102.651,116.528Z" transform="translate(-99.948 -116.365)" fill="#b2655f"/>
          </g>
          <g id="Grupo_1099898" data-name="Grupo 1099898" transform="translate(4.627 14.614)">
            <path id="Trazado_874197" data-name="Trazado 874197" d="M103.093,120.978c-.012-.009-.047.032-.127.068a.471.471,0,0,1-.351,0,1.164,1.164,0,0,1-.529-1.049,1.547,1.547,0,0,1,.138-.672.544.544,0,0,1,.357-.358.239.239,0,0,1,.279.132c.036.076.018.13.032.134s.056-.045.037-.156a.3.3,0,0,0-.1-.17.355.355,0,0,0-.259-.071.66.66,0,0,0-.5.414,1.6,1.6,0,0,0-.17.751,1.222,1.222,0,0,0,.676,1.171.5.5,0,0,0,.431-.067C103.087,121.043,103.1,120.983,103.093,120.978Z" transform="translate(-101.897 -118.836)" fill="#8e4842"/>
          </g>
          <g id="Grupo_1099899" data-name="Grupo 1099899" transform="translate(2.665 17.199)">
            <path id="Trazado_874198" data-name="Trazado 874198" d="M98.029,126.19a.819.819,0,0,1-.124.078c-.081.05-.209.112-.361.211a2.555,2.555,0,0,0-.838,3.338,2.519,2.519,0,0,0,2.251,1.328,2.475,2.475,0,0,0,.711-.112,2.367,2.367,0,0,0,.634-.293,2.543,2.543,0,0,0-.026-4.29,4.5,4.5,0,0,0-.5-.26,1.888,1.888,0,0,1,.518.228,2.566,2.566,0,0,1,1.019,1.146,2.606,2.606,0,0,1-.962,3.253,2.449,2.449,0,0,1-.657.305,2.546,2.546,0,0,1-.737.114,2.6,2.6,0,0,1-1.437-4.791c.157-.094.287-.151.371-.2A.832.832,0,0,1,98.029,126.19Z" transform="translate(-96.32 -126.19)" fill="#fff"/>
          </g>
          <g id="Grupo_1099900" data-name="Grupo 1099900" transform="translate(0 8.96)">
            <path id="Trazado_874199" data-name="Trazado 874199" d="M91.057,102.758a.68.68,0,0,1,0,.132,2.8,2.8,0,0,1-.037.377,5.324,5.324,0,0,1-.4,1.334c-.229.543-.57,1.156-.926,1.841a11.208,11.208,0,0,0-.507,1.1,5.191,5.191,0,0,0-.331,1.248,4.6,4.6,0,0,0,.366,2.441,4.958,4.958,0,0,0,.558.938c.2.279.4.529.585.759.366.457.676.817.893,1.064l.248.284a.684.684,0,0,1,.083.1.689.689,0,0,1-.1-.09c-.061-.061-.15-.153-.262-.272-.223-.24-.542-.594-.916-1.046-.187-.228-.39-.477-.6-.755a4.97,4.97,0,0,1-.573-.948,4.65,4.65,0,0,1-.38-2.488,5.228,5.228,0,0,1,.339-1.27,11.065,11.065,0,0,1,.515-1.107c.362-.687.707-1.294.943-1.83a5.707,5.707,0,0,0,.423-1.314,3.752,3.752,0,0,0,.056-.372.709.709,0,0,1,.015-.128Z" transform="translate(-88.733 -102.758)" fill="#455a64"/>
          </g>
        </g>
      </g>
    </g>
    <g id="Grupo_1100045" data-name="Grupo 1100045" transform="translate(327.506 572.385)">
      <g id="Grupo_1099991" data-name="Grupo 1099991" transform="translate(0 24.153)">
        <g id="Grupo_1099982" data-name="Grupo 1099982" transform="translate(2.801 0)">
          <path id="Trazado_874269" data-name="Trazado 874269" d="M292.547,343.406l6.157-6.088-10.98-18.8a10.6,10.6,0,0,0-4.214-2.931l-3.867-1.47-9.613-1.763-6.825,2.688a4.081,4.081,0,0,0-2.557,4.279l1.785,15.029,1.052,19.569,24.8-4.3-2.5-7.238.084-11.285Z" transform="translate(-260.619 -312.35)" fill="#7d6eb2"/>
          <g id="Grupo_1099981" data-name="Grupo 1099981" transform="translate(25.201 12.084)">
            <path id="Trazado_874270" data-name="Trazado 874270" d="M332.5,364.181c.056,0,.072-3.91.033-8.731s-.118-8.731-.176-8.73-.073,3.909-.033,8.732S332.439,364.181,332.5,364.181Z" transform="translate(-332.299 -346.72)" fill="#263238"/>
          </g>
        </g>
        <g id="Grupo_1099983" data-name="Grupo 1099983" transform="translate(0 2.687)">
          <path id="Trazado_874271" data-name="Trazado 874271" d="M279.943,349.719l-14.986-6.033a3.425,3.425,0,0,1-2.135-2.916l-1.1-14.368s.13-6.11-3.687-6.408l-2.171.855c-2.806,1.491-3.5,5.578-3.119,8.731.542,4.482.769,10.826,1.376,14.716a8.328,8.328,0,0,0,5.434,6.8l18.458,4Z" transform="translate(-252.651 -319.994)" fill="#7d6eb2"/>
        </g>
        <g id="Grupo_1099984" data-name="Grupo 1099984" transform="translate(9.285 11.288)">
          <path id="Trazado_874272" data-name="Trazado 874272" d="M279.065,344.456a2.067,2.067,0,0,1,.047.329l.1.948c.076.842.185,2.028.317,3.484.127,1.478.279,3.228.446,5.169l.126,1.494a11.244,11.244,0,0,0,.192,1.537,2.553,2.553,0,0,0,.745,1.347,5.068,5.068,0,0,0,1.383.86c4.132,1.788,7.941,3.264,10.705,4.3l3.282,1.209.893.329a2.144,2.144,0,0,1,.307.127,2.032,2.032,0,0,1-.32-.089l-.9-.293c-.784-.26-1.915-.649-3.305-1.15-2.781-1-6.6-2.454-10.74-4.251a5.231,5.231,0,0,1-1.436-.9,2.748,2.748,0,0,1-.8-1.447,11.214,11.214,0,0,1-.191-1.565l-.119-1.5c-.151-1.943-.287-3.7-.4-5.174l-.253-3.49q-.037-.6-.059-.948a2.044,2.044,0,0,1-.009-.335Z" transform="translate(-279.062 -344.456)" fill="#263238"/>
        </g>
        <g id="Grupo_1099985" data-name="Grupo 1099985" transform="translate(0.691 19.098)">
          <path id="Trazado_874273" data-name="Trazado 874273" d="M254.629,366.673a.738.738,0,0,1,.03.192q.02.225.05.555c.045.512.1,1.2.177,2.039.082.86.187,1.883.335,3.012a28.821,28.821,0,0,0,.677,3.639,5.432,5.432,0,0,0,.731,1.735,9.968,9.968,0,0,0,1.12,1.376,9.566,9.566,0,0,0,2.4,1.8,9.013,9.013,0,0,0,2.632.862.693.693,0,0,1-.195,0,4.083,4.083,0,0,1-.554-.071,7.327,7.327,0,0,1-1.947-.659,9.41,9.41,0,0,1-2.463-1.794,9.9,9.9,0,0,1-1.15-1.395,5.576,5.576,0,0,1-.762-1.792,27.17,27.17,0,0,1-.667-3.669c-.139-1.136-.23-2.163-.293-3.026s-.1-1.562-.114-2.046c0-.223-.009-.407-.012-.558A.7.7,0,0,1,254.629,366.673Z" transform="translate(-254.618 -366.673)" fill="#263238"/>
        </g>
        <g id="Grupo_1099986" data-name="Grupo 1099986" transform="translate(7.11 25.612)">
          <path id="Trazado_874274" data-name="Trazado 874274" d="M272.873,388.733a2.2,2.2,0,0,1,.273-.8,5.155,5.155,0,0,1,3.04-2.6,2.213,2.213,0,0,1,.832-.144c.006.034-.308.1-.785.279a5.833,5.833,0,0,0-2.962,2.53C273.016,388.443,272.905,388.744,272.873,388.733Z" transform="translate(-272.873 -385.192)" fill="#263238"/>
        </g>
        <g id="Grupo_1099987" data-name="Grupo 1099987" transform="translate(9.777 15.56)" opacity="0.3">
          <path id="Trazado_874275" data-name="Trazado 874275" d="M293.668,371.747c-1.6-.9-3.17-1.6-4.846-2.362a10.978,10.978,0,0,1-4.413-3.217c-2.068-2.789-1.833-6.811-3.949-9.561l.414,5.549c.127,1.7-.133,3.372.959,4.523a10.565,10.565,0,0,0,3.983,2.134c2.552.842,5.3,2.092,7.851,2.934" transform="translate(-280.46 -356.607)"/>
        </g>
        <g id="Grupo_1099988" data-name="Grupo 1099988" transform="translate(28.059 13.142)" opacity="0.3">
          <path id="Trazado_874276" data-name="Trazado 874276" d="M332.463,349.73l1.3,8-1.227-2.265Z" transform="translate(-332.463 -349.73)"/>
        </g>
        <g id="Grupo_1099989" data-name="Grupo 1099989" transform="translate(3.126 3.898)">
          <path id="Trazado_874277" data-name="Trazado 874277" d="M267.75,329.038c-.031.005-.078-.508-.357-1.276a6.433,6.433,0,0,0-4.543-4.082c-.794-.2-1.309-.188-1.307-.219a1.352,1.352,0,0,1,.359-.014,5.485,5.485,0,0,1,.973.123,6.223,6.223,0,0,1,4.623,4.155,5.538,5.538,0,0,1,.226.954A1.35,1.35,0,0,1,267.75,329.038Z" transform="translate(-261.543 -323.441)" fill="#263238"/>
        </g>
        <g id="Grupo_1099990" data-name="Grupo 1099990" transform="translate(27.189 5.418)">
          <path id="Trazado_874278" data-name="Trazado 874278" d="M329.978,327.762a50.716,50.716,0,0,1,.9,5.616,50.741,50.741,0,0,1-.9-5.616Z" transform="translate(-329.978 -327.762)" fill="#263238"/>
        </g>
      </g>
      <g id="Grupo_1100001" data-name="Grupo 1100001" transform="translate(41.236 74.013)">
        <g id="Grupo_1099992" data-name="Grupo 1099992" transform="translate(0 0.615)">
          <path id="Trazado_874279" data-name="Trazado 874279" d="M372.6,455.92s11.519,3.188,11.981,3.351c.694.244.578,2.789-.5,2.747-.511-.018-8.847.311-9.9.245a25.392,25.392,0,0,1-4.231-1.318Z" transform="translate(-369.943 -455.92)" fill="#7d6eb2"/>
        </g>
        <g id="Grupo_1099993" data-name="Grupo 1099993" transform="translate(7.453 2.712)">
          <path id="Trazado_874280" data-name="Trazado 874280" d="M391.117,464.179a5.049,5.049,0,0,1,1.322-2.3A2.56,2.56,0,0,0,391.117,464.179Z" transform="translate(-391.116 -461.882)" fill="#263238"/>
        </g>
        <g id="Grupo_1099994" data-name="Grupo 1099994" transform="translate(6.252 2.269)">
          <path id="Trazado_874281" data-name="Trazado 874281" d="M387.706,462.817c.056.01.173-.535.48-1.137s.669-1.023.627-1.06a2.889,2.889,0,0,0-1.107,2.2Z" transform="translate(-387.705 -460.62)" fill="#263238"/>
        </g>
        <g id="Grupo_1099995" data-name="Grupo 1099995" transform="translate(5.067 1.871)">
          <path id="Trazado_874282" data-name="Trazado 874282" d="M384.395,461.782a4.047,4.047,0,0,1,.9-2.294A2.164,2.164,0,0,0,384.395,461.782Z" transform="translate(-384.336 -459.488)" fill="#263238"/>
        </g>
        <g id="Grupo_1099996" data-name="Grupo 1099996" transform="translate(4.418 0)">
          <path id="Trazado_874283" data-name="Trazado 874283" d="M383.418,456.847a2.043,2.043,0,0,0,.123-.857,4.056,4.056,0,0,0-.288-1.474.642.642,0,0,0-.185-.282.307.307,0,0,0-.4.02.511.511,0,0,0-.153.326,2.254,2.254,0,0,0-.015.3,2.558,2.558,0,0,0,.071.564,3.419,3.419,0,0,0,.354.88,2.319,2.319,0,0,0,.518.693c.026-.018-.167-.287-.4-.756a3.777,3.777,0,0,1-.3-.856,2.516,2.516,0,0,1-.056-.527c.005-.177,0-.4.106-.483a.112.112,0,0,1,.152-.013.484.484,0,0,1,.126.2,4.213,4.213,0,0,1,.175.508,4.632,4.632,0,0,1,.153.9C383.44,456.516,383.387,456.842,383.418,456.847Z" transform="translate(-382.505 -454.17)" fill="#263238"/>
        </g>
        <g id="Grupo_1099997" data-name="Grupo 1099997" transform="translate(3.016 2.435)">
          <path id="Trazado_874284" data-name="Trazado 874284" d="M380.815,461.224a1.618,1.618,0,0,0-.743-.12,3.346,3.346,0,0,0-.817.1,1.819,1.819,0,0,0-.471.173.486.486,0,0,0-.26.526.576.576,0,0,0,.415.411,1.051,1.051,0,0,0,.517,0,1.982,1.982,0,0,0,.748-.368,2.031,2.031,0,0,0,.536-.527,5.024,5.024,0,0,0-.614.416,2.049,2.049,0,0,1-.707.306.909.909,0,0,1-.427-.006.391.391,0,0,1-.279-.274.3.3,0,0,1,.171-.321,1.753,1.753,0,0,1,.418-.163,3.87,3.87,0,0,1,.777-.136C380.528,461.212,380.81,461.255,380.815,461.224Z" transform="translate(-378.516 -461.1)" fill="#263238"/>
        </g>
        <g id="Grupo_1099998" data-name="Grupo 1099998" transform="translate(9.149 3.194)">
          <path id="Trazado_874285" data-name="Trazado 874285" d="M396.023,465.188a3.108,3.108,0,0,1,.791-1.94,1.652,1.652,0,0,0-.791,1.94Z" transform="translate(-395.95 -463.248)" fill="#263238"/>
        </g>
        <g id="Grupo_1099999" data-name="Grupo 1099999" transform="translate(1.186 5.663)">
          <path id="Trazado_874286" data-name="Trazado 874286" d="M373.315,470.28a2.387,2.387,0,0,0,.446.21,9.9,9.9,0,0,0,1.283.4,18.279,18.279,0,0,0,4.4.417c1.727-.019,3.282-.1,4.41-.143l1.335-.071a2.414,2.414,0,0,0,.488-.052,2.4,2.4,0,0,0-.491-.023l-1.339.01-4.407.086a20.614,20.614,0,0,1-4.367-.357C373.972,470.527,373.328,470.243,373.315,470.28Z" transform="translate(-373.315 -470.276)" fill="#263238"/>
        </g>
        <g id="Grupo_1100000" data-name="Grupo 1100000" transform="translate(0.846 4.958)">
          <path id="Trazado_874287" data-name="Trazado 874287" d="M372.346,469.232c.016.027.331-.157.863-.391a4.007,4.007,0,0,1,2.179-.363,3.451,3.451,0,0,1,1.884,1.121,6.793,6.793,0,0,0,.664.678,3.559,3.559,0,0,0-.563-.77,4.561,4.561,0,0,0-.764-.715,2.738,2.738,0,0,0-1.19-.5,3.809,3.809,0,0,0-2.268.43,3.067,3.067,0,0,0-.805.512Z" transform="translate(-372.346 -468.262)" fill="#263238"/>
        </g>
      </g>
      <g id="Grupo_1100011" data-name="Grupo 1100011" transform="translate(18.749 71.954)">
        <path id="Trazado_874288" data-name="Trazado 874288" d="M317.49,448.315s-10.9,7.136-11.29,7.431c-.587.446.086,2.555,1.1,2.19.481-.173,9.628-2.717,10.611-3.1a25.412,25.412,0,0,0,3.631-2.541Z" transform="translate(-305.982 -448.315)" fill="#7d6eb2"/>
        <g id="Grupo_1100002" data-name="Grupo 1100002" transform="translate(6.314 3.86)">
          <path id="Trazado_874289" data-name="Trazado 874289" d="M325.9,461.067a2.558,2.558,0,0,0-1.957-1.785A5.045,5.045,0,0,1,325.9,461.067Z" transform="translate(-323.942 -459.282)" fill="#263238"/>
        </g>
        <g id="Grupo_1100003" data-name="Grupo 1100003" transform="translate(7.527 3.002)">
          <path id="Trazado_874290" data-name="Trazado 874290" d="M329.115,458.606a2.888,2.888,0,0,0-1.723-1.758c-.027.05.45.335.92.822S329.065,458.634,329.115,458.606Z" transform="translate(-327.391 -456.848)" fill="#263238"/>
        </g>
        <g id="Grupo_1100004" data-name="Grupo 1100004" transform="translate(8.682 2.218)">
          <path id="Trazado_874291" data-name="Trazado 874291" d="M332.225,456.529a2.164,2.164,0,0,0-1.551-1.913,4.047,4.047,0,0,1,1.551,1.913Z" transform="translate(-330.674 -454.616)" fill="#263238"/>
        </g>
        <g id="Grupo_1100005" data-name="Grupo 1100005" transform="translate(9.026 0.048)">
          <path id="Trazado_874292" data-name="Trazado 874292" d="M332.212,451.181c.029-.014-.12-.308-.247-.816a4.641,4.641,0,0,1-.128-.9,4.282,4.282,0,0,1,.012-.537.485.485,0,0,1,.06-.23.112.112,0,0,1,.149-.034c.124.05.19.261.248.428a2.563,2.563,0,0,1,.107.518,3.8,3.8,0,0,1-.028.908c-.076.518-.179.832-.148.841a2.329,2.329,0,0,0,.282-.818,3.43,3.43,0,0,0,.07-.948,2.535,2.535,0,0,0-.1-.558,2.22,2.22,0,0,0-.106-.286.508.508,0,0,0-.245-.264.307.307,0,0,0-.383.1.643.643,0,0,0-.09.325,3.958,3.958,0,0,0,0,.562,4.04,4.04,0,0,0,.174.93A2.046,2.046,0,0,0,332.212,451.181Z" transform="translate(-331.652 -448.453)" fill="#263238"/>
        </g>
        <g id="Grupo_1100006" data-name="Grupo 1100006" transform="translate(9.564 2.158)">
          <path id="Trazado_874293" data-name="Trazado 874293" d="M333.185,454.958c.014.028.269-.1.708-.209a3.85,3.85,0,0,1,.781-.107,1.745,1.745,0,0,1,.446.028.3.3,0,0,1,.261.254.391.391,0,0,1-.184.346.912.912,0,0,1-.405.136,2.045,2.045,0,0,1-.766-.077,5.034,5.034,0,0,0-.711-.21,2.013,2.013,0,0,0,.669.34,1.989,1.989,0,0,0,.825.123,1.053,1.053,0,0,0,.493-.156.575.575,0,0,0,.271-.518.486.486,0,0,0-.407-.423,1.8,1.8,0,0,0-.5-.022,3.321,3.321,0,0,0-.809.153,1.617,1.617,0,0,0-.67.34Z" transform="translate(-333.185 -454.456)" fill="#263238"/>
        </g>
        <g id="Grupo_1100007" data-name="Grupo 1100007" transform="translate(1.553 6.53)">
          <path id="Trazado_874294" data-name="Trazado 874294" d="M311.556,469.583c.012.017.183-.112.267-.423a1.608,1.608,0,0,0-.2-1.183,4.332,4.332,0,0,0-.365-.544,1.992,1.992,0,0,0-.37-.4.642.642,0,0,0-.348-.146c-.091,0-.138.018-.137.03a1.026,1.026,0,0,1,.4.223,2.47,2.47,0,0,1,.314.4,6.178,6.178,0,0,1,.34.532,1.684,1.684,0,0,1,.239,1.063C311.649,469.415,311.53,469.564,311.556,469.583Z" transform="translate(-310.398 -466.889)" fill="#263238"/>
        </g>
        <g id="Grupo_1100008" data-name="Grupo 1100008" transform="translate(5.281 4.691)">
          <path id="Trazado_874295" data-name="Trazado 874295" d="M322.343,463.255A1.652,1.652,0,0,0,321,461.646a3.1,3.1,0,0,1,1.343,1.609Z" transform="translate(-321 -461.646)" fill="#263238"/>
        </g>
        <g id="Grupo_1100009" data-name="Grupo 1100009" transform="translate(0.675 4.366)">
          <path id="Trazado_874296" data-name="Trazado 874296" d="M321.669,460.731a3.807,3.807,0,0,0-.479.329,13.669,13.669,0,0,1-1.344.823,17.707,17.707,0,0,1-2.135.948c-.826.307-1.751.6-2.73.882-1.961.565-3.737,1.081-5.017,1.466l-1.515.465a3.306,3.306,0,0,0-.548.2,3.405,3.405,0,0,0,.569-.124L310,465.31c1.291-.352,3.068-.847,5.033-1.412.981-.285,1.911-.581,2.739-.9a16.056,16.056,0,0,0,2.138-1,10.738,10.738,0,0,0,1.323-.883A3.008,3.008,0,0,0,321.669,460.731Z" transform="translate(-307.901 -460.731)" fill="#263238"/>
        </g>
        <g id="Grupo_1100010" data-name="Grupo 1100010" transform="translate(9.838 4.2)">
          <path id="Trazado_874297" data-name="Trazado 874297" d="M338.97,460.579a3.048,3.048,0,0,0-.924-.246,3.812,3.812,0,0,0-2.29.279,2.74,2.74,0,0,0-.981.842,4.592,4.592,0,0,0-.511.912,3.557,3.557,0,0,0-.3.905,6.8,6.8,0,0,0,.426-.848,3.452,3.452,0,0,1,1.454-1.64,4.012,4.012,0,0,1,2.187-.317C338.607,460.529,338.963,460.609,338.97,460.579Z" transform="translate(-333.961 -460.267)" fill="#263238"/>
        </g>
      </g>
      <g id="Grupo_1100016" data-name="Grupo 1100016" transform="translate(21.905 53.523)">
        <path id="Trazado_874298" data-name="Trazado 874298" d="M345.971,396.472a5.22,5.22,0,0,1,3.284,4.834c.026,7.023-14.19,14.765-14.19,14.765l-18.919-12.534-1.186-.48S340.5,393.462,345.971,396.472Z" transform="translate(-314.959 -395.888)" fill="#12263f"/>
        <g id="Grupo_1100012" data-name="Grupo 1100012" transform="translate(10.769 4.132)">
          <path id="Trazado_874299" data-name="Trazado 874299" d="M345.59,417.487a3.445,3.445,0,0,0,.493-.335c.31-.223.753-.558,1.294-.977,1.083-.837,2.557-2.024,4.142-3.384s2.982-2.639,3.973-3.583c.5-.472.893-.859,1.161-1.131a3.542,3.542,0,0,0,.4-.437,3.546,3.546,0,0,0-.457.382l-1.2,1.086c-1.014.918-2.423,2.176-4.005,3.537s-3.041,2.56-4.1,3.424l-1.255,1.025a3.545,3.545,0,0,0-.447.394Z" transform="translate(-345.59 -407.64)" fill="#455a64"/>
        </g>
        <g id="Grupo_1100013" data-name="Grupo 1100013" transform="translate(22.227 3.183)">
          <path id="Trazado_874300" data-name="Trazado 874300" d="M381.622,404.946a4.691,4.691,0,0,0-3.444,1.016c.032.05.721-.391,1.674-.666S381.623,405.005,381.622,404.946Z" transform="translate(-378.178 -404.92)" fill="#455a64"/>
        </g>
        <g id="Grupo_1100014" data-name="Grupo 1100014" transform="translate(22.331 2.103)">
          <path id="Trazado_874301" data-name="Trazado 874301" d="M380.175,401.864a2.876,2.876,0,0,0-1.71,2.12c.056.02.262-.57.739-1.153S380.206,401.914,380.175,401.864Z" transform="translate(-378.465 -401.864)" fill="#455a64"/>
        </g>
        <g id="Grupo_1100015" data-name="Grupo 1100015" transform="translate(30.995 24.321)">
          <path id="Trazado_874302" data-name="Trazado 874302" d="M404.176,465.085c.01-.022-.223-.068-.488.148a1.769,1.769,0,0,0-.547,1.1,2.156,2.156,0,0,0,.172,1.211c.133.288.279.423.3.409s-.078-.177-.171-.46a2.453,2.453,0,0,1-.108-1.133,1.9,1.9,0,0,1,.446-1.024C403.98,465.123,404.18,465.115,404.176,465.085Z" transform="translate(-403.119 -465.065)" fill="#263238"/>
        </g>
      </g>
      <g id="Grupo_1100019" data-name="Grupo 1100019" transform="translate(14.52 42.419)">
        <g id="Grupo_1100017" data-name="Grupo 1100017" transform="translate(0.048 0.042)">
          <path id="Trazado_874303" data-name="Trazado 874303" d="M331.086,366.1,325.7,380.6a2.089,2.089,0,0,1-1.986,1.362l-29.627-.391v-2.251l10.994.4,4.667-14.472a1.181,1.181,0,0,1,1.128-.819l19.111.056a1.181,1.181,0,0,1,1.1,1.614Z" transform="translate(-294.09 -364.426)" fill="#e0e0e0"/>
        </g>
        <path id="Trazado_874304" data-name="Trazado 874304" d="M331,366.019s0-.016.013-.046a1.172,1.172,0,0,0-.5-1.38,1.153,1.153,0,0,0-.538-.167c-.2-.01-.426,0-.658-.005l-7.974-.009-5.586-.011-3.138-.007-1.649,0a1.3,1.3,0,0,0-.789.173,1.151,1.151,0,0,0-.49.645l-4.653,14.448-.011.033h-.035l-10.994-.4.05-.047v2.251l-.047-.048,18.632.249,8.1.112,1.866.026.908.013a2.169,2.169,0,0,0,.861-.126,2.05,2.05,0,0,0,1.187-1.143l.578-1.545,3.553-9.529.968-2.583c.223-.59.343-.9.343-.9s-.112.312-.326.9l-.951,2.589-3.526,9.539-.576,1.548a2.12,2.12,0,0,1-1.227,1.184,2.241,2.241,0,0,1-.888.132l-.908-.011-1.866-.023-8.1-.1L294,381.542h-.047v-2.348H294l10.994.4-.046.032c1.68-5.2,3.252-10.069,4.665-14.444a1.232,1.232,0,0,1,.525-.688,1.379,1.379,0,0,1,.831-.184l1.649.006,3.139.012,5.586.022,7.973.037c.233,0,.452,0,.659.008a1.179,1.179,0,0,1,.549.177,1.2,1.2,0,0,1,.523.717,1.15,1.15,0,0,1,0,.55A1.22,1.22,0,0,1,331,366.019Z" transform="translate(-293.954 -364.307)" fill="#263238"/>
        <g id="Grupo_1100018" data-name="Grupo 1100018" transform="translate(23.346 7.052)">
          <path id="Trazado_874305" data-name="Trazado 874305" d="M360.927,384.5a1.333,1.333,0,0,1,1.44.154,1.165,1.165,0,0,1,.282,1.276,1.262,1.262,0,0,1-1.082.755,1.137,1.137,0,0,1-1.144-.755,1.277,1.277,0,0,1,.5-1.43" transform="translate(-360.367 -384.358)" fill="#fff"/>
        </g>
      </g>
      <g id="Grupo_1100022" data-name="Grupo 1100022" transform="translate(3.5 54.988)">
        <g id="Grupo_1100020" data-name="Grupo 1100020" transform="translate(0.115 0.057)">
          <path id="Trazado_874306" data-name="Trazado 874306" d="M304.524,419.671s-26.7-17.1-27.879-17.774c-1-.571-3.685-2.223-6.33-1.493s-5.017,3.1-6.2,6.567a35.3,35.3,0,0,0-1.148,7.892,11.71,11.71,0,0,0,2.74,8.348,7.469,7.469,0,0,0,3.333,2.366q.418.131.864.226a12.572,12.572,0,0,0,13.087-5.5l.624-.948s17.486,6.424,17.76,6.333Z" transform="translate(-262.938 -400.222)" fill="#12263f"/>
        </g>
        <path id="Trazado_874307" data-name="Trazado 874307" d="M277.8,402.738a.288.288,0,0,1-.067-.04l-.187-.128c-.163-.112-.4-.279-.721-.484a14.075,14.075,0,0,0-2.835-1.441,7.621,7.621,0,0,0-2.136-.45,6.14,6.14,0,0,0-2.454.4,7.932,7.932,0,0,0-2.36,1.432,10.817,10.817,0,0,0-1.048,1.029,7.674,7.674,0,0,0-.867,1.234,12.652,12.652,0,0,0-1.152,2.751c-.252.932-.453,1.852-.645,2.721a24.864,24.864,0,0,0-.614,4.686,16.936,16.936,0,0,0,.243,3.175c.056.373.125.658.165.852.018.09.032.163.044.223a.3.3,0,0,1,.009.077.268.268,0,0,1-.025-.073l-.059-.218c-.05-.192-.127-.476-.195-.848a15.9,15.9,0,0,1-.295-3.189,24.224,24.224,0,0,1,.583-4.713c.189-.875.385-1.788.639-2.733a12.687,12.687,0,0,1,1.164-2.789,7.785,7.785,0,0,1,.886-1.258,10.841,10.841,0,0,1,1.066-1.044,8.033,8.033,0,0,1,2.41-1.45,6.247,6.247,0,0,1,2.515-.395,7.639,7.639,0,0,1,2.167.476,13.375,13.375,0,0,1,2.832,1.495c.313.213.549.391.706.509l.177.14A.312.312,0,0,1,277.8,402.738Z" transform="translate(-262.604 -400.057)" fill="#455a64"/>
        <g id="Grupo_1100021" data-name="Grupo 1100021" transform="translate(8.631 1.23)">
          <path id="Trazado_874308" data-name="Trazado 874308" d="M287.156,417.008s.049.025.147.065l.437.173,1.7.653,6.3,2.372c2.678,1,5.88,2.184,9.475,3.493s7.58,2.742,11.835,4.184l.078.026.038-.073c.669-1.276,1.373-2.622,2.089-3.988l1.064-2.033.041-.079-.074-.047-20.39-12.942-6.126-3.866-1.663-1.038-.434-.266c-.1-.059-.151-.085-.151-.085s.046.037.141.1l.424.279,1.645,1.068,6.093,3.914,20.356,12.993-.033-.125-1.065,2.033-2.087,3.989.115-.046c-4.253-1.437-8.24-2.864-11.838-4.161l-9.489-3.453-6.318-2.318-1.706-.621-.446-.157C287.209,417.021,287.156,417.008,287.156,417.008Z" transform="translate(-287.156 -403.558)" fill="#455a64"/>
        </g>
      </g>
      <g id="Grupo_1100044" data-name="Grupo 1100044" transform="translate(10.927 0)">
        <g id="Grupo_1100023" data-name="Grupo 1100023" transform="translate(1.219)">
          <path id="Trazado_874309" data-name="Trazado 874309" d="M288.569,256.564a13.788,13.788,0,0,1-1.186-2.839,4.625,4.625,0,0,1,.158-3.021c.249-.547.639-1.027.837-1.6.268-.781.159-1.7.643-2.375.757-1.048,2.377-.8,3.547-1.352.911-.427,1.549-1.349,2.507-1.657a3.738,3.738,0,0,1,2.559.335,9.646,9.646,0,0,0,2.469.9,17.261,17.261,0,0,0,1.879.005,2.477,2.477,0,0,1,1.729.6,1.19,1.19,0,0,1,.056,1.673,1.991,1.991,0,0,1,2.115,2.021,3.025,3.025,0,0,1-1.864,2.554,6.624,6.624,0,0,1-3.275.407,12.788,12.788,0,0,1-8.432-3.751" transform="translate(-287.202 -243.633)" fill="#263238"/>
        </g>
        <g id="Grupo_1100038" data-name="Grupo 1100038" transform="translate(0 1.697)">
          <g id="Grupo_1100034" data-name="Grupo 1100034" transform="translate(1.081 0.551)">
            <path id="Trazado_874310" data-name="Trazado 874310" d="M288.986,256.8l-2.139,15.545a4.668,4.668,0,0,0,4.217,5.286h0a4.67,4.67,0,0,0,5.032-4.021c.159-1.171.3-2.146.32-2.265,0,0,4.009.172,4.833-3.705.4-1.874.9-5.8,1.322-9.357a7.383,7.383,0,0,0-5.89-8.1l-.375-.075C292.216,249.54,289.445,252.7,288.986,256.8Z" transform="translate(-286.804 -250.046)" fill="#ffbe9d"/>
            <g id="Grupo_1100024" data-name="Grupo 1100024" transform="translate(4.85 18.793)">
              <path id="Trazado_874311" data-name="Trazado 874311" d="M305.381,305.954a9.218,9.218,0,0,1-4.78-2.454s.639,3.037,4.588,3.462Z" transform="translate(-300.601 -303.5)" fill="#eb996e"/>
            </g>
            <g id="Grupo_1100033" data-name="Grupo 1100033" transform="translate(6.469 5.88)">
              <g id="Grupo_1100030" data-name="Grupo 1100030" transform="translate(0 2.206)">
                <g id="Grupo_1100026" data-name="Grupo 1100026" transform="translate(5.895 1.061)">
                  <g id="Grupo_1100025" data-name="Grupo 1100025" transform="translate(0.537 1.774)">
                    <path id="Trazado_874312" data-name="Trazado 874312" d="M324.62,281.73a.566.566,0,0,1-.647.453.542.542,0,0,1-.472-.614.566.566,0,0,1,.647-.453.542.542,0,0,1,.473.614Z" transform="translate(-323.495 -281.109)" fill="#263238"/>
                  </g>
                  <path id="Trazado_874313" data-name="Trazado 874313" d="M324.158,276.9c-.083.059-.442-.335-1.039-.454s-1.1.093-1.145.007c-.025-.039.071-.156.29-.256a1.553,1.553,0,0,1,.935-.1,1.493,1.493,0,0,1,.809.452C324.162,276.727,324.2,276.871,324.158,276.9Z" transform="translate(-321.97 -276.065)" fill="#263238"/>
                </g>
                <g id="Grupo_1100027" data-name="Grupo 1100027" transform="translate(0.86 1.873)">
                  <path id="Trazado_874314" data-name="Trazado 874314" d="M308.775,279a.566.566,0,0,1-.647.453.542.542,0,0,1-.472-.614.567.567,0,0,1,.647-.454.542.542,0,0,1,.472.614Z" transform="translate(-307.651 -278.374)" fill="#263238"/>
                </g>
                <path id="Trazado_874315" data-name="Trazado 874315" d="M307.394,273.877c-.084.059-.442-.335-1.04-.454s-1.1.094-1.145.007c-.025-.039.07-.156.29-.256a1.556,1.556,0,0,1,.935-.1,1.493,1.493,0,0,1,.809.452C307.4,273.708,307.434,273.852,307.394,273.877Z" transform="translate(-305.205 -273.047)" fill="#263238"/>
                <g id="Grupo_1100028" data-name="Grupo 1100028" transform="translate(3.472 0.662)">
                  <path id="Trazado_874316" data-name="Trazado 874316" d="M315.079,279.961a4.032,4.032,0,0,1,1,.018c.156.014.306.013.353-.085a.791.791,0,0,0-.012-.473l-.219-1.252a20.368,20.368,0,0,1-.406-3.24,20.36,20.36,0,0,1,.666,3.2c.069.438.136.855.2,1.255a.9.9,0,0,1-.04.614.391.391,0,0,1-.3.173,1.058,1.058,0,0,1-.266-.016A3.97,3.97,0,0,1,315.079,279.961Z" transform="translate(-315.079 -274.929)" fill="#263238"/>
                </g>
                <g id="Grupo_1100029" data-name="Grupo 1100029" transform="translate(1.449 5.755)">
                  <path id="Trazado_874317" data-name="Trazado 874317" d="M309.505,289.415c.1.014-.03.662.433,1.233s1.167.638,1.154.73c0,.042-.179.1-.472.045a1.645,1.645,0,0,1-.971-.572,1.434,1.434,0,0,1-.322-1.026C309.357,289.549,309.462,289.4,309.505,289.415Z" transform="translate(-309.323 -289.415)" fill="#263238"/>
                </g>
              </g>
              <g id="Grupo_1100031" data-name="Grupo 1100031" transform="translate(0.03 0)">
                <path id="Trazado_874318" data-name="Trazado 874318" d="M308.072,267.5c-.091.151-.673-.045-1.39-.1s-1.323.022-1.387-.142c-.027-.078.1-.211.361-.322a2.424,2.424,0,0,1,2.115.185C308.009,267.273,308.113,267.427,308.072,267.5Z" transform="translate(-305.292 -266.772)" fill="#263238"/>
              </g>
              <g id="Grupo_1100032" data-name="Grupo 1100032" transform="translate(6.194 1.471)">
                <path id="Trazado_874319" data-name="Trazado 874319" d="M324.837,271.809c-.132.114-.515-.108-1.009-.214-.49-.123-.932-.092-1-.253-.028-.077.065-.2.273-.292a1.494,1.494,0,0,1,1.618.376C324.867,271.6,324.9,271.752,324.837,271.809Z" transform="translate(-322.823 -270.954)" fill="#263238"/>
              </g>
            </g>
          </g>
          <g id="Grupo_1100036" data-name="Grupo 1100036" transform="translate(0 9.905)">
            <path id="Trazado_874320" data-name="Trazado 874320" d="M286.734,276.994c-.06-.042-2.51-1.324-2.957,1.35a2.038,2.038,0,0,0,2.348,2.495C286.142,280.763,286.734,276.994,286.734,276.994Z" transform="translate(-283.729 -276.65)" fill="#ffbe9d"/>
            <g id="Grupo_1100035" data-name="Grupo 1100035" transform="translate(0.684 0.834)">
              <path id="Trazado_874321" data-name="Trazado 874321" d="M286.756,281.227c-.01-.011-.052.025-.137.048a.472.472,0,0,1-.349-.051,1.171,1.171,0,0,1-.361-1.124,1.562,1.562,0,0,1,.242-.645.545.545,0,0,1,.411-.3.24.24,0,0,1,.253.174c.023.081,0,.131.011.138s.065-.035.062-.149a.3.3,0,0,0-.078-.185.358.358,0,0,0-.247-.112.664.664,0,0,0-.558.335,1.606,1.606,0,0,0-.286.718,1.227,1.227,0,0,0,.488,1.268.505.505,0,0,0,.438,0C286.738,281.291,286.761,281.233,286.756,281.227Z" transform="translate(-285.69 -279.022)" fill="#eb996e"/>
            </g>
          </g>
          <g id="Grupo_1100037" data-name="Grupo 1100037" transform="translate(2.684 0)">
            <path id="Trazado_874322" data-name="Trazado 874322" d="M306.312,253.663c-.459.988-2.819,1.37-4.549.848-1.594-.481-2.173-1.493-3.187-2.376-.642-.558-.642-.558-1.689-.667-.847-.087-1.526.756-2.167,1.316.356,2.125-.589,4.229-1.51,6.178a1.079,1.079,0,0,1-.432.551c-.363.179-.8-.1-1.012-.446a3.347,3.347,0,0,1-.375-1.877,11.148,11.148,0,0,1,.886-4.305,7.591,7.591,0,0,1,2.8-3.347,7.189,7.189,0,0,1,5.319-.881,8.828,8.828,0,0,1,4.662,2.8,5.172,5.172,0,0,1,1.257,2.206" transform="translate(-291.377 -248.485)" fill="#263238"/>
          </g>
        </g>
        <g id="Grupo_1100043" data-name="Grupo 1100043" transform="translate(2.238 9.556)">
          <g id="Grupo_1100039" data-name="Grupo 1100039" transform="translate(9.923 1.106)">
            <path id="Trazado_874323" data-name="Trazado 874323" d="M318.341,276.656c.023,0,.014-.23.122-.621a2.58,2.58,0,0,1,.948-1.375,2.515,2.515,0,0,1,2.367-.341,2.491,2.491,0,0,1,0,4.673,2.516,2.516,0,0,1-2.367-.341,2.58,2.58,0,0,1-.948-1.375c-.107-.39-.1-.623-.122-.621a.479.479,0,0,0-.014.167,2.009,2.009,0,0,0,.056.476,2.575,2.575,0,0,0,.935,1.475,2.678,2.678,0,1,0,0-4.236,2.573,2.573,0,0,0-.935,1.475,2.012,2.012,0,0,0-.056.476.475.475,0,0,0,.015.166Z" transform="translate(-318.324 -273.978)" fill="#263238"/>
          </g>
          <g id="Grupo_1100040" data-name="Grupo 1100040" transform="translate(3.58 0)">
            <path id="Trazado_874324" data-name="Trazado 874324" d="M300.3,273.506c.023,0,.015-.23.122-.621a2.584,2.584,0,0,1,.948-1.375,2.517,2.517,0,0,1,2.367-.341,2.491,2.491,0,0,1,0,4.674,2.516,2.516,0,0,1-2.367-.341,2.583,2.583,0,0,1-.948-1.375c-.107-.39-.1-.622-.122-.621a.485.485,0,0,0-.013.167,1.989,1.989,0,0,0,.056.476,2.577,2.577,0,0,0,.935,1.475,2.677,2.677,0,1,0,0-4.235,2.577,2.577,0,0,0-.936,1.475,1.988,1.988,0,0,0-.056.476.484.484,0,0,0,.013.165Z" transform="translate(-300.283 -270.83)" fill="#263238"/>
          </g>
          <g id="Grupo_1100041" data-name="Grupo 1100041" transform="translate(8.82 2.535)">
            <path id="Trazado_874325" data-name="Trazado 874325" d="M315.186,278.274c.027.056.367-.1.763.016s.592.437.645.407c.025-.012.013-.112-.077-.248a.948.948,0,0,0-1.129-.34C315.238,278.173,315.172,278.251,315.186,278.274Z" transform="translate(-315.184 -278.043)" fill="#263238"/>
          </g>
          <g id="Grupo_1100042" data-name="Grupo 1100042" transform="translate(0 1.854)">
            <path id="Trazado_874326" data-name="Trazado 874326" d="M290.1,276.243a16.833,16.833,0,0,0,3.806-.056A16.779,16.779,0,0,0,290.1,276.243Z" transform="translate(-290.1 -276.105)" fill="#263238"/>
          </g>
        </g>
      </g>
    </g>
  </g>
</svg>
