<svg id="Grupo_1100898" data-name="Grupo 1100898" xmlns="http://www.w3.org/2000/svg" xmlns:xlink="http://www.w3.org/1999/xlink" width="49.797" height="47.805" viewBox="0 0 49.797 47.805">
  <defs>
    <clipPath id="clip-path">
      <rect id="Rectángulo_402077" data-name="Rectángulo 402077" width="49.797" height="47.805" fill="none"/>
    </clipPath>
  </defs>
  <g id="Grupo_1100897" data-name="Grupo 1100897" clip-path="url(#clip-path)">
    <path id="Trazado_875267" data-name="Trazado 875267" d="M50.062,4.448H7.635A3.187,3.187,0,0,0,4.448,7.635V36.119a3.187,3.187,0,0,0,3.187,3.187H50.062a3.187,3.187,0,0,0,3.187-3.187V7.635a3.187,3.187,0,0,0-3.187-3.187" transform="translate(-3.95 -3.95)" fill="#9b8e99"/>
    <rect id="Rectángulo_402075" data-name="Rectángulo 402075" width="40.834" height="24.899" transform="translate(4.482 4.482)" fill="#f9f7f8"/>
    <path id="Trazado_875268" data-name="Trazado 875268" d="M272.152,44.258l-3.521,3.522h0l-4.225-4.225,3.521-3.522Z" transform="translate(-234.804 -35.551)" fill="#f47c7c"/>
    <path id="Trazado_875269" data-name="Trazado 875269" d="M179.251,75.714l-9.86,9.859-5.634,1.408,1.408-5.634,9.86-9.859,4.225,4.225Z" transform="translate(-145.424 -63.484)" fill="#fee97d"/>
    <path id="Trazado_875270" data-name="Trazado 875270" d="M154.319,378.078a2.49,2.49,0,0,1,0,4.98H140.376a2.49,2.49,0,1,1,0-4.98Z" transform="translate(-122.449 -335.75)" fill="#9b8e99"/>
    <rect id="Rectángulo_402076" data-name="Rectángulo 402076" width="6.972" height="6.972" transform="translate(21.413 35.356)" fill="#c9bfc8"/>
    <path id="Trazado_875271" data-name="Trazado 875271" d="M190.739,40.032v24.9h-4.98a5.884,5.884,0,0,0-5.884-5.884H163.757l5.634-1.408,9.86-9.859,3.521-3.522-4.226-4.226Z" transform="translate(-145.424 -35.55)" fill="#efedef"/>
    <path id="Trazado_875272" data-name="Trazado 875272" d="M46.112,35.855H28.384a.5.5,0,1,1,0-1H46.112A2.692,2.692,0,0,0,48.8,32.17V3.686A2.692,2.692,0,0,0,46.112,1H3.685A2.692,2.692,0,0,0,1,3.686V32.17a2.692,2.692,0,0,0,2.689,2.689H21.413a.5.5,0,0,1,0,1H3.685A3.689,3.689,0,0,1,0,32.17V3.686A3.689,3.689,0,0,1,3.685,0H46.112A3.689,3.689,0,0,1,49.8,3.686V32.17a3.689,3.689,0,0,1-3.685,3.685" transform="translate(0 -0.001)"/>
    <path id="Trazado_875273" data-name="Trazado 875273" d="M76.916,61.479H36.082a.5.5,0,0,1-.5-.5v-24.9a.5.5,0,0,1,.5-.5H76.916a.5.5,0,0,1,.5.5v24.9a.5.5,0,0,1-.5.5m-40.336-1H76.418V36.58H36.58Z" transform="translate(-31.6 -31.6)"/>
    <path id="Trazado_875274" data-name="Trazado 875274" d="M194.285,319.326a.5.5,0,0,1-.5-.5v-6.474h-5.976v6.474a.5.5,0,0,1-1,0v-6.972a.5.5,0,0,1,.5-.5h6.972a.5.5,0,0,1,.5.5v6.972a.5.5,0,0,1-.5.5" transform="translate(-165.9 -276.5)"/>
    <path id="Trazado_875275" data-name="Trazado 875275" d="M150.37,379.606H136.427a2.988,2.988,0,1,1,0-5.976H150.37a2.988,2.988,0,1,1,0,5.976m-13.943-4.98a1.992,1.992,0,1,0,0,3.984H150.37a1.992,1.992,0,1,0,0-3.984Z" transform="translate(-118.5 -331.8)"/>
    <path id="Trazado_875276" data-name="Trazado 875276" d="M159.807,55.594a.5.5,0,0,1-.483-.619l1.408-5.634a.5.5,0,0,1,.131-.231l9.86-9.859,3.521-3.522a.5.5,0,0,1,.7,0l4.226,4.226a.5.5,0,0,1,0,.7l-3.521,3.522h0l-9.86,9.859a.5.5,0,0,1-.231.131l-5.634,1.408a.493.493,0,0,1-.121.015m1.858-5.877-1.174,4.7,4.7-1.174,9.762-9.761,3.169-3.169L174.6,36.786l-3.169,3.169Z" transform="translate(-141.474 -31.6)"/>
    <path id="Trazado_875277" data-name="Trazado 875277" d="M264.68,72.261a.5.5,0,0,1-.352-.146L260.1,67.89a.5.5,0,0,1,.7-.7l4.225,4.225a.5.5,0,0,1-.352.85" transform="translate(-230.854 -59.534)"/>
    <path id="Trazado_875278" data-name="Trazado 875278" d="M181.809,212.306a.5.5,0,0,1-.5-.5,5.392,5.392,0,0,0-5.386-5.386H159.807a.5.5,0,1,1,0-1h16.118a6.389,6.389,0,0,1,6.382,6.382.5.5,0,0,1-.5.5" transform="translate(-141.474 -182.428)"/>
    <path id="Trazado_875279" data-name="Trazado 875279" d="M51.021,81.06H36.082a.5.5,0,0,1,0-1H51.021a.5.5,0,1,1,0,1" transform="translate(-31.6 -71.1)"/>
    <path id="Trazado_875280" data-name="Trazado 875280" d="M42.057,125.54H36.081a.5.5,0,1,1,0-1h5.976a.5.5,0,0,1,0,1" transform="translate(-31.599 -110.601)"/>
  </g>
</svg>
