<svg xmlns="http://www.w3.org/2000/svg" width="85.439" height="30.75" viewBox="0 0 85.439 30.75">
  <g id="Grupo_1100768" data-name="Grupo 1100768" transform="translate(-289.861 -420.893)">
    <path id="Trazado_873450" data-name="Trazado 873450" d="M317.139,447.644a1.168,1.168,0,1,0,1.211,1.168,1.147,1.147,0,0,0-1.211-1.168Zm0,2a.834.834,0,1,1,.844-.832.819.819,0,0,1-.844.832Z" transform="translate(-12.954 -13.314)" fill="#12263f"/>
    <path id="Trazado_873451" data-name="Trazado 873451" d="M300.806,422.256c-7.653,8.986-14.871,20.942-8.495,26.449,6.178,5.335,13.9,2.176,19.172.07S374.94,421.4,374.94,421.4c.562-.28.456-.633-.246-.456-.284.07-63.358,17.165-63.358,17.165C303.333,440.35,294.207,435.454,300.806,422.256Z" transform="translate(0)" fill="#12263f"/>
    <path id="Trazado_873452" data-name="Trazado 873452" d="M318.086,449.427a.292.292,0,0,0,.3-.328c0-.3-.2-.379-.529-.379h-.475v1.257h.316v-.534h.054l.288.534h.365Zm-.2-.2H317.7v-.292h.154c.093,0,.2.011.2.133s-.064.159-.175.159Z" transform="translate(-13.697 -13.847)" fill="#12263f"/>
  </g>
</svg>
