<svg xmlns="http://www.w3.org/2000/svg" width="67" height="59.184" viewBox="0 0 67 59.184">
  <g id="Grupo_1100937" data-name="Grupo 1100937" transform="translate(-183.236 -8150.773)">
    <g id="Grupo_1100902" data-name="Grupo 1100902" transform="translate(3.236 -481.275)">
      <g id="Grupo_1099673" data-name="Grupo 1099673" transform="translate(0 4881.897)">
        <path id="_12068" data-name="12068" d="M66.039,71.828c-6.861-.947-14.108-.716-20.351,2.283C37.03,78.27,31.344,87.7,31.126,97.3s4.784,19.038,12.512,24.741a35.81,35.81,0,0,0,27.37,6.013c9.53-1.727,18.474-7.326,23.445-15.638,3.187-5.33,4.677-11.911,2.916-17.867a24.409,24.409,0,0,0-5.793-9.521A42.8,42.8,0,0,0,66.039,71.828Z" transform="translate(148.881 3680.691)" fill="#26aab7"/>
        <path id="Trazado_873155" data-name="Trazado 873155" d="M303.26,44.546a1.582,1.582,0,1,0-.106-2.456A1.573,1.573,0,0,0,303.26,44.546Z" transform="translate(138.287 4055.916) rotate(-90)" fill="#7d6eb2"/>
        <path id="Trazado_873156" data-name="Trazado 873156" d="M321.56,66.974a3.448,3.448,0,1,0-1.687-4.918A3.468,3.468,0,0,0,321.56,66.974Z" transform="translate(128.241 4079.581) rotate(-90)" fill="#ffd947"/>
        <circle id="Elipse_11521" data-name="Elipse 11521" cx="3.689" cy="3.689" r="3.689" transform="translate(237.702 3796.368) rotate(-90)" fill="none" stroke="#fff" stroke-linecap="round" stroke-linejoin="round" stroke-width="1.5"/>
      </g>
      <g id="pensar" transform="translate(192.974 8640.667)">
        <path id="Trazado_874646" data-name="Trazado 874646" d="M56.968,195.453l-13.651,7.563,13.651,7.563,13.651-7.563Zm0,0" transform="translate(-39.281 -177.252)" fill="#7d6eb2"/>
        <path id="Trazado_874647" data-name="Trazado 874647" d="M67.987,37.9h9.951a22.908,22.908,0,0,1,4.584-11.124,12.009,12.009,0,1,0-19.067.068A22.371,22.371,0,0,1,67.987,37.9Zm0,0" transform="translate(-55.276 -6.798)" fill="#f5ca56"/>
        <path id="Trazado_874648" data-name="Trazado 874648" d="M187.988,19.51a11.946,11.946,0,0,1-2.45,7.267A22.893,22.893,0,0,0,180.955,37.9H178.1a22.891,22.891,0,0,1,4.583-11.124,12.008,12.008,0,0,0-8.135-19.192q.423-.048.851-.069A12.009,12.009,0,0,1,187.988,19.51Zm0,0" transform="translate(-158.293 -6.801)" fill="#deac2f"/>
        <path id="Trazado_874649" data-name="Trazado 874649" d="M129.621,341.032H119.8a1.786,1.786,0,0,1-1.785-1.786v-7.32a1.786,1.786,0,0,1,1.785-1.786h9.82a1.785,1.785,0,0,1,1.785,1.786v7.32A1.785,1.785,0,0,1,129.621,341.032Zm0,0" transform="translate(-107.025 -299.399)" fill="#aee6e6"/>
        <path id="Trazado_874650" data-name="Trazado 874650" d="M198.469,51.209a4.507,4.507,0,0,0-2.862-4.2,3.138,3.138,0,0,0-5.391-1.718,1.068,1.068,0,0,0-.29.733V59.355a1.4,1.4,0,0,0,1.379,1.4h.016a2.038,2.038,0,0,0,2.008-1.689,3.371,3.371,0,0,0,3.568-4.44A4.494,4.494,0,0,0,198.469,51.209Zm0,0" transform="translate(-172.24 -40.181)" fill="#62529b"/>
        <path id="Trazado_874651" data-name="Trazado 874651" d="M98.176,51.209a4.507,4.507,0,0,1,2.862-4.2,3.138,3.138,0,0,1,5.391-1.718,1.07,1.07,0,0,1,.29.733V59.355a1.4,1.4,0,0,1-1.379,1.4h-.016a2.038,2.038,0,0,1-2.007-1.689,3.371,3.371,0,0,1-3.568-4.44A4.493,4.493,0,0,1,98.176,51.209Zm0,0" transform="translate(-89.033 -40.181)" fill="#7d6eb2"/>
        <path id="Trazado_874652" data-name="Trazado 874652" d="M203.577,290.327l-13.651,7.563V284.239l13.651-7.563Zm0,0" transform="translate(-172.24 -250.912)" fill="#e29c6d"/>
        <path id="Trazado_874653" data-name="Trazado 874653" d="M43.316,290.327l13.651,7.563V284.239l-13.651-7.563Zm0,0" transform="translate(-39.281 -250.912)" fill="#edb48a"/>
        <path id="Trazado_874654" data-name="Trazado 874654" d="M206.436,283.414l-12.039,6.67a.921.921,0,0,1-1.241-.34l-3.231-5.506,13.651-7.563,3.208,5.466A.922.922,0,0,1,206.436,283.414Zm0,0" transform="translate(-172.24 -250.912)" fill="#edb48a"/>
        <path id="Trazado_874655" data-name="Trazado 874655" d="M7.983,283.414l12.039,6.67a.922.922,0,0,0,1.241-.34l3.231-5.506-13.651-7.563-3.207,5.466A.921.921,0,0,0,7.983,283.414Zm0,0" transform="translate(-6.807 -250.912)" fill="#e29c6d"/>
        <path id="Trazado_874656" data-name="Trazado 874656" d="M106.213,39.717a3.834,3.834,0,0,0-6.3-1.915,3.834,3.834,0,0,0-6.3,1.915,5.2,5.2,0,0,0-1.461,8.33A4.07,4.07,0,0,0,96,52.985a2.73,2.73,0,0,0,2.521,1.669h.022a2.073,2.073,0,0,0,1.373-.536,2.061,2.061,0,0,0,1.368.536h.028a2.73,2.73,0,0,0,2.521-1.669,4.07,4.07,0,0,0,3.841-4.938,5.205,5.205,0,0,0-1.461-8.33Zm-7.68,13.54h-.011a1.336,1.336,0,0,1-1.066-.528,4.055,4.055,0,0,0,1.291-.826.7.7,0,1,0-.959-1.015,2.6,2.6,0,0,1-1.368.687,2.733,2.733,0,0,1-.286.016,2.672,2.672,0,0,1-2.53-3.527,2.72,2.72,0,0,1,1.78-1.629,3.564,3.564,0,0,0,.626,1.192.7.7,0,0,0,1.088-.877,2.308,2.308,0,0,1-.486-1.449,2.344,2.344,0,0,1,.361-1.275.7.7,0,0,0-1.174-.756,3.708,3.708,0,0,0-.574,1.766,4.035,4.035,0,0,0-2.427,1.6,3.806,3.806,0,0,1,1.694-5.779.7.7,0,0,0,.437-.554,2.447,2.447,0,0,1,2.416-2.1,2.416,2.416,0,0,1,1.775.766.368.368,0,0,1,.1.254v1.2a3.765,3.765,0,0,0-2.419.992.7.7,0,0,0,.944,1.03,2.373,2.373,0,0,1,1.475-.623V52.554A.7.7,0,0,1,98.533,53.257Zm8.5-6.618a4.035,4.035,0,0,0-2.427-1.6,3.708,3.708,0,0,0-.574-1.766.7.7,0,0,0-1.174.756,2.347,2.347,0,0,1,.361,1.275,2.308,2.308,0,0,1-.486,1.449.7.7,0,0,0,1.088.877,3.563,3.563,0,0,0,.626-1.192,2.718,2.718,0,0,1,1.78,1.629,2.671,2.671,0,0,1-2.53,3.526,2.739,2.739,0,0,1-.286-.016,2.6,2.6,0,0,1-1.368-.687.7.7,0,0,0-.959,1.016,4.054,4.054,0,0,0,1.29.826,1.336,1.336,0,0,1-1.066.528H101.3a.7.7,0,0,1-.686-.7V41.829a2.377,2.377,0,0,1,1.475.623.7.7,0,0,0,.943-1.03,3.764,3.764,0,0,0-2.419-.992v-1.2a.369.369,0,0,1,.1-.254,2.416,2.416,0,0,1,1.775-.766,2.447,2.447,0,0,1,2.416,2.1.7.7,0,0,0,.437.555,3.806,3.806,0,0,1,1.694,5.778Zm0,0" transform="translate(-82.231 -33.38)"/>
        <path id="Trazado_874657" data-name="Trazado 874657" d="M31.94,25.41a.715.715,0,0,0-.264-.258L26.5,22.287q.6-.971,1.3-1.889a12.7,12.7,0,0,0,.007-15.372.7.7,0,1,0-1.112.845,11.308,11.308,0,0,1-.006,13.68,23.791,23.791,0,0,0-4.583,10.491H13.267A23.149,23.149,0,0,0,8.731,19.616,11.31,11.31,0,0,1,24.691,3.829a.7.7,0,0,0,.866-1.1A12.706,12.706,0,0,0,7.626,20.47a21.931,21.931,0,0,1,1.257,1.809L3.7,25.153a.7.7,0,0,0-.264.258L.225,30.877a1.62,1.62,0,0,0,.612,2.237l2.5,1.385v4.917a.7.7,0,0,0,.36.611l13.651,7.563a.707.707,0,0,0,.677,0l8.552-4.738a.7.7,0,0,0-.677-1.222l-7.515,4.164V35.9l1.93,3.289a1.61,1.61,0,0,0,1.392.8,1.629,1.629,0,0,0,.79-.206l8.143-4.511V39l-1.911,1.059a.7.7,0,0,0,.677,1.222l2.271-1.258a.7.7,0,0,0,.36-.611V34.5l2.5-1.385a1.62,1.62,0,0,0,.612-2.237ZM17.686,32.528,15.722,31.44H19.65ZM29.9,25.763,23.69,29.2a22.105,22.105,0,0,1,2.118-5.7ZM9.584,23.488a21.714,21.714,0,0,1,2.105,5.717L5.476,25.763ZM4.733,35.271,6.042,36a.7.7,0,0,0,.677-1.222l-5.2-2.884a.223.223,0,0,1-.084-.308L4.292,26.7l12.429,6.886-2.868,4.888a.222.222,0,0,1-.3.082L9.387,36.253a.7.7,0,1,0-.677,1.222l4.166,2.308a1.611,1.611,0,0,0,2.182-.6l1.93-3.289v9.9L4.733,39Zm29.232-3.516a.22.22,0,0,1-.107.136l-12.039,6.67a.222.222,0,0,1-.3-.082l-2.868-4.888L31.08,26.7l2.862,4.879A.22.22,0,0,1,33.965,31.755Zm0,0" transform="translate(0 0)" fill="#00223d"/>
        <path id="Trazado_874658" data-name="Trazado 874658" d="M27.3,202.043h0a.7.7,0,0,0,.7-.7v-.174a.7.7,0,0,0-.7-.7h0a.7.7,0,0,0-.7.7v.174A.7.7,0,0,0,27.3,202.043Zm0,0" transform="translate(-24.126 -181.805)" fill="#00223d"/>
        <path id="Trazado_874659" data-name="Trazado 874659" d="M26.672,228.879a.7.7,0,0,0,.7.7h0a.7.7,0,0,0,.7-.7V228.7a.7.7,0,0,0-.7-.695h0a.7.7,0,0,0-.695.7Zm0,0" transform="translate(-24.187 -206.772)" fill="#00223d"/>
        <path id="Trazado_874660" data-name="Trazado 874660" d="M40.171,216.534h.177a.7.7,0,0,0,0-1.4h-.177a.7.7,0,0,0,0,1.4Zm0,0" transform="translate(-35.796 -195.103)" fill="#00223d"/>
        <path id="Trazado_874661" data-name="Trazado 874661" d="M12.643,216.6h.178a.7.7,0,0,0,0-1.4H12.64a.7.7,0,0,0,0,1.4Zm0,0" transform="translate(-10.831 -195.16)" fill="#00223d"/>
        <path id="Trazado_874662" data-name="Trazado 874662" d="M357.414,152.245v.174a.7.7,0,0,0,.7.695h0a.7.7,0,0,0,.7-.7v-.174a.7.7,0,0,0-.7-.7h0A.7.7,0,0,0,357.414,152.245Zm0,0" transform="translate(-324.133 -137.431)" fill="#00223d"/>
        <path id="Trazado_874663" data-name="Trazado 874663" d="M358.176,180.645h0a.7.7,0,0,0,.695-.7v-.174a.7.7,0,0,0-.7-.7h0a.7.7,0,0,0-.695.7v.173A.7.7,0,0,0,358.176,180.645Zm0,0" transform="translate(-324.189 -162.399)" fill="#00223d"/>
        <path id="Trazado_874664" data-name="Trazado 874664" d="M371.154,166.207h-.177a.7.7,0,0,0,0,1.4h.177a.7.7,0,0,0,0-1.4Zm0,0" transform="translate(-335.802 -150.73)" fill="#00223d"/>
        <path id="Trazado_874665" data-name="Trazado 874665" d="M343.448,167.667h.177a.7.7,0,0,0,0-1.4h-.177a.7.7,0,0,0,0,1.4Zm0,0" transform="translate(-310.834 -150.786)" fill="#00223d"/>
        <path id="Trazado_874666" data-name="Trazado 874666" d="M40.137,23.68h0a.7.7,0,0,0,.695-.7V22.8a.7.7,0,0,0-.7-.695h0a.7.7,0,0,0-.695.7v.174A.7.7,0,0,0,40.137,23.68Zm0,0" transform="translate(-35.764 -20.049)" fill="#00223d"/>
        <path id="Trazado_874667" data-name="Trazado 874667" d="M40.9,50.335a.7.7,0,0,0-.7-.695h0a.7.7,0,0,0-.695.7v.174a.7.7,0,0,0,.7.695h0a.7.7,0,0,0,.695-.7Zm0,0" transform="translate(-35.82 -45.017)" fill="#00223d"/>
        <path id="Trazado_874668" data-name="Trazado 874668" d="M53.006,38.167h.178a.7.7,0,0,0,0-1.4H53a.7.7,0,0,0,0,1.4Zm0,0" transform="translate(-47.436 -33.344)" fill="#00223d"/>
        <path id="Trazado_874669" data-name="Trazado 874669" d="M25.472,38.23h.177a.7.7,0,0,0,0-1.4h-.178a.7.7,0,0,0,0,1.4Zm0,0" transform="translate(-22.465 -33.401)" fill="#00223d"/>
        <path id="Trazado_874670" data-name="Trazado 874670" d="M329.695,202.156a.7.7,0,0,0-.695.7v.174a.7.7,0,0,0,.7.695h0a.7.7,0,0,0,.695-.7v-.174A.7.7,0,0,0,329.695,202.156Zm0,0" transform="translate(-298.364 -183.331)" fill="#00223d"/>
        <path id="Trazado_874671" data-name="Trazado 874671" d="M329.765,231.258h0a.7.7,0,0,0,.695-.7v-.174a.7.7,0,0,0-.7-.695h0a.7.7,0,0,0-.695.7v.174A.7.7,0,0,0,329.765,231.258Zm0,0" transform="translate(-298.424 -208.299)" fill="#00223d"/>
        <path id="Trazado_874672" data-name="Trazado 874672" d="M342.569,218.214h.178a.7.7,0,0,0,0-1.4h-.177a.7.7,0,0,0,0,1.4Zm0,0" transform="translate(-310.037 -196.627)" fill="#00223d"/>
        <path id="Trazado_874673" data-name="Trazado 874673" d="M315.208,216.879h-.174a.7.7,0,0,0,0,1.4h.177a.7.7,0,1,0-.007-1.4Zm0,0" transform="translate(-285.069 -196.683)" fill="#00223d"/>
        <path id="Trazado_874674" data-name="Trazado 874674" d="M336.5,75.52a.7.7,0,0,0,.671.5A.69.69,0,0,0,337.36,76l.713-.206a.7.7,0,0,0-.387-1.342l-.713.206A.7.7,0,0,0,336.5,75.52Zm0,0" transform="translate(-305.137 -67.49)" fill="#00223d"/>
        <path id="Trazado_874675" data-name="Trazado 874675" d="M328.558,55.455a.7.7,0,0,0,.5-.214l.515-.535a.7.7,0,1,0-1.006-.968l-.515.535a.7.7,0,0,0,.5,1.182Zm0,0" transform="translate(-297.33 -48.538)" fill="#00223d"/>
        <path id="Trazado_874676" data-name="Trazado 874676" d="M340.031,96.114l-.721-.178a.7.7,0,1,0-.335,1.356l.721.178a.7.7,0,0,0,.335-1.356Zm0,0" transform="translate(-306.929 -86.983)" fill="#00223d"/>
        <path id="Trazado_874677" data-name="Trazado 874677" d="M14.933,142.84h.037l.742-.039a.7.7,0,1,0-.073-1.395l-.741.039a.7.7,0,0,0,.036,1.4Zm0,0" transform="translate(-12.908 -128.236)" fill="#00223d"/>
        <path id="Trazado_874678" data-name="Trazado 874678" d="M17.923,119.877l.661.337a.7.7,0,1,0,.634-1.245l-.662-.337a.7.7,0,1,0-.634,1.245Zm0,0" transform="translate(-15.907 -107.516)" fill="#00223d"/>
        <path id="Trazado_874679" data-name="Trazado 874679" d="M21.656,161.56a.7.7,0,1,0-.761-1.171l-.623.4a.7.7,0,1,0,.761,1.172Zm0,0" transform="translate(-18.095 -145.351)" fill="#00223d"/>
      </g>
    </g>
  </g>
</svg>
