<svg xmlns="http://www.w3.org/2000/svg" xmlns:xlink="http://www.w3.org/1999/xlink" width="87.617" height="98.75" viewBox="0 0 87.617 98.75">
  <defs>
    <clipPath id="clip-path">
      <rect id="Rectángulo_401417" data-name="Rectángulo 401417" width="87.617" height="98.75" fill="none"/>
    </clipPath>
  </defs>
  <g id="Grupo_1099513" data-name="Grupo 1099513" transform="translate(0)">
    <g id="Grupo_1099512" data-name="Grupo 1099512" transform="translate(0 0)" clip-path="url(#clip-path)">
      <path id="Trazado_873618" data-name="Trazado 873618" d="M29.013,98.75a1.159,1.159,0,0,1-1.159-1.159V83.033a.7.7,0,0,0-.7-.7H14.139a3.016,3.016,0,0,1-3.013-3.013V66.142a.691.691,0,0,0-.5-.666l-9.8-2.934a1.159,1.159,0,0,1-.706-1.621L9.886,41a17.121,17.121,0,0,0,1.691-6.136A38.144,38.144,0,0,1,58.217.97a37.457,37.457,0,0,1,29.4,37.124,40.845,40.845,0,0,1-3.889,17.889,63.814,63.814,0,0,0-6.37,27.833v2.65a1.156,1.156,0,0,1-.894,1.127L29.278,98.719a1.177,1.177,0,0,1-.265.032M2.8,60.712l8.493,2.542a3,3,0,0,1,2.151,2.887V79.324a.7.7,0,0,0,.7.7H27.159a3.017,3.017,0,0,1,3.013,3.013v13.1L75.041,85.547V83.815a66.12,66.12,0,0,1,6.605-28.85A38.509,38.509,0,0,0,85.3,38.1,35.14,35.14,0,0,0,57.716,3.232,35.825,35.825,0,0,0,13.887,35.058a19.463,19.463,0,0,1-1.921,6.963ZM76.2,86.465h0Z" transform="translate(0 0)" fill="#262626"/>
      <path id="Trazado_873619" data-name="Trazado 873619" d="M43.722,22.322H38.159a1.159,1.159,0,1,1,0-2.318h5.563a1.159,1.159,0,1,1,0,2.318" transform="translate(31.61 17.09)" fill="#262626"/>
      <path id="Trazado_873620" data-name="Trazado 873620" d="M18.722,22.322H13.159a1.159,1.159,0,1,1,0-2.318h5.563a1.159,1.159,0,1,1,0,2.318" transform="translate(10.252 17.09)" fill="#262626"/>
      <path id="Trazado_873621" data-name="Trazado 873621" d="M27.159,13.885A1.159,1.159,0,0,1,26,12.726V7.163a1.159,1.159,0,0,1,2.318,0v5.563a1.159,1.159,0,0,1-1.159,1.159" transform="translate(22.212 5.129)" fill="#262626"/>
      <path id="Trazado_873622" data-name="Trazado 873622" d="M27.159,38.885A1.159,1.159,0,0,1,26,37.726V32.163a1.159,1.159,0,1,1,2.318,0v5.563a1.159,1.159,0,0,1-1.159,1.159" transform="translate(22.212 26.487)" fill="#262626"/>
      <path id="Trazado_873623" data-name="Trazado 873623" d="M36.686,18.1a1.158,1.158,0,0,1-.58-2.162l4.818-2.781a1.159,1.159,0,1,1,1.159,2.006l-4.818,2.781a1.154,1.154,0,0,1-.579.156" transform="translate(30.351 11.11)" fill="#262626"/>
      <path id="Trazado_873624" data-name="Trazado 873624" d="M15.035,30.6a1.158,1.158,0,0,1-.58-2.162l4.818-2.781a1.159,1.159,0,1,1,1.159,2.006l-4.818,2.781a1.154,1.154,0,0,1-.579.156" transform="translate(11.854 21.789)" fill="#262626"/>
      <path id="Trazado_873625" data-name="Trazado 873625" d="M22.942,15.015a1.16,1.16,0,0,1-1.005-.579L19.155,9.619A1.159,1.159,0,1,1,21.162,8.46l2.781,4.818a1.158,1.158,0,0,1-1,1.737" transform="translate(16.233 6.732)" fill="#262626"/>
      <path id="Trazado_873626" data-name="Trazado 873626" d="M35.442,36.665a1.16,1.16,0,0,1-1.005-.579l-2.781-4.818a1.159,1.159,0,1,1,2.006-1.159l2.781,4.818a1.158,1.158,0,0,1-1,1.737" transform="translate(26.912 25.229)" fill="#262626"/>
      <path id="Trazado_873627" data-name="Trazado 873627" d="M32.658,15.015a1.158,1.158,0,0,1-1-1.737L34.438,8.46a1.159,1.159,0,1,1,2.006,1.159l-2.781,4.818a1.16,1.16,0,0,1-1.005.579" transform="translate(26.912 6.732)" fill="#262626"/>
      <path id="Trazado_873628" data-name="Trazado 873628" d="M20.158,36.665a1.158,1.158,0,0,1-1-1.737l2.781-4.818a1.159,1.159,0,1,1,2.006,1.159l-2.781,4.818a1.16,1.16,0,0,1-1.005.579" transform="translate(16.233 25.229)" fill="#262626"/>
      <path id="Trazado_873629" data-name="Trazado 873629" d="M19.851,18.1a1.154,1.154,0,0,1-.579-.156l-4.818-2.781a1.159,1.159,0,1,1,1.159-2.006l4.818,2.781a1.158,1.158,0,0,1-.58,2.162" transform="translate(11.854 11.11)" fill="#262626"/>
      <path id="Trazado_873630" data-name="Trazado 873630" d="M41.5,30.6a1.154,1.154,0,0,1-.579-.156l-4.818-2.781a1.159,1.159,0,1,1,1.159-2.006l4.818,2.781A1.158,1.158,0,0,1,41.5,30.6" transform="translate(30.351 21.789)" fill="#262626"/>
      <path id="Trazado_873631" data-name="Trazado 873631" d="M41.882,40.259a1.142,1.142,0,0,1-.54-.135l-7.9-4.15-7.9,4.15a1.157,1.157,0,0,1-1.682-1.22l1.508-8.793-6.386-6.227a1.156,1.156,0,0,1,.642-1.975l8.828-1.283,3.946-8a1.207,1.207,0,0,1,2.081,0l3.946,8,8.828,1.283a1.156,1.156,0,0,1,.642,1.975l-6.386,6.227L43.025,38.9a1.159,1.159,0,0,1-1.142,1.356m-8.435-6.753a1.156,1.156,0,0,1,.54.134l6.357,3.341L39.129,29.9a1.161,1.161,0,0,1,.334-1.025L44.6,23.865,37.5,22.831a1.154,1.154,0,0,1-.873-.634l-3.178-6.438L30.269,22.2a1.154,1.154,0,0,1-.873.634L22.29,23.865l5.142,5.012a1.161,1.161,0,0,1,.334,1.025l-1.215,7.078,6.357-3.341a1.156,1.156,0,0,1,.54-.134" transform="translate(15.924 10.278)" fill="#262626"/>
    </g>
  </g>
</svg>
