<svg xmlns="http://www.w3.org/2000/svg" xmlns:xlink="http://www.w3.org/1999/xlink" width="210" height="151.962" viewBox="0 0 210 151.962">
  <defs>
    <linearGradient id="linear-gradient" x1="0.5" x2="0.5" y2="1" gradientUnits="objectBoundingBox">
      <stop offset="0" stop-color="#fff"/>
      <stop offset="1" stop-color="#d2e6ee"/>
    </linearGradient>
  </defs>
  <g id="Grupo_1100937" data-name="Grupo 1100937" transform="translate(-285.949 -11335.442)">
    <g id="f13.20e8e294" transform="translate(-201.902 10999.846)">
      <path id="Trazado_873489" data-name="Trazado 873489" d="M798.157,370.417q-.125-.292-.259-.584a29.442,29.442,0,0,0-26.725-17.165h-.308a29.489,29.489,0,0,0-26.486,16.657q-.26.542-.493,1.1a28.806,28.806,0,0,0,0,22.629q.283.66.6,1.3a28.6,28.6,0,0,0,1.8,3.166A29.511,29.511,0,0,0,770.87,410.8h.308A29.475,29.475,0,0,0,797.8,393.85q.185-.394.356-.8a28.809,28.809,0,0,0,0-22.629Zm-3.751,22.04a55.057,55.057,0,0,0-8.607-2.222,55.981,55.981,0,0,0,.039-16.754,54.808,54.808,0,0,0,8.671-2.251q.138.3.268.6a25.224,25.224,0,0,1,0,19.8q-.182.419-.37.823Zm-35.139-10.73a51.492,51.492,0,0,1,.592-7.864,82.857,82.857,0,0,0,11.792.82,83.872,83.872,0,0,0,10.554-.652,52.659,52.659,0,0,1-.039,15.644,83.914,83.914,0,0,0-10.516-.643,82.813,82.813,0,0,0-11.752.814,51.334,51.334,0,0,1-.632-8.12Zm21.784-23.441A25.843,25.843,0,0,1,792.728,368a52,52,0,0,1-7.572,1.916,37.368,37.368,0,0,0-2.881-8.259,24.175,24.175,0,0,0-2.325-3.8q.558.2,1.1.432Zm-5.942-.292a16.7,16.7,0,0,1,3.868,5.266,33.511,33.511,0,0,1,2.539,7.208,80.42,80.42,0,0,1-9.87.592,79.394,79.394,0,0,1-11.092-.755,33.332,33.332,0,0,1,2.5-7.046,16.689,16.689,0,0,1,3.868-5.266,5.766,5.766,0,0,1,8.184,0Zm-22.32,5.747a25.714,25.714,0,0,1,8.192-5.455q.548-.228,1.1-.43a24.178,24.178,0,0,0-2.323,3.8,37.153,37.153,0,0,0-2.828,8.03,48.593,48.593,0,0,1-7.383-2.051,25.573,25.573,0,0,1,3.241-3.9Zm-5.527,27.89a25.224,25.224,0,0,1,0-19.8q.218-.507.456-1l.13.051a51.775,51.775,0,0,0,8.39,2.368,55.949,55.949,0,0,0,.04,17.219,51.783,51.783,0,0,0-8.428,2.376l-.025.01q-.3-.6-.56-1.217Zm13.72,13.54a25.863,25.863,0,0,1-11.293-9.141,48.819,48.819,0,0,1,7.3-2.01,36.94,36.94,0,0,0,2.764,7.782,24.169,24.169,0,0,0,2.326,3.8q-.545-.2-1.1-.427Zm5.942.292a16.689,16.689,0,0,1-3.868-5.267,33.108,33.108,0,0,1-2.439-6.8,79.475,79.475,0,0,1,11.03-.746,80.4,80.4,0,0,1,9.807.584,33.27,33.27,0,0,1-2.478,6.956,16.7,16.7,0,0,1-3.868,5.267,5.766,5.766,0,0,1-8.184,0Zm22.32-5.747a25.714,25.714,0,0,1-8.193,5.455q-.548.228-1.1.431a24.171,24.171,0,0,0,2.326-3.8,37.154,37.154,0,0,0,2.823-8.01,52.247,52.247,0,0,1,7.49,1.879,25.591,25.591,0,0,1-3.34,4.049Z" transform="translate(-225.339 -15.206)" fill="#f1f1f1"/>
      <g id="Grupo_1099472" data-name="Grupo 1099472" transform="translate(523.89 371.719)">
        <rect id="Rectángulo_401361" data-name="Rectángulo 401361" width="145.269" height="106.608" rx="2" transform="translate(14.347)" fill="#00223d"/>
        <rect id="Rectángulo_401362" data-name="Rectángulo 401362" width="138.716" height="101.799" transform="translate(17.623 3.725)" fill="#fff"/>
        <rect id="Rectángulo_401363" data-name="Rectángulo 401363" width="173.962" height="6.824" transform="translate(0 102.465)" fill="#00223d"/>
        <rect id="Rectángulo_401364" data-name="Rectángulo 401364" width="133.25" height="93.529" transform="translate(20.356 5.888)" fill="#e7eefd"/>
      </g>
      <g id="Grupo_1099478" data-name="Grupo 1099478" transform="translate(487.852 410.676)">
        <g id="Grupo_1099477" data-name="Grupo 1099477" transform="translate(0 0)">
          <path id="Trazado_873490" data-name="Trazado 873490" d="M514.409,1019.546c-.066.974.318,1.984.041,2.922-.365,1.248-1.746,1.941-2.332,3.1-.614,1.218-.3,2.818-1.16,3.875-.309.376-.738.637-1.067,1a2.556,2.556,0,0,0-.207,3.1,3.981,3.981,0,0,0,3.35,1.375c1.26-.008,2.509-.3,3.768-.242,1.283.06,2.532.487,3.812.441a6.512,6.512,0,0,0,4.584-2.356,11.512,11.512,0,0,0,2.28-4.693,10.115,10.115,0,0,0,.34-1.969c.144-2.593-1.184-5.042-2.726-7.149a7.1,7.1,0,0,0-2.586-2.421C520.033,1015.391,514.637,1016.161,514.409,1019.546Z" transform="translate(-506.863 -1016.037)" fill="#00223d"/>
          <g id="Grupo_1099473" data-name="Grupo 1099473" transform="translate(16.755 68.393)">
            <path id="Trazado_873491" data-name="Trazado 873491" d="M640.751,1635.7s-.45,4.383.457,4.884c1.643.9,4.675,1.76,4.421,2.533s-7.519.8-7.721.1.612-2.865-.251-7.068Z" transform="translate(-637.658 -1635.7)" fill="#fb9391"/>
            <path id="Trazado_873492" data-name="Trazado 873492" d="M639.727,1686.4a6.259,6.259,0,0,0-.072,1.575c.2.705,7.467.675,7.721-.1.188-.574-1.416-1.221-2.938-1.865C644.076,1686.612,643.309,1687.542,639.727,1686.4Z" transform="translate(-639.404 -1680.46)" fill="#8ec8c8"/>
          </g>
          <g id="Grupo_1099474" data-name="Grupo 1099474" transform="translate(2.116 68.194)">
            <path id="Trazado_873493" data-name="Trazado 873493" d="M510.9,1633.936s-1.2,4.247-.395,4.89c1.464,1.169,4.3,2.52,3.919,3.241s-7.548-.472-7.625-1.2,1.1-2.721.973-7.007Z" transform="translate(-506.791 -1633.86)" fill="#fb9391"/>
            <path id="Trazado_873494" data-name="Trazado 873494" d="M507.146,1683.388a6.258,6.258,0,0,0-.344,1.54c.077.729,7.242,1.92,7.625,1.2.284-.534-1.184-1.441-2.574-2.332C511.4,1684.324,510.48,1685.112,507.146,1683.388Z" transform="translate(-506.795 -1677.923)" fill="#8ec8c8"/>
          </g>
          <path id="Trazado_873495" data-name="Trazado 873495" d="M664.388,1153.378s1.526,2.017,2.8,2.017,5.6-5.334,5.6-5.334l1.018,1.616s-3.625,7.8-6.931,7.861-5.787-3.577-5.725-3.765,2.162-2.393,2.162-2.393Z" transform="translate(-641.762 -1135.266)" fill="#fb9391"/>
          <path id="Trazado_873496" data-name="Trazado 873496" d="M527.958,1283.4a17.573,17.573,0,0,1,2.862,5.121c.888,2.76-1.472,35.477-1.472,35.477h-3.943s-2.092-29.136-2.092-29.394c0-1.018-7.764,29.394-7.764,29.394h-3.936s2.13-35.609,7.074-40.6l4.626.282Z" transform="translate(-508.956 -1253.886)" fill="#00223d"/>
          <path id="Trazado_873497" data-name="Trazado 873497" d="M584.012,1269.273v1.224s-2.353,2.259-9.268,0l-.016-1.224,6.073-.377Z" transform="translate(-565.009 -1240.987)" fill="#060633"/>
          <path id="Trazado_873498" data-name="Trazado 873498" d="M525.606,1132.112a7.671,7.671,0,0,1,3.695.758c.888.606,2.854,4.024,2.854,4.024l-2.254,1.892a2.743,2.743,0,0,1-1.561,3.1l-.38,4.989a10.963,10.963,0,0,1-9.284,0s-1.018-9.351-1.974-8.535a12.465,12.465,0,0,0-1.526,1.538l-3.561-3.483s3.882-3.838,5.167-4.44a6.293,6.293,0,0,1,5.451-.054Z" transform="translate(-508.956 -1118.586)" fill="#fff"/>
          <path id="Trazado_873499" data-name="Trazado 873499" d="M493.738,1182.968s-2.067,2.382-1.829,3.04,3.888,6.085,4.377,7.111a2.739,2.739,0,0,1,.345,1.64l-1.86.894a4.366,4.366,0,0,0-.5-1.879c-.4-.427-6.557-6.687-6.416-8.665s2.967-5,2.967-5Z" transform="translate(-487.852 -1162.005)" fill="#fb9391"/>
          <g id="Grupo_1099475" data-name="Grupo 1099475" transform="translate(8.904 0.164)">
            <path id="Trazado_873500" data-name="Trazado 873500" d="M646.339,1066.1s.269-.522.55-.354c.715.43.082,1.178-.34,1.371Z" transform="translate(-637.516 -1060.395)" fill="#fb9391"/>
            <path id="Trazado_873501" data-name="Trazado 873501" d="M577.006,1019.548a4.028,4.028,0,0,0-2.944,2.264,3.937,3.937,0,0,0,.2,3.678,17.179,17.179,0,0,0,1.96,3.117,3.934,3.934,0,0,1,1.022,2.722l-.029,1.013c2.468.888,3.429.278,3.429.278l-.342-2.957h0c2.488-.584,1.621-5.138,1.463-6.5h0a1.416,1.416,0,0,0-.014-.153,3.972,3.972,0,0,0-1.608-2.748,4.078,4.078,0,0,0-3.132-.716Z" transform="translate(-572.997 -1019.266)" fill="#fb9391"/>
            <path id="Trazado_873502" data-name="Trazado 873502" d="M571.646,1021.985a16.515,16.515,0,0,0-1.684,2.792c-.046.11-.369.934-.239,1.01a5.156,5.156,0,0,1-1.643-1.785,4.1,4.1,0,0,1-.19-3.888,4.2,4.2,0,0,1,3.158-2.333,4.482,4.482,0,0,1,4.118,1.121,7.161,7.161,0,0,1,1.419,3.777c-.281-1.487-2.454-2.376-3.739-2.767.038.012-.761,1.4-.8,1.467C571.914,1021.583,571.781,1021.783,571.646,1021.985Z" transform="translate(-567.489 -1017.664)" fill="#00223d"/>
            <path id="Trazado_873503" data-name="Trazado 873503" d="M578.647,1080.252a.6.6,0,0,0-.344-.244,1.021,1.021,0,0,0-1.086.225c-.436.542.7,1.718,1.609.967C578.822,1081.2,579.074,1080.893,578.647,1080.252Z" transform="translate(-576.036 -1073.056)" fill="#fb9391"/>
            <path id="Trazado_873504" data-name="Trazado 873504" d="M634.851,1067.485a.352.352,0,1,0-.346.354A.35.35,0,0,0,634.851,1067.485Z" transform="translate(-626.687 -1061.666)" fill="#060633"/>
            <path id="Trazado_873505" data-name="Trazado 873505" d="M605.691,1074.172a.352.352,0,1,0-.346.354.35.35,0,0,0,.346-.354Z" transform="translate(-600.792 -1067.615)" fill="#060633"/>
            <path id="Trazado_873506" data-name="Trazado 873506" d="M622.075,1090.046s-.464-.33-.642-.276a.523.523,0,0,0-.269.273.408.408,0,0,0-.334-.207c-.219,0-.672.6-.672.6s.653.931,1.313.79.6-1.133.6-1.133Z" transform="translate(-614.258 -1081.79)" fill="#fa7267"/>
            <path id="Trazado_873507" data-name="Trazado 873507" d="M600.132,1067.481a.147.147,0,0,1-.149-.077.143.143,0,0,1,.023-.164,1.767,1.767,0,0,1,1.069-.482.145.145,0,0,1,.158.132.149.149,0,0,1-.133.156,1.475,1.475,0,0,0-.878.39.146.146,0,0,1-.09.047Z" transform="translate(-596.331 -1061.319)" fill="#060633"/>
            <path id="Trazado_873508" data-name="Trazado 873508" d="M630.456,1059.987a.147.147,0,0,1-.126-.11.144.144,0,0,1,.061-.155,1.762,1.762,0,0,1,1.154-.219.145.145,0,1,1-.045.285,1.475,1.475,0,0,0-.948.176A.149.149,0,0,1,630.456,1059.987Z" transform="translate(-623.294 -1054.853)" fill="#060633"/>
            <path id="Trazado_873509" data-name="Trazado 873509" d="M623.977,1072.1a.62.62,0,0,0,.5-.609.119.119,0,0,0-.038-.082,1.787,1.787,0,0,1-.461-1.071.124.124,0,0,0-.247.012,2.03,2.03,0,0,0,.494,1.193c-.013.1-.088.323-.483.348a.124.124,0,0,0-.109.065.121.121,0,0,0,.008.126.124.124,0,0,0,.117.051,1.088,1.088,0,0,0,.218-.033Z" transform="translate(-617.347 -1064.409)" fill="#ea6868"/>
            <path id="Trazado_873510" data-name="Trazado 873510" d="M622.075,1092.314l-1.917.39a2.318,2.318,0,0,0,1.238.39C621.911,1093.016,622.075,1092.314,622.075,1092.314Z" transform="translate(-614.258 -1084.058)" fill="#fafafc"/>
          </g>
          <g id="Grupo_1099476" data-name="Grupo 1099476" transform="translate(5.925 30.048)">
            <path id="Trazado_873511" data-name="Trazado 873511" d="M542.514,1288.271s1.615,2.24,1.451,2.756-.856,1.982-.91,2.24a12.468,12.468,0,0,1-.164,1.856c-.143.215-.487-1.485-.487-1.485s.087,1.491-.177,1.585-.493-1.5-.493-1.5.137,1.508-.121,1.517-.411-1.455-.411-1.455.09,1.169-.115,1.176a3.4,3.4,0,0,1-.26-2.59,3.3,3.3,0,0,0,.668-2.446Z" transform="translate(-540.682 -1288.271)" fill="#fb9391"/>
            <path id="Trazado_873512" data-name="Trazado 873512" d="M565.777,1302.87a6.687,6.687,0,0,1,.812,1.835c.01.507.158,1.534-.062,1.531s-.52-1.426-.678-1.486-.162-.7-.162-.7Z" transform="translate(-562.906 -1301.259)" fill="#fb9391"/>
          </g>
          <path id="Trazado_873513" data-name="Trazado 873513" d="M583.221,1205.784a2.969,2.969,0,0,1-2.542-1.783.065.065,0,0,1,.036-.085.067.067,0,0,1,.086.036,2.833,2.833,0,0,0,2.418,1.7,2.669,2.669,0,0,0,2.369-1.235.067.067,0,0,1,.087-.025.065.065,0,0,1,.03.084A2.809,2.809,0,0,1,583.221,1205.784Z" transform="translate(-570.292 -1183.174)" fill="#7c9af2"/>
          <path id="Trazado_873514" data-name="Trazado 873514" d="M665.851,1181.741a.066.066,0,0,1-.066-.058,3.729,3.729,0,0,0-1.079-2.046.066.066,0,0,1,.025-.112.068.068,0,0,1,.065.014,3.79,3.79,0,0,1,1.12,2.129.065.065,0,0,1-.058.072Z" transform="translate(-644.906 -1161.478)" fill="#7c9af2"/>
          <path id="Trazado_873515" data-name="Trazado 873515" d="M619.3,1278.526a1.151,1.151,0,1,1,1.167-1.151,1.159,1.159,0,0,1-1.167,1.151Zm0-1.78a.628.628,0,1,0,.637.628.633.633,0,0,0-.637-.628Z" transform="translate(-603.559 -1247.504)" fill="#bdd1f9"/>
        </g>
        <path id="Trazado_873516" data-name="Trazado 873516" d="M771.781,1124.907c.083-.114,1.354-1.907,1.354-1.907l1.593,2.213-2.149,1.905Z" transform="translate(-740.025 -1111.192)" fill="#fb9391"/>
        <path id="Trazado_873517" data-name="Trazado 873517" d="M764.082,1121.925a3.37,3.37,0,0,1,.257-1.8c.395-.584,1.184-2.086,1.42-1.6s-.427,1.867-.395,2.233,1.457,1.5-.263,2.777S764.082,1121.925,764.082,1121.925Z" transform="translate(-733.061 -1107.132)" fill="#fb9391"/>
      </g>
      <g id="Grupo_1099481" data-name="Grupo 1099481" transform="translate(638.26 335.596)">
        <path id="Trazado_873518" data-name="Trazado 873518" d="M2029.286,806.8s-.427,2.948.639,4.421,3.271,3.58,2.7,4.141-6.9-2.6-6.756-3.3,1.138-3.58.925-5.26Z" transform="translate(-2004.265 -754.818)" fill="#fb9391"/>
        <path id="Trazado_873519" data-name="Trazado 873519" d="M2026.256,841.575c-.174.65-.333,1.176-.383,1.426-.142.7,6.187,3.86,6.756,3.3.421-.416-.681-1.682-1.716-2.91C2030.332,843.751,2028.861,844.132,2026.256,841.575Z" transform="translate(-2004.265 -785.75)" fill="#060633"/>
        <path id="Trazado_873520" data-name="Trazado 873520" d="M1973.424,811.124s-.426,2.948.64,4.421,3.271,3.58,2.7,4.141-6.9-2.6-6.756-3.3,1.138-3.58.925-5.26Z" transform="translate(-1954.651 -758.66)" fill="#fb9391"/>
        <path id="Trazado_873521" data-name="Trazado 873521" d="M1858.257,336.716a5.078,5.078,0,0,1,1.77,4.87c-.3,1.447-1.239,2.816-1,4.273a12.532,12.532,0,0,0,.5,1.582,4.918,4.918,0,0,1,.008,2.814,2.869,2.869,0,0,1-1.071,1.609,3.782,3.782,0,0,1-1.264.472,8.854,8.854,0,0,1-2.918.287,3.856,3.856,0,0,1-2.576-1.253c-.419-.5-.711-1.181-1.329-1.411a2.344,2.344,0,0,0-.667-.109,9.594,9.594,0,0,0-2.621.069,16.169,16.169,0,0,1-2.706.689,2.956,2.956,0,0,1-2.984-2.185,2.909,2.909,0,0,1,1.528-3.342c.942-.475,2.193-.5,2.811-1.343.519-.71.355-1.716.752-2.5.691-1.364,2.641-1.448,3.826-2.425,1.147-.945,1.672-2.355,3.134-2.959A5.12,5.12,0,0,1,1858.257,336.716Z" transform="translate(-1840.354 -335.596)" fill="#00223d"/>
        <path id="Trazado_873522" data-name="Trazado 873522" d="M1862.817,592.335s-1.5,7.18.888,8.191,10.4,2.792,10.88,4.24,0,13.259,0,13.259l3.814.112s1.192-13.339,1.086-14.634c-.257-2.977-1.086-3.72-1.086-3.72a5.652,5.652,0,0,1,2.25,3.673c.213,1.142.216,13.475.216,13.475l3.812.111s2.612-16.468-.3-18.733-10.9-5.545-10.9-5.545Z" transform="translate(-1859.036 -564.02)" fill="#167377"/>
        <path id="Trazado_873523" data-name="Trazado 873523" d="M1972.19,503.609l1.754,6.984-2.75.656a23.868,23.868,0,0,1-2.418-5.907C1968.16,502.5,1972.19,503.609,1972.19,503.609Z" transform="translate(-1953.501 -484.896)" fill="#fb9391"/>
        <path id="Trazado_873524" data-name="Trazado 873524" d="M1847.774,434.607s3.06.7,4.409,2.457,2.205,5.544,2.205,5.544l-2.916.913s-.142,2.106-1.493,2.667a13.031,13.031,0,0,0,0,6.106s-7.183,2.105-11.592,0l-.355-9.546-2.7-1.123s1.422-6.106,4.765-7.018a12.762,12.762,0,0,1,7.68,0Z" transform="translate(-1835.034 -423.182)" fill="#fff"/>
        <path id="Trazado_873525" data-name="Trazado 873525" d="M1833.658,505.331l3.728,1.451a13.6,13.6,0,0,0-.6,4.527c.454,2.428,3.858,4.887,5.527,4.782l-.076,1.461s-8.3-.518-9.226-5.115S1833.658,505.331,1833.658,505.331Z" transform="translate(-1832.718 -486.618)" fill="#fb9391"/>
        <path id="Trazado_873526" data-name="Trazado 873526" d="M1972.221,500.775h0a.049.049,0,0,1-.049-.05,5.068,5.068,0,0,0-.88-2.322.048.048,0,0,1,.013-.068.05.05,0,0,1,.069.013,5.062,5.062,0,0,1,.9,2.38A.049.049,0,0,1,1972.221,500.775Z" transform="translate(-1955.782 -480.387)" fill="#485f73"/>
        <path id="Trazado_873527" data-name="Trazado 873527" d="M1893.535,521.755a4.1,4.1,0,0,1-2.673-1.081.048.048,0,0,1-.005-.069.05.05,0,0,1,.07-.005,3.567,3.567,0,0,0,4.453.512.05.05,0,0,1,.068.009.048.048,0,0,1-.008.068,3.442,3.442,0,0,1-1.905.566Z" transform="translate(-1884.34 -500.191)" fill="#485f73"/>
        <path id="Trazado_873528" data-name="Trazado 873528" d="M1874.535,491.157h-.017l-.494-.175a.048.048,0,0,1-.016-.084.05.05,0,0,1,.05-.008l.446.158,1.086-3.5a.049.049,0,0,1,.062-.032.049.049,0,0,1,.033.061l-1.105,3.545a.049.049,0,0,1-.047.034Z" transform="translate(-1869.374 -470.769)" fill="#485f73"/>
        <path id="Trazado_873529" data-name="Trazado 873529" d="M1988.436,401.531s.459-.327.623-.063c.416.672-.451,1.034-.893,1.018Z" transform="translate(-1970.777 -394.127)" fill="#ea6868"/>
        <path id="Trazado_873530" data-name="Trazado 873530" d="M1933.469,341.1a3.89,3.89,0,0,0-3.5.654,3.778,3.778,0,0,0-1.458,3.207,16.2,16.2,0,0,0,.286,3.489,3.737,3.737,0,0,1-.334,2.749l-.187.336a.762.762,0,0,0,.175.953,2.812,2.812,0,0,0,2.044.8.755.755,0,0,0,.646-.482l.653-1.711h0c2.369.577,3.644-3.665,4.11-4.885h0c.02-.045.038-.091.056-.136a3.754,3.754,0,0,0-.151-3.024,3.836,3.836,0,0,0-2.343-1.955Z" transform="translate(-1917.501 -340.366)" fill="#fb9391"/>
        <path id="Trazado_873531" data-name="Trazado 873531" d="M1929.335,341.987a16.448,16.448,0,0,0-1.754.982,4.143,4.143,0,0,0-1.573,1.387,4.845,4.845,0,0,1-.607-2.221,3.525,3.525,0,0,1,.029-1.072,3.955,3.955,0,0,1,.7-1.347,4.172,4.172,0,0,1,1.365-1.408,3.237,3.237,0,0,1,1.272-.314,5.477,5.477,0,0,1,2.984.578,3.861,3.861,0,0,1,1.912,2.282,6.643,6.643,0,0,1-.473,3.829,3.8,3.8,0,0,0-.282-1.634,3.234,3.234,0,0,0-.453-.985,16.025,16.025,0,0,1-1.192-1.382A4.562,4.562,0,0,1,1929.335,341.987Z" transform="translate(-1915.009 -337.736)" fill="#00223d"/>
        <path id="Trazado_873532" data-name="Trazado 873532" d="M1925.792,384.52a.561.561,0,0,0-.185-.355.974.974,0,0,0-1.023-.278c-.609.272-.162,1.761.938,1.513C1925.521,385.4,1925.867,385.246,1925.792,384.52Z" transform="translate(-1914.063 -378.524)" fill="#fb9391"/>
        <path id="Trazado_873533" data-name="Trazado 873533" d="M1981.486,400.31a.329.329,0,0,0-.153-.443.338.338,0,0,0-.449.151.329.329,0,0,0,.152.443.34.34,0,0,0,.257.017.335.335,0,0,0,.193-.168Z" transform="translate(-1964.278 -392.763)" fill="#050521"/>
        <path id="Trazado_873534" data-name="Trazado 873534" d="M1954.083,391.563a.329.329,0,0,0-.153-.443.338.338,0,0,0-.449.151.329.329,0,0,0,.152.443.34.34,0,0,0,.257.017.334.334,0,0,0,.193-.168Z" transform="translate(-1939.94 -384.982)" fill="#050521"/>
        <path id="Trazado_873535" data-name="Trazado 873535" d="M1957.4,415.109s-.209-.282-.387-.292a.5.5,0,0,0-.33.161.384.384,0,0,0-.234-.292,4.892,4.892,0,0,0-.8-.088s.249,1,.888,1.036a.844.844,0,0,0,.848-.506Z" transform="translate(-1941.893 -405.906)" fill="#dd4e4e"/>
        <path id="Trazado_873536" data-name="Trazado 873536" d="M1955.464,413.806a1.991,1.991,0,0,1-1.24-.779.047.047,0,0,1-.008-.035.046.046,0,0,1,.02-.03.049.049,0,0,1,.036-.008.048.048,0,0,1,.031.019c.032.047.821,1.143,1.845.6a.048.048,0,0,1,.061.02.046.046,0,0,1-.016.062,1.271,1.271,0,0,1-.729.152Z" transform="translate(-1940.624 -404.435)" fill="#050521"/>
        <path id="Trazado_873537" data-name="Trazado 873537" d="M1950.752,386.625a.138.138,0,0,1,.017-.259,1.7,1.7,0,0,1,1.114.123.138.138,0,0,1,.064.184.144.144,0,0,1-.187.063,1.413,1.413,0,0,0-.913-.105A.143.143,0,0,1,1950.752,386.625Z" transform="translate(-1937.474 -380.745)" fill="#0b0755"/>
        <path id="Trazado_873538" data-name="Trazado 873538" d="M1980.545,394.6a.136.136,0,0,1-.058-.148.139.139,0,0,1,.122-.1,1.674,1.674,0,0,1,1.073.318.136.136,0,0,1,.03.195.143.143,0,0,1-.2.029,1.4,1.4,0,0,0-.879-.265.139.139,0,0,1-.09-.025Z" transform="translate(-1963.955 -387.882)" fill="#0b0755"/>
        <path id="Trazado_873539" data-name="Trazado 873539" d="M1964.66,396.748a.838.838,0,0,1-.33-.076.049.049,0,0,1-.026-.064.05.05,0,0,1,.065-.025c.438.188.625-.07.665-.139a1.838,1.838,0,0,1,.1-1.207.05.05,0,0,1,.066-.024.049.049,0,0,1,.024.065,1.755,1.755,0,0,0-.084,1.155.048.048,0,0,1,0,.036A.535.535,0,0,1,1964.66,396.748Z" transform="translate(-1949.582 -388.65)" fill="#ea6868"/>
        <path id="Trazado_873540" data-name="Trazado 873540" d="M1917.818,601.583a1.832,1.832,0,0,0,.813.246c.456.02,1.8-.1,2.021-.07a10.728,10.728,0,0,0,1.511.4c.209-.05-1.036-.791-1.036-.791s1.152.487,1.3.309-1.041-.8-1.041-.8,1.17.352,1.25.157-1.051-.547-1.051-.547,1.07.157,1.13,0a4.075,4.075,0,0,0-2.141-.682c-.655.039-2.68.331-2.68.331Z" transform="translate(-1908.298 -570.655)" fill="#fb9391"/>
        <path id="Trazado_873541" data-name="Trazado 873541" d="M1970.4,845.9c-.174.65-.333,1.176-.383,1.426-.142.7,6.188,3.86,6.756,3.3.422-.416-.682-1.682-1.716-2.91C1974.47,848.071,1973,848.455,1970.4,845.9Z" transform="translate(-1954.651 -789.593)" fill="#060633"/>
        <g id="Grupo_1099479" data-name="Grupo 1099479" transform="translate(6.554 23.711)">
          <path id="Trazado_873542" data-name="Trazado 873542" d="M1961.613,551.7l-12.535-1.091-4.738,8.711,12.535,1.091Z" transform="translate(-1938.402 -550.612)" fill="#060633"/>
          <path id="Trazado_873586" data-name="Trazado 873586" d="M0,0,8.427-.01V.54L0,.549Z" transform="matrix(0.996, 0.088, -0.088, 0.996, 0.049, 7.649)" fill="#060633"/>
        </g>
        <g id="Grupo_1099480" data-name="Grupo 1099480" transform="translate(11.399 5.233)">
          <path id="Trazado_873543" data-name="Trazado 873543" d="M1945.974,385.322a1.111,1.111,0,0,1-.538-1.426,1.137,1.137,0,0,1,1.4-.634,1.115,1.115,0,0,1,.742,1.334h0a1.122,1.122,0,0,1-.627.743,1.146,1.146,0,0,1-.979-.017Zm.987-1.936a1.076,1.076,0,0,0-.919-.015,1.045,1.045,0,0,0,.183,1.971,1.064,1.064,0,0,0,1.291-.76h0a1.046,1.046,0,0,0-.558-1.2Z" transform="translate(-1944.15 -383.206)" fill="#060633"/>
          <path id="Trazado_873544" data-name="Trazado 873544" d="M1974.349,393.812a1.111,1.111,0,0,1-.537-1.426,1.137,1.137,0,0,1,1.4-.633,1.115,1.115,0,0,1,.742,1.333h0a1.133,1.133,0,0,1-1.375.81,1.157,1.157,0,0,1-.232-.085Zm.987-1.936a1.1,1.1,0,0,0-.217-.08,1.064,1.064,0,0,0-1.291.761,1.048,1.048,0,0,0,.771,1.274,1.064,1.064,0,0,0,1.291-.761h0a1.046,1.046,0,0,0-.553-1.194Z" transform="translate(-1969.351 -390.759)" fill="#060633"/>
          <path id="Trazado_873545" data-name="Trazado 873545" d="M1934.621,385.347l.025-.064,1.283.477-.025.064Z" transform="translate(-1934.621 -385.053)" fill="#060633"/>
          <path id="Trazado_873546" data-name="Trazado 873546" d="M1964.532,396.342l-.018-.066a1.006,1.006,0,0,1,1.12.318l-.058.037a.921.921,0,0,0-1.044-.288Z" transform="translate(-1961.171 -394.79)" fill="#060633"/>
        </g>
        <path id="Trazado_873547" data-name="Trazado 873547" d="M2023.7,591.282a.41.41,0,0,1,.516-.228.4.4,0,0,1,.254.5.41.41,0,0,1-.494.271.429.429,0,0,1-.275-.542Z" transform="translate(-2002.322 -562.772)" fill="#fff"/>
      </g>
      <g id="Grupo_1099482" data-name="Grupo 1099482" transform="translate(519.734 404.573)">
        <rect id="Rectángulo_401366" data-name="Rectángulo 401366" width="12.606" height="64.261" transform="translate(0 12.213)" fill="#7d6eb2"/>
        <rect id="Rectángulo_401367" data-name="Rectángulo 401367" width="4.579" height="64.367" transform="translate(4.167 12.213)" fill="#6756a3"/>
        <path id="Trazado_873548" data-name="Trazado 873548" d="M779.366,960.7l-6.457,12.217h12.606Z" transform="translate(-772.909 -960.7)" fill="#fff"/>
        <path id="Trazado_873549" data-name="Trazado 873549" d="M805.006,960.7l-3.229,6.109h6.3Z" transform="translate(-798.548 -960.7)" fill="#00223d"/>
        <rect id="Rectángulo_401368" data-name="Rectángulo 401368" width="12.606" height="7.026" transform="translate(0 75.959)" fill="#00223d"/>
        <rect id="Rectángulo_401369" data-name="Rectángulo 401369" width="12.606" height="2.99" transform="translate(0 73.482)" fill="#fff"/>
      </g>
      <g id="Grupo_1099489" data-name="Grupo 1099489" transform="translate(548.843 362.344)">
        <rect id="Rectángulo_401370" data-name="Rectángulo 401370" width="81.144" height="103.238" fill="#fff"/>
        <rect id="Rectángulo_401371" data-name="Rectángulo 401371" width="81.144" height="7.575" fill="#12263f"/>
        <g id="Grupo_1099483" data-name="Grupo 1099483" transform="translate(3.282 2.837)">
          <path id="Trazado_873550" data-name="Trazado 873550" d="M1062.52,604.726a.918.918,0,1,1,.918.906.912.912,0,0,1-.918-.906Z" transform="translate(-1062.52 -603.82)" fill="#dde7fe"/>
          <path id="Trazado_873551" data-name="Trazado 873551" d="M1096.958,604.726a.918.918,0,1,1,.918.906.912.912,0,0,1-.918-.906Z" transform="translate(-1093.107 -603.82)" fill="#dde7fe"/>
          <path id="Trazado_873552" data-name="Trazado 873552" d="M1131.4,604.726a.918.918,0,1,1,.918.906.912.912,0,0,1-.918-.906Z" transform="translate(-1123.693 -603.82)" fill="#dde7fe"/>
        </g>
        <g id="Grupo_1099485" data-name="Grupo 1099485" transform="translate(6.431 13.586)">
          <rect id="Rectángulo_401372" data-name="Rectángulo 401372" width="23.002" height="22.7" fill="url(#linear-gradient)"/>
          <g id="Grupo_1099484" data-name="Grupo 1099484" transform="translate(1.727 4.553)">
            <path id="Trazado_873553" data-name="Trazado 873553" d="M1106.125,785.943l6.794-12.088,5,6.721,2.5-2.684,5.286,8.055Z" transform="translate(-1106.125 -770.39)" fill="#fff"/>
            <path id="Trazado_873554" data-name="Trazado 873554" d="M1195.821,744.154a1.758,1.758,0,1,1,1.759,1.735A1.746,1.746,0,0,1,1195.821,744.154Z" transform="translate(-1185.789 -742.419)" fill="#fff"/>
          </g>
        </g>
        <rect id="Rectángulo_401373" data-name="Rectángulo 401373" width="16.336" height="2.432" transform="translate(57.769 13.561)" fill="#7d6eb2"/>
        <rect id="Rectángulo_401374" data-name="Rectángulo 401374" width="20.034" height="2.432" transform="translate(34.817 13.561)" fill="#7d6eb2"/>
        <g id="Grupo_1099486" data-name="Grupo 1099486" transform="translate(34.817 20.77)">
          <rect id="Rectángulo_401375" data-name="Rectángulo 401375" width="23.351" height="1.112" fill="#f1f1f1"/>
          <rect id="Rectángulo_401376" data-name="Rectángulo 401376" width="6.993" height="1.112" transform="translate(24.805)" fill="#f1f1f1"/>
          <rect id="Rectángulo_401377" data-name="Rectángulo 401377" width="9.512" height="1.112" transform="translate(0 3.448)" fill="#f1f1f1"/>
          <rect id="Rectángulo_401378" data-name="Rectángulo 401378" width="12.616" height="1.112" transform="translate(10.477 3.448)" fill="#f1f1f1"/>
          <rect id="Rectángulo_401379" data-name="Rectángulo 401379" width="6.993" height="1.112" transform="translate(24.805 3.448)" fill="#f1f1f1"/>
          <rect id="Rectángulo_401380" data-name="Rectángulo 401380" width="12.505" height="1.112" transform="translate(0 6.43)" fill="#f1f1f1"/>
          <rect id="Rectángulo_401381" data-name="Rectángulo 401381" width="19.735" height="1.112" transform="translate(14.496 6.43)" fill="#f1f1f1"/>
        </g>
        <g id="Grupo_1099487" data-name="Grupo 1099487" transform="translate(34.817 31.724)">
          <rect id="Rectángulo_401382" data-name="Rectángulo 401382" width="23.351" height="1.112" fill="#f1f1f1"/>
          <rect id="Rectángulo_401383" data-name="Rectángulo 401383" width="6.993" height="1.112" transform="translate(24.805)" fill="#f1f1f1"/>
          <rect id="Rectángulo_401384" data-name="Rectángulo 401384" width="9.512" height="1.112" transform="translate(0 3.448)" fill="#f1f1f1"/>
          <rect id="Rectángulo_401385" data-name="Rectángulo 401385" width="12.616" height="1.112" transform="translate(10.477 3.448)" fill="#f1f1f1"/>
        </g>
        <g id="Grupo_1099488" data-name="Grupo 1099488" transform="translate(6.244 48.918)">
          <rect id="Rectángulo_401386" data-name="Rectángulo 401386" width="38.981" height="1.467" fill="#f1f1f1"/>
          <rect id="Rectángulo_401387" data-name="Rectángulo 401387" width="11.675" height="1.467" transform="translate(41.411)" fill="#f1f1f1"/>
          <rect id="Rectángulo_401388" data-name="Rectángulo 401388" width="15.88" height="1.467" transform="translate(0 4.548)" fill="#f1f1f1"/>
          <rect id="Rectángulo_401389" data-name="Rectángulo 401389" width="21.063" height="1.467" transform="translate(17.49 4.548)" fill="#f1f1f1"/>
          <rect id="Rectángulo_401390" data-name="Rectángulo 401390" width="11.675" height="1.467" transform="translate(41.411 4.548)" fill="#f1f1f1"/>
          <rect id="Rectángulo_401391" data-name="Rectángulo 401391" width="20.875" height="1.467" transform="translate(0 8.48)" fill="#f1f1f1"/>
          <rect id="Rectángulo_401392" data-name="Rectángulo 401392" width="32.947" height="1.467" transform="translate(24.199 8.48)" fill="#f1f1f1"/>
        </g>
        <rect id="Rectángulo_401393" data-name="Rectángulo 401393" width="59.425" height="33.993" transform="translate(7.191 62.942)" fill="url(#linear-gradient)"/>
        <path id="Trazado_873555" data-name="Trazado 873555" d="M1303.186,1223.484V1240.9l13.412-8.707Z" transform="translate(-1272.988 -1152.255)" fill="#12263f"/>
        <rect id="Rectángulo_401394" data-name="Rectángulo 401394" width="24.02" height="2.026" transform="translate(6.425 42.738)" fill="#00223d"/>
        <rect id="Rectángulo_401395" data-name="Rectángulo 401395" width="18.886" height="2.026" transform="translate(33.284 42.738)" fill="#00223d"/>
      </g>
      <g id="Grupo_1099490" data-name="Grupo 1099490" transform="translate(649.052 401.632)">
        <rect id="Rectángulo_401396" data-name="Rectángulo 401396" width="22.445" height="0.991" fill="#bdd1f9"/>
        <rect id="Rectángulo_401397" data-name="Rectángulo 401397" width="9.771" height="0.991" transform="translate(0 3.288)" fill="#bdd1f9"/>
        <rect id="Rectángulo_401398" data-name="Rectángulo 401398" width="11.223" height="0.991" transform="translate(11.223 3.288)" fill="#bdd1f9"/>
        <rect id="Rectángulo_401399" data-name="Rectángulo 401399" width="13.534" height="0.991" transform="translate(0 6.253)" fill="#bdd1f9"/>
        <rect id="Rectángulo_401400" data-name="Rectángulo 401400" width="7.327" height="0.991" transform="translate(15.119 6.253)" fill="#bdd1f9"/>
        <rect id="Rectángulo_401401" data-name="Rectángulo 401401" width="10.279" height="0.991" transform="translate(0 9.523)" fill="#bdd1f9"/>
        <rect id="Rectángulo_401402" data-name="Rectángulo 401402" width="9.541" height="0.991" transform="translate(12.904 9.523)" fill="#bdd1f9"/>
      </g>
      <g id="Grupo_1099491" data-name="Grupo 1099491" transform="translate(641.578 420.029)">
        <rect id="Rectángulo_401403" data-name="Rectángulo 401403" width="29.92" height="0.991" fill="#bdd1f9"/>
        <rect id="Rectángulo_401404" data-name="Rectángulo 401404" width="13.024" height="0.991" transform="translate(0 3.288)" fill="#bdd1f9"/>
        <rect id="Rectángulo_401405" data-name="Rectángulo 401405" width="14.96" height="0.991" transform="translate(14.96 3.288)" fill="#bdd1f9"/>
        <rect id="Rectángulo_401406" data-name="Rectángulo 401406" width="18.042" height="0.991" transform="translate(0 6.253)" fill="#bdd1f9"/>
        <rect id="Rectángulo_401407" data-name="Rectángulo 401407" width="9.767" height="0.991" transform="translate(20.154 6.253)" fill="#bdd1f9"/>
        <rect id="Rectángulo_401408" data-name="Rectángulo 401408" width="13.702" height="0.991" transform="translate(0 9.523)" fill="#bdd1f9"/>
        <rect id="Rectángulo_401409" data-name="Rectángulo 401409" width="12.719" height="0.991" transform="translate(17.201 9.523)" fill="#bdd1f9"/>
      </g>
      <g id="Grupo_1099492" data-name="Grupo 1099492" transform="translate(615.189 394.952)">
        <path id="Trazado_873556" data-name="Trazado 873556" d="M1656,887.05c0-7.448-6.625-13.485-14.8-13.485s-14.8,6.039-14.8,13.485a12.837,12.837,0,0,0,4.1,9.313,11.552,11.552,0,0,1,3.621,8.353h0a4.654,4.654,0,0,0,4.685,4.623h4.792a4.654,4.654,0,0,0,4.683-4.622h0a11.554,11.554,0,0,1,3.62-8.353A12.837,12.837,0,0,0,1656,887.05Z" transform="translate(-1626.406 -873.565)" fill="#f6c343"/>
        <path id="Trazado_873557" data-name="Trazado 873557" d="M1780.523,1000.868a.174.174,0,0,1-.174-.163c-.082-1.5,2.228-24.989,2.326-25.988a.174.174,0,0,1,.347.033c-.024.244-2.406,24.459-2.325,25.936a.17.17,0,0,1-.044.124.174.174,0,0,1-.121.057Z" transform="translate(-1763.13 -963.415)" fill="#060633"/>
        <path id="Trazado_873558" data-name="Trazado 873558" d="M1714.476,1000.868h-.01a.173.173,0,0,1-.165-.181c.081-1.478-2.3-25.693-2.324-25.936a.174.174,0,0,1,.346-.033c.1,1,2.407,24.485,2.326,25.988a.173.173,0,0,1-.173.163Z" transform="translate(-1702.407 -963.415)" fill="#060633"/>
        <path id="Trazado_873559" data-name="Trazado 873559" d="M1719.558,987.1a2.174,2.174,0,0,1-1.306-.455,1.468,1.468,0,0,1-.981.292,1.72,1.72,0,0,1-1.275-.894,13.606,13.606,0,0,1-.789-2.48.086.086,0,0,1,.067-.1.087.087,0,0,1,.1.066,13.629,13.629,0,0,0,.769,2.43,1.549,1.549,0,0,0,1.14.81,1.287,1.287,0,0,0,.828-.232h0a3.285,3.285,0,0,1-.962-1.959,2.558,2.558,0,0,1,.276-1.784,1.051,1.051,0,0,1,.478-.434,1.024,1.024,0,0,1,1.214.56,2.5,2.5,0,0,1,.149,1.349,4.189,4.189,0,0,1-.443,1.753,2.026,2.026,0,0,1-.431.516,1.851,1.851,0,0,0,1.771.275,1.651,1.651,0,0,0,.611-.454,1.283,1.283,0,0,1-.505-.536,2.06,2.06,0,0,1-.168-.8,7.222,7.222,0,0,1,.261-2.355.085.085,0,0,1,.057-.059.657.657,0,0,1,.691.262,1.564,1.564,0,0,1,.248.663,4.678,4.678,0,0,1,.051,1.922,2.443,2.443,0,0,1-.371.845,1.462,1.462,0,0,0,.98.053,1.694,1.694,0,0,0,.5-.253,2.554,2.554,0,0,1-.259-.523,5.161,5.161,0,0,1,.105-3.776.086.086,0,0,1,.052-.048.868.868,0,0,1,.96.39,2.054,2.054,0,0,1,.266.99,4.705,4.705,0,0,1-.19,1.97,2.476,2.476,0,0,1-.691,1.025.891.891,0,0,0,.605.358.918.918,0,0,0,.519-.131,1.245,1.245,0,0,0,.592-1.237.087.087,0,0,1,.172-.027,1.4,1.4,0,0,1-.675,1.412,1.071,1.071,0,0,1-.622.155,1.05,1.05,0,0,1-.728-.421,1.863,1.863,0,0,1-.553.279,1.639,1.639,0,0,1-1.138-.077,1.838,1.838,0,0,1-.7.53,1.744,1.744,0,0,1-.679.134Zm-1.365-4.632a.584.584,0,0,0-.223.043.884.884,0,0,0-.395.365,2.428,2.428,0,0,0-.251,1.668,3.113,3.113,0,0,0,.907,1.857l.027.023a1.848,1.848,0,0,0,.416-.487,4.041,4.041,0,0,0,.422-1.687,2.371,2.371,0,0,0-.132-1.259.928.928,0,0,0-.77-.522Zm2.324.292a7.065,7.065,0,0,0-.242,2.252,1.927,1.927,0,0,0,.151.735,1.124,1.124,0,0,0,.455.474,2.256,2.256,0,0,0,.359-.807,4.511,4.511,0,0,0-.052-1.851,1.426,1.426,0,0,0-.216-.592.51.51,0,0,0-.454-.212Zm1.995-.857a4.994,4.994,0,0,0-.086,3.614,2.35,2.35,0,0,0,.233.471,2.313,2.313,0,0,0,.633-.943,4.54,4.54,0,0,0,.181-1.9,1.912,1.912,0,0,0-.238-.909.714.714,0,0,0-.722-.335Z" transform="translate(-1705.274 -969.783)" fill="#060633"/>
        <path id="Trazado_873560" data-name="Trazado 873560" d="M0,0H11.895A3.376,3.376,0,0,1,8.5,3.354H3.4A3.376,3.376,0,0,1,0,0Z" transform="translate(8.85 39.827)" fill="url(#linear-gradient)"/>
        <path id="Trazado_873561" data-name="Trazado 873561" d="M1704.906,1223.073a24.68,24.68,0,0,1-6.818-1.049,1.124,1.124,0,0,1-.779-.832,1.109,1.109,0,0,1,.356-1.077,1.145,1.145,0,0,1,1.126-.217c.1.033,6.57,2.057,10.612.062a1.146,1.146,0,0,1,1.15.048,1.111,1.111,0,0,1-.137,1.952,12.534,12.534,0,0,1-5.51,1.113Z" transform="translate(-1689.377 -1181.623)" fill="#00223d"/>
        <path id="Trazado_873562" data-name="Trazado 873562" d="M1704.906,1206.614a24.681,24.681,0,0,1-6.819-1.049,1.115,1.115,0,0,1-.725-1.41,1.136,1.136,0,0,1,1.429-.716c.1.033,6.57,2.058,10.612.063a1.146,1.146,0,0,1,1.15.048,1.111,1.111,0,0,1-.137,1.952A12.534,12.534,0,0,1,1704.906,1206.614Z" transform="translate(-1689.377 -1166.98)" fill="url(#linear-gradient)"/>
        <path id="Trazado_873563" data-name="Trazado 873563" d="M1704.907,1190.154a24.67,24.67,0,0,1-6.818-1.049,1.115,1.115,0,0,1-.7-1.4,1.136,1.136,0,0,1,1.4-.724c.1.033,6.57,2.057,10.612.063a1.146,1.146,0,0,1,1.15.048,1.111,1.111,0,0,1-.137,1.952,12.536,12.536,0,0,1-5.51,1.111Z" transform="translate(-1689.378 -1152.338)" fill="#00223d"/>
      </g>
      <g id="Grupo_1099493" data-name="Grupo 1099493" transform="translate(638.405 428.769)">
        <path id="Trazado_873564" data-name="Trazado 873564" d="M2044.487,1584.458s4.883,2.134,6,2.41,4.744-.207,2.931-2.41-3.349-1.033-6.628-2.685S2044.487,1584.458,2044.487,1584.458Z" transform="translate(-2020.824 -1537.089)" fill="#fff"/>
        <path id="Trazado_873565" data-name="Trazado 873565" d="M1845.321,1495.457s-9.261-2.013-11.092,3.149,7.205,7.58,8.878,7.952,5.527.689,6.4.964,4.116.55,4.57.757,5.128,1.273,5.128,1.273l3.488-4.715-3.627-3.05-1.548-5.615Z" transform="translate(-1833.985 -1460.29)" fill="#aee6e6"/>
        <path id="Trazado_873566" data-name="Trazado 873566" d="M1868.064,1303.426s7.534-.413,11.2,4.854,6.488,10.018,1.465,14.562-12.034,2.272-12.034,2.272l-9.314.568s-9.628-.671-7.325-9.552S1859.973,1303.632,1868.064,1303.426Z" transform="translate(-1849.717 -1289.791)" fill="#fff"/>
        <path id="Trazado_873567" data-name="Trazado 873567" d="M4.005,0h9.937a3.978,3.978,0,0,1,4,3.952v4.7a3.978,3.978,0,0,1-4,3.952H4.005A3.979,3.979,0,0,1,0,8.647V3.953A3.979,3.979,0,0,1,4.005,0Z" transform="translate(9.121 23.962)" fill="#060633"/>
        <path id="Trazado_873568" data-name="Trazado 873568" d="M1880.115,1594.451s-4.884,2.134-6,2.41-4.744-.207-2.931-2.41,3.349-1.033,6.628-2.686S1880.115,1594.451,1880.115,1594.451Z" transform="translate(-1866.582 -1545.979)" fill="#fff"/>
        <path id="Trazado_873569" data-name="Trazado 873569" d="M2043.87,1418.2a.06.06,0,0,1-.041-.105c4.006-3.49,6.489-3.08,6.592-3.06a.061.061,0,0,1,.046.039.059.059,0,0,1-.011.059.061.061,0,0,1-.057.02c-.025,0-2.534-.415-6.489,3.032a.063.063,0,0,1-.041.015Z" transform="translate(-2020.343 -1389.071)" fill="#060633"/>
        <path id="Trazado_873570" data-name="Trazado 873570" d="M1894.05,1415.892a.06.06,0,0,1-.043-.017,14.792,14.792,0,0,0-6.406-3.34.06.06,0,0,1-.046-.071.061.061,0,0,1,.072-.046,14.924,14.924,0,0,1,6.465,3.372.059.059,0,0,1,0,.085.059.059,0,0,1-.042.017Z" transform="translate(-1881.562 -1386.759)" fill="#060633"/>
        <path id="Trazado_873571" data-name="Trazado 873571" d="M2050.578,1379.945a.06.06,0,0,1-.059-.048l-.628-2.965a.061.061,0,0,1,.093-.063.057.057,0,0,1,.026.038l.628,2.965a.061.061,0,0,1-.047.071Z" transform="translate(-2025.742 -1355.127)" fill="#060633"/>
        <path id="Trazado_873572" data-name="Trazado 873572" d="M1929.25,1383.46h0a.06.06,0,0,1-.055-.064l.262-3.2a.062.062,0,0,1,.065-.055.06.06,0,0,1,.041.021.059.059,0,0,1,.014.043l-.261,3.2A.06.06,0,0,1,1929.25,1383.46Z" transform="translate(-1918.542 -1358.043)" fill="#060633"/>
        <path id="Trazado_873573" data-name="Trazado 873573" d="M1917.608,1261.847s-.569-.33-.73-.006c-.41.825.573,1.158,1.086,1.09Z" transform="translate(-1907.521 -1252.677)" fill="#ea6868"/>
        <path id="Trazado_873574" data-name="Trazado 873574" d="M1919.671,1518.041h-.012c-.449-.089-1.558-.449-2.538-.767-.546-.177-1.018-.33-1.283-.405-.71-.2-3.7-.477-3.73-.48-.062-.012-5.647-1.1-6.269-1.24a.06.06,0,0,1-.039-.07.062.062,0,0,1,.066-.047c.62.136,6.2,1.228,6.26,1.239.118.011,3.024.278,3.751.487.263.075.735.229,1.283.406.928.3,2.082.676,2.523.764a.06.06,0,1,1-.012.119Z" transform="translate(-1897.766 -1478.047)" fill="#060633"/>
        <path id="Trazado_873575" data-name="Trazado 873575" d="M1920.679,1200.914a13.815,13.815,0,0,1-1.452-6.039c-.009-.71-.065-1.5-.136-2.4a4.437,4.437,0,0,0-2.954-4.009,4.53,4.53,0,0,0-4.873,1.2,4.386,4.386,0,0,0-.693,4.91c.026.052.053.1.081.152h0c.651,1.314,2.035,6.125,4.964,5.343l.4,1.948a5.64,5.64,0,0,0,4.668-1.115Z" transform="translate(-1901.598 -1187.294)" fill="#fb9391"/>
        <path id="Trazado_873576" data-name="Trazado 873576" d="M1928.211,1253.139a.32.32,0,0,1,.048-.355.329.329,0,0,1,.351-.092.321.321,0,0,1,.036.595A.329.329,0,0,1,1928.211,1253.139Z" transform="translate(-1917.643 -1244.648)" fill="#060633"/>
        <path id="Trazado_873577" data-name="Trazado 873577" d="M1962.891,1244.3a.321.321,0,0,1,.15-.431.328.328,0,0,1,.437.148.32.32,0,0,1-.15.431.329.329,0,0,1-.437-.148Z" transform="translate(-1948.444 -1236.785)" fill="#060633"/>
        <path id="Trazado_873578" data-name="Trazado 873578" d="M1945.372,1271.934a1.5,1.5,0,0,1-.717-.188.072.072,0,0,1-.009-.13.074.074,0,0,1,.078,0c1.164.62,2.065-.626,2.1-.682a.074.074,0,0,1,.1-.014.071.071,0,0,1,.02.1,2.234,2.234,0,0,1-1.574.913Z" transform="translate(-1932.244 -1260.871)" fill="#060633"/>
        <path id="Trazado_873579" data-name="Trazado 873579" d="M1969.128,1212.251l.235,3.15-.805.209-2.162-3.261Z" transform="translate(-1951.588 -1208.686)" fill="#00223d"/>
        <path id="Trazado_873580" data-name="Trazado 873580" d="M1984.331,1235.076a.653.653,0,0,1,.175-.432,1.132,1.132,0,0,1,1.158-.433c.737.249.384,2.027-.921,1.858C1984.743,1236.065,1984.324,1235.923,1984.331,1235.076Z" transform="translate(-1967.517 -1228.179)" fill="#fb9391"/>
        <path id="Trazado_873581" data-name="Trazado 873581" d="M1945.733,1252.712a.967.967,0,0,1-.269-.04.363.363,0,0,1-.24-.152.457.457,0,0,1,.025-.351,1.933,1.933,0,0,0-.034-1.349.072.072,0,0,1,.048-.083.073.073,0,0,1,.089.037,2.085,2.085,0,0,1,.035,1.436c-.035.115-.06.195-.037.24a.258.258,0,0,0,.153.083.686.686,0,0,0,.782-.249.073.073,0,0,1,.1-.023.071.071,0,0,1,.023.1.838.838,0,0,1-.676.352Z" transform="translate(-1932.758 -1242.915)" fill="#ea6868"/>
        <path id="Trazado_873582" data-name="Trazado 873582" d="M1955.83,1237.562a.217.217,0,0,1-.212-.159.214.214,0,0,1,.1-.243,1.93,1.93,0,0,1,1.6-.141.214.214,0,0,1,.111.279.219.219,0,0,1-.279.119,1.483,1.483,0,0,0-1.219.117.22.22,0,0,1-.108.03Z" transform="translate(-1942.009 -1230.62)" fill="#060633"/>
        <path id="Trazado_873583" data-name="Trazado 873583" d="M1920.532,1247.07a.216.216,0,0,1-.129-.042.214.214,0,0,1-.047-.3,2.039,2.039,0,0,1,1.184-.784.218.218,0,0,1,.253.174.215.215,0,0,1-.176.25,1.627,1.627,0,0,0-.908.616A.219.219,0,0,1,1920.532,1247.07Z" transform="translate(-1910.659 -1238.658)" fill="#060633"/>
        <path id="Trazado_873584" data-name="Trazado 873584" d="M1911.062,1182.645a.77.77,0,0,0,.084-.656.783.783,0,0,0-.457-.484.655.655,0,0,1-.178-.069.447.447,0,0,1-.138-.223l-.2-.536a.232.232,0,0,0-.249-.195,1.335,1.335,0,0,0-.912.127,1.975,1.975,0,0,0-1.1-.39c-.126.009-.251.041-.377.043-.494.008-.95-.438-1.412-.281a2.093,2.093,0,0,0-.335.181,5.252,5.252,0,0,1-1.063.317,1.03,1.03,0,0,0-.79.7.591.591,0,0,1-.057.225.382.382,0,0,1-.182.127,3.912,3.912,0,0,0-1.106.53.75.75,0,0,0-.134,1.071,1.211,1.211,0,0,0-.6.5.762.762,0,0,0-.011.754.313.313,0,0,1,.063.141c0,.1-.1.16-.173.216a.909.909,0,0,0-.206,1.213.944.944,0,0,1,.155.247,1.387,1.387,0,0,1,.023.256.561.561,0,0,0,.46.477,1.125,1.125,0,0,0,.8-.314c.006.11.144.157.256.163a1.525,1.525,0,0,0,1.522-1.141c.395.035.888.022,1.076-.327a.977.977,0,0,0,.079-.243l.2-.848c.123-.022.227.1.263.215a1.892,1.892,0,0,0,.1.357c.144.265.525.252.825.2a1.5,1.5,0,0,0,.494-.139.5.5,0,0,0,.276-.4.844.844,0,0,0,.831.252,5.2,5.2,0,0,0,2.08-.736c.241-.138.4-.195.447-.5A.9.9,0,0,0,1911.062,1182.645Z" transform="translate(-1893.849 -1179.949)" fill="#00223d"/>
        <path id="Trazado_873585" data-name="Trazado 873585" d="M1939.429,1481.831s6.349-3.717,9.772.345-2.651,7.229-4.116,8.537a9.057,9.057,0,0,1-4.953,2.41,17.576,17.576,0,0,0-4.464,1.1c-2.093.689-3.837,1.308-4.047,1.446s-3.627,1.308-3.627,1.308-3.488-3.443-3.553-4.475c0,0,3.418-3,4.4-3.876s5.651-1.976,6.488-3.078a38.686,38.686,0,0,1,4.106-3.718Z" transform="translate(-1914.315 -1447.128)" fill="#aee6e6"/>
        <ellipse id="Elipse_11488" data-name="Elipse 11488" cx="0.611" cy="0.603" rx="0.611" ry="0.603" transform="translate(17.483 29.658)" fill="#fff"/>
      </g>
    </g>
  </g>
</svg>
