<svg xmlns="http://www.w3.org/2000/svg" xmlns:xlink="http://www.w3.org/1999/xlink" width="87.617" height="98.75" viewBox="0 0 87.617 98.75">
  <defs>
    <clipPath id="clip-path">
      <rect id="Rectángulo_401416" data-name="Rectángulo 401416" width="87.617" height="98.75" fill="none"/>
    </clipPath>
  </defs>
  <g id="Grupo_1100937" data-name="Grupo 1100937" transform="translate(-544.536 -12193.572)">
    <g id="Grupo_1099511" data-name="Grupo 1099511" transform="translate(544.536 12193.572)">
      <g id="Grupo_1099510" data-name="Grupo 1099510" transform="translate(0 0)" clip-path="url(#clip-path)">
        <path id="Trazado_873604" data-name="Trazado 873604" d="M76.2,98.75a1.159,1.159,0,0,1-1.159-1.159V83.815a66.12,66.12,0,0,1,6.605-28.85A38.509,38.509,0,0,0,85.3,38.1,35.14,35.14,0,0,0,57.716,3.232,35.825,35.825,0,0,0,13.887,35.058a19.463,19.463,0,0,1-1.921,6.963L2.8,60.712l8.493,2.542a3,3,0,0,1,2.151,2.887V81.179a.7.7,0,0,0,.7.7H25.3a3.017,3.017,0,0,1,3.013,3.013v12.7a1.159,1.159,0,0,1-2.318,0v-12.7a.7.7,0,0,0-.7-.7H14.139a3.016,3.016,0,0,1-3.013-3.013V66.142a.691.691,0,0,0-.5-.666l-9.8-2.934a1.159,1.159,0,0,1-.706-1.621L9.886,41a17.121,17.121,0,0,0,1.691-6.136A38.144,38.144,0,0,1,58.217.97a37.457,37.457,0,0,1,29.4,37.124,40.845,40.845,0,0,1-3.889,17.889,63.814,63.814,0,0,0-6.37,27.833V97.591A1.159,1.159,0,0,1,76.2,98.75" transform="translate(0 0)" fill="#262626"/>
        <path id="Trazado_873605" data-name="Trazado 873605" d="M31.878,74.192a11.317,11.317,0,0,1-11.31-11.3C20.557,52.95,24.818,30.632,25,29.686a1.159,1.159,0,0,1,1.139-.94H37.463a1.16,1.16,0,0,1,1.137.933c.185.935,4.534,22.968,4.545,32.809a11.569,11.569,0,0,1-10.931,11.7c-.113,0-.224,0-.336,0m.3-1.163h0ZM27.1,31.064c-.821,4.421-4.222,23.235-4.213,31.826a8.926,8.926,0,0,0,2.731,6.444,8.808,8.808,0,0,0,6.529,2.537,9.235,9.235,0,0,0,8.68-9.379C40.817,54,37.348,35.435,36.508,31.064Z" transform="translate(17.572 24.558)" fill="#262626"/>
        <path id="Trazado_873606" data-name="Trazado 873606" d="M37.994,37.322H23.159a1.159,1.159,0,1,1,0-2.318H37.994a1.159,1.159,0,1,1,0,2.318" transform="translate(18.795 29.905)" fill="#262626"/>
        <path id="Trazado_873607" data-name="Trazado 873607" d="M37.948,45.367H26.623a1.152,1.152,0,0,1-.82-.339c-4.141-4.143-6.082-8.762-5.771-13.733.66-10.49,11.1-18.7,11.541-19.048a1.166,1.166,0,0,1,1.422,0c.443.345,10.883,8.558,11.541,19.048.312,4.971-1.628,9.591-5.771,13.733a1.152,1.152,0,0,1-.82.339M27.109,43.049H37.462c3.421-3.56,5.023-7.462,4.762-11.61-.5-7.961-7.634-14.768-9.937-16.767-2.3,2-9.446,8.827-9.941,16.776-.258,4.141,1.344,8.044,4.764,11.6" transform="translate(17.087 10.256)" fill="#262626"/>
        <path id="Trazado_873608" data-name="Trazado 873608" d="M26.908,39.767a1.16,1.16,0,0,1-1.111-.829,40.569,40.569,0,0,1-.148-19.5A1.159,1.159,0,0,1,27.9,20a38.921,38.921,0,0,0,.122,18.282,1.161,1.161,0,0,1-.783,1.439,1.2,1.2,0,0,1-.33.048" transform="translate(20.961 15.855)" fill="#262626"/>
        <path id="Trazado_873609" data-name="Trazado 873609" d="M44.722,22.322H39.159a1.159,1.159,0,0,1,0-2.318h5.563a1.159,1.159,0,0,1,0,2.318" transform="translate(32.464 17.09)" fill="#262626"/>
        <path id="Trazado_873610" data-name="Trazado 873610" d="M17.722,22.322H12.159a1.159,1.159,0,1,1,0-2.318h5.563a1.159,1.159,0,1,1,0,2.318" transform="translate(9.398 17.09)" fill="#262626"/>
        <path id="Trazado_873611" data-name="Trazado 873611" d="M27.159,12.885A1.159,1.159,0,0,1,26,11.726V6.163a1.159,1.159,0,0,1,2.318,0v5.563a1.159,1.159,0,0,1-1.159,1.159" transform="translate(22.212 4.275)" fill="#262626"/>
        <path id="Trazado_873612" data-name="Trazado 873612" d="M37.552,17.6a1.158,1.158,0,0,1-.58-2.162l4.818-2.781a1.159,1.159,0,1,1,1.159,2.006l-4.818,2.781a1.154,1.154,0,0,1-.579.156" transform="translate(31.091 10.683)" fill="#262626"/>
        <path id="Trazado_873613" data-name="Trazado 873613" d="M14.169,31.1a1.158,1.158,0,0,1-.58-2.162l4.818-2.781a1.159,1.159,0,0,1,1.159,2.006l-4.818,2.781a1.154,1.154,0,0,1-.579.156" transform="translate(11.114 22.216)" fill="#262626"/>
        <path id="Trazado_873614" data-name="Trazado 873614" d="M22.442,14.148a1.155,1.155,0,0,1-1-.579L18.657,8.752a1.158,1.158,0,1,1,2-1.159l2.781,4.818a1.158,1.158,0,0,1-1,1.738" transform="translate(15.806 5.992)" fill="#262626"/>
        <path id="Trazado_873615" data-name="Trazado 873615" d="M33.158,14.148a1.158,1.158,0,0,1-1-1.738l2.781-4.818a1.159,1.159,0,1,1,2.006,1.159l-2.781,4.818a1.16,1.16,0,0,1-1.005.579" transform="translate(27.339 5.992)" fill="#262626"/>
        <path id="Trazado_873616" data-name="Trazado 873616" d="M18.985,17.6a1.154,1.154,0,0,1-.579-.156l-4.818-2.781a1.159,1.159,0,0,1,1.159-2.006l4.818,2.781a1.158,1.158,0,0,1-.58,2.162" transform="translate(11.115 10.683)" fill="#262626"/>
        <path id="Trazado_873617" data-name="Trazado 873617" d="M42.368,31.1a1.154,1.154,0,0,1-.579-.156l-4.818-2.781a1.159,1.159,0,1,1,1.159-2.006l4.818,2.781a1.158,1.158,0,0,1-.58,2.162" transform="translate(31.091 22.216)" fill="#262626"/>
      </g>
    </g>
  </g>
</svg>
