<svg xmlns="http://www.w3.org/2000/svg" xmlns:xlink="http://www.w3.org/1999/xlink" width="72.782" height="98.743" viewBox="0 0 72.782 98.743">
  <defs>
    <clipPath id="clip-path">
      <rect id="Rectángulo_401413" data-name="Rectángulo 401413" width="72.782" height="98.743" fill="none"/>
    </clipPath>
  </defs>
  <g id="Grupo_1099505" data-name="Grupo 1099505" transform="translate(0)">
    <g id="Grupo_1099504" data-name="Grupo 1099504" transform="translate(0)" clip-path="url(#clip-path)">
      <path id="Trazado_873587" data-name="Trazado 873587" d="M51.226,60.259H21.557a4.874,4.874,0,0,1-4.868-4.868V53.008a4.382,4.382,0,0,0-1.78-3.521A36.508,36.508,0,0,1,0,20.159a1.159,1.159,0,0,1,2.318,0A34.177,34.177,0,0,0,16.277,47.618a6.7,6.7,0,0,1,2.73,5.391v2.383a2.553,2.553,0,0,0,2.55,2.55H51.226a2.553,2.553,0,0,0,2.55-2.55V53.008a6.7,6.7,0,0,1,2.73-5.391A34.188,34.188,0,0,0,70.464,20.159a1.159,1.159,0,0,1,2.318,0A36.51,36.51,0,0,1,57.873,49.487a4.382,4.382,0,0,0-1.78,3.521v2.383a4.874,4.874,0,0,1-4.868,4.868" transform="translate(0 16.232)" fill="#262626"/>
      <path id="Trazado_873588" data-name="Trazado 873588" d="M71.623,37.55a1.159,1.159,0,0,1-1.159-1.159,34.073,34.073,0,0,0-68.146,0,1.159,1.159,0,0,1-2.318,0,36.391,36.391,0,0,1,72.782,0,1.159,1.159,0,0,1-1.159,1.159" fill="#262626"/>
      <path id="Trazado_873589" data-name="Trazado 873589" d="M43.537,49.735H13.868a4.868,4.868,0,1,1,0-9.735H43.537a4.868,4.868,0,1,1,0,9.735M13.868,42.318a2.55,2.55,0,1,0,0,5.1H43.537a2.55,2.55,0,0,0,0-5.1Z" transform="translate(7.689 34.173)" fill="#262626"/>
      <path id="Trazado_873590" data-name="Trazado 873590" d="M43.537,53.735H13.868a4.868,4.868,0,1,1,0-9.735H43.537a4.868,4.868,0,1,1,0,9.735M13.868,46.318a2.55,2.55,0,1,0,0,5.1H43.537a2.55,2.55,0,1,0,0-5.1Z" transform="translate(7.689 37.59)" fill="#262626"/>
      <path id="Trazado_873591" data-name="Trazado 873591" d="M30.848,57.735H19.722A6.729,6.729,0,0,1,13,51.013V49.159A1.159,1.159,0,0,1,14.159,48H36.411a1.159,1.159,0,0,1,1.159,1.159v1.854a6.729,6.729,0,0,1-6.722,6.722m-15.53-7.417v.7a4.408,4.408,0,0,0,4.4,4.4H30.848a4.408,4.408,0,0,0,4.4-4.4v-.7Z" transform="translate(11.106 41.007)" fill="#262626"/>
      <path id="Trazado_873592" data-name="Trazado 873592" d="M40.39,48.847a3.167,3.167,0,0,1-1.48-.367l-9.184-4.829a.847.847,0,0,0-.794,0L19.748,48.48a3.171,3.171,0,0,1-4.6-3.341L16.9,34.91a.854.854,0,0,0-.247-.755l-7.43-7.243A3.174,3.174,0,0,1,10.982,21.5l10.269-1.491a.852.852,0,0,0,.642-.467l4.593-9.3a3.17,3.17,0,0,1,5.685,0l4.593,9.3a.854.854,0,0,0,.642.465L47.676,21.5a3.172,3.172,0,0,1,1.758,5.409L42,34.156a.861.861,0,0,0-.247.757l1.754,10.225a3.176,3.176,0,0,1-3.121,3.71M29.329,41.235a3.175,3.175,0,0,1,1.478.365l9.183,4.827a.852.852,0,0,0,1.237-.9L39.472,35.3a3.178,3.178,0,0,1,.912-2.806l7.43-7.243a.853.853,0,0,0-.473-1.454L37.075,22.306a3.173,3.173,0,0,1-2.388-1.734l-4.593-9.307a.854.854,0,0,0-1.528,0l-4.593,9.3a3.171,3.171,0,0,1-2.388,1.736L11.316,23.8a.853.853,0,0,0-.473,1.454l7.43,7.243a3.173,3.173,0,0,1,.912,2.807L17.432,45.528a.852.852,0,0,0,1.237.9L27.853,41.6a3.15,3.15,0,0,1,1.476-.365" transform="translate(7.062 7.24)" fill="#262626"/>
    </g>
  </g>
</svg>
