<svg xmlns="http://www.w3.org/2000/svg" width="288.076" height="209.953" viewBox="0 0 288.076 209.953">
  <g id="Grupo_1100950" data-name="Grupo 1100950" transform="translate(-239.711 -1728.595)">
    <g id="Grupo_1100068" data-name="Grupo 1100068" transform="translate(239.711 1728.595)">
      <rect id="Rectángulo_401527" data-name="Rectángulo 401527" width="288.076" height="0.144" transform="translate(0 188.658)" fill="#ebebeb"/>
      <rect id="Rectángulo_401528" data-name="Rectángulo 401528" width="19.083" height="0.144" transform="translate(240.127 197.931)" fill="#ebebeb"/>
      <rect id="Rectángulo_401529" data-name="Rectángulo 401529" width="5.009" height="0.144" transform="translate(185.824 199.495)" fill="#ebebeb"/>
      <rect id="Rectángulo_401530" data-name="Rectángulo 401530" width="11.057" height="0.144" transform="translate(228.493 192.581)" fill="#ebebeb"/>
      <rect id="Rectángulo_401531" data-name="Rectángulo 401531" width="24.886" height="0.144" transform="translate(30.224 193.549)" fill="#ebebeb"/>
      <rect id="Rectángulo_401532" data-name="Rectángulo 401532" width="3.649" height="0.144" transform="translate(60.24 193.549)" fill="#ebebeb"/>
      <rect id="Rectángulo_401533" data-name="Rectángulo 401533" width="53.972" height="0.144" transform="translate(75.747 195.982)" fill="#ebebeb"/>
      <path id="Trazado_874327" data-name="Trazado 874327" d="M152.75,217.915H41.5a3.293,3.293,0,0,1-3.289-3.289V58.241A3.293,3.293,0,0,1,41.5,54.953H152.75a3.292,3.292,0,0,1,3.288,3.288V214.627A3.293,3.293,0,0,1,152.75,217.915ZM41.5,55.1a3.147,3.147,0,0,0-3.143,3.143V214.627a3.148,3.148,0,0,0,3.143,3.143H152.75a3.147,3.147,0,0,0,3.143-3.143V58.241A3.147,3.147,0,0,0,152.75,55.1Z" transform="translate(-16.194 -54.953)" fill="#ebebeb"/>
      <path id="Trazado_874328" data-name="Trazado 874328" d="M369.047,217.915H257.793a3.293,3.293,0,0,1-3.288-3.289V58.241a3.292,3.292,0,0,1,3.288-3.288H369.047a3.293,3.293,0,0,1,3.289,3.288V214.627A3.293,3.293,0,0,1,369.047,217.915ZM257.793,55.1a3.147,3.147,0,0,0-3.143,3.143V214.627a3.148,3.148,0,0,0,3.143,3.143H369.047a3.148,3.148,0,0,0,3.143-3.143V58.241a3.148,3.148,0,0,0-3.143-3.143Z" transform="translate(-107.872 -54.953)" fill="#ebebeb"/>
      <g id="Grupo_1100067" data-name="Grupo 1100067" transform="translate(27.547 7.845)">
        <g id="Grupo_1100048" data-name="Grupo 1100048" transform="translate(151.177 5.102)">
          <path id="Trazado_874329" data-name="Trazado 874329" d="M335.4,89.357a2.815,2.815,0,0,0-3.626-2.7,6.028,6.028,0,0,0,.063-.865,5.963,5.963,0,0,0-7.065-5.864,5.214,5.214,0,0,0-9.67,2.637c-.029,0-.058,0-.087,0a4.806,4.806,0,0,0,0,9.612h17.647l0,0a2.815,2.815,0,0,0,2.741-2.813Z" transform="translate(-310.205 -77.425)" fill="#f0f0f0"/>
          <path id="Trazado_874330" data-name="Trazado 874330" d="M329.974,101.412V95.92h-4.48v5.492h-3.648l5.888,4.975,5.888-4.975Z" transform="translate(-315.139 -85.264)" fill="#e0e0e0"/>
        </g>
        <g id="Grupo_1100049" data-name="Grupo 1100049" transform="translate(34.573 0)">
          <path id="Trazado_874331" data-name="Trazado 874331" d="M161.323,93.913a5.979,5.979,0,0,0-7.7-5.73,12.8,12.8,0,0,0,.135-1.837,12.664,12.664,0,0,0-15.01-12.452,11.073,11.073,0,0,0-20.535,5.6c-.062,0-.122-.009-.185-.009a10.207,10.207,0,1,0,0,20.414h37.485l-.007-.008a5.98,5.98,0,0,0,5.819-5.976Z" transform="translate(-107.82 -68.57)" fill="#f0f0f0"/>
          <path id="Trazado_874332" data-name="Trazado 874332" d="M140.3,105.59v11.665h9.514V105.59h7.747l-12.5-10.567-12.5,10.567Z" transform="translate(-118.301 -79.782)" fill="#e0e0e0"/>
        </g>
        <g id="Grupo_1100054" data-name="Grupo 1100054" transform="translate(83.997 18.034)">
          <path id="Trazado_874333" data-name="Trazado 874333" d="M209.47,151.591h-1V135.4h49.042v16.029h-1V136.4H209.47Z" transform="translate(-200.116 -115.142)" fill="#e6e6e6"/>
          <path id="Línea_899" data-name="Línea 899" d="M.5,30.428h-1V0h1Z" transform="translate(33.585 5.977)" fill="#e6e6e6"/>
          <g id="Grupo_1100050" data-name="Grupo 1100050" transform="translate(24.731)">
            <rect id="Rectángulo_401534" data-name="Rectángulo 401534" width="17.709" height="11.094" rx="1.187" fill="#f0f0f0"/>
            <rect id="Rectángulo_401535" data-name="Rectángulo 401535" width="16.486" height="9.347" rx="0.421" transform="translate(0.612 1.303)" fill="#e0e0e0"/>
          </g>
          <g id="Grupo_1100051" data-name="Grupo 1100051" transform="translate(0 35.025)">
            <rect id="Rectángulo_401536" data-name="Rectángulo 401536" width="17.709" height="11.094" rx="1.187" fill="#f0f0f0"/>
            <rect id="Rectángulo_401537" data-name="Rectángulo 401537" width="16.486" height="9.347" rx="0.421" transform="translate(0.612 1.303)" fill="#e0e0e0"/>
          </g>
          <g id="Grupo_1100052" data-name="Grupo 1100052" transform="translate(24.731 35.025)">
            <rect id="Rectángulo_401538" data-name="Rectángulo 401538" width="17.709" height="11.094" rx="1.187" fill="#f0f0f0"/>
            <rect id="Rectángulo_401539" data-name="Rectángulo 401539" width="16.486" height="9.347" rx="0.421" transform="translate(0.612 1.303)" fill="#e0e0e0"/>
          </g>
          <g id="Grupo_1100053" data-name="Grupo 1100053" transform="translate(48.079 35.025)">
            <rect id="Rectángulo_401540" data-name="Rectángulo 401540" width="17.709" height="11.094" rx="1.187" fill="#f0f0f0"/>
            <rect id="Rectángulo_401541" data-name="Rectángulo 401541" width="16.486" height="9.347" rx="0.421" transform="translate(0.612 1.303)" fill="#e0e0e0"/>
          </g>
          <path id="Trazado_874334" data-name="Trazado 874334" d="M.649,0H6.542a.649.649,0,0,1,.649.649V6.542a.649.649,0,0,1-.649.649H.649A.649.649,0,0,1,0,6.542V.649A.649.649,0,0,1,.649,0Z" transform="translate(28.501 20.761) rotate(-45)" fill="#e0e0e0" style="isolation: isolate"/>
        </g>
        <g id="Grupo_1100057" data-name="Grupo 1100057" transform="translate(0.458 31.158)">
          <rect id="Rectángulo_401542" data-name="Rectángulo 401542" width="12.531" height="7.51" rx="0.871" transform="translate(11.292)" fill="#e0e0e0" opacity="0.8"/>
          <rect id="Rectángulo_401543" data-name="Rectángulo 401543" width="10.135" height="5.733" rx="0.871" transform="translate(4.894 16.152)" fill="#e0e0e0"/>
          <rect id="Rectángulo_401544" data-name="Rectángulo 401544" width="10.135" height="5.733" rx="0.871" transform="translate(20.272 16.152)" fill="#e0e0e0"/>
          <g id="Grupo_1100055" data-name="Grupo 1100055" transform="translate(15.632 28.283)">
            <rect id="Rectángulo_401545" data-name="Rectángulo 401545" width="5.32" height="4.897" rx="0.871" fill="#e0e0e0"/>
            <rect id="Rectángulo_401546" data-name="Rectángulo 401546" width="5.32" height="4.897" rx="0.871" transform="translate(6.756)" fill="#e0e0e0"/>
            <rect id="Rectángulo_401547" data-name="Rectángulo 401547" width="5.32" height="4.897" rx="0.871" transform="translate(13.512)" fill="#e0e0e0"/>
          </g>
          <rect id="Rectángulo_401548" data-name="Rectángulo 401548" width="5.32" height="4.897" rx="0.871" transform="translate(0 28.283)" fill="#e0e0e0"/>
          <rect id="Rectángulo_401549" data-name="Rectángulo 401549" width="5.32" height="4.897" rx="0.871" transform="translate(7.332 28.283)" fill="#e0e0e0"/>
          <g id="Grupo_1100056" data-name="Grupo 1100056" transform="translate(2.29 7.514)">
            <path id="Trazado_874335" data-name="Trazado 874335" d="M80.56,144.327h.576V140.3h-7.49v-4.609H73.07V140.3H65.58v4.029h.58V140.87h14.4Z" transform="translate(-58.09 -135.689)" fill="#e0e0e0"/>
            <path id="Trazado_874336" data-name="Trazado 874336" d="M60.07,164.141H52.58v2.881h.58v-2.3h6.914v2.3h.576v-6.338h-.576Z" transform="translate(-52.58 -146.284)" fill="#e0e0e0"/>
            <path id="Trazado_874337" data-name="Trazado 874337" d="M87.07,164.718v-4.029h-.576v4.029H79.58v2.3h.58v-1.732h6.334v1.728h.576v-1.728h6.338v1.728h.576v-2.3Z" transform="translate(-64.025 -146.285)" fill="#e0e0e0"/>
          </g>
        </g>
        <g id="Grupo_1100058" data-name="Grupo 1100058" transform="translate(174.813 22.008)">
          <path id="Trazado_874338" data-name="Trazado 874338" d="M380.993,117.72v4.142l2.131.2a11.054,11.054,0,0,0,1.589,3.823l-1.37,1.654,2.927,2.927,1.654-1.37a11.064,11.064,0,0,0,3.823,1.59l.2,2.131h4.139l.2-2.131a11.055,11.055,0,0,0,3.824-1.589l1.654,1.37,2.927-2.927-1.37-1.654a11.054,11.054,0,0,0,1.589-3.823l2.132-.2V117.72l-2.132-.2a11.049,11.049,0,0,0-1.589-3.823l1.37-1.654-2.927-2.927-1.654,1.37a11.067,11.067,0,0,0-3.824-1.589l-.2-2.131h-4.139l-.2,2.131a11.063,11.063,0,0,0-3.823,1.589l-1.654-1.37-2.927,2.927,1.37,1.653a11.056,11.056,0,0,0-1.589,3.824Zm13.025-3.533a5.6,5.6,0,1,1-5.6,5.6A5.6,5.6,0,0,1,394.018,114.187Z" transform="translate(-363.845 -106.766)" fill="#f5f5f5"/>
          <path id="Trazado_874339" data-name="Trazado 874339" d="M376.81,164.405a8.66,8.66,0,0,0,3-1.246l1.3,1.073,2.293-2.293-1.073-1.3a8.656,8.656,0,0,0,1.246-3l1.67-.161v-3.243l-1.67-.161a8.651,8.651,0,0,0-1.246-3l1.073-1.3L381.1,147.5l-1.3,1.073a8.671,8.671,0,0,0-3-1.245l-.161-1.67h-3.243l-.161,1.67a8.663,8.663,0,0,0-3,1.245l-1.3-1.073-2.293,2.293,1.073,1.3a8.673,8.673,0,0,0-1.246,3l-1.67.161v3.243l1.67.161a8.678,8.678,0,0,0,1.246,3l-1.073,1.3,2.293,2.293,1.3-1.073a8.653,8.653,0,0,0,3,1.246l.161,1.67h3.243Zm-6.169-8.537a4.391,4.391,0,1,1,4.391,4.391,4.391,4.391,0,0,1-4.391-4.391Z" transform="translate(-356.991 -123.251)" fill="#f5f5f5"/>
          <path id="Trazado_874340" data-name="Trazado 874340" d="M363.816,136.915l1.088.9,1.927-1.926-.9-1.089a7.282,7.282,0,0,0,1.048-2.517l1.4-.132v-2.724l-1.4-.135a7.277,7.277,0,0,0-1.048-2.517l.9-1.089-1.927-1.927-1.088.9a7.282,7.282,0,0,0-2.517-1.048l-.132-1.4h-2.724l-.132,1.4a7.267,7.267,0,0,0-2.517,1.048l-1.089-.9-1.926,1.927.9,1.089a7.278,7.278,0,0,0-1.048,2.517l-1.4.132v2.724l1.4.132a7.294,7.294,0,0,0,1.048,2.517l-.9,1.089,1.926,1.926,1.089-.9a7.278,7.278,0,0,0,2.517,1.048l.132,1.4h2.724l.132-1.4a7.283,7.283,0,0,0,2.518-1.044Zm-7.7-6.124a3.688,3.688,0,1,1,3.688,3.688,3.688,3.688,0,0,1-3.688-3.688Z" transform="translate(-351.23 -113.315)" fill="#f5f5f5"/>
        </g>
        <g id="Grupo_1100061" data-name="Grupo 1100061" transform="translate(186.917 147.185)">
          <g id="Grupo_1100059" data-name="Grupo 1100059">
            <rect id="Rectángulo_401550" data-name="Rectángulo 401550" width="38.688" height="25.162" fill="#f5f5f5"/>
          </g>
          <rect id="Rectángulo_401551" data-name="Rectángulo 401551" width="35.857" height="19.186" transform="translate(1.416 4.718)" fill="#e0e0e0"/>
          <g id="Grupo_1100060" data-name="Grupo 1100060" transform="translate(4.338 7.585)">
            <rect id="Rectángulo_401552" data-name="Rectángulo 401552" width="26.524" height="0.825" fill="#f5f5f5"/>
            <rect id="Rectángulo_401553" data-name="Rectángulo 401553" width="12.726" height="0.825" transform="translate(0 2.528)" fill="#f5f5f5"/>
            <rect id="Rectángulo_401554" data-name="Rectángulo 401554" width="16.028" height="0.825" transform="translate(0 5.056)" fill="#f5f5f5"/>
            <rect id="Rectángulo_401555" data-name="Rectángulo 401555" width="5.649" height="0.825" transform="translate(0 7.583)" fill="#f5f5f5"/>
            <rect id="Rectángulo_401556" data-name="Rectángulo 401556" width="3.658" height="0.825" transform="translate(0 10.111)" fill="#f5f5f5"/>
          </g>
        </g>
        <g id="Grupo_1100066" data-name="Grupo 1100066" transform="translate(0 147.03)">
          <rect id="Rectángulo_401557" data-name="Rectángulo 401557" width="27.529" height="16.98" transform="translate(0 0.138) rotate(-0.286)" fill="#ebebeb"/>
          <g id="Grupo_1100065" data-name="Grupo 1100065" transform="translate(4.963 4.281)">
            <g id="Grupo_1100062" data-name="Grupo 1100062" transform="translate(0 0.031)">
              <path id="Trazado_874341" data-name="Trazado 874341" d="M62.024,339.783a.573.573,0,0,1-.339-.111L56.662,336a.576.576,0,0,1,0-.927l4.99-3.715a.576.576,0,1,1,.688.924l-4.363,3.247,4.392,3.21a.576.576,0,0,1-.341,1.042Z" transform="translate(-56.426 -331.246)" fill="#fafafa"/>
            </g>
            <g id="Grupo_1100063" data-name="Grupo 1100063" transform="translate(11.506 0)">
              <path id="Trazado_874342" data-name="Trazado 874342" d="M77.007,339.731a.576.576,0,0,1-.345-1.038l4.363-3.249-4.392-3.208a.576.576,0,1,1,.68-.931l5.023,3.669a.576.576,0,0,1,0,.927l-4.989,3.716a.576.576,0,0,1-.344.114Z" transform="translate(-76.397 -331.194)" fill="#fafafa"/>
            </g>
            <g id="Grupo_1100064" data-name="Grupo 1100064" transform="translate(6.97 0.009)">
              <path id="Trazado_874343" data-name="Trazado 874343" d="M69.1,339.758a.576.576,0,0,1-.544-.766l2.587-7.4a.576.576,0,0,1,1.088.38l-2.587,7.4A.576.576,0,0,1,69.1,339.758Z" transform="translate(-68.524 -331.209)" fill="#fafafa"/>
            </g>
          </g>
        </g>
      </g>
    </g>
    <g id="Grupo_1100074" data-name="Grupo 1100074" transform="translate(415.083 1903.404)">
      <g id="Grupo_1100069" data-name="Grupo 1100069" transform="translate(17.285 1.52)">
        <path id="Trazado_874344" data-name="Trazado 874344" d="M334.385,392.829h4.23L344.376,361h-4.23Z" transform="translate(-334.385 -361)" fill="#263238"/>
        <path id="Trazado_874345" data-name="Trazado 874345" d="M334.385,392.829h4.23L344.376,361h-4.23Z" transform="translate(-334.385 -361)" fill="#fff" opacity="0.2"/>
        <path id="Trazado_874346" data-name="Trazado 874346" d="M334.385,392.829h3.074L343.221,361h-3.077Z" transform="translate(-334.385 -361)" fill="#fff" opacity="0.2"/>
      </g>
      <path id="Trazado_874347" data-name="Trazado 874347" d="M313,376.056h16.935a.935.935,0,0,0,.935-.935h0a.935.935,0,0,0-.935-.935H313a.935.935,0,0,0-.935.935h0A.935.935,0,0,0,313,376.056Z" transform="translate(-307.641 -365.07)" fill="#263238"/>
      <path id="Trazado_874348" data-name="Trazado 874348" d="M309.737,394.549h16.934a.935.935,0,0,0,.935-.935h0a.936.936,0,0,0-.935-.935H309.737a.936.936,0,0,0-.935.935h0a.935.935,0,0,0,.935.935Z" transform="translate(-306.257 -372.908)" fill="#263238"/>
      <g id="Grupo_1100070" data-name="Grupo 1100070" transform="translate(0 1.52)">
        <path id="Trazado_874349" data-name="Trazado 874349" d="M304.385,392.829h4.23L314.376,361h-4.23Z" transform="translate(-304.385 -361)" fill="#263238"/>
        <path id="Trazado_874350" data-name="Trazado 874350" d="M304.385,392.829h4.23L314.376,361h-4.23Z" transform="translate(-304.385 -361)" fill="#fff" opacity="0.2"/>
        <path id="Trazado_874351" data-name="Trazado 874351" d="M304.385,392.829h3.074L313.221,361h-3.077Z" transform="translate(-304.385 -361)" fill="#fff" opacity="0.2"/>
      </g>
      <g id="Grupo_1100071" data-name="Grupo 1100071" transform="translate(29.383 1.52)">
        <path id="Trazado_874352" data-name="Trazado 874352" d="M365.375,392.829h-4.23L355.384,361h4.23Z" transform="translate(-355.384 -361)" fill="#263238"/>
        <path id="Trazado_874353" data-name="Trazado 874353" d="M365.375,392.829h-4.23L355.384,361h4.23Z" transform="translate(-355.384 -361)" fill="#fff" opacity="0.4"/>
        <path id="Trazado_874354" data-name="Trazado 874354" d="M364.223,392.829h-3.077L355.384,361h3.075Z" transform="translate(-355.384 -361)" fill="#fff" opacity="0.2"/>
      </g>
      <path id="Trazado_874355" data-name="Trazado 874355" d="M346.672,376.056H329.737a.936.936,0,0,1-.935-.935h0a.935.935,0,0,1,.935-.935h16.934a.935.935,0,0,1,.935.935h0a.935.935,0,0,1-.934.935Z" transform="translate(-314.734 -365.07)" fill="#263238"/>
      <path id="Trazado_874356" data-name="Trazado 874356" d="M349.936,394.549H333a.935.935,0,0,1-.935-.935h0a.935.935,0,0,1,.935-.935h16.935a.935.935,0,0,1,.935.935h0A.935.935,0,0,1,349.936,394.549Z" transform="translate(-316.117 -372.908)" fill="#263238"/>
      <path id="Trazado_874357" data-name="Trazado 874357" d="M346.672,376.056H329.737a.936.936,0,0,1-.935-.935h0a.935.935,0,0,1,.935-.935h16.934a.935.935,0,0,1,.935.935h0a.935.935,0,0,1-.934.935Z" transform="translate(-314.734 -365.07)" fill="#fff" opacity="0.2"/>
      <path id="Trazado_874358" data-name="Trazado 874358" d="M349.936,394.549H333a.935.935,0,0,1-.935-.935h0a.935.935,0,0,1,.935-.935h16.935a.935.935,0,0,1,.935.935h0A.935.935,0,0,1,349.936,394.549Z" transform="translate(-316.117 -372.908)" fill="#fff" opacity="0.2"/>
      <g id="Grupo_1100072" data-name="Grupo 1100072" transform="translate(12.098 1.52)">
        <path id="Trazado_874359" data-name="Trazado 874359" d="M335.375,392.829h-4.23L325.384,361h4.23Z" transform="translate(-325.384 -361)" fill="#263238"/>
        <path id="Trazado_874360" data-name="Trazado 874360" d="M335.375,392.829h-4.23L325.384,361h4.23Z" transform="translate(-325.384 -361)" fill="#fff" opacity="0.4"/>
        <path id="Trazado_874361" data-name="Trazado 874361" d="M334.223,392.829h-3.077L325.384,361h3.075Z" transform="translate(-325.384 -361)" fill="#fff" opacity="0.2"/>
      </g>
      <g id="Grupo_1100073" data-name="Grupo 1100073" transform="translate(3.989)">
        <rect id="Rectángulo_401558" data-name="Rectángulo 401558" width="31.961" height="3.036" rx="1.187" fill="#263238"/>
        <rect id="Rectángulo_401559" data-name="Rectángulo 401559" width="12.998" height="3.036" rx="1.187" fill="#fff" opacity="0.2"/>
      </g>
    </g>
    <g id="Grupo_1100077" data-name="Grupo 1100077" transform="translate(312.999 1911.174)">
      <g id="Grupo_1100076" data-name="Grupo 1100076">
        <rect id="Rectángulo_401560" data-name="Rectángulo 401560" width="38.688" height="25.162" fill="#12263f"/>
        <rect id="Rectángulo_401561" data-name="Rectángulo 401561" width="35.857" height="19.186" transform="translate(1.415 4.718)" fill="#d2e1f1"/>
        <g id="Grupo_1100075" data-name="Grupo 1100075" transform="translate(4.337 7.585)">
          <rect id="Rectángulo_401562" data-name="Rectángulo 401562" width="26.524" height="0.825" fill="#fff"/>
          <rect id="Rectángulo_401563" data-name="Rectángulo 401563" width="12.726" height="0.825" transform="translate(0 2.528)" fill="#fff"/>
          <rect id="Rectángulo_401564" data-name="Rectángulo 401564" width="16.028" height="0.825" transform="translate(0 5.056)" fill="#fff"/>
          <rect id="Rectángulo_401565" data-name="Rectángulo 401565" width="5.65" height="0.825" transform="translate(0 7.583)" fill="#fff"/>
          <rect id="Rectángulo_401566" data-name="Rectángulo 401566" width="3.658" height="0.825" transform="translate(0 10.111)" fill="#fff"/>
        </g>
      </g>
    </g>
    <g id="Grupo_1100091" data-name="Grupo 1100091" transform="translate(305.702 1791.643)">
      <g id="Grupo_1100078" data-name="Grupo 1100078" transform="translate(62.299 103.238)">
        <path id="Trazado_874362" data-name="Trazado 874362" d="M254.163,385.437h-31.5L228,343.569H248.83Z" transform="translate(-222.667 -343.569)" fill="#12263f"/>
        <path id="Trazado_874363" data-name="Trazado 874363" d="M254,363.079l-25-6.285,1.684-13.224h20.826Z" transform="translate(-225.353 -343.569)" opacity="0.1" style="isolation: isolate"/>
      </g>
      <path id="Trazado_874364" data-name="Trazado 874364" d="M266.831,164.382H118.337a3.8,3.8,0,0,0-3.8,3.8V268.709a3.8,3.8,0,0,0,3.8,3.8H266.831a3.8,3.8,0,0,0,3.8-3.8V168.184a3.8,3.8,0,0,0-3.8-3.8Z" transform="translate(-114.538 -164.382)" fill="#12263f"/>
      <rect id="Rectángulo_401567" data-name="Rectángulo 401567" width="146.094" height="96.937" transform="translate(5 3.721)" fill="#d2e1f1"/>
      <g id="Grupo_1100079" data-name="Grupo 1100079" transform="translate(50.999 141.961)">
        <rect id="Rectángulo_401568" data-name="Rectángulo 401568" width="54.095" height="3.095" rx="1.037" fill="#12263f"/>
      </g>
      <g id="Grupo_1100087" data-name="Grupo 1100087" transform="translate(5 3.814)">
        <rect id="Rectángulo_401569" data-name="Rectángulo 401569" width="146.094" height="14.449" opacity="0.2" style="isolation: isolate"/>
        <rect id="Rectángulo_401570" data-name="Rectángulo 401570" width="62.606" height="82.225" transform="translate(0 14.62)" fill="#fff" opacity="0.4"/>
        <g id="Grupo_1100082" data-name="Grupo 1100082" transform="translate(68.064 4.535)">
          <path id="Rectángulo_401571" data-name="Rectángulo 401571" d="M0-.5H5v1H.5V2.439h-1V0H0Zm10,0h5v1H10Zm10,0h5v1H20Zm10,0h5v1H30Zm10,0h5v1H40Zm10,0h5.132V.368h-.5V.5H50Zm4.132,5.868h1v5h-1ZM-.5,7.439h1v5h-1Zm54.632,7.929h1v5h-1ZM-.5,17.439h1v5h-1Zm54.632,7.929h1v5h-1ZM-.5,27.439h1v3.648H.852v1H-.5Zm6.352,3.648h5v1h-5Zm10,0h5v1h-5Zm10,0h5v1h-5Zm10,0h5v1h-5Zm10,0h5v1h-5Z" transform="translate(0.913 0.913)" fill="#fff"/>
          <rect id="Rectángulo_401572" data-name="Rectángulo 401572" width="1.827" height="1.827" transform="translate(54.632)" fill="#407bff"/>
          <path id="Rectángulo_401572_-_Contorno" data-name="Rectángulo 401572 - Contorno" d="M-.5-.5H2.327V2.327H-.5ZM1.327.5H.5v.827h.827Z" transform="translate(54.632)" fill="#fff"/>
          <rect id="Rectángulo_401573" data-name="Rectángulo 401573" width="1.827" height="1.827" transform="translate(54.632 31.587)" fill="#407bff"/>
          <path id="Rectángulo_401573_-_Contorno" data-name="Rectángulo 401573 - Contorno" d="M-.5-.5H2.327V2.327H-.5ZM1.327.5H.5v.827h.827Z" transform="translate(54.632 31.587)" fill="#fff"/>
          <rect id="Rectángulo_401574" data-name="Rectángulo 401574" width="1.827" height="1.827" fill="#407bff"/>
          <path id="Rectángulo_401574_-_Contorno" data-name="Rectángulo 401574 - Contorno" d="M-.5-.5H2.327V2.327H-.5ZM1.327.5H.5v.827h.827Z" fill="#fff"/>
          <rect id="Rectángulo_401575" data-name="Rectángulo 401575" width="1.827" height="1.827" transform="translate(0 31.587)" fill="#407bff"/>
          <path id="Rectángulo_401575_-_Contorno" data-name="Rectángulo 401575 - Contorno" d="M-.5-.5H2.327V2.327H-.5ZM1.327.5H.5v.827h.827Z" transform="translate(0 31.587)" fill="#fff"/>
          <g id="Grupo_1100080" data-name="Grupo 1100080" transform="translate(27.316)">
            <rect id="Rectángulo_401576" data-name="Rectángulo 401576" width="1.827" height="1.827" fill="#407bff"/>
            <path id="Rectángulo_401576_-_Contorno" data-name="Rectángulo 401576 - Contorno" d="M-.5-.5H2.327V2.327H-.5ZM1.327.5H.5v.827h.827Z" fill="#fff"/>
            <rect id="Rectángulo_401577" data-name="Rectángulo 401577" width="1.827" height="1.827" transform="translate(0 31.586)" fill="#407bff"/>
            <path id="Rectángulo_401577_-_Contorno" data-name="Rectángulo 401577 - Contorno" d="M-.5-.5H2.327V2.327H-.5ZM1.327.5H.5v.827h.827Z" transform="translate(0 31.586)" fill="#fff"/>
          </g>
          <g id="Grupo_1100081" data-name="Grupo 1100081" transform="translate(0 15.793)">
            <rect id="Rectángulo_401578" data-name="Rectángulo 401578" width="1.827" height="1.827" transform="translate(54.632)" fill="#407bff"/>
            <path id="Rectángulo_401578_-_Contorno" data-name="Rectángulo 401578 - Contorno" d="M-.5-.5H2.327V2.327H-.5ZM1.327.5H.5v.827h.827Z" transform="translate(54.632)" fill="#fff"/>
            <rect id="Rectángulo_401579" data-name="Rectángulo 401579" width="1.827" height="1.827" fill="#407bff"/>
            <path id="Rectángulo_401579_-_Contorno" data-name="Rectángulo 401579 - Contorno" d="M-.5-.5H2.327V2.327H-.5ZM1.327.5H.5v.827h.827Z" fill="#fff"/>
          </g>
        </g>
        <path id="Trazado_874365" data-name="Trazado 874365" d="M1.525,0h12.5a1.526,1.526,0,0,1,1.531,1.526v2.7a1.526,1.526,0,0,1-1.531,1.526H1.525A1.525,1.525,0,0,1,0,4.227v-2.7A1.525,1.525,0,0,1,1.525,0Z" transform="translate(104.19 16.058)" fill="#fff" opacity="0.7"/>
        <path id="Trazado_874366" data-name="Trazado 874366" d="M1.525,0h12.5a1.526,1.526,0,0,1,1.531,1.526v2.7a1.525,1.525,0,0,1-1.531,1.526H1.526A1.526,1.526,0,0,1,0,4.227v-2.7A1.525,1.525,0,0,1,1.525,0Z" transform="translate(81.144 16.058)" fill="#fff" opacity="0.7"/>
        <path id="Trazado_874367" data-name="Trazado 874367" d="M1.526,0H14.021a1.526,1.526,0,0,1,1.531,1.526v2.7a1.525,1.525,0,0,1-1.531,1.526H1.526A1.526,1.526,0,0,1,0,4.227v-2.7A1.526,1.526,0,0,1,1.526,0Z" transform="translate(51.474 86.111)" fill="#fff" opacity="0.7"/>
        <g id="Grupo_1100083" data-name="Grupo 1100083" transform="translate(136.454 5.138)">
          <path id="Línea_900" data-name="Línea 900" d="M4.862.75H0A.75.75,0,0,1-.75,0,.75.75,0,0,1,0-.75H4.862a.75.75,0,0,1,.75.75A.75.75,0,0,1,4.862.75Z" fill="#fff"/>
          <path id="Línea_901" data-name="Línea 901" d="M4.862.75H0A.75.75,0,0,1-.75,0,.75.75,0,0,1,0-.75H4.862a.75.75,0,0,1,.75.75A.75.75,0,0,1,4.862.75Z" transform="translate(0 2.305)" fill="#fff"/>
          <path id="Línea_902" data-name="Línea 902" d="M4.862.75H0A.75.75,0,0,1-.75,0,.75.75,0,0,1,0-.75H4.862a.75.75,0,0,1,.75.75A.75.75,0,0,1,4.862.75Z" transform="translate(0 4.609)" fill="#fff"/>
        </g>
        <rect id="Rectángulo_401580" data-name="Rectángulo 401580" width="49.004" height="49.004" transform="translate(9.904 27.365)" fill="#fff" opacity="0.5"/>
        <g id="Grupo_1100084" data-name="Grupo 1100084" transform="translate(29.504 30.46)">
          <path id="Línea_903" data-name="Línea 903" d="M.5,42.266h-1V0h1Z" transform="translate(0.913 0.913)" fill="#12263f"/>
          <path id="Trazado_874368" data-name="Trazado 874368" d="M197.144,268.221a21.633,21.633,0,1,1,0-43.266v1a20.633,20.633,0,1,0,0,41.266Z" transform="translate(-175.098 -224.541)" fill="#12263f"/>
          <rect id="Rectángulo_401581" data-name="Rectángulo 401581" width="1.827" height="1.827" transform="translate(21.133)" fill="#fff"/>
          <path id="Rectángulo_401581_-_Contorno" data-name="Rectángulo 401581 - Contorno" d="M-.5-.5H2.327V2.327H-.5ZM1.327.5H.5v.827h.827Z" transform="translate(21.133)" fill="#12263f"/>
          <rect id="Rectángulo_401582" data-name="Rectángulo 401582" width="1.827" height="1.827" transform="translate(21.133 42.266)" fill="#fff"/>
          <path id="Rectángulo_401582_-_Contorno" data-name="Rectángulo 401582 - Contorno" d="M-.5-.5H2.327V2.327H-.5ZM1.327.5H.5v.827h.827Z" transform="translate(21.133 42.266)" fill="#12263f"/>
          <rect id="Rectángulo_401583" data-name="Rectángulo 401583" width="1.827" height="1.827" transform="translate(0 21.133)" fill="#fff"/>
          <path id="Rectángulo_401583_-_Contorno" data-name="Rectángulo 401583 - Contorno" d="M-.5-.5H2.327V2.327H-.5ZM1.327.5H.5v.827h.827Z" transform="translate(0 21.133)" fill="#12263f"/>
          <path id="Trazado_874369" data-name="Trazado 874369" d="M176.136,225.107a.474.474,0,1,1-.474-.474A.474.474,0,0,1,176.136,225.107Z" transform="translate(-174.749 -224.193)" fill="#fff"/>
          <path id="Trazado_874369_-_Contorno" data-name="Trazado 874369 - Contorno" d="M175.662,224.133a.974.974,0,1,1-.974.974A.975.975,0,0,1,175.662,224.133Z" transform="translate(-174.749 -224.193)" fill="#12263f"/>
          <path id="Trazado_874370" data-name="Trazado 874370" d="M176.136,298.467a.474.474,0,1,1-.474-.473A.474.474,0,0,1,176.136,298.467Z" transform="translate(-174.749 -255.287)" fill="#fff"/>
          <path id="Trazado_874370_-_Contorno" data-name="Trazado 874370 - Contorno" d="M175.662,297.494a.974.974,0,1,1-.689.285A.975.975,0,0,1,175.662,297.494Z" transform="translate(-174.749 -255.287)" fill="#12263f"/>
        </g>
        <path id="Trazado_874371" data-name="Trazado 874371" d="M302.862,315.362H288.029a4.287,4.287,0,0,1-4.287-4.287h0a4.287,4.287,0,0,1,4.287-4.287h14.833a4.287,4.287,0,0,1,4.287,4.287h0A4.287,4.287,0,0,1,302.862,315.362Z" transform="translate(-191.255 -228.554)" fill="#fff" opacity="0.7"/>
        <path id="Trazado_874372" data-name="Trazado 874372" d="M305.149,256.839H259.322a.937.937,0,0,1-.937-.937h0a.937.937,0,0,1,.937-.937h45.827a.937.937,0,0,1,.937.937h0a.937.937,0,0,1-.938.937Z" transform="translate(-180.507 -206.589)" fill="#fff" opacity="0.7"/>
        <path id="Trazado_874373" data-name="Trazado 874373" d="M305.149,268.716H259.322a.937.937,0,0,1-.937-.937h0a.937.937,0,0,1,.937-.937h45.827a.937.937,0,0,1,.937.937h0a.937.937,0,0,1-.938.937Z" transform="translate(-180.507 -211.623)" fill="#fff" opacity="0.7"/>
        <path id="Trazado_874374" data-name="Trazado 874374" d="M317.864,280.592H289.322a.937.937,0,0,1-.937-.937h0a.937.937,0,0,1,.937-.937h28.543a.937.937,0,0,1,.937.937h0A.937.937,0,0,1,317.864,280.592Z" transform="translate(-193.223 -216.657)" fill="#fff" opacity="0.7"/>
        <g id="Grupo_1100085" data-name="Grupo 1100085" transform="translate(4.614 4.005)">
          <rect id="Rectángulo_401584" data-name="Rectángulo 401584" width="3.237" height="3.237" opacity="0.4" style="isolation: isolate"/>
          <path id="Trazado_874375" data-name="Trazado 874375" d="M1.16,0h.918a1.16,1.16,0,0,1,1.16,1.16v.917a1.16,1.16,0,0,1-1.16,1.16H1.16A1.16,1.16,0,0,1,0,2.077V1.16A1.16,1.16,0,0,1,1.16,0Z" transform="translate(6.295)" opacity="0.4" style="isolation: isolate"/>
          <path id="Trazado_874376" data-name="Trazado 874376" d="M1.619,0h0A1.619,1.619,0,0,1,3.237,1.619h0A1.619,1.619,0,0,1,1.619,3.237h0A1.619,1.619,0,0,1,0,1.619H0A1.619,1.619,0,0,1,1.619,0Z" transform="translate(12.589)" opacity="0.4" style="isolation: isolate"/>
        </g>
        <g id="Grupo_1100086" data-name="Grupo 1100086" transform="translate(6.6 79.23)">
          <path id="Trazado_874377" data-name="Trazado 874377" d="M142.613,313.117v-1.262l-.65-.061a3.365,3.365,0,0,0-.483-1.165l.417-.5-.893-.892-.5.417a3.363,3.363,0,0,0-1.165-.483l-.061-.649h-1.262l-.061.649a3.361,3.361,0,0,0-1.165.483l-.5-.417-.892.892.417.5a3.366,3.366,0,0,0-.483,1.165l-.649.061v1.262l.649.061a3.363,3.363,0,0,0,.483,1.165l-.417.5.892.892.5-.417a3.361,3.361,0,0,0,1.165.483l.061.65h1.262l.061-.65a3.362,3.362,0,0,0,1.165-.483l.5.417.893-.892-.417-.5a3.363,3.363,0,0,0,.484-1.165Zm-3.97,1.077a1.708,1.708,0,1,1,1.708-1.708,1.708,1.708,0,0,1-1.708,1.708Z" transform="translate(-134.673 -308.517)" fill="#fff" opacity="0.9"/>
          <path id="Trazado_874378" data-name="Trazado 874378" d="M152.753,320.031v-.989l-.509-.048a2.633,2.633,0,0,0-.38-.913l.327-.395-.7-.7-.395.326a2.647,2.647,0,0,0-.913-.38l-.048-.508h-.989l-.048.508a2.647,2.647,0,0,0-.913.38l-.395-.326-.7.7.327.395a2.633,2.633,0,0,0-.38.913l-.509.048v.989l.509.048a2.636,2.636,0,0,0,.38.913l-.327.395.7.7.395-.327a2.635,2.635,0,0,0,.913.38l.048.509h.984l.048-.509a2.635,2.635,0,0,0,.913-.38l.395.327.7-.7-.327-.395a2.636,2.636,0,0,0,.38-.913Zm-3.111.844a1.338,1.338,0,1,1,1.338-1.338,1.338,1.338,0,0,1-1.338,1.338Z" transform="translate(-139.699 -311.869)" fill="#fff" opacity="0.6"/>
          <path id="Trazado_874379" data-name="Trazado 874379" d="M144.608,325.325v-.83l-.428-.04a2.214,2.214,0,0,0-.322-.767l.275-.332-.587-.587-.332.275a2.214,2.214,0,0,0-.767-.322l-.04-.428h-.83l-.04.428a2.217,2.217,0,0,0-.767.322l-.331-.275-.587.587.275.332a2.213,2.213,0,0,0-.322.767l-.428.04v.83l.428.04a2.213,2.213,0,0,0,.322.767l-.275.332.587.587.331-.274a2.228,2.228,0,0,0,.767.322l.04.428h.83l.04-.428a2.225,2.225,0,0,0,.767-.322l.332.274.587-.587-.275-.332a2.215,2.215,0,0,0,.322-.767Zm-2.613.709a1.128,1.128,0,1,1,1.124-1.124A1.128,1.128,0,0,1,141.995,326.034Z" transform="translate(-136.667 -314.357)" fill="#fff" opacity="0.4"/>
        </g>
      </g>
      <g id="Grupo_1100089" data-name="Grupo 1100089" transform="translate(128.274 8.936)">
        <g id="Grupo_1100088" data-name="Grupo 1100088">
          <path id="Trazado_874380" data-name="Trazado 874380" d="M337.177,179.892l2.444,6.534,4.088-4.088Z" transform="translate(-337.177 -179.892)" fill="#12263f"/>
          <rect id="Rectángulo_401585" data-name="Rectángulo 401585" width="1.288" height="2.862" transform="translate(3.021 3.932) rotate(-45)" fill="#12263f"/>
        </g>
      </g>
      <g id="Grupo_1100090" data-name="Grupo 1100090" transform="translate(27.515 27.528)">
        <path id="Trazado_874381" data-name="Trazado 874381" d="M162.969,216.918l6.146,2.3-3.223-3.223a.628.628,0,0,1-.755-.1.636.636,0,0,1,.9-.9.628.628,0,0,1,.1.754l3.223,3.223-2.3-6.147-2.035.452-.081-.735-.385-.385-2.256,2.256.385.385.735.081Z" transform="translate(-162.296 -212.161)" fill="#263238"/>
        <path id="Trazado_874382" data-name="Trazado 874382" d="M162.969,216.918l6.146,2.3-3.223-3.223a.628.628,0,0,1-.755-.1.636.636,0,0,1,.9-.9.628.628,0,0,1,.1.754l3.223,3.223-2.3-6.147-2.035.452-.081-.735-.385-.385-2.256,2.256.385.385.735.081Z" transform="translate(-162.296 -212.161)" fill="#fff" opacity="0.2"/>
      </g>
    </g>
    <g id="Grupo_1100099" data-name="Grupo 1100099" transform="translate(440.264 1789.723)">
      <g id="Grupo_1100092" data-name="Grupo 1100092" transform="translate(45.133 27.026)">
        <path id="Trazado_874383" data-name="Trazado 874383" d="M435.344,207.958c2.044,2.36,12.449,22.4,10.438,27.084s-18.684-.715-18.684-.715l1-6.6s6.479.227,7.1-.387-8.765-9.986-8.765-9.986Z" transform="translate(-426.428 -207.958)" fill="#7d6eb2"/>
      </g>
      <path id="Trazado_874384" data-name="Trazado 874384" d="M445.06,240.127c-.006,0-.011.006-.017.011-.1.052-.219.1-.334.15a.4.4,0,0,1-.046.017,2.56,2.56,0,0,1-.317.11,6.989,6.989,0,0,1-1.44.3c-.139.017-.276.029-.421.04-.207.017-.415.029-.628.035-.179.006-.363.011-.547.011-5.588.006-13.718-2.621-13.718-2.621l1-6.608s7.294.616,7.916,0a.08.08,0,0,0,.017-.029c.115-.242-.691-1.06-1.884-2.1l-.011-.011c-1.832-2.256-5.5-6-7.018-7.536l4.218-4.505,3.21-.346S442.121,228.512,445.06,240.127Z" transform="translate(-381.787 -184.782)" opacity="0.2" style="isolation: isolate"/>
      <g id="Grupo_1100093" data-name="Grupo 1100093" transform="translate(31.601 25.608)">
        <path id="Trazado_874385" data-name="Trazado 874385" d="M404.366,206.258c-1.156.838-1.724,2.024-1.269,2.651l30.445,41.975c.454.626,1.758.454,2.913-.383s1.724-2.025,1.268-2.651l-30.445-41.975C406.825,205.249,405.521,205.419,404.366,206.258Z" transform="translate(-402.941 -205.498)" fill="#263238"/>
        <path id="Trazado_874386" data-name="Trazado 874386" d="M407.282,205.877l30.445,41.975c.454.625-.116,1.813-1.268,2.649s-2.458,1.007-2.911.382L403.1,208.908a1.31,1.31,0,0,1,.111-1.4,3.375,3.375,0,0,1,.578-.753,4.521,4.521,0,0,1,.579-.5C405.522,205.424,406.828,205.252,407.282,205.877Z" transform="translate(-402.943 -205.498)" fill="#fff" opacity="0.7"/>
        <path id="Trazado_874387" data-name="Trazado 874387" d="M437.922,248.776c.454.625-.116,1.813-1.268,2.649s-2.458,1.007-2.911.382c-.251-.345.378-.866.743-1.624L403.41,208.434a3.372,3.372,0,0,1,.578-.753l30.448,41.983a4.551,4.551,0,0,1,.575-.5C436.162,248.323,437.468,248.148,437.922,248.776Z" transform="translate(-403.139 -206.423)" opacity="0.3" style="isolation: isolate"/>
      </g>
      <g id="Grupo_1100094" data-name="Grupo 1100094" transform="translate(28.226 24.046)">
        <path id="Trazado_874388" data-name="Trazado 874388" d="M398.122,203.944c-.975,1.042-1.307,2.314-.743,2.843l37.853,35.439c.564.529,1.813.114,2.788-.928s1.308-2.314.743-2.843L400.91,203.016C400.345,202.487,399.1,202.9,398.122,203.944Z" transform="translate(-397.091 -202.786)" fill="#407bff"/>
        <path id="Trazado_874389" data-name="Trazado 874389" d="M400.906,203.017l37.852,35.439c.564.528.23,1.8-.742,2.841s-2.222,1.454-2.786.927l-37.854-35.439a1.31,1.31,0,0,1-.155-1.392,3.386,3.386,0,0,1,.424-.85,4.641,4.641,0,0,1,.474-.6C399.092,202.906,400.343,202.49,400.906,203.017Z" transform="translate(-397.089 -202.787)" fill="#fff" opacity="0.7"/>
        <path id="Trazado_874390" data-name="Trazado 874390" d="M438.85,239.746c.564.528.23,1.8-.742,2.841s-2.222,1.454-2.786.927c-.312-.291.207-.922.421-1.735l-38.431-35.1a3.384,3.384,0,0,1,.424-.85l37.858,35.443a4.575,4.575,0,0,1,.47-.6C437.037,239.635,438.287,239.219,438.85,239.746Z" transform="translate(-397.179 -204.078)" opacity="0.3" style="isolation: isolate"/>
      </g>
      <path id="Trazado_874391" data-name="Trazado 874391" d="M406.69,354.934l-2.886.046c-2.932-13.779-5.006-30.824-6.3-43.684-.2-2.015-.386-3.923-.547-5.7-.075-.847-.15-1.659-.219-2.443-.346-3.868-.582-6.93-.725-8.827-.1-1.383-.156-2.143-.156-2.143h10.428l-.1,2.659-.322,8.769-.035,1-.219,5.791-.363,9.858C408.829,334.135,406.69,354.934,406.69,354.934Z" transform="translate(-368.337 -216.629)" fill="#ebb376"/>
      <path id="Trazado_874392" data-name="Trazado 874392" d="M439.554,354.375l-2.84.536c-5.687-14.214-11.028-32.415-14.5-45.13-.536-1.97-1.031-3.814-1.475-5.485-.023-.086-.04-.167-.064-.247-.876-3.318-1.55-5.963-1.97-7.64-.322-1.313-.5-2.034-.5-2.034l10.279-1.773.582,4.321.858,6.349.167,1.244.582,4.327,1.562,11.6C438.117,333.513,439.554,354.375,439.554,354.375Z" transform="translate(-377.806 -216.808)" fill="#ebb376"/>
      <path id="Trazado_874393" data-name="Trazado 874393" d="M430.288,306.073,421.1,307.1c-.023-.086-.04-.167-.064-.247-.876-3.318-1.55-5.963-1.97-7.64l10.359.512Z" transform="translate(-378.175 -219.609)" opacity="0.2" style="isolation: isolate"/>
      <path id="Trazado_874394" data-name="Trazado 874394" d="M406.3,296.412l-.322,8.769-.035,1-8.875.986c-.075-.847-.15-1.659-.219-2.443-.346-3.868-.582-6.93-.725-8.827Z" transform="translate(-368.452 -218.206)" opacity="0.2" style="isolation: isolate"/>
      <path id="Trazado_874395" data-name="Trazado 874395" d="M399.682,410.7a5.664,5.664,0,0,1,1.807-.982h0s1.965-1.949,2.91-7.816l2.572-.67a2.191,2.191,0,0,1,2.337.914,1.238,1.238,0,0,1,.161.338,14.989,14.989,0,0,1,.275,1.907,53.009,53.009,0,0,1,.037,6.446h-.463l-.185-4.046c-.069-1.37-1.12.242-1.421,1.716s-.94,3.053-3.948,3.127C400.252,411.7,398.795,411.568,399.682,410.7Z" transform="translate(-369.85 -262.827)" fill="#7d6eb2"/>
      <path id="Trazado_874396" data-name="Trazado 874396" d="M412.7,400.186c.169-1.37.222-3.761.222-3.761l-5.714.633a11.023,11.023,0,0,1,.121,4.754C410.2,401.058,412.7,400.186,412.7,400.186Z" transform="translate(-373.145 -260.813)" fill="#7d6eb2"/>
      <path id="Trazado_874397" data-name="Trazado 874397" d="M440.039,410.7a5.659,5.659,0,0,1,1.807-.982h0s1.965-1.949,2.91-7.816l2.572-.67a2.192,2.192,0,0,1,2.337.914,1.256,1.256,0,0,1,.161.338,14.978,14.978,0,0,1,.275,1.907,53.028,53.028,0,0,1,.037,6.446h-.465l-.185-4.046c-.068-1.37-1.119.242-1.421,1.716s-.94,3.053-3.948,3.127C440.611,411.7,439.153,411.568,440.039,410.7Z" transform="translate(-386.956 -262.827)" fill="#7d6eb2"/>
      <path id="Trazado_874398" data-name="Trazado 874398" d="M453.054,400.186c.168-1.37.222-3.761.222-3.761l-5.715.633a11.019,11.019,0,0,1,.122,4.754C450.561,401.058,453.054,400.186,453.054,400.186Z" transform="translate(-390.251 -260.813)" fill="#7d6eb2"/>
      <path id="Trazado_874399" data-name="Trazado 874399" d="M420.107,279.55l-10.872,1.388-.421.052-2.236-8.2-.587,8.783-11.65-.611c-5.191-30.46,3.682-37.657,3.682-37.657l15.8,3.181c7.157,12.168,5.455,26.307,5.455,26.307Z" transform="translate(-367.003 -195.916)" fill="#ffd947"/>
      <g id="Grupo_1100095" data-name="Grupo 1100095" transform="translate(35.766 0)">
        <path id="Trazado_874400" data-name="Trazado 874400" d="M411.354,178.262c-.8,0-1.435-1.061-1.435-2.415s.63-2.416,1.435-2.416,1.435,1.061,1.435,2.416S412.159,178.262,411.354,178.262Zm0-4.331c-.442,0-.935.787-.935,1.916s.493,1.915.935,1.915.935-.787.935-1.915S411.8,173.931,411.354,173.931Z" transform="translate(-410.169 -166.404)" fill="#263238"/>
        <path id="Trazado_874401" data-name="Trazado 874401" d="M421.216,179.264a.817.817,0,0,1-.137.1,6.3,6.3,0,0,1-2.208,1.08c-2.337.539-3.929.219-4.97-.837h0c-1.458-1.584-1.823-4.392-1.616-7.777a12.719,12.719,0,0,1,.739-3.954c.006-.011.006-.05.011-.06.021-.043.037-.1.057-.144a4.622,4.622,0,0,1,3.4-2.82,9.367,9.367,0,0,1,2-.226C425.087,164.559,426.276,175.494,421.216,179.264Z" transform="translate(-411.041 -162.566)" fill="#ebb376"/>
        <path id="Trazado_874402" data-name="Trazado 874402" d="M422.31,189.832a6.143,6.143,0,0,1-2.208.988c-2.337.539-3.929.143-4.97-.929a6.588,6.588,0,0,0,4.19-.343,3.433,3.433,0,0,1,2.988.284Z" transform="translate(-412.273 -173.033)" opacity="0.2" style="isolation: isolate"/>
        <path id="Trazado_874403" data-name="Trazado 874403" d="M423.789,194.819c.4,1.88-2.028,2.645-2.028,2.645-3.982-1.7-4.721-3.818-4.721-3.818,3.322-1.732,2.36-6.633,2.36-6.633l.676.333,4.744.928s-1.317,2.526-1.491,3.1c0,0,0,.011,0,.016C422.432,194.4,423.789,194.819,423.789,194.819Z" transform="translate(-413.081 -172.053)" fill="#ebb376"/>
        <path id="Trazado_874404" data-name="Trazado 874404" d="M413.592,166.572a6.941,6.941,0,0,0,4.023,6.618s1.884,4.809,4.657,4.877c3.782.092,7.114-5.288,5.8-10.767C426.378,160.194,415.612,159.616,413.592,166.572Z" transform="translate(-411.616 -161.305)" fill="#263238"/>
        <path id="Trazado_874405" data-name="Trazado 874405" d="M416.725,178.057c0-.725.582-1.934,1.7-1.773,1.162.171,1.807,3.035-1.048,3.674C416.971,180.053,416.722,179.564,416.725,178.057Z" transform="translate(-412.947 -167.501)" fill="#ebb376"/>
        <path id="Trazado_874406" data-name="Trazado 874406" d="M420.594,161.4s-4.417-1.117-6.858.659c-2.852,2.073-3.932,4.219-.557,7.55,0,0,7.413-2.4,9.881-1.9a26.688,26.688,0,0,1,4.228,1.228C427.807,164.041,423.06,160.4,420.594,161.4Z" transform="translate(-410.556 -161.05)" fill="#263238"/>
        <path id="Trazado_874407" data-name="Trazado 874407" d="M416.241,170.613s1.18,5.339-.658,9.886c0,0,10.485,3.637,14.131,1.662s.3-8.609.151-12.434-1.814-9.477-7.365-8.209S416.241,170.613,416.241,170.613Z" transform="translate(-412.464 -161.172)" fill="#263238"/>
        <path id="Línea_904" data-name="Línea 904" d="M4.43.25H0A.25.25,0,0,1-.25,0,.25.25,0,0,1,0-.25H4.43A.25.25,0,0,1,4.68,0,.25.25,0,0,1,4.43.25Z" transform="translate(0.001 9.101)" fill="#263238"/>
      </g>
      <path id="Trazado_874408" data-name="Trazado 874408" d="M419.436,293.472l-.421.052-2.235-8.193s4.794-8.187,3.3-12.451C420.289,273.18,425.451,280.837,419.436,293.472Z" transform="translate(-377.205 -208.449)" opacity="0.2" style="isolation: isolate"/>
      <g id="Grupo_1100096" data-name="Grupo 1100096" transform="translate(27.791 21.622)">
        <path id="Trazado_874409" data-name="Trazado 874409" d="M401.79,199.305s5.272-1.881,13.22.413,8.239,5.679,8.239,5.679a80.157,80.157,0,0,0-5.828,24.335l-20.709-.774S394.244,210.722,401.79,199.305Z" transform="translate(-396.327 -198.579)" fill="#7d6eb2"/>
      </g>
      <path id="Trazado_874410" data-name="Trazado 874410" d="M401.505,225.038a14.63,14.63,0,0,1-5.168,8.492,61.769,61.769,0,0,1,.576-9.267Z" transform="translate(-368.538 -187.842)" opacity="0.2" style="isolation: isolate"/>
      <path id="Trazado_874411" data-name="Trazado 874411" d="M358.18,193l-2.611-3.873a5.439,5.439,0,0,0-.9-2.066,36.333,36.333,0,0,0-6.124-2.5c-.6.01-.6,3.907,0,4.569a15.484,15.484,0,0,0,4.593,2.226c.828.144.427,0,.427,0l2.309,4.6Z" transform="translate(-348.09 -171.015)" fill="#ebb376"/>
      <g id="Grupo_1100097" data-name="Grupo 1100097" transform="translate(5.572 19.182)">
        <path id="Trazado_874412" data-name="Trazado 874412" d="M385.445,197.51a113.81,113.81,0,0,0-16.145,8.33l-8.425-11.495s-2.275.706-3.113,4.657c0,0,4.329,16.487,9.951,18.12s17.444-4.762,17.444-4.762S388.59,203.769,385.445,197.51Z" transform="translate(-357.762 -194.345)" fill="#7d6eb2"/>
      </g>
      <g id="Grupo_1100098" data-name="Grupo 1100098" transform="translate(38.585 21.622)">
        <path id="Trazado_874413" data-name="Trazado 874413" d="M415.06,198.581s1.839,13.156,7.665,13.688,8.433-9.186,7.446-10.368S421.68,198.493,415.06,198.581Z" transform="translate(-415.06 -198.579)" fill="#263238"/>
        <path id="Trazado_874414" data-name="Trazado 874414" d="M415.06,198.581s1.839,13.156,7.665,13.688,8.433-9.186,7.446-10.368S421.68,198.493,415.06,198.581Z" transform="translate(-415.06 -198.579)" fill="#7d6eb2" opacity="0.3" style="isolation: isolate"/>
      </g>
    </g>
    <g id="Grupo_1100111" data-name="Grupo 1100111" transform="translate(251.985 1777.364)">
      <g id="Grupo_1100110" data-name="Grupo 1100110" transform="translate(0 0)">
        <path id="Trazado_874415" data-name="Trazado 874415" d="M55.362,401.4h4.266l.353-9.883H55.71Z" transform="translate(-35.739 -246.372)" fill="#b97964"/>
        <path id="Trazado_874416" data-name="Trazado 874416" d="M59.084,407.809H53.9a.375.375,0,0,0-.363.293l-.84,3.8a.63.63,0,0,0,.624.76c1.677-.027,2.9-.131,5-.131,1.3,0,5.21.136,7,.136s2.024-1.773,1.289-1.934c-3.289-.716-5.764-1.71-6.816-2.654A1.03,1.03,0,0,0,59.084,407.809Z" transform="translate(-34.603 -253.28)" fill="#ffd947"/>
        <path id="Trazado_874417" data-name="Trazado 874417" d="M64.245,408.152a.1.1,0,0,1-.076-.087.092.092,0,0,1,.049-.1c.152-.1,1.531-.944,2-.7a.3.3,0,0,1,.173.282.6.6,0,0,1-.211.543,1.276,1.276,0,0,1-.82.218A5.123,5.123,0,0,1,64.245,408.152Zm.293-.141a2.071,2.071,0,0,0,1.519-.076.417.417,0,0,0,.136-.363c-.006-.081-.038-.119-.065-.119a.227.227,0,0,0-.131-.027,4.139,4.139,0,0,0-1.459.585Z" transform="translate(-39.472 -253.032)" fill="#407bff"/>
        <path id="Trazado_874418" data-name="Trazado 874418" d="M64.219,407.465a.107.107,0,0,1-.049-.092c.006-.06.109-1.289.6-1.687a.541.541,0,0,1,.429-.131.33.33,0,0,1,.322.266c.087.45-.766,1.39-1.209,1.629h-.04A.089.089,0,0,1,64.219,407.465ZM64.9,405.8a2.39,2.39,0,0,0-.5,1.335c.44-.33.982-1.042.928-1.319-.006-.027-.017-.1-.147-.1h-.049a.349.349,0,0,0-.229.087Z" transform="translate(-39.472 -252.323)" fill="#407bff"/>
        <path id="Trazado_874419" data-name="Trazado 874419" d="M55.83,391.522H60.1l-.185,5.1H55.645Z" transform="translate(-35.859 -246.377)" opacity="0.2" style="isolation: isolate"/>
        <path id="Trazado_874420" data-name="Trazado 874420" d="M93.494,402.238l4.4.465.827-9.5-4.4-.465Z" transform="translate(-51.901 -246.894)" fill="#b97964"/>
        <path id="Trazado_874421" data-name="Trazado 874421" d="M97.234,407.574H92.051a.374.374,0,0,0-.363.293l-.841,3.8a.629.629,0,0,0,.483.746.622.622,0,0,0,.139.014c1.677-.027,2.9-.131,5-.131,1.3,0,5.21.135,7,.135s2.024-1.773,1.289-1.934c-3.289-.716-5.764-1.709-6.816-2.654A1.03,1.03,0,0,0,97.234,407.574Z" transform="translate(-50.773 -253.18)" fill="#ffd947"/>
        <path id="Trazado_874422" data-name="Trazado 874422" d="M102.4,407.917a.1.1,0,0,1-.076-.086.093.093,0,0,1,.049-.1c.152-.1,1.531-.944,2-.7a.3.3,0,0,1,.173.282.6.6,0,0,1-.211.543,1.272,1.272,0,0,1-.82.217,5.09,5.09,0,0,1-1.118-.157Zm.293-.141a2.074,2.074,0,0,0,1.519-.076.417.417,0,0,0,.136-.364c-.006-.081-.038-.119-.065-.119a.242.242,0,0,0-.131-.027,4.149,4.149,0,0,0-1.459.587Z" transform="translate(-55.642 -252.932)" fill="#407bff"/>
        <path id="Trazado_874423" data-name="Trazado 874423" d="M102.37,407.229a.108.108,0,0,1-.049-.092c.006-.06.109-1.289.6-1.688a.543.543,0,0,1,.429-.131.331.331,0,0,1,.322.266c.087.45-.766,1.389-1.209,1.628h-.049a.091.091,0,0,1-.047.016Zm.684-1.661a2.388,2.388,0,0,0-.5,1.335c.44-.331.982-1.042.928-1.319-.006-.027-.017-.1-.147-.1h-.049a.343.343,0,0,0-.229.087Z" transform="translate(-55.643 -252.223)" fill="#407bff"/>
        <path id="Trazado_874424" data-name="Trazado 874424" d="M94.611,392.741l4.4.465-.429,4.9-4.4-.465Z" transform="translate(-52.193 -246.894)" opacity="0.2" style="isolation: isolate"/>
        <path id="Trazado_874425" data-name="Trazado 874425" d="M56.434,241.05H79.077c2.154,11.758,8.893,53.364,4.058,90.434l-7.666-.951s.71-49.213-6.059-67.408c-.779,9.737-1.7,20.1-2.506,25.61-1.97,13.569-6.187,43.221-6.187,43.221h-7.8s1.6-28.383,2.337-41.718C56.053,275.763,56.4,244.023,56.434,241.05Z" transform="translate(-34.701 -182.599)" fill="#12263f"/>
        <g id="Grupo_1100100" data-name="Grupo 1100100" transform="translate(39.826 146.632)">
          <path id="Trazado_874426" data-name="Trazado 874426" d="M99.913,398.142l-9.488-1.412.29-2.628,9.87,1.3Z" transform="translate(-90.425 -394.102)" fill="#727997"/>
        </g>
        <g id="Grupo_1100101" data-name="Grupo 1100101" transform="translate(17.751 146.491)">
          <path id="Trazado_874427" data-name="Trazado 874427" d="M61.318,396.793H52.112v-2.756l9.552-.179Z" transform="translate(-52.112 -393.858)" fill="#727997"/>
        </g>
        <path id="Trazado_874428" data-name="Trazado 874428" d="M81.55,273.442a60.7,60.7,0,0,1,2.529,9.8,61,61,0,0,0-1.9-17.854Z" transform="translate(-46.839 -192.914)" opacity="0.2" style="isolation: isolate"/>
        <path id="Trazado_874429" data-name="Trazado 874429" d="M57.532,247.89l-.517,2.735s15.845,2.052,25.705,1.994l-.342-1.881Z" transform="translate(-36.439 -185.498)" fill="#7d6eb2"/>
        <path id="Trazado_874430" data-name="Trazado 874430" d="M113.737,205.292s5.48,17.279,9.23,18.41,13.279-13.13,13.279-13.13,8.542-.081,8.924-.666-2.22-6.6-2.845-6.608-8.058,2.8-8.35,3.268-8.823,8.631-9.239,8.4-3.643-10.512-3.643-10.512Z" transform="translate(-60.481 -166.598)" fill="#b97964"/>
        <path id="Trazado_874431" data-name="Trazado 874431" d="M154.7,214.265a1.837,1.837,0,0,0,.205-.052c-.037-.021-.069-.042-.1-.064a.7.7,0,0,1-.106.116Z" transform="translate(-77.843 -171.197)" fill="#b97964"/>
        <g id="Grupo_1100102" data-name="Grupo 1100102" transform="translate(50.146 26.871)">
          <path id="Trazado_874432" data-name="Trazado 874432" d="M108.338,196.066l.668,1.231,3.12,5.767.645,1.189,8.75-3.041s-3.636-13.586-4.9-14.975Z" transform="translate(-108.338 -186.238)" fill="#ffd947"/>
        </g>
        <path id="Trazado_874433" data-name="Trazado 874433" d="M109.5,203.077l3.12,5.767c1.926-3.787,1.37-8.972,1.37-8.972Z" transform="translate(-58.685 -165.146)" opacity="0.2" style="isolation: isolate"/>
        <g id="Grupo_1100103" data-name="Grupo 1100103" transform="translate(20.576 20.377)">
          <path id="Trazado_874434" data-name="Trazado 874434" d="M94.871,181.46a18.566,18.566,0,0,0-13.18-6.4c-8.579-.4-11.272.45-14.407,3.249C62.7,182.4,57.015,217.635,57.015,217.635a79.558,79.558,0,0,0,25.705,2.8s.1-9.779,3.2-16.372a183.082,183.082,0,0,0,8.954-22.6Z" transform="translate(-57.015 -174.968)" fill="#ffd947"/>
          <path id="Trazado_874435" data-name="Trazado 874435" d="M107.066,200.615l1.709.171-1.254.967Z" transform="translate(-78.229 -185.838)" fill="#fff" opacity="0.4" style="isolation: isolate"/>
        </g>
        <path id="Trazado_874436" data-name="Trazado 874436" d="M95.468,169.843c.927,2.651,4.379,3.86,6.189,4.014a3.077,3.077,0,0,0,3.281-1.778s-2.064-1.027-1.861-2.189a5.452,5.452,0,0,1,.852-1.97,11.378,11.378,0,0,1,.707-.974l-3.312-7.1C100.583,162.944,98.32,168.853,95.468,169.843Z" transform="translate(-52.738 -148.181)" fill="#b97964"/>
        <path id="Trazado_874437" data-name="Trazado 874437" d="M105.008,165.57a5.338,5.338,0,0,0,1.886,6.745,5.452,5.452,0,0,1,.852-1.97Z" transform="translate(-56.554 -150.607)" opacity="0.2" style="isolation: isolate"/>
        <g id="Grupo_1100106" data-name="Grupo 1100106" transform="translate(43.715)">
          <g id="Grupo_1100104" data-name="Grupo 1100104" transform="translate(10.488 5.346)">
            <path id="Trazado_874438" data-name="Trazado 874438" d="M120.741,149.271s1.06,5.852-2,8.2-3.365-8.592-3.365-8.592Z" transform="translate(-115.38 -148.879)" fill="#b97964"/>
            <path id="Trazado_874439" data-name="Trazado 874439" d="M120.741,149.271s1.06,5.852-2,8.2-3.365-8.592-3.365-8.592Z" transform="translate(-115.38 -148.879)" opacity="0.4" style="isolation: isolate"/>
          </g>
          <path id="Trazado_874440" data-name="Trazado 874440" d="M104.727,162.25a5.337,5.337,0,0,0,6.183,1.894,6.032,6.032,0,0,0,3.579-3.43c1.434-3.635,1.757-12.509-2.119-12.178-3.177.272-6.292-.712-7.913,2.037a5.743,5.743,0,0,0-.8,2.569C103.312,157.354,102.909,159.814,104.727,162.25Z" transform="translate(-99.798 -143.383)" fill="#b97964"/>
          <path id="Trazado_874441" data-name="Trazado 874441" d="M114.6,159.716c-.072.334.09.645.317.672s.442-.222.492-.564-.1-.645-.317-.672S114.654,159.371,114.6,159.716Z" transform="translate(-104.556 -147.887)" fill="#263238"/>
          <path id="Trazado_874442" data-name="Trazado 874442" d="M121.288,160.664c-.072.334.1.645.317.673s.442-.222.492-.564-.1-.645-.317-.672S121.335,160.341,121.288,160.664Z" transform="translate(-107.389 -148.289)" fill="#263238"/>
          <path id="Trazado_874443" data-name="Trazado 874443" d="M118.787,161.068A12.238,12.238,0,0,0,120,164.211a1.99,1.99,0,0,1-1.681.073Z" transform="translate(-106.139 -148.699)" fill="#a24e3f"/>
          <path id="Trazado_874444" data-name="Trazado 874444" d="M112.744,156.97a.212.212,0,0,0,.205-.051,1.63,1.63,0,0,1,1.376-.488.2.2,0,1,0,.085-.392h0a2,2,0,0,0-1.742.593.2.2,0,0,0-.009.284h0a.311.311,0,0,0,.085.055Z" transform="translate(-103.716 -146.558)" fill="#263238"/>
          <path id="Trazado_874445" data-name="Trazado 874445" d="M123.555,158.029a.2.2,0,0,0,.117.025.2.2,0,0,0,.133-.251v0a2,2,0,0,0-1.28-1.329.2.2,0,0,0-.247.141h0a.206.206,0,0,0,.141.247h0a1.628,1.628,0,0,1,1,1.069A.207.207,0,0,0,123.555,158.029Z" transform="translate(-107.813 -146.747)" fill="#263238"/>
          <path id="Trazado_874446" data-name="Trazado 874446" d="M115.836,168.634h-.015a2.78,2.78,0,0,1-2.364-1.61.25.25,0,0,1,.454-.21,2.281,2.281,0,0,0,1.939,1.321.25.25,0,0,1-.014.5Z" transform="translate(-104.174 -151.179)" fill="#263238"/>
          <g id="Grupo_1100105" data-name="Grupo 1100105" transform="translate(1.536 4.974)">
            <path id="Trazado_874447" data-name="Trazado 874447" d="M105.979,148.233l.053,1.876a1.388,1.388,0,0,0-.857,1.676,5.072,5.072,0,0,1-1.946,4.806s.027-.679-.559-.572-.757,3.641.2,5.424a10.212,10.212,0,0,1-2.645-5.658c-.559-3.5-.463-5.717.034-7.39Z" transform="translate(-99.844 -148.233)" fill="#b97964"/>
            <path id="Trazado_874448" data-name="Trazado 874448" d="M105.979,148.233l.053,1.876a1.388,1.388,0,0,0-.857,1.676,5.072,5.072,0,0,1-1.946,4.806s.027-.679-.559-.572-.757,3.641.2,5.424a10.212,10.212,0,0,1-2.645-5.658c-.559-3.5-.463-5.717.034-7.39Z" transform="translate(-99.844 -148.233)" opacity="0.4" style="isolation: isolate"/>
          </g>
          <path id="Trazado_874449" data-name="Trazado 874449" d="M98.756,146.827a19.472,19.472,0,0,0,6.145-.377c5.807-1.156,8.276.981,8.276.981a3.656,3.656,0,0,0,1.209-2.857c-.171-1.673-2.492-1.958-2.492-1.958a4.526,4.526,0,0,0-2.239-2.45c-1.538-.57-3.08.855-3.08.855s-1.921-1.853-4.154-1.326a3.354,3.354,0,0,0-2.681,3.264s-2.621.268-2.564,1.612A3.325,3.325,0,0,0,98.756,146.827Z" transform="translate(-97.176 -139.601)" fill="#263238"/>
          <path id="Elipse_11514" data-name="Elipse 11514" d="M1.882-.25A2.292,2.292,0,0,1,4.013,2.169,2.292,2.292,0,0,1,1.882,4.588,2.292,2.292,0,0,1-.25,2.169,2.292,2.292,0,0,1,1.882-.25Zm0,4.338A1.8,1.8,0,0,0,3.513,2.169,1.8,1.8,0,0,0,1.882.25,1.8,1.8,0,0,0,.25,2.169,1.8,1.8,0,0,0,1.882,4.088Z" transform="translate(8.61 9.939)" fill="#263238"/>
          <path id="Trazado_874450" data-name="Trazado 874450" d="M122.221,161.46c-.068,0-.137,0-.2-.01a2.151,2.151,0,0,1,.2-4.292h.019a2.3,2.3,0,0,1,2.112,2.435q0,.009,0,.019A2.16,2.16,0,0,1,122.221,161.46Zm-.011-3.8a1.651,1.651,0,0,0-.147,3.294c.052,0,.105.007.158.007a1.658,1.658,0,0,0,1.631-1.409A1.8,1.8,0,0,0,122.21,157.658Z" transform="translate(-106.992 -147.148)" fill="#263238"/>
          <path id="Trazado_874451" data-name="Trazado 874451" d="M119.628,161.267a.25.25,0,0,1-.193-.091c-.221-.268-.631-.02-.649-.009a.25.25,0,0,1-.265-.424.994.994,0,0,1,1.3.114.25.25,0,0,1-.193.409Z" transform="translate(-106.28 -148.587)" fill="#263238"/>
          <path id="Trazado_874452" data-name="Trazado 874452" d="M104.038,160.532a.25.25,0,0,1-.154-.447l.144-.112a1.885,1.885,0,0,1,1.395-.379l3.3.441a.25.25,0,1,1-.066.5l-3.3-.441a1.382,1.382,0,0,0-1.022.278l-.145.112A.249.249,0,0,1,104.038,160.532Z" transform="translate(-100.084 -148.173)" fill="#263238"/>
          <path id="Trazado_874453" data-name="Trazado 874453" d="M99.782,160.228a4.021,4.021,0,0,0,2,2.337c1.26.632,2.159-.432,2.037-1.763-.12-1.182-.907-2.973-2.286-3.038a1.8,1.8,0,0,0-1.748,2.464Z" transform="translate(-98.234 -147.297)" fill="#b97964"/>
        </g>
        <path id="Trazado_874454" data-name="Trazado 874454" d="M63.322,205.893c5.435-2.256,9.735-11.587,9.735-11.587l-3.089-1.868-4.19,3.373c-.127.458-.253.927-.379,1.4-.564,2.136-1.115,4.414-1.637,6.719C63.611,204.582,63.465,205.24,63.322,205.893Z" transform="translate(-39.113 -161.995)" opacity="0.2" style="isolation: isolate"/>
        <path id="Trazado_874455" data-name="Trazado 874455" d="M115.308,214.97l9.383-3.446.266.8-9.383,3.343Z" transform="translate(-61.147 -170.086)" fill="#7d6eb2"/>
        <g id="Grupo_1100108" data-name="Grupo 1100108" transform="translate(0 64.287)">
          <rect id="Rectángulo_401586" data-name="Rectángulo 401586" width="27.529" height="16.979" transform="translate(2.66 0) rotate(9.013)" fill="#727997"/>
          <g id="Grupo_1100107" data-name="Grupo 1100107" transform="translate(6.762 6.384)">
            <path id="Trazado_874456" data-name="Trazado 874456" d="M37.406,270.555a1,1,0,0,1-.712-.3l-4.366-4.432a1,1,0,0,1,.252-1.59l5.522-2.862a1,1,0,1,1,.92,1.776L34.7,265.387l3.415,3.466a1,1,0,0,1-.712,1.7Z" transform="translate(-33.04 -262.261)" fill="#fff"/>
            <path id="Trazado_874457" data-name="Trazado 874457" d="M51.79,272.326a1,1,0,0,1-.461-1.888l4.319-2.238-3.415-3.466a1,1,0,0,1,1.425-1.4l4.366,4.432a1,1,0,0,1-.252,1.59l-5.522,2.862A1,1,0,0,1,51.79,272.326Z" transform="translate(-40.986 -263.012)" fill="#fff"/>
            <path id="Línea_905" data-name="Línea 905" d="M0,7.883a1,1,0,0,1-.477-.122A1,1,0,0,1-.878,6.4L2.867-.478a1,1,0,0,1,1.356-.4,1,1,0,0,1,.4,1.356L.878,7.36A1,1,0,0,1,0,7.883Z" transform="translate(6.289 0.716)" fill="#fff"/>
          </g>
        </g>
        <path id="Trazado_874458" data-name="Trazado 874458" d="M57.153,183.375s-10.245,10.287-11.645,12.287-4.069,24.162-4.069,24.162-.564.2-.612.674-.09,6.7,0,6.991,4.808,3.2,5.5,2.507S48,222.256,48,222.256l-2.486-2.431s2.9-16.323,4.7-18.965,9.278-8.3,9.278-8.3Z" transform="translate(-29.557 -158.154)" fill="#b97964"/>
        <g id="Grupo_1100109" data-name="Grupo 1100109" transform="translate(18.839 21.08)">
          <path id="Trazado_874459" data-name="Trazado 874459" d="M70.638,176.188c1.493,3.163.358,9.822-2.394,12.173a80.765,80.765,0,0,1-9.211,6.608L54,188.388s5.347-5.221,8.584-8.228a14.654,14.654,0,0,1,8.053-3.972Z" transform="translate(-54 -176.188)" fill="#ffd947"/>
        </g>
        <path id="Trazado_874460" data-name="Trazado 874460" d="M53.539,196.626l-.622.848,5.252,6.864.742-.532Z" transform="translate(-34.702 -163.77)" fill="#7d6eb2"/>
      </g>
    </g>
  </g>
</svg>
