<svg xmlns="http://www.w3.org/2000/svg" width="67" height="59.184" viewBox="0 0 67 59.184">
  <g id="Grupo_1100937" data-name="Grupo 1100937" transform="translate(8951 -2171.774)">
    <g id="Grupo_1100915" data-name="Grupo 1100915" transform="translate(-9131 -6460.275)">
      <g id="Grupo_1099673" data-name="Grupo 1099673" transform="translate(0 4881.897)">
        <path id="_12068" data-name="12068" d="M66.039,71.828c-6.861-.947-14.108-.716-20.351,2.283C37.03,78.27,31.344,87.7,31.126,97.3s4.784,19.038,12.512,24.741a35.81,35.81,0,0,0,27.37,6.013c9.53-1.727,18.474-7.326,23.445-15.638,3.187-5.33,4.677-11.911,2.916-17.867a24.409,24.409,0,0,0-5.793-9.521A42.8,42.8,0,0,0,66.039,71.828Z" transform="translate(148.881 3680.691)" fill="#26aab7"/>
        <path id="Trazado_873155" data-name="Trazado 873155" d="M303.26,44.546a1.582,1.582,0,1,0-.106-2.456A1.573,1.573,0,0,0,303.26,44.546Z" transform="translate(138.287 4055.916) rotate(-90)" fill="#7d6eb2"/>
        <path id="Trazado_873156" data-name="Trazado 873156" d="M321.56,66.974a3.448,3.448,0,1,0-1.687-4.918A3.468,3.468,0,0,0,321.56,66.974Z" transform="translate(128.241 4079.581) rotate(-90)" fill="#ffd947"/>
        <circle id="Elipse_11521" data-name="Elipse 11521" cx="3.689" cy="3.689" r="3.689" transform="translate(237.702 3796.368) rotate(-90)" fill="none" stroke="#fff" stroke-linecap="round" stroke-linejoin="round" stroke-width="1.5"/>
      </g>
    </g>
    <path id="_12068-2" data-name="12068" d="M48.634,71.581a17.946,17.946,0,0,0-10.207,1.145,13.427,13.427,0,0,0-7.3,11.631A15.353,15.353,0,0,0,37.4,96.766a17.961,17.961,0,0,0,13.728,3.016,17.335,17.335,0,0,0,11.759-7.843,11.461,11.461,0,0,0,1.463-8.961A12.243,12.243,0,0,0,61.442,78.2,21.466,21.466,0,0,0,48.634,71.581Z" transform="translate(-8966.971 2115.418)" fill="#ffd947"/>
    <path id="_12068-3" data-name="12068" d="M43.467,71.5a13.167,13.167,0,0,0-7.2.773,9.04,9.04,0,0,0-5.149,7.853,10.23,10.23,0,0,0,4.424,8.379,13.106,13.106,0,0,0,9.678,2.036,12.256,12.256,0,0,0,8.29-5.3,7.463,7.463,0,0,0,1.031-6.051A8.212,8.212,0,0,0,52.5,75.971,15.362,15.362,0,0,0,43.467,71.5Z" transform="translate(-8959.014 2120.086)" fill="#26aab7"/>
  </g>
</svg>
