<svg xmlns="http://www.w3.org/2000/svg" width="820" height="271.563" viewBox="0 0 820 271.563">
  <g id="Grupo_1100937" data-name="Grupo 1100937" transform="translate(-390 -17946.797)">
    <g id="Grupo_1099574" data-name="Grupo 1099574" transform="translate(390 17946.797)">
      <path id="Trazado_873667" data-name="Trazado 873667" d="M2045.114,1151.728a28.31,28.31,0,0,1,11.92,9.461,25.18,25.18,0,0,1,4.833,11.1,137.12,137.12,0,0,1,.883,18.609v56.589h-25.708V1188.85q0-7.78-2.632-12.556-3.418-6.723-12.974-6.723-9.91,0-15.042,6.677t-5.129,19.058v52.182h-25.178V1117.715h25.178v45.94q5.455-8.4,12.624-11.708a35.563,35.563,0,0,1,15.085-3.311A40.775,40.775,0,0,1,2045.114,1151.728Z" transform="translate(-1976.087 -1117.275)" fill="#ffd947"/>
      <path id="Trazado_873668" data-name="Trazado 873668" d="M2082.147,1132.974a39.173,39.173,0,0,1,16.638,14.245,47.338,47.338,0,0,1,7.672,19.906,123.015,123.015,0,0,1,.829,19.112h-70.132q.587,14.49,10.071,20.317a25.566,25.566,0,0,0,13.88,3.622q8.609,0,13.984-4.416a21.153,21.153,0,0,0,5.18-6.627h25.706q-1.019,8.574-9.335,17.4-12.942,14.049-36.228,14.049a52.474,52.474,0,0,1-33.916-11.849q-14.7-11.844-14.694-38.552,0-25.018,13.264-38.371t34.434-13.35A54.817,54.817,0,0,1,2082.147,1132.974Zm-37.666,21.751q-5.337,5.5-6.708,14.9h43.376q-.686-10.024-6.708-15.215a22.052,22.052,0,0,0-14.93-5.189Q2049.816,1149.225,2044.481,1154.725Z" transform="translate(-1909.062 -1097.104)" fill="#ffd947"/>
      <path id="Trazado_873669" data-name="Trazado 873669" d="M2074.785,1247.775h-25.179V1117.562h25.179Z" transform="translate(-1838.121 -1117.562)" fill="#ffd947"/>
      <path id="Trazado_873670" data-name="Trazado 873670" d="M2132.413,1129.354h27.031l-34.773,96.292h-26.545l-34.531-96.292h28.268l20.053,71.026Z" transform="translate(-1811.867 -1095.433)" fill="#ffd947"/>
      <path id="Trazado_873671" data-name="Trazado 873671" d="M2169.579,1132.974a39.2,39.2,0,0,1,16.641,14.245,47.382,47.382,0,0,1,7.671,19.906,122.837,122.837,0,0,1,.829,19.112h-70.131q.586,14.49,10.071,20.317a25.558,25.558,0,0,0,13.879,3.622q8.6,0,13.98-4.416a21.076,21.076,0,0,0,5.18-6.627h25.708q-1.022,8.574-9.335,17.4-12.941,14.049-36.227,14.049a52.474,52.474,0,0,1-33.916-11.849q-14.7-11.844-14.7-38.552,0-25.018,13.267-38.371t34.43-13.35a54.8,54.8,0,0,1,22.653,4.514Zm-37.664,21.751q-5.342,5.5-6.708,14.9h43.376q-.685-10.024-6.707-15.215a22.06,22.06,0,0,0-14.932-5.189Q2137.247,1149.225,2131.915,1154.725Z" transform="translate(-1744.989 -1097.104)" fill="#ffd947"/>
      <path id="Trazado_873672" data-name="Trazado 873672" d="M2025.038,1213.117v-17.936h13.428v-26.856h24.911v26.856h15.64v17.936h-15.64V1264q0,5.921,1.5,7.376t9.185,1.458q1.152,0,2.431-.043c.854-.029,1.694-.075,2.519-.132v18.816l-11.928.443q-17.843.617-24.38-6.184-4.246-4.329-4.243-13.34v-59.275Z" transform="translate(-1884.225 -1022.3)" fill="#12263f"/>
      <path id="Trazado_873673" data-name="Trazado 873673" d="M2075.075,1188.519h-25.53v-23.234h25.53ZM2049.545,1200h25.53v96.292h-25.53Z" transform="translate(-1838.236 -1028.005)" fill="#12263f"/>
      <path id="Trazado_873674" data-name="Trazado 873674" d="M2128.068,1213.394a22.33,22.33,0,0,0-3.63-9.72q-4.255-5.826-13.2-5.829-12.756,0-17.447,12.634-2.477,6.693-2.476,17.8,0,10.576,2.476,17.006,4.519,12.013,17,12.016,8.859,0,12.575-4.769a23.716,23.716,0,0,0,4.515-12.37H2153.6a42.073,42.073,0,0,1-8.313,21.733q-11.849,16.522-35.106,16.52t-34.22-13.782Q2065,1250.847,2065,1228.9q0-24.772,12.113-38.555t33.426-13.782q18.127,0,29.669,8.126t13.661,28.712Z" transform="translate(-1809.248 -1006.853)" fill="#12263f"/>
      <path id="Trazado_873675" data-name="Trazado 873675" d="M2144.279,1216.575q7.029-.884,10.053-2.212,5.432-2.291,5.432-7.154,0-5.916-4.169-8.173t-12.222-2.252q-9.041,0-12.8,4.418a18.2,18.2,0,0,0-3.581,8.834H2102.7q.8-12.629,7.1-20.76,10.024-12.72,34.422-12.72,15.883,0,28.216,6.271t12.329,23.677v44.167q0,4.6.178,11.129.264,4.954,1.5,6.714a8.966,8.966,0,0,0,3.711,2.917v3.711h-27.386a27.749,27.749,0,0,1-1.59-5.477q-.444-2.563-.708-5.831a52.008,52.008,0,0,1-12.081,9.631,36.567,36.567,0,0,1-18.484,4.68q-13.153,0-21.725-7.465t-8.575-21.157q0-17.756,13.793-25.708,7.564-4.328,22.251-6.182Zm15.392,11.748a27.624,27.624,0,0,1-4.882,2.428,41.062,41.062,0,0,1-6.757,1.723l-5.733,1.059q-8.061,1.415-11.572,3.449-5.95,3.439-5.949,10.687,0,6.451,3.633,9.323a13.81,13.81,0,0,0,8.834,2.871,26.315,26.315,0,0,0,15.209-4.772q6.95-4.772,7.217-17.4Z" transform="translate(-1744.298 -1006.853)" fill="#12263f"/>
    </g>
    <g id="Grupo_1099575" data-name="Grupo 1099575" transform="translate(920.272 17978.609)">
      <path id="Trazado_873676" data-name="Trazado 873676" d="M2156.667,1128.861h3.786l8.986,24.762h-3.673l-2.582-7.416h-9.715l-2.687,7.416h-3.437Zm5.563,14.614-3.813-10.937-3.961,10.937Z" transform="translate(-2147.345 -1128.171)" fill="#12263f"/>
      <path id="Trazado_873677" data-name="Trazado 873677" d="M2158.726,1128.861h10.7q4.379,0,6.225,2.6a5.955,5.955,0,0,1,1.087,3.538,5.565,5.565,0,0,1-1.332,3.843,6.46,6.46,0,0,1-1.988,1.45,8.427,8.427,0,0,1,2.847,1.634,5.931,5.931,0,0,1,1.669,4.468,6.891,6.891,0,0,1-1.507,4.332q-2.262,2.9-7.175,2.9h-10.531Zm9.452,10.468a7.649,7.649,0,0,0,3.337-.59,3.394,3.394,0,0,0,1.873-3.337,3.211,3.211,0,0,0-1.99-3.271,9.075,9.075,0,0,0-3.34-.472h-6.046v7.669Zm1.13,11.429q3.115,0,4.442-1.786a4.465,4.465,0,0,0,.834-2.733,3.633,3.633,0,0,0-2.43-3.673,9.309,9.309,0,0,0-3.424-.524h-6.719v8.716Z" transform="translate(-2125.985 -1128.171)" fill="#12263f"/>
      <path id="Trazado_873678" data-name="Trazado 873678" d="M2188.332,1131.1a8.809,8.809,0,0,1,2.848,5.629h-3.27a6.226,6.226,0,0,0-6.752-5.189,7.265,7.265,0,0,0-5.8,2.571q-2.214,2.572-2.212,7.885a11.606,11.606,0,0,0,2,7.059,6.919,6.919,0,0,0,5.952,2.71,6.259,6.259,0,0,0,5.549-2.848,11.011,11.011,0,0,0,1.5-3.944h3.271a11.242,11.242,0,0,1-2.865,6.556,10.144,10.144,0,0,1-7.867,3.184,10.293,10.293,0,0,1-7.163-2.615q-3.813-3.456-3.813-10.675a13.755,13.755,0,0,1,2.864-8.989,10.4,10.4,0,0,1,8.547-3.812Q2185.764,1128.627,2188.332,1131.1Z" transform="translate(-2105.381 -1128.61)" fill="#12263f"/>
      <path id="Trazado_873679" data-name="Trazado 873679" d="M2182.146,1128.861h9.9a9.283,9.283,0,0,1,7.818,3.624,13.5,13.5,0,0,1,2.477,8.377,16.875,16.875,0,0,1-1.465,7.131,9.024,9.024,0,0,1-8.866,5.629h-9.86Zm9.236,21.9a8.883,8.883,0,0,0,2.738-.354,6.053,6.053,0,0,0,3.127-2.529,10.508,10.508,0,0,0,1.4-3.843,15.1,15.1,0,0,0,.247-2.6,12.285,12.285,0,0,0-1.79-7.145q-1.786-2.546-5.759-2.546h-5.819v19.014Z" transform="translate(-2082.036 -1128.171)" fill="#12263f"/>
      <path id="Trazado_873680" data-name="Trazado 873680" d="M2194.2,1128.861h17.967v3.035h-14.7v7.516h13.583v2.865h-13.583v8.393h14.95v2.951H2194.2Z" transform="translate(-2059.407 -1128.171)" fill="#12263f"/>
      <path id="Trazado_873681" data-name="Trazado 873681" d="M2205.542,1128.861h17.176v3.035H2208.9v7.516h12.153v2.951H2208.9v11.258h-3.355Z" transform="translate(-2038.13 -1128.171)" fill="#12263f"/>
      <path id="Trazado_873682" data-name="Trazado 873682" d="M2233.2,1129.985q3.638,1.941,4.454,6.794h-3.32a6.042,6.042,0,0,0-2.462-3.953,8.311,8.311,0,0,0-4.7-1.24,7.3,7.3,0,0,0-5.67,2.581q-2.3,2.576-2.3,7.683a12.462,12.462,0,0,0,1.9,7.188q1.9,2.775,6.2,2.773a7.821,7.821,0,0,0,5.443-1.944q2.151-1.95,2.206-6.3H2227.2v-2.781h10.874v13.25H2235.9l-.811-3.187a12.6,12.6,0,0,1-2.966,2.6,10.982,10.982,0,0,1-5.523,1.246,10.662,10.662,0,0,1-7.445-2.848q-3.4-3.573-3.4-9.809t3.323-9.9a10.49,10.49,0,0,1,8.172-3.5A12.391,12.391,0,0,1,2233.2,1129.985Z" transform="translate(-2018.953 -1128.587)" fill="#12263f"/>
      <path id="Trazado_873683" data-name="Trazado 873683" d="M2228.792,1128.861h3.388v10.232h12.726v-10.232h3.385v24.762h-3.385v-11.581H2232.18v11.581h-3.388Z" transform="translate(-1994.499 -1128.171)" fill="#12263f"/>
      <path id="Trazado_873684" data-name="Trazado 873684" d="M2241.026,1128.861h3.389v24.762h-3.389Z" transform="translate(-1971.541 -1128.171)" fill="#12263f"/>
      <path id="Trazado_873685" data-name="Trazado 873685" d="M2161.575,1160.639a10.466,10.466,0,0,1-.929,4.87q-1.72,3.167-6.546,3.17a7.6,7.6,0,0,1-4.758-1.511q-1.978-1.506-1.977-5.367v-1.77h3.153v1.77a4.467,4.467,0,0,0,.9,3.044,3.58,3.58,0,0,0,2.814,1.018q2.683,0,3.516-1.838a11.964,11.964,0,0,0,.5-4.263v-16.5h3.323Z" transform="translate(-2147.307 -1101.146)" fill="#12263f"/>
      <path id="Trazado_873686" data-name="Trazado 873686" d="M2157.407,1143.262h3.271v12.119l12.39-12.119h4.685l-10.577,9.99,10.8,14.768h-4.392l-8.868-12.441-4.037,3.812v8.63h-3.271Z" transform="translate(-2128.461 -1101.146)" fill="#12263f"/>
      <path id="Trazado_873687" data-name="Trazado 873687" d="M2168.745,1143.262h3.354v21.811h12.421v2.948h-15.775Z" transform="translate(-2107.184 -1101.146)" fill="#12263f"/>
      <path id="Trazado_873688" data-name="Trazado 873688" d="M2178.284,1143.262h4.808l7.119,20.933,7.068-20.933h4.772v24.759h-3.2v-14.613q0-.759.031-2.511t.035-3.76l-7.068,20.884h-3.325l-7.137-20.884v.76q0,.91.051,2.773c.035,1.243.049,2.155.049,2.738v14.613h-3.2Z" transform="translate(-2089.282 -1101.146)" fill="#12263f"/>
      <path id="Trazado_873689" data-name="Trazado 873689" d="M2191.644,1143.262h3.953l12.346,20v-20h3.2v24.759h-3.769l-12.53-19.981v19.981h-3.2Z" transform="translate(-2064.211 -1101.146)" fill="#12263f"/>
      <path id="Trazado_873690" data-name="Trazado 873690" d="M2203.644,1147.353h3.953l12.345,20v-20h3.2v24.759h-3.769l-12.53-19.981v19.981h-3.2Zm10.887-5.158a8.044,8.044,0,0,0,.86.319,2.708,2.708,0,0,0,.791.118,1.512,1.512,0,0,0,1.348-.59,2.249,2.249,0,0,0,.3-.961h1.769a4.647,4.647,0,0,1-1.355,2.949,3.424,3.424,0,0,1-2.2.811,4.374,4.374,0,0,1-.945-.135,7.805,7.805,0,0,1-1.011-.305l-.892-.319c-.53-.19-.957-.334-1.288-.429a3.441,3.441,0,0,0-.97-.144,1.3,1.3,0,0,0-.97.388,2.152,2.152,0,0,0-.514,1.179H2207.8a6.2,6.2,0,0,1,.725-2.174,3.133,3.133,0,0,1,2.848-1.551,5.471,5.471,0,0,1,1.271.166,12.8,12.8,0,0,1,1.885.683Z" transform="translate(-2041.692 -1105.237)" fill="#12263f"/>
      <path id="Trazado_873691" data-name="Trazado 873691" d="M2236.873,1147.241a13.649,13.649,0,0,1,2.462,8.411,14.709,14.709,0,0,1-2.815,9.219q-3.3,4.315-9.422,4.315a11.266,11.266,0,0,1-8.984-3.774,14.264,14.264,0,0,1-2.917-9.2,14.643,14.643,0,0,1,2.493-8.6q3.207-4.582,9.473-4.585Q2233.724,1143.027,2236.873,1147.241Zm-2.957,15.784a13.548,13.548,0,0,0,1.982-7.312,10.444,10.444,0,0,0-2.284-7.036,7.8,7.8,0,0,0-6.246-2.666,8.127,8.127,0,0,0-6.27,2.641q-2.425,2.64-2.428,7.784a11.38,11.38,0,0,0,2.081,6.944q2.082,2.826,6.752,2.825,4.432,0,6.414-3.18Z" transform="translate(-2020.01 -1101.587)" fill="#12263f"/>
      <path id="Trazado_873692" data-name="Trazado 873692" d="M2228.423,1143.262H2239.5a7.529,7.529,0,0,1,5.307,1.861,6.767,6.767,0,0,1,2.02,5.235,7.607,7.607,0,0,1-1.8,5.046q-1.8,2.149-5.518,2.149h-7.729v10.468h-3.353Zm13.007,3.4a7.2,7.2,0,0,0-3.026-.52h-6.628v8.578h6.628a6.294,6.294,0,0,0,3.639-.961,3.826,3.826,0,0,0,1.4-3.389,3.733,3.733,0,0,0-2.012-3.7Z" transform="translate(-1995.191 -1101.146)" fill="#12263f"/>
      <path id="Trazado_873693" data-name="Trazado 873693" d="M2262.927,1168.4l-1.68,2.034-3.834-2.911a14.262,14.262,0,0,1-2.992,1.214,12.913,12.913,0,0,1-3.513.455,11.317,11.317,0,0,1-9.032-3.774,14.455,14.455,0,0,1-2.883-9.2,14.635,14.635,0,0,1,2.5-8.6q3.2-4.582,9.472-4.585,6.558,0,9.709,4.214a13.635,13.635,0,0,1,2.462,8.409,17.783,17.783,0,0,1-.59,4.6,11.9,11.9,0,0,1-3.011,5.494Zm-9.64-2.339a4.132,4.132,0,0,0,1.587-.57l-2.735-2.117,1.686-2.077,3.23,2.523a9.4,9.4,0,0,0,2.089-3.932,17.089,17.089,0,0,0,.546-4.168,10.448,10.448,0,0,0-2.281-7.039,7.793,7.793,0,0,0-6.245-2.666,8.189,8.189,0,0,0-6.355,2.557q-2.344,2.554-2.344,7.868a10.62,10.62,0,0,0,2.251,7.119q2.258,2.649,6.611,2.65a12.3,12.3,0,0,0,1.96-.152Z" transform="translate(-1975.355 -1101.587)" fill="#12263f"/>
      <path id="Trazado_873694" data-name="Trazado 873694" d="M2148.214,1157.661h11.254a11.063,11.063,0,0,1,4.585.826q3.426,1.583,3.425,5.848a6.084,6.084,0,0,1-3.489,5.917,5.068,5.068,0,0,1,2.184,1.551,5.574,5.574,0,0,1,.818,3.118l.117,3.32a10.289,10.289,0,0,0,.235,2.108,2.086,2.086,0,0,0,1.079,1.516v.559h-4.111a3.053,3.053,0,0,1-.27-.829,15.713,15.713,0,0,1-.17-1.953l-.2-4.131a3.491,3.491,0,0,0-1.75-3.253,7.092,7.092,0,0,0-2.932-.454h-7.419v10.62h-3.354ZM2159.107,1169a6.188,6.188,0,0,0,3.63-.943,3.893,3.893,0,0,0,1.338-3.4,3.678,3.678,0,0,0-1.871-3.607,5.978,5.978,0,0,0-2.672-.506h-7.965V1169Z" transform="translate(-2145.712 -1074.124)" fill="#12263f"/>
      <path id="Trazado_873695" data-name="Trazado 873695" d="M2162.893,1174.839a6.974,6.974,0,0,0,.958,3.423q1.6,2.459,5.667,2.46a9.688,9.688,0,0,0,3.311-.538,3.8,3.8,0,0,0,2.892-3.743,3.267,3.267,0,0,0-1.227-2.882,12.145,12.145,0,0,0-3.882-1.467l-3.251-.76a14.349,14.349,0,0,1-4.508-1.633,5.227,5.227,0,0,1-2.287-4.635,7.239,7.239,0,0,1,2.25-5.48,8.853,8.853,0,0,1,6.363-2.14,10.838,10.838,0,0,1,6.438,1.881q2.65,1.877,2.648,6.009h-3.152a6.427,6.427,0,0,0-1.033-3.052q-1.472-1.938-5-1.939a5.615,5.615,0,0,0-4.088,1.248,3.987,3.987,0,0,0-1.242,2.9,2.843,2.843,0,0,0,1.469,2.66,20.973,20.973,0,0,0,4.358,1.349l3.367.791a10.189,10.189,0,0,1,3.757,1.568,5.948,5.948,0,0,1,2.286,5.04q0,4.112-2.919,5.883a12.812,12.812,0,0,1-6.777,1.772,9.993,9.993,0,0,1-7.057-2.362,8.074,8.074,0,0,1-2.5-6.354Z" transform="translate(-2124.085 -1074.532)" fill="#12263f"/>
      <path id="Trazado_873696" data-name="Trazado 873696" d="M2190.555,1157.661v2.951h-8.342v21.811h-3.389v-21.811h-8.344v-2.951Z" transform="translate(-2103.93 -1074.124)" fill="#12263f"/>
      <path id="Trazado_873697" data-name="Trazado 873697" d="M2185.124,1157.661v15.3a8.928,8.928,0,0,0,1.021,4.485,5.362,5.362,0,0,0,5.094,2.7q4.3,0,5.845-2.917a9.214,9.214,0,0,0,.832-4.266v-15.3h3.389v13.906a15.992,15.992,0,0,1-1.238,7.027q-2.261,4.488-8.555,4.485t-8.541-4.485a15.982,15.982,0,0,1-1.237-7.027v-13.906Z" transform="translate(-2082.806 -1074.124)" fill="#12263f"/>
      <path id="Trazado_873698" data-name="Trazado 873698" d="M2196.755,1157.661l7.114,21.086,7.027-21.086h3.76l-9.035,24.762h-3.556l-9.018-24.762Z" transform="translate(-2061.578 -1074.124)" fill="#12263f"/>
      <path id="Trazado_873699" data-name="Trazado 873699" d="M2207.939,1157.661l4.669,20.116,5.594-20.116h3.628l5.606,20.153,4.669-20.153h3.676l-6.507,24.762h-3.521l-5.713-20.531-5.75,20.531h-3.521l-6.472-24.762Z" transform="translate(-2040.467 -1074.124)" fill="#12263f"/>
      <path id="Trazado_873700" data-name="Trazado 873700" d="M2223,1182.423h-4.03l8.762-12.7-8.213-12.059h4.179l6.248,9.473,6.2-9.473h3.982l-8.211,12.059,8.613,12.7h-4.151l-6.6-10.184Z" transform="translate(-2012.921 -1074.124)" fill="#12263f"/>
      <path id="Trazado_873701" data-name="Trazado 873701" d="M2230.114,1157.661h3.912l7.118,11.9,7.119-11.9h3.943l-9.377,14.783v9.979h-3.354v-9.979Z" transform="translate(-1992.019 -1074.124)" fill="#12263f"/>
      <path id="Trazado_873702" data-name="Trazado 873702" d="M2241.267,1179.641l15.226-19.029h-14.115v-2.951h18.438v2.882l-15.315,18.928h15.315v2.952h-19.549Z" transform="translate(-1971.088 -1074.124)" fill="#12263f"/>
      <path id="Trazado_873703" data-name="Trazado 873703" d="M2147.7,1184.778v-2.833h7.35v-7.4h2.881v7.4h7.351v2.833h-7.351v7.381h-2.881v-7.381Z" transform="translate(-2146.681 -1042.438)" fill="#12263f"/>
      <path id="Trazado_873704" data-name="Trazado 873704" d="M2158,1176.784h8.46v3.119H2158Z" transform="translate(-2127.349 -1038.238)" fill="#12263f"/>
      <path id="Trazado_873705" data-name="Trazado 873705" d="M2175.246,1174.666a5.858,5.858,0,1,1-4.162-1.729,5.669,5.669,0,0,1,4.162,1.729Zm-1.694,6.607a3.482,3.482,0,1,0-2.468,1.019,3.343,3.343,0,0,0,2.468-1.018Zm11.638-8.961h1.882l-13.5,24.679h-1.882Zm6.59,14.012a5.87,5.87,0,1,1-4.145-1.723,5.65,5.65,0,0,1,4.145,1.724Zm-1.693,6.608a3.469,3.469,0,1,0-2.452,1.024,3.341,3.341,0,0,0,2.452-1.023Z" transform="translate(-2113.803 -1046.628)" fill="#12263f"/>
      <path id="Trazado_873706" data-name="Trazado 873706" d="M2181.56,1175.7a6.874,6.874,0,0,1,5.267-2.089v-2.244h1.6v2.209a7.958,7.958,0,0,1,5.149,1.973,6.391,6.391,0,0,1,1.877,4.6h-2.947a5,5,0,0,0-.691-2.209,3.884,3.884,0,0,0-3.388-1.787v8.21a19.892,19.892,0,0,1,5.309,2.057,5.339,5.339,0,0,1,2.276,4.686q0,4.484-2.917,6.369a10.856,10.856,0,0,1-4.668,1.384v3.271h-1.6v-3.271q-4.9-.319-6.656-3.472a9.37,9.37,0,0,1-.961-4.6h2.983a8.2,8.2,0,0,0,.73,3.371,4.514,4.514,0,0,0,3.9,2.14v-9.185a10.83,10.83,0,0,1-5.4-2.31,5.811,5.811,0,0,1-1.744-4.483A6.686,6.686,0,0,1,2181.56,1175.7Zm2.267,7.027a6.486,6.486,0,0,0,3,1.318v-7.922a3.888,3.888,0,0,0-3.166,1.346,4.354,4.354,0,0,0-.944,2.647,3.242,3.242,0,0,0,1.11,2.607Zm8.581,11.547a4.67,4.67,0,0,0,.572-2.342,3.676,3.676,0,0,0-1.55-3.2,9.885,9.885,0,0,0-3-1.211v8.866a4.411,4.411,0,0,0,3.978-2.116Z" transform="translate(-2087.545 -1048.409)" fill="#12263f"/>
      <path id="Trazado_873707" data-name="Trazado 873707" d="M2196.7,1172.062h2.563l-7.856,24.759h-2.561Z" transform="translate(-2069.462 -1047.1)" fill="#12263f"/>
      <path id="Trazado_873708" data-name="Trazado 873708" d="M2204.164,1171.921a58.718,58.718,0,0,0-3.44,7.569,30.408,30.408,0,0,0,.171,17.461,53.66,53.66,0,0,0,3.32,7.18h-2.039q-2.461-3.841-3.05-4.905a22.634,22.634,0,0,1-1.283-2.882,23.805,23.805,0,0,1-1.315-5.324,22.468,22.468,0,0,1-.184-2.8,23.579,23.579,0,0,1,1.568-8.883,51.072,51.072,0,0,1,4.145-7.416Z" transform="translate(-2055.393 -1047.364)" fill="#12263f"/>
      <path id="Trazado_873709" data-name="Trazado 873709" d="M2199.957,1204.131a59.7,59.7,0,0,0,3.454-7.618,30.481,30.481,0,0,0-.184-17.412,54.387,54.387,0,0,0-3.323-7.18h2.04q2.6,4.146,3.144,5.115a19.788,19.788,0,0,1,1.189,2.673,21.486,21.486,0,0,1,1.152,4.162,24.74,24.74,0,0,1-1.237,12.862,48.81,48.81,0,0,1-4.13,7.4Z" transform="translate(-2048.708 -1047.364)" fill="#12263f"/>
      <path id="Trazado_873710" data-name="Trazado 873710" d="M2224.955,1175.853v2.831h-17.579v-2.831Zm0,7.229v2.883h-17.579v-2.883Z" transform="translate(-2034.688 -1039.985)" fill="#12263f"/>
      <path id="Trazado_873711" data-name="Trazado 873711" d="M2219.043,1186.19a7.9,7.9,0,0,0,1.936-2.56,8.931,8.931,0,0,0,.377-2.943h3a10.441,10.441,0,0,1-.506,3.768,14.779,14.779,0,0,1-2.853,3.653l-1.337,1.4a5.46,5.46,0,0,0-1.209,1.7,4.163,4.163,0,0,0,.795,4.413,4.524,4.524,0,0,0,3.452,1.179,3.927,3.927,0,0,0,3.685-1.87,8.782,8.782,0,0,0,.789-3.558h2.916q.07,4.164-2.171,6.118a7.909,7.909,0,0,1-5.389,1.956,8.445,8.445,0,0,1-5.37-1.738,5.745,5.745,0,0,1-2.22-4.8,5.485,5.485,0,0,1,.8-2.986,17.187,17.187,0,0,1,2.5-2.946Zm2.06-11.826h3.354v3.524H2221.1Z" transform="translate(-2020.503 -1042.779)" fill="#12263f"/>
      <path id="Trazado_873712" data-name="Trazado 873712" d="M2224.172,1174.168a7.452,7.452,0,0,1,5.716-2.218,7.553,7.553,0,0,1,5.382,1.9,6.35,6.35,0,0,1,2.023,4.847,5.18,5.18,0,0,1-.734,2.9,22.2,22.2,0,0,1-3.006,3.268,9.626,9.626,0,0,0-2.149,2.655,7.991,7.991,0,0,0-.5,3.214h-3a10.894,10.894,0,0,1,.575-3.886,10.263,10.263,0,0,1,2.548-3.38l1.375-1.332a5.766,5.766,0,0,0,1-1.2,4.149,4.149,0,0,0,.7-2.275,4.362,4.362,0,0,0-1.007-2.865,4.969,4.969,0,0,0-7.307.877,7.9,7.9,0,0,0-.7,3.354h-3a8.2,8.2,0,0,1,2.084-5.859Zm3.664,19.357h3.354v3.507h-3.354Z" transform="translate(-2007.078 -1047.31)" fill="#12263f"/>
      <path id="Trazado_873713" data-name="Trazado 873713" d="M2232.219,1193.588a12.071,12.071,0,0,1-3.052-8.141,12.96,12.96,0,0,1,3.708-9.34q4.112-4.28,11.041-4.28,6,0,9.438,3.035a9.488,9.488,0,0,1,3.219,7.433,9.841,9.841,0,0,1-2.3,6.565,6.682,6.682,0,0,1-5.152,2.721,3.33,3.33,0,0,1-2.46-.8,2.639,2.639,0,0,1-.79-1.93,2.581,2.581,0,0,1,.032-.388c.022-.135.051-.273.085-.42a5.885,5.885,0,0,1-2.261,2.738,5.471,5.471,0,0,1-2.813.8,4.221,4.221,0,0,1-3.363-1.5,5.714,5.714,0,0,1-1.288-3.86,8.826,8.826,0,0,1,2.2-5.918,6.271,6.271,0,0,1,4.729-2.56,4.125,4.125,0,0,1,2.84.992,3.314,3.314,0,0,1,1.187,2.4l.844-2.834h2.478l-2.244,7.384c-.167.572-.289,1.033-.371,1.381a4.3,4.3,0,0,0-.118.926,1.282,1.282,0,0,0,.467,1.1,1.709,1.709,0,0,0,1.052.345,4.326,4.326,0,0,0,3.447-2,8.419,8.419,0,0,0,1.525-5.241,7.5,7.5,0,0,0-2.729-6.144,11.251,11.251,0,0,0-7.35-2.232q-6.4,0-9.792,3.739a11.447,11.447,0,0,0-2.9,8.009,9.8,9.8,0,0,0,2.764,7.076q3.236,3.392,9.22,3.389a15,15,0,0,0,5.209-.883,17.252,17.252,0,0,0,4.415-2.388l1.113,1.519a15.323,15.323,0,0,1-4.533,2.529,18.112,18.112,0,0,1-6.642,1.18Q2236.026,1197.987,2232.219,1193.588Zm13.5-13.258a2.38,2.38,0,0,0-1.927-.834q-1.916,0-3.325,2.267a8.533,8.533,0,0,0-1.407,4.511,3.849,3.849,0,0,0,.725,2.52,2.265,2.265,0,0,0,1.819.866q2.273,0,3.543-2.652a11.257,11.257,0,0,0,1.272-4.8,2.853,2.853,0,0,0-.7-1.878Z" transform="translate(-1993.796 -1047.54)" fill="#12263f"/>
      <path id="Trazado_873714" data-name="Trazado 873714" d="M2162.57,1204.938a17.269,17.269,0,0,1,1.617,8.175,19.672,19.672,0,0,1-1.468,8.141,7.175,7.175,0,0,1-6.944,4.617,6.958,6.958,0,0,1-6.473-3.774,17.3,17.3,0,0,1-1.769-8.463,20.925,20.925,0,0,1,1.062-7.062q1.989-5.493,7.2-5.494A7.135,7.135,0,0,1,2162.57,1204.938Zm-3.055,16.08q1.4-2.093,1.4-7.787a19.174,19.174,0,0,0-1.016-6.769,3.85,3.85,0,0,0-3.931-2.655,4.11,4.11,0,0,0-3.925,2.52,17.322,17.322,0,0,0-1.242,7.425,18.282,18.282,0,0,0,.792,5.935q1.221,3.421,4.156,3.42a4.323,4.323,0,0,0,3.766-2.088Z" transform="translate(-2146.989 -992.648)" fill="#12263f"/>
      <path id="Trazado_873715" data-name="Trazado 873715" d="M2158.315,1208.057v-2.324a12.351,12.351,0,0,0,4.586-1.07q1.3-.751,1.939-3.55h2.394v24.037H2164v-17.093Z" transform="translate(-2126.756 -992.582)" fill="#12263f"/>
      <path id="Trazado_873716" data-name="Trazado 873716" d="M2168.84,1219.842a10.446,10.446,0,0,1,4.375-4.2l3.236-1.87a15.2,15.2,0,0,0,3.05-2.16,4.724,4.724,0,0,0,.117-6.562,4.6,4.6,0,0,0-3.372-1.24,4.406,4.406,0,0,0-4.314,2.365,8.56,8.56,0,0,0-.708,3.518h-3.083a10.837,10.837,0,0,1,1.162-5.141q1.972-3.508,6.961-3.507,4.147,0,6.062,2.241a7.508,7.508,0,0,1,1.913,4.991,6.789,6.789,0,0,1-2.04,4.954,20.026,20.026,0,0,1-4.232,2.9l-2.31,1.28a14.852,14.852,0,0,0-2.594,1.737,6.3,6.3,0,0,0-2.123,3.254h13.181v2.865h-16.57A14.046,14.046,0,0,1,2168.84,1219.842Z" transform="translate(-2109.427 -992.702)" fill="#12263f"/>
      <path id="Trazado_873717" data-name="Trazado 873717" d="M2179.4,1223.544a8.713,8.713,0,0,1-1.931-5.722h3.167a7.858,7.858,0,0,0,.877,3.4q1.178,1.908,4.263,1.9a5.588,5.588,0,0,0,3.843-1.28,4.208,4.208,0,0,0,1.45-3.3,3.846,3.846,0,0,0-1.525-3.489,7.706,7.706,0,0,0-4.24-1c-.2,0-.405,0-.616.009s-.417.015-.63.026v-2.681q.471.053.79.069c.213.009.444.015.691.015a6.333,6.333,0,0,0,2.8-.538,3.431,3.431,0,0,0,1.922-3.371,3.292,3.292,0,0,0-1.281-2.782,4.8,4.8,0,0,0-2.983-.978q-3.037,0-4.2,2.022a6.956,6.956,0,0,0-.725,3.17h-3a9.116,9.116,0,0,1,1.079-4.586q1.852-3.37,6.521-3.371a8.846,8.846,0,0,1,5.717,1.645,5.781,5.781,0,0,1,2.021,4.761,5.314,5.314,0,0,1-1.2,3.608,5.07,5.07,0,0,1-1.922,1.349,5.233,5.233,0,0,1,2.974,2.013,6.088,6.088,0,0,1,1.07,3.648,7.435,7.435,0,0,1-2.276,5.63,8.967,8.967,0,0,1-6.454,2.174Q2181.331,1225.894,2179.4,1223.544Z" transform="translate(-2090.81 -992.671)" fill="#12263f"/>
      <path id="Trazado_873718" data-name="Trazado 873718" d="M2198.081,1225.259v-5.9H2187.5v-2.966l11.057-15.338h2.561v15.657h3.559v2.647h-3.559v5.9Zm-.052-8.546V1205.75l-7.735,10.963Z" transform="translate(-2071.997 -992.691)" fill="#12263f"/>
      <path id="Trazado_873719" data-name="Trazado 873719" d="M2200.738,1218.8a4.2,4.2,0,0,0,2.411,3.59,5.817,5.817,0,0,0,2.494.506,4.672,4.672,0,0,0,3.992-1.72,6.17,6.17,0,0,0,1.3-3.808,4.971,4.971,0,0,0-1.544-3.91,5.341,5.341,0,0,0-3.7-1.384,5.6,5.6,0,0,0-2.688.607,5.748,5.748,0,0,0-1.912,1.685l-2.63-.152,1.836-12.993h12.542v2.932h-10.266l-1.027,6.707a7.649,7.649,0,0,1,1.6-.96,8.108,8.108,0,0,1,3.118-.556,7.985,7.985,0,0,1,5.629,2.14,7.079,7.079,0,0,1,2.306,5.428,9.307,9.307,0,0,1-2.114,6.032q-2.115,2.615-6.751,2.615a8.61,8.61,0,0,1-5.216-1.66,6.579,6.579,0,0,1-2.537-5.1Z" transform="translate(-2053.062 -992.383)" fill="#12263f"/>
      <path id="Trazado_873720" data-name="Trazado 873720" d="M2222.095,1203.14a7.092,7.092,0,0,1,1.59,4.323h-3a5.583,5.583,0,0,0-.86-2.241,3.833,3.833,0,0,0-3.323-1.516,4.6,4.6,0,0,0-4.044,2.35,13.526,13.526,0,0,0-1.668,6.734,6.6,6.6,0,0,1,2.628-2.293,7.6,7.6,0,0,1,3.236-.673,7.859,7.859,0,0,1,5.293,1.939,7.2,7.2,0,0,1,2.259,5.779,8.774,8.774,0,0,1-2.141,5.825,7.537,7.537,0,0,1-6.1,2.537,7.823,7.823,0,0,1-5.848-2.572q-2.465-2.571-2.463-8.655a23.255,23.255,0,0,1,1.1-7.635q2.106-6,7.7-6Q2220.5,1201.043,2222.095,1203.14Zm-2.275,18.457a6.231,6.231,0,0,0,1.188-3.8,6.493,6.493,0,0,0-1.061-3.529q-1.061-1.679-3.86-1.678a5.025,5.025,0,0,0-3.429,1.3,4.93,4.93,0,0,0-1.475,3.909,5.7,5.7,0,0,0,1.34,3.852,4.642,4.642,0,0,0,3.717,1.559,4.162,4.162,0,0,0,3.579-1.61Z" transform="translate(-2034.161 -992.713)" fill="#12263f"/>
      <path id="Trazado_873721" data-name="Trazado 873721" d="M2234.441,1201.219v2.647a27.879,27.879,0,0,0-3.092,3.926,39.651,39.651,0,0,0-3.413,6.036,41.323,41.323,0,0,0-2.226,5.747q-.487,1.666-1.262,5.376h-3.354a41.258,41.258,0,0,1,5.054-13.753,43.793,43.793,0,0,1,4.856-6.929h-13.35v-3.049Z" transform="translate(-2015.402 -992.383)" fill="#12263f"/>
      <path id="Trazado_873722" data-name="Trazado 873722" d="M2229.782,1211.134a4.785,4.785,0,0,1-1.332-3.506,6.305,6.305,0,0,1,1.954-4.634,7.521,7.521,0,0,1,5.541-1.939,7.689,7.689,0,0,1,5.436,1.827,5.659,5.659,0,0,1,1.971,4.275,5.6,5.6,0,0,1-1.144,3.656,6.856,6.856,0,0,1-1.989,1.55,7.743,7.743,0,0,1,2.368,1.585,6.092,6.092,0,0,1,1.608,4.384,7.474,7.474,0,0,1-2.141,5.4,8.014,8.014,0,0,1-6.052,2.218,9.357,9.357,0,0,1-5.957-1.913,6.643,6.643,0,0,1-2.437-5.555,6.168,6.168,0,0,1,4.148-6.084A6.046,6.046,0,0,1,2229.782,1211.134Zm9.787,10.914a4.14,4.14,0,0,0,1.389-3.4,4.4,4.4,0,0,0-1.433-3.555,5.477,5.477,0,0,0-3.672-1.214,5.105,5.105,0,0,0-3.551,1.236,4.391,4.391,0,0,0-1.372,3.432,4.676,4.676,0,0,0,1.254,3.262,5.019,5.019,0,0,0,3.886,1.372,5.361,5.361,0,0,0,3.5-1.132Zm-.564-11.938a3.649,3.649,0,0,0,1.127-2.678,3.545,3.545,0,0,0-1.076-2.482,4.325,4.325,0,0,0-3.282-1.131,3.652,3.652,0,0,0-4.137,3.783,3.168,3.168,0,0,0,1.26,2.669,4.768,4.768,0,0,0,2.977.964,4.232,4.232,0,0,0,3.132-1.124Z" transform="translate(-1996.721 -992.691)" fill="#12263f"/>
      <path id="Trazado_873723" data-name="Trazado 873723" d="M2241.011,1219.39a3.836,3.836,0,0,0,1.939,3.472,4.3,4.3,0,0,0,2.092.5,4.694,4.694,0,0,0,3.707-1.812q1.533-1.807,2.175-7.355a5.626,5.626,0,0,1-2.506,2.249,7.963,7.963,0,0,1-3.21.65,7.2,7.2,0,0,1-5.52-2.172,7.874,7.874,0,0,1-2.031-5.593,8.949,8.949,0,0,1,2.006-5.773,7.142,7.142,0,0,1,5.916-2.494,7.271,7.271,0,0,1,7.281,4.752,16.7,16.7,0,0,1,1.114,6.533,21.473,21.473,0,0,1-1.332,7.85q-2.209,5.7-7.482,5.693a7.246,7.246,0,0,1-5.376-1.853,6.34,6.34,0,0,1-1.838-4.651Zm7.9-6.141q1.493-1.191,1.492-4.151a5.308,5.308,0,0,0-1.339-3.964,4.7,4.7,0,0,0-3.413-1.3,4.461,4.461,0,0,0-3.532,1.49,5.824,5.824,0,0,0-1.307,3.981,5.706,5.706,0,0,0,1.145,3.742,4.48,4.48,0,0,0,3.659,1.39,5.181,5.181,0,0,0,3.292-1.189Z" transform="translate(-1977.863 -992.671)" fill="#12263f"/>
    </g>
    <path id="Trazado_875608" data-name="Trazado 875608" d="M0,0H2.212V241.066H0Z" transform="translate(883.823 17973.098)" fill="#12263f"/>
  </g>
</svg>
