<svg xmlns="http://www.w3.org/2000/svg" xmlns:xlink="http://www.w3.org/1999/xlink" width="76" height="76" viewBox="0 0 76 76">
  <defs>
    <clipPath id="clip-path">
      <rect id="Rectángulo_402116" data-name="Rectángulo 402116" width="76" height="76" fill="none"/>
    </clipPath>
  </defs>
  <g id="Grupo_1100939" data-name="Grupo 1100939" transform="translate(-290 -18451)">
    <g id="Grupo_1100916" data-name="Grupo 1100916" transform="translate(290 18450.559)">
      <g id="Grupo_1100916-2" data-name="Grupo 1100916" transform="translate(0 0.441)" clip-path="url(#clip-path)">
        <path id="Trazado_875598" data-name="Trazado 875598" d="M113.235,37.451a1.367,1.367,0,0,1-1.363-1.363V32H62.814v5.451a1.367,1.367,0,0,1-1.363,1.363H56V91.96a1.367,1.367,0,0,1,1.363,1.363v5.451h54.509V93.323a1.367,1.367,0,0,1,1.363-1.363h5.451V37.451ZM99.608,55.167A1.367,1.367,0,0,1,98.245,53.8V51.078H90.068V82.421h3.993a1.367,1.367,0,0,1,1.363,1.363v4.088a1.367,1.367,0,0,1-1.363,1.363H73.716a1.367,1.367,0,0,1-1.363-1.363V83.661A1.367,1.367,0,0,1,73.716,82.3h5.451V51.078H70.99V53.8a1.367,1.367,0,0,1-1.363,1.363H61.451A1.367,1.367,0,0,1,60.088,53.8V41.539a1.367,1.367,0,0,1,1.363-1.363h46.333a1.367,1.367,0,0,1,1.363,1.363V53.8a1.367,1.367,0,0,1-1.363,1.363Z" transform="translate(-46.461 -26.862)" fill="#d1d8d5"/>
        <path id="Trazado_875599" data-name="Trazado 875599" d="M155.608,81.363V93.627a1.367,1.367,0,0,1-1.363,1.363h-8.176a1.367,1.367,0,0,1-1.363-1.363V90.9h-8.176v31.343h3.993a1.367,1.367,0,0,1,1.363,1.363V127.7a1.367,1.367,0,0,1-1.363,1.363H125.627a1.367,1.367,0,0,1-1.363-1.363v-4.211a1.367,1.367,0,0,1,1.363-1.363h5.451V90.9H117.451v2.725a1.367,1.367,0,0,1-1.363,1.363h-2.725A1.367,1.367,0,0,1,112,93.627V81.363A1.367,1.367,0,0,1,113.363,80h40.882a1.367,1.367,0,0,1,1.363,1.363" transform="translate(-92.922 -66.686)" fill="#3757a5"/>
        <path id="Trazado_875600" data-name="Trazado 875600" d="M421.451,9.539V1.363A1.367,1.367,0,0,0,420.088,0h-2.725A1.367,1.367,0,0,0,416,1.363V9.539a1.367,1.367,0,0,0,1.363,1.363h2.725a1.367,1.367,0,0,0,1.363-1.363" transform="translate(-345.138 -0.313)" fill="#fade1d"/>
        <path id="Trazado_875601" data-name="Trazado 875601" d="M421.451,393.539v-8.176A1.367,1.367,0,0,0,420.088,384h-2.725A1.367,1.367,0,0,0,416,385.363v8.176a1.367,1.367,0,0,0,1.363,1.363h2.725a1.367,1.367,0,0,0,1.363-1.363" transform="translate(-345.138 -318.902)" fill="#fade1d"/>
        <path id="Trazado_875602" data-name="Trazado 875602" d="M37.451,9.539V1.363A1.367,1.367,0,0,0,36.088,0H33.363A1.367,1.367,0,0,0,32,1.363V9.539A1.367,1.367,0,0,0,33.363,10.9h2.725a1.367,1.367,0,0,0,1.363-1.363" transform="translate(-26.549 -0.313)" fill="#fade1d"/>
        <path id="Trazado_875603" data-name="Trazado 875603" d="M37.451,393.539v-8.176A1.367,1.367,0,0,0,36.088,384H33.363A1.367,1.367,0,0,0,32,385.363v8.176a1.367,1.367,0,0,0,1.363,1.363h2.725a1.367,1.367,0,0,0,1.363-1.363" transform="translate(-26.549 -318.902)" fill="#fade1d"/>
        <path id="Trazado_875604" data-name="Trazado 875604" d="M127.7,80H81.363A1.367,1.367,0,0,0,80,81.363V93.627a1.367,1.367,0,0,0,1.363,1.363h8.176A1.367,1.367,0,0,0,90.9,93.627V90.9h8.176v31.22H93.627a1.367,1.367,0,0,0-1.363,1.363V127.7a1.367,1.367,0,0,0,1.363,1.363h20.346a1.367,1.367,0,0,0,1.363-1.363v-4.088a1.367,1.367,0,0,0-1.363-1.363H109.98v-5.451a1.363,1.363,0,0,0-2.725,0v6.814a1.367,1.367,0,0,0,1.363,1.363h3.993v1.363H94.99v-1.485h5.451a1.367,1.367,0,0,0,1.363-1.363V89.539a1.367,1.367,0,0,0-1.363-1.363h-10.9a1.367,1.367,0,0,0-1.363,1.363v2.725H82.725V82.725h43.608v9.539h-5.451V89.539a1.367,1.367,0,0,0-1.363-1.363h-10.9a1.367,1.367,0,0,0-1.363,1.363v21.8a1.363,1.363,0,0,0,2.725,0V90.9h8.176v2.725a1.367,1.367,0,0,0,1.363,1.363H127.7a1.367,1.367,0,0,0,1.363-1.363V81.363A1.367,1.367,0,0,0,127.7,80" transform="translate(-66.373 -66.686)"/>
        <path id="Trazado_875605" data-name="Trazado 875605" d="M74.95,65.411H66.774a1.367,1.367,0,0,0-1.363,1.363V69.5H10.9V66.774a1.367,1.367,0,0,0-1.363-1.363H6.814V40.882a1.363,1.363,0,1,0-2.725,0V65.411H1.363A1.367,1.367,0,0,0,0,66.774V74.95a1.367,1.367,0,0,0,1.363,1.363H9.539A1.367,1.367,0,0,0,10.9,74.95V72.225H65.411V74.95a1.367,1.367,0,0,0,1.363,1.363H74.95a1.367,1.367,0,0,0,1.363-1.363V66.774a1.367,1.367,0,0,0-1.363-1.363M8.176,73.588H2.725V68.137H8.176Zm65.411,0H68.137V68.137h5.451ZM74.95,0H66.774a1.367,1.367,0,0,0-1.363,1.363V4.088H10.9V1.363A1.367,1.367,0,0,0,9.539,0H1.363A1.367,1.367,0,0,0,0,1.363V9.539A1.367,1.367,0,0,0,1.363,10.9H4.088V35.431a1.363,1.363,0,1,0,2.725,0V10.9H9.539A1.367,1.367,0,0,0,10.9,9.539V6.814H65.411V9.539A1.367,1.367,0,0,0,66.774,10.9H69.5V61.323a1.363,1.363,0,1,0,2.725,0V10.9H74.95a1.367,1.367,0,0,0,1.363-1.363V1.363A1.367,1.367,0,0,0,74.95,0M8.176,8.176H2.725V2.725H8.176Zm65.411,0H68.137V2.725h5.451Z" transform="translate(0 -0.313)"/>
      </g>
    </g>
  </g>
</svg>
