<svg xmlns="http://www.w3.org/2000/svg" width="65.323" height="70.422" viewBox="0 0 65.323 70.422">
  <g id="Grupo_1100938" data-name="Grupo 1100938" transform="translate(-298.541 -18306.578)">
    <g id="Grupo_1099586" data-name="Grupo 1099586" transform="translate(298.488 18306.578)">
      <path id="Trazado_873735" data-name="Trazado 873735" d="M5189.615,774.589a1.329,1.329,0,1,0,.94.389A1.33,1.33,0,0,0,5189.615,774.589Z" transform="translate(-5128.443 -726.39)" fill="#12263f"/>
      <path id="Trazado_873736" data-name="Trazado 873736" d="M5172.836,826.717l-.6.6V818.98a1.332,1.332,0,0,0-2.662,0v8.337l-.6-.6a1.331,1.331,0,1,0-1.883,1.883l2.872,2.872a1.331,1.331,0,0,0,1.883,0l2.873-2.872a1.331,1.331,0,0,0-1.883-1.883Z" transform="translate(-5109.733 -763.718)" fill="#12263f"/>
      <path id="Trazado_873737" data-name="Trazado 873737" d="M5168.975,512.023l.6-.6v26.941a1.331,1.331,0,1,0,2.663,0V511.423l.6.6a1.331,1.331,0,0,0,1.883-1.882l-2.873-2.872a1.331,1.331,0,0,0-1.883,0l-2.872,2.872a1.331,1.331,0,0,0,1.882,1.883Z" transform="translate(-5109.734 -494.31)" fill="#12263f"/>
      <path id="Trazado_873738" data-name="Trazado 873738" d="M4827.808,412.829a1.878,1.878,0,0,0-2.291,0,1.169,1.169,0,0,0,0,1.882l.729.6h-50.053l.729-.6a1.17,1.17,0,0,0,0-1.882,1.877,1.877,0,0,0-2.291,0l-3.5,2.872a1.171,1.171,0,0,0,0,1.883l3.5,2.872a1.878,1.878,0,0,0,2.291,0,1.17,1.17,0,0,0,0-1.882l-.73-.6h50.053l-.729.6a1.17,1.17,0,0,0,0,1.883,1.877,1.877,0,0,0,2.291,0l3.5-2.872a1.171,1.171,0,0,0,0-1.882Z" transform="translate(-4770.608 -412.439)" fill="#12263f"/>
    </g>
    <g id="Grupo_1100917" data-name="Grupo 1100917" transform="translate(288.347 18305.559)">
      <g id="Grupo_1100918" data-name="Grupo 1100918" transform="translate(13.627 13.755)">
        <path id="Trazado_875599" data-name="Trazado 875599" d="M157.561,81.6V96.024a1.526,1.526,0,0,1-1.424,1.6h-8.543a1.526,1.526,0,0,1-1.424-1.6v-3.2h-8.543v36.855H141.8a1.526,1.526,0,0,1,1.424,1.6v4.807a1.526,1.526,0,0,1-1.424,1.6H126.238a1.526,1.526,0,0,1-1.424-1.6v-4.951a1.526,1.526,0,0,1,1.424-1.6h5.7V92.819H117.7v3.2a1.526,1.526,0,0,1-1.424,1.6h-2.848a1.526,1.526,0,0,1-1.424-1.6V81.6a1.526,1.526,0,0,1,1.424-1.6h42.714a1.526,1.526,0,0,1,1.424,1.6" transform="translate(-106.305 -80)" fill="#3757a5"/>
        <path id="Trazado_875604" data-name="Trazado 875604" d="M129.833,80H81.424A1.526,1.526,0,0,0,80,81.6V96.024a1.526,1.526,0,0,0,1.424,1.6h8.543a1.526,1.526,0,0,0,1.424-1.6v-3.2h8.543V129.53h-5.7a1.526,1.526,0,0,0-1.424,1.6v4.951a1.526,1.526,0,0,0,1.424,1.6H115.5a1.526,1.526,0,0,0,1.424-1.6v-4.807a1.526,1.526,0,0,0-1.424-1.6h-4.172v-6.41a1.434,1.434,0,1,0-2.848,0v8.012a1.526,1.526,0,0,0,1.424,1.6h4.172v1.6H95.662v-1.747h5.7a1.526,1.526,0,0,0,1.424-1.6V91.217a1.526,1.526,0,0,0-1.424-1.6H89.967a1.526,1.526,0,0,0-1.424,1.6v3.2h-5.7V83.2h45.561V94.421h-5.7v-3.2a1.526,1.526,0,0,0-1.424-1.6H109.9a1.526,1.526,0,0,0-1.424,1.6v25.638a1.434,1.434,0,1,0,2.848,0V92.819h8.543v3.2a1.526,1.526,0,0,0,1.424,1.6h8.543a1.526,1.526,0,0,0,1.424-1.6V81.6a1.526,1.526,0,0,0-1.424-1.6" transform="translate(-80 -80)"/>
      </g>
    </g>
  </g>
</svg>
