<svg xmlns="http://www.w3.org/2000/svg" width="190" height="126.344" viewBox="0 0 190 126.344">
  <g id="adidas.1c94d646" transform="translate(-14.06 -37.045)">
    <g id="Grupo_1099548" data-name="Grupo 1099548" transform="translate(14.06 37.045)">
      <path id="Trazado_873638" data-name="Trazado 873638" d="M387.074,446.335a4.8,4.8,0,0,0,2.457.659h.028a4.791,4.791,0,0,0,2.458-.659,4.339,4.339,0,0,0,1.829-1.827,5.026,5.026,0,0,0,0-4.971,4.419,4.419,0,0,0-1.857-1.83,5.081,5.081,0,0,0-2.429-.655h-.029a5.407,5.407,0,0,0-2.428.655,4.58,4.58,0,0,0-1.857,1.83,5.033,5.033,0,0,0,0,4.971,4.338,4.338,0,0,0,1.828,1.827Zm-1.114-6.371a4,4,0,0,1,1.542-1.542,4.4,4.4,0,0,1,2.026-.543h.028a4.416,4.416,0,0,1,2.03.543,4.006,4.006,0,0,1,1.541,1.542,4.228,4.228,0,0,1,0,4.14,3.857,3.857,0,0,1-1.514,1.515,4.115,4.115,0,0,1-2.058.542h-.024a4.106,4.106,0,0,1-2.057-.542,3.854,3.854,0,0,1-1.515-1.515,4.041,4.041,0,0,1,0-4.14Z" transform="translate(-205.927 -358.536)" fill="#0059a3"/>
      <path id="Trazado_873639" data-name="Trazado 873639" d="M388.336,442.611h.513a.944.944,0,0,1,.686.2.361.361,0,0,1,.115.088,5.061,5.061,0,0,1,.8,1.145h0l.487.859h1.028l-.628-1.057h0a6.97,6.97,0,0,0-.8-1.057,1.416,1.416,0,0,0-.457-.284,1.668,1.668,0,0,0,1.114-.486,1.4,1.4,0,0,0,.43-1.029,1.247,1.247,0,0,0-.258-.772,1.233,1.233,0,0,0-.685-.514,3.005,3.005,0,0,0-1.029-.142c-.088,0-.2-.031-.314-.031h-1.858V444.9h.858v-2.29Zm0-2.343h1.314a4.329,4.329,0,0,1,.543.088.637.637,0,0,1,.372.284.7.7,0,0,1,.115.43.72.72,0,0,1-.257.573,1.223,1.223,0,0,1-.771.228h-1.314v-1.6Z" transform="translate(-206.047 -358.639)" fill="#0059a3"/>
      <path id="Trazado_873640" data-name="Trazado 873640" d="M253.041,439.9h7.714l-7.714-12.859-6.518-10.829L218.84,432.848l4.228,7.058Z" transform="translate(-199.066 -357.673)" fill="#0059a3"/>
      <path id="Trazado_873641" data-name="Trazado 873641" d="M327.689,437.376h37.685l-23.457-39.086-25.944-43.143-10.686,6.43-16.97,10.2,16.97,28.257,22.4,37.344Z" transform="translate(-201.942 -355.146)" fill="#0059a3"/>
      <path id="Trazado_873642" data-name="Trazado 873642" d="M314.508,453.811a16.758,16.758,0,0,0-9.142-2.714h-.088a16.971,16.971,0,1,0,0,33.943h.088a16.759,16.759,0,0,0,9.142-2.713h0V484.1h7.8V440.926h-7.8Zm0,16.03a9.37,9.37,0,0,1-9.142,7.575h-.088a9.329,9.329,0,1,1,0-18.659h.088a9.346,9.346,0,0,1,9.142,7.545h0v3.544Z" transform="translate(-201.934 -358.697)" fill="#0059a3"/>
      <path id="Trazado_873643" data-name="Trazado 873643" d="M352.719,454.25a16.689,16.689,0,0,0-9.143-2.714h-.088a16.971,16.971,0,1,0,0,33.943h.088a16.69,16.69,0,0,0,9.143-2.714h0v1.768h7.8V452.385h-7.8v1.857Zm0,16.03a9.37,9.37,0,0,1-9.143,7.574h-.088a9.329,9.329,0,1,1,0-18.659h.088a9.346,9.346,0,0,1,9.143,7.545h0v3.544Z" transform="translate(-203.515 -359.135)" fill="#0059a3"/>
      <path id="Trazado_873644" data-name="Trazado 873644" d="M389.886,466.374c-.284-.143-.684-.285-1.145-.456a82.219,82.219,0,0,0-8.514-2.2c-3.457-.772-5.2-1.772-5.2-3.029a2.663,2.663,0,0,1,.914-2.114q1.2-1.028,4.286-1.029c2.086,0,3.6.456,4.487,1.343a5.584,5.584,0,0,1,1.2,2.885H394.2c0-4.058-1.657-6.972-4.914-8.742a3.13,3.13,0,0,0-.542-.287,21.435,21.435,0,0,0-9-1.6c-4.543,0-7.971,1.2-10.257,3.631a9.968,9.968,0,0,0-2.714,7.111c0,3.488,1.715,6,5.2,7.632a55.628,55.628,0,0,0,9.6,2.6c3.4.744,5.115,1.8,5.115,3.145a2.681,2.681,0,0,1-1.086,2.114,6.5,6.5,0,0,1-4.286,1.2c-2.544,0-4.343-.428-5.4-1.257a4.111,4.111,0,0,1-1.6-3.459h-8.685a9.541,9.541,0,0,0,5,8.829,21,21,0,0,0,10.456,2.29,19.341,19.341,0,0,0,7.657-1.43c.457-.2.858-.4,1.287-.628a9.559,9.559,0,0,0,5.113-9c0-3.37-1.743-5.885-5.258-7.542Z" transform="translate(-205.141 -359.117)" fill="#0059a3"/>
      <path id="Trazado_873645" data-name="Trazado 873645" d="M224.433,454.25a16.857,16.857,0,0,0-9.171-2.714h-.088a16.971,16.971,0,1,0,0,33.943h.088a16.857,16.857,0,0,0,9.171-2.713h0v1.768h7.8V452.385h-7.8v1.857Zm0,16.03a9.378,9.378,0,0,1-9.171,7.575h-.088a9.329,9.329,0,1,1,0-18.659h.088a9.354,9.354,0,0,1,9.171,7.545h0v3.544Z" transform="translate(-198.202 -359.135)" fill="#0059a3"/>
      <path id="Trazado_873646" data-name="Trazado 873646" d="M276.365,448.56h8.486V441.1h-8.486v7.457Z" transform="translate(-201.448 -358.703)" fill="#0059a3"/>
      <path id="Trazado_873647" data-name="Trazado 873647" d="M276.365,484.533h8.486v-33h-8.486Z" transform="translate(-201.448 -359.135)" fill="#0059a3"/>
      <path id="Trazado_873648" data-name="Trazado 873648" d="M263.034,453.811a16.857,16.857,0,0,0-9.171-2.714h-.088a16.971,16.971,0,0,0,0,33.943h.088a16.857,16.857,0,0,0,9.171-2.713h0V484.1h7.8V440.926h-7.8Zm0,16.03a9.378,9.378,0,0,1-9.171,7.575h-.088a9.329,9.329,0,1,1,0-18.659h.088a9.354,9.354,0,0,1,9.171,7.545h0v3.544Z" transform="translate(-199.802 -358.697)" fill="#0059a3"/>
      <path id="Trazado_873649" data-name="Trazado 873649" d="M313.047,438.638l-9.2-15.373-22.6-37.6-26.775,16.118-.914.543.914,1.512,20.915,34.8h37.656Z" transform="translate(-200.503 -356.409)" fill="#0059a3"/>
    </g>
  </g>
</svg>
