<svg xmlns="http://www.w3.org/2000/svg" width="73.512" height="59.668" viewBox="0 0 73.512 59.668">
  <g id="Grupo_1100940" data-name="Grupo 1100940" transform="translate(-292.488 -18622.578)">
    <g id="Grupo_1100919" data-name="Grupo 1100919">
      <path id="Trazado_875607" data-name="Trazado 875607" d="M0,0H63.685L60.718,38.782H2.208Z" transform="translate(297.354 18631.871)" fill="#26aab7"/>
      <path id="Trazado_875606" data-name="Trazado 875606" d="M0,0H70.323L67.046,42H2.438Z" transform="translate(294 18639)" fill="#ffd947"/>
      <path id="Trazado_873743" data-name="Trazado 873743" d="M5938.649,511.363a1.449,1.449,0,1,1-1.448-1.448,1.449,1.449,0,0,1,1.448,1.448Zm35.3-38.847-2.283,38.932a1.448,1.448,0,0,1-1.445,1.363h-26.5a1.448,1.448,0,0,1,0-2.9h25.137l2.2-37.568a1.47,1.47,0,0,0-1.445-1.532h-64.819a1.469,1.469,0,0,0-1.445,1.532l2.2,37.568h25.137a1.448,1.448,0,0,1,0,2.9h-26.52a1.449,1.449,0,0,1-1.43-1.362l-2.281-38.931a4.361,4.361,0,0,1,3.44-4.5v-3.138a4.35,4.35,0,0,1,3.764-4.306v-3.08a4.35,4.35,0,0,1,4.344-4.344H5924a7.2,7.2,0,0,1,5.116,2.118l4.008,4a4.315,4.315,0,0,0,3.068,1.27h29.984a4.35,4.35,0,0,1,4.345,4.344v3.136a4.35,4.35,0,0,1,3.438,4.5Zm-6.335-7.64a1.449,1.449,0,0,0-1.448-1.448h-29.979a7.19,7.19,0,0,1-5.114-2.118l-4.009-4a4.315,4.315,0,0,0-3.07-1.27H5912a1.451,1.451,0,0,0-1.449,1.448v4.485a1.449,1.449,0,0,1-1.448,1.448h-.872a1.45,1.45,0,0,0-1.448,1.448v3.046h60.824Zm-28.3,36.852a1.449,1.449,0,1,1-2.71,1.023l-1.832-4.859h-12.249l-1.85,4.859a1.449,1.449,0,1,1-2.708-1.032l8.866-23.275.014-.032a1.978,1.978,0,0,1,1.835-1.232h0a1.976,1.976,0,0,1,1.834,1.229.138.138,0,0,0,.016.04ZM5933.675,495l-5.005-13.256L5923.62,495Zm20.76,7.241v-1.63a8.533,8.533,0,1,1,0-12.8v-1.628a1.448,1.448,0,0,1,2.9,0v16.053a1.448,1.448,0,0,1-2.9,0Zm0-8.027a5.637,5.637,0,1,0-5.637,5.638,5.637,5.637,0,0,0,5.637-5.638Z" transform="translate(-5607.962 18169.434)" fill="#12263f"/>
    </g>
  </g>
</svg>
