<svg xmlns="http://www.w3.org/2000/svg" width="249.616" height="220.689" viewBox="0 0 249.616 220.689">
  <g id="Grupo_1100949" data-name="Grupo 1100949" transform="translate(-1064.375 -23556.557)">
    <g id="Grupo_1099642" data-name="Grupo 1099642" transform="translate(1189.188 23631.863)">
      <path id="Trazado_873882" data-name="Trazado 873882" d="M3477.859,2952.941a74.788,74.788,0,0,1-124.8,55.607,74.606,74.606,0,0,0,24.776-55.607v-.515a74.815,74.815,0,0,0,50.016-70.077,74.82,74.82,0,0,1,50.008,70.592Z" transform="translate(-3353.056 -2882.349)" fill="red"/>
    </g>
    <path id="Trazado_873883" data-name="Trazado 873883" d="M3349.7,3032.514a74.609,74.609,0,0,1-24.776,55.607,74.6,74.6,0,0,1-24.776-55.607V3032a75.15,75.15,0,0,0,49.543,0C3349.7,3032.167,3349.7,3032.341,3349.7,3032.514Z" transform="translate(-2135.734 20669.941)" fill="#f0f"/>
    <path id="Trazado_873884" data-name="Trazado 873884" d="M3211.333,3008.548a74.8,74.8,0,1,1-74.788-126.2,74.815,74.815,0,0,0,50.016,70.077c0,.168,0,.342,0,.515a74.6,74.6,0,0,0,24.772,55.608Z" transform="translate(-2022.146 20749.514)" fill="blue"/>
    <path id="Trazado_873885" data-name="Trazado 873885" d="M3268.133,2892.565a74.591,74.591,0,0,0-24.771,55.092,74.815,74.815,0,0,1-50.016-70.076,74.9,74.9,0,0,1,74.788,14.985Z" transform="translate(-2078.945 20754.285)" fill="aqua"/>
    <path id="Trazado_873886" data-name="Trazado 873886" d="M3349.7,2969.441a75.142,75.142,0,0,1-49.543,0,74.592,74.592,0,0,1,24.772-55.092A74.6,74.6,0,0,1,3349.7,2969.441Z" transform="translate(-2135.738 20732.5)" fill="#fff"/>
    <path id="Trazado_873887" data-name="Trazado 873887" d="M3427.844,2877.58a74.815,74.815,0,0,1-50.016,70.076,74.6,74.6,0,0,0-24.772-55.092,74.9,74.9,0,0,1,74.788-14.985Z" transform="translate(-2163.867 20754.285)" fill="#ff0"/>
    <path id="Trazado_873888" data-name="Trazado 873888" d="M3342.92,2796.321v.515a74.9,74.9,0,0,0-74.788,14.985,74.9,74.9,0,0,0-74.788-14.985v-.515a74.792,74.792,0,0,1,149.584,0Z" transform="translate(-2078.94 20835.027)" fill="lime"/>
    <g id="Grupo_1099643" data-name="Grupo 1099643" transform="translate(1204.151 23656.758)">
      <path id="Trazado_873889" data-name="Trazado 873889" d="M3387.32,2941.982l-2.135-.224a2.4,2.4,0,0,1,.349-.881,1.925,1.925,0,0,1,.656-.557,2.742,2.742,0,0,1,.846-.264,6.854,6.854,0,0,1,1.163-.093,9.275,9.275,0,0,1,1.614.112,2.075,2.075,0,0,1,1.015.469,1.662,1.662,0,0,1,.451.7,2.543,2.543,0,0,1,.164.864v2.574a3.1,3.1,0,0,0,.052.645,2.884,2.884,0,0,0,.228.6h-2.1a2.144,2.144,0,0,1-.164-.343,2.56,2.56,0,0,1-.077-.371,2.885,2.885,0,0,1-.874.6,3.637,3.637,0,0,1-1.377.241,2.3,2.3,0,0,1-1.583-.483,1.535,1.535,0,0,1-.541-1.19,1.561,1.561,0,0,1,.389-1.093,2.636,2.636,0,0,1,1.438-.636q1.256-.252,1.63-.354a7.621,7.621,0,0,0,.79-.266.787.787,0,0,0-.17-.576.852.852,0,0,0-.6-.164,1.543,1.543,0,0,0-.823.176A.961.961,0,0,0,3387.32,2941.982Zm1.937,1.175q-.461.165-.96.291a2.222,2.222,0,0,0-.862.356.572.572,0,0,0,0,.843.776.776,0,0,0,.541.167,1.381,1.381,0,0,0,.694-.181,1.093,1.093,0,0,0,.456-.442,1.477,1.477,0,0,0,.135-.677Z" transform="translate(-3385.01 -2937.877)"/>
      <path id="Trazado_873890" data-name="Trazado 873890" d="M3401.639,2940.095h2.085v.851a2.911,2.911,0,0,1,.909-.757,2.5,2.5,0,0,1,1.107-.225,2.121,2.121,0,0,1,1.1.247,1.838,1.838,0,0,1,.665.735,3.35,3.35,0,0,1,.959-.777,2.481,2.481,0,0,1,1.069-.206,1.917,1.917,0,0,1,1.463.557,2.47,2.47,0,0,1,.525,1.742v3.66h-2.238v-3.32a.934.934,0,0,0-.155-.588.671.671,0,0,0-.558-.3.788.788,0,0,0-.633.286,1.408,1.408,0,0,0-.241.917v3.007h-2.239v-3.21a2.019,2.019,0,0,0-.044-.521.722.722,0,0,0-.248-.354.661.661,0,0,0-.413-.135.793.793,0,0,0-.633.291,1.467,1.467,0,0,0-.248.955v2.974h-2.239Z" transform="translate(-3393.852 -2937.877)"/>
      <path id="Trazado_873891" data-name="Trazado 873891" d="M3427.328,2941.982l-2.134-.224a2.383,2.383,0,0,1,.348-.881,1.926,1.926,0,0,1,.656-.556,2.735,2.735,0,0,1,.845-.265,6.854,6.854,0,0,1,1.163-.093,9.288,9.288,0,0,1,1.613.112,2.071,2.071,0,0,1,1.015.469,1.638,1.638,0,0,1,.451.7,2.528,2.528,0,0,1,.165.864v2.574a3.089,3.089,0,0,0,.052.645,2.983,2.983,0,0,0,.229.6h-2.1a2.053,2.053,0,0,1-.165-.343,2.57,2.57,0,0,1-.077-.371,2.89,2.89,0,0,1-.873.6,3.64,3.64,0,0,1-1.377.241,2.3,2.3,0,0,1-1.583-.482,1.532,1.532,0,0,1-.541-1.19,1.561,1.561,0,0,1,.389-1.093,2.641,2.641,0,0,1,1.438-.636q1.257-.252,1.629-.354a7.6,7.6,0,0,0,.79-.266.786.786,0,0,0-.169-.576.855.855,0,0,0-.6-.164,1.545,1.545,0,0,0-.823.176.964.964,0,0,0-.339.514Zm1.937,1.175q-.461.165-.96.291a2.217,2.217,0,0,0-.861.356.572.572,0,0,0,0,.843.777.777,0,0,0,.541.167,1.381,1.381,0,0,0,.694-.181,1.1,1.1,0,0,0,.456-.442,1.479,1.479,0,0,0,.134-.677Z" transform="translate(-3406.283 -2937.877)"/>
      <path id="Trazado_873892" data-name="Trazado 873892" d="M3441.658,2940.095h2.091v.955a2.276,2.276,0,0,1,.623-.853,1.31,1.31,0,0,1,.792-.233,2.367,2.367,0,0,1,1.082.307l-.691,1.592a1.752,1.752,0,0,0-.626-.165.772.772,0,0,0-.681.362,3.68,3.68,0,0,0-.346,1.911v1.953h-2.245Z" transform="translate(-3415.131 -2937.877)"/>
      <path id="Trazado_873893" data-name="Trazado 873893" d="M3452.439,2935.51h2.234v1.521h-2.234Zm0,2.217h2.234v5.828h-2.234Z" transform="translate(-3420.864 -2935.51)"/>
      <path id="Trazado_873894" data-name="Trazado 873894" d="M3460.42,2935.51h2.238v8.045h-2.238Z" transform="translate(-3425.108 -2935.51)"/>
      <path id="Trazado_873895" data-name="Trazado 873895" d="M3468.412,2935.51h2.239v8.045h-2.239Z" transform="translate(-3429.358 -2935.51)"/>
      <path id="Trazado_873896" data-name="Trazado 873896" d="M3475.654,2943.025a2.917,2.917,0,0,1,.9-2.2,3.9,3.9,0,0,1,5.076.151,3.175,3.175,0,0,1-.173,4.217,3.41,3.41,0,0,1-2.467.859,3.461,3.461,0,0,1-2.272-.714,2.864,2.864,0,0,1-1.064-2.312Zm2.239,0a1.759,1.759,0,0,0,.315,1.152,1.034,1.034,0,0,0,1.586.006,1.817,1.817,0,0,0,.31-1.18,1.716,1.716,0,0,0-.313-1.127.974.974,0,0,0-.774-.37,1.012,1.012,0,0,0-.807.376,1.74,1.74,0,0,0-.317,1.143Z" transform="translate(-3433.208 -2937.877)"/>
    </g>
    <g id="Grupo_1099644" data-name="Grupo 1099644" transform="translate(1169.263 23678.299)">
      <path id="Trazado_873897" data-name="Trazado 873897" d="M3310.506,2981.511h2.255v2.788a2.2,2.2,0,0,1,.76-.527,2.454,2.454,0,0,1,.941-.176,2.279,2.279,0,0,1,1.761.764,3.155,3.155,0,0,1,.7,2.2,4.152,4.152,0,0,1-.319,1.682,2.367,2.367,0,0,1-.88,1.087,2.276,2.276,0,0,1-1.249.36,2.3,2.3,0,0,1-1.076-.252,2.816,2.816,0,0,1-.8-.74v.861h-2.091Zm2.239,5.115a1.688,1.688,0,0,0,.283,1.089.894.894,0,0,0,.716.337.836.836,0,0,0,.673-.332,1.783,1.783,0,0,0,.272-1.117,1.587,1.587,0,0,0-.266-1.015.81.81,0,0,0-.645-.324.936.936,0,0,0-.744.338A1.546,1.546,0,0,0,3312.745,2986.626Z" transform="translate(-3310.506 -2981.511)"/>
      <path id="Trazado_873898" data-name="Trazado 873898" d="M3326.654,2981.511h2.239v8.045h-2.239Z" transform="translate(-3319.092 -2981.511)"/>
      <path id="Trazado_873899" data-name="Trazado 873899" d="M3336.207,2987.984l-2.135-.225a2.4,2.4,0,0,1,.349-.881,1.922,1.922,0,0,1,.656-.557,2.733,2.733,0,0,1,.845-.264,6.8,6.8,0,0,1,1.163-.093,9.313,9.313,0,0,1,1.613.112,2.071,2.071,0,0,1,1.015.469,1.643,1.643,0,0,1,.45.7,2.537,2.537,0,0,1,.165.864v2.574a3.105,3.105,0,0,0,.052.645,2.928,2.928,0,0,0,.228.6h-2.1a2.162,2.162,0,0,1-.165-.343,2.67,2.67,0,0,1-.076-.371,2.889,2.889,0,0,1-.872.6,3.629,3.629,0,0,1-1.377.241,2.3,2.3,0,0,1-1.583-.483,1.533,1.533,0,0,1-.54-1.19,1.563,1.563,0,0,1,.39-1.092,2.632,2.632,0,0,1,1.438-.636q1.256-.253,1.63-.354a7.634,7.634,0,0,0,.791-.266.791.791,0,0,0-.17-.576.856.856,0,0,0-.6-.164,1.543,1.543,0,0,0-.823.176.952.952,0,0,0-.344.514Zm1.937,1.174q-.461.165-.961.291a2.217,2.217,0,0,0-.861.357.571.571,0,0,0,0,.842.776.776,0,0,0,.541.167,1.393,1.393,0,0,0,.694-.181,1.1,1.1,0,0,0,.456-.442,1.482,1.482,0,0,0,.135-.678Z" transform="translate(-3322.943 -2983.879)"/>
      <path id="Trazado_873900" data-name="Trazado 873900" d="M3350.49,2986.1h2.08v.949a3.1,3.1,0,0,1,.943-.831,2.489,2.489,0,0,1,1.164-.251,1.905,1.905,0,0,1,1.452.552,2.4,2.4,0,0,1,.524,1.7v3.7h-2.245v-3.2a1.17,1.17,0,0,0-.2-.777.727.727,0,0,0-.571-.228.814.814,0,0,0-.659.307,1.792,1.792,0,0,0-.252,1.1v2.8h-2.234Z" transform="translate(-3331.767 -2983.879)"/>
      <path id="Trazado_873901" data-name="Trazado 873901" d="M3370.539,2989.641l2.124.242a2.978,2.978,0,0,1-.576,1.149,2.677,2.677,0,0,1-1.023.755,4.023,4.023,0,0,1-1.583.269,5.832,5.832,0,0,1-1.545-.173,2.693,2.693,0,0,1-1.062-.559,2.825,2.825,0,0,1-.7-.907,3.205,3.205,0,0,1-.251-1.381,3.261,3.261,0,0,1,.306-1.5,2.7,2.7,0,0,1,.615-.787,2.815,2.815,0,0,1,.8-.518,4.429,4.429,0,0,1,1.673-.269,3.854,3.854,0,0,1,2.176.51,2.685,2.685,0,0,1,1.051,1.492l-2.1.28a.978.978,0,0,0-.36-.562,1.171,1.171,0,0,0-.7-.189,1.128,1.128,0,0,0-.9.4,1.8,1.8,0,0,0-.343,1.2,1.572,1.572,0,0,0,.34,1.091,1.127,1.127,0,0,0,.867.372,1.191,1.191,0,0,0,.738-.225,1.335,1.335,0,0,0,.454-.689Z" transform="translate(-3339.973 -2983.879)"/>
      <path id="Trazado_873902" data-name="Trazado 873902" d="M3381.92,2989.026a2.915,2.915,0,0,1,.9-2.2,3.9,3.9,0,0,1,5.075.15,3.173,3.173,0,0,1-.173,4.218,3.412,3.412,0,0,1-2.467.859,3.46,3.46,0,0,1-2.272-.713,2.866,2.866,0,0,1-1.064-2.314Zm2.239-.006a1.759,1.759,0,0,0,.316,1.153,1.035,1.035,0,0,0,1.586.006,1.822,1.822,0,0,0,.31-1.18,1.718,1.718,0,0,0-.313-1.128.972.972,0,0,0-.773-.37,1.01,1.01,0,0,0-.807.376,1.733,1.733,0,0,0-.319,1.143Z" transform="translate(-3348.479 -2983.879)"/>
    </g>
    <g id="Grupo_1099645" data-name="Grupo 1099645" transform="translate(1162.937 23721.957)">
      <path id="Trazado_873903" data-name="Trazado 873903" d="M3296.994,3079.329h2.085v.851a2.907,2.907,0,0,1,.91-.757,2.489,2.489,0,0,1,1.107-.225,2.111,2.111,0,0,1,1.1.248,1.836,1.836,0,0,1,.665.735,3.357,3.357,0,0,1,.959-.776,2.481,2.481,0,0,1,1.069-.206,1.914,1.914,0,0,1,1.463.556,2.47,2.47,0,0,1,.526,1.742v3.66h-2.239v-3.32a.933.933,0,0,0-.153-.587.672.672,0,0,0-.558-.3.79.79,0,0,0-.634.285,1.411,1.411,0,0,0-.241.917v3.007h-2.239v-3.21a2,2,0,0,0-.044-.521.713.713,0,0,0-.248-.354.664.664,0,0,0-.413-.135.794.794,0,0,0-.633.291,1.468,1.468,0,0,0-.248.955v2.974h-2.239Z" transform="translate(-3296.994 -3077.112)" fill="#fff"/>
      <path id="Trazado_873904" data-name="Trazado 873904" d="M3322.683,3081.218l-2.135-.226a2.388,2.388,0,0,1,.348-.881,1.914,1.914,0,0,1,.656-.557,2.734,2.734,0,0,1,.845-.262,6.8,6.8,0,0,1,1.163-.094,9.254,9.254,0,0,1,1.614.112,2.084,2.084,0,0,1,1.015.469,1.653,1.653,0,0,1,.45.7,2.534,2.534,0,0,1,.164.864v2.573a3.088,3.088,0,0,0,.053.645,2.864,2.864,0,0,0,.227.6h-2.1a2.132,2.132,0,0,1-.165-.343,2.557,2.557,0,0,1-.077-.37,2.88,2.88,0,0,1-.872.6,3.64,3.64,0,0,1-1.378.242,2.307,2.307,0,0,1-1.583-.483,1.537,1.537,0,0,1-.54-1.191,1.56,1.56,0,0,1,.39-1.092,2.637,2.637,0,0,1,1.438-.637q1.257-.252,1.63-.353a7.565,7.565,0,0,0,.79-.266.787.787,0,0,0-.17-.576.852.852,0,0,0-.6-.165,1.547,1.547,0,0,0-.823.177A.958.958,0,0,0,3322.683,3081.218Zm1.937,1.174q-.461.164-.96.291a2.216,2.216,0,0,0-.862.355.571.571,0,0,0,0,.844.782.782,0,0,0,.541.167,1.393,1.393,0,0,0,.694-.181,1.1,1.1,0,0,0,.455-.442,1.478,1.478,0,0,0,.135-.678Z" transform="translate(-3309.426 -3077.112)" fill="#fff"/>
      <path id="Trazado_873905" data-name="Trazado 873905" d="M3341.1,3079.329h2.091v5.5l0,.258a2.432,2.432,0,0,1-.233,1.046,2.187,2.187,0,0,1-.621.8,2.438,2.438,0,0,1-.981.447,6.148,6.148,0,0,1-1.363.137,4.017,4.017,0,0,1-2.412-.527,1.718,1.718,0,0,1-.656-1.411c0-.073,0-.172.011-.3l2.167.247a.7.7,0,0,0,.253.417,1.066,1.066,0,0,0,.62.17.937.937,0,0,0,.722-.258,1.329,1.329,0,0,0,.239-.9v-.884a2.177,2.177,0,0,1-1.773.84,2.213,2.213,0,0,1-1.888-1.021,3.265,3.265,0,0,1-.509-1.915,2.952,2.952,0,0,1,.658-2.074,2.235,2.235,0,0,1,1.723-.714,2.414,2.414,0,0,1,1.123.23,2.45,2.45,0,0,1,.826.763Zm-2.1,2.827a1.382,1.382,0,0,0,.27.936.953.953,0,0,0,1.407-.011,1.387,1.387,0,0,0,.282-.952,1.436,1.436,0,0,0-.3-.974.932.932,0,0,0-.725-.337.839.839,0,0,0-.683.31,1.628,1.628,0,0,0-.252,1.028Z" transform="translate(-3318.143 -3077.112)" fill="#fff"/>
      <path id="Trazado_873906" data-name="Trazado 873906" d="M3359.514,3082.8h-4.479a1.446,1.446,0,0,0,.291.8,1.057,1.057,0,0,0,.845.378,1.262,1.262,0,0,0,.626-.164,1.474,1.474,0,0,0,.389-.368l2.2.2a3.157,3.157,0,0,1-1.218,1.26,4.432,4.432,0,0,1-2.047.381,4.2,4.2,0,0,1-1.822-.326,2.679,2.679,0,0,1-1.1-1.038,3.132,3.132,0,0,1-.436-1.67,2.938,2.938,0,0,1,.875-2.212,3.337,3.337,0,0,1,2.417-.845,4.3,4.3,0,0,1,1.976.379,2.553,2.553,0,0,1,1.1,1.1,4,4,0,0,1,.379,1.871Zm-2.272-1.07a1.5,1.5,0,0,0-.348-.928,1.092,1.092,0,0,0-1.593.143,1.548,1.548,0,0,0-.259.785Z" transform="translate(-3326.648 -3077.112)" fill="#fff"/>
      <path id="Trazado_873907" data-name="Trazado 873907" d="M3369.369,3079.329h2.08v.95a3.1,3.1,0,0,1,.943-.832,2.5,2.5,0,0,1,1.164-.25,1.906,1.906,0,0,1,1.451.552,2.4,2.4,0,0,1,.525,1.7v3.7h-2.245v-3.205a1.168,1.168,0,0,0-.2-.776.726.726,0,0,0-.57-.228.813.813,0,0,0-.659.307,1.789,1.789,0,0,0-.252,1.1v2.8h-2.234Z" transform="translate(-3335.478 -3077.112)" fill="#fff"/>
      <path id="Trazado_873908" data-name="Trazado 873908" d="M3387.654,3074.745v2.217h1.229v1.635h-1.229v2.064a1.117,1.117,0,0,0,.072.494.409.409,0,0,0,.384.186,2.485,2.485,0,0,0,.691-.143l.165,1.542a7.262,7.262,0,0,1-1.548.181,2.689,2.689,0,0,1-1.229-.214,1.3,1.3,0,0,1-.584-.65,3.805,3.805,0,0,1-.189-1.411v-2.05h-.823v-1.635h.823v-1.07Z" transform="translate(-3343.572 -3074.745)" fill="#fff"/>
      <path id="Trazado_873909" data-name="Trazado 873909" d="M3397.754,3081.218l-2.135-.226a2.4,2.4,0,0,1,.349-.881,1.916,1.916,0,0,1,.655-.557,2.738,2.738,0,0,1,.845-.263,6.751,6.751,0,0,1,1.163-.094,9.222,9.222,0,0,1,1.613.112,2.083,2.083,0,0,1,1.014.469,1.642,1.642,0,0,1,.45.7,2.531,2.531,0,0,1,.165.864v2.573a3.143,3.143,0,0,0,.052.645,2.892,2.892,0,0,0,.227.6h-2.1a2.153,2.153,0,0,1-.165-.343,2.619,2.619,0,0,1-.076-.37,2.9,2.9,0,0,1-.873.6,3.64,3.64,0,0,1-1.378.242,2.3,2.3,0,0,1-1.583-.483,1.534,1.534,0,0,1-.541-1.191,1.56,1.56,0,0,1,.39-1.092,2.635,2.635,0,0,1,1.438-.637q1.256-.252,1.629-.353a7.618,7.618,0,0,0,.792-.266.783.783,0,0,0-.171-.576.852.852,0,0,0-.6-.165,1.549,1.549,0,0,0-.823.176A.957.957,0,0,0,3397.754,3081.218Zm1.938,1.174c-.308.109-.628.207-.961.291a2.212,2.212,0,0,0-.862.356.572.572,0,0,0,0,.843.783.783,0,0,0,.541.167,1.388,1.388,0,0,0,.694-.181,1.1,1.1,0,0,0,.456-.442,1.488,1.488,0,0,0,.135-.678Z" transform="translate(-3349.342 -3077.112)" fill="#fff"/>
    </g>
    <g id="Grupo_1099646" data-name="Grupo 1099646" transform="translate(1134.777 23656.758)">
      <path id="Trazado_873910" data-name="Trazado 873910" d="M3241.476,2943.639l2.124.242a2.969,2.969,0,0,1-.576,1.149,2.66,2.66,0,0,1-1.023.755,4.022,4.022,0,0,1-1.583.269,5.82,5.82,0,0,1-1.544-.173,2.706,2.706,0,0,1-1.062-.559,2.837,2.837,0,0,1-.7-.908,3.191,3.191,0,0,1-.252-1.381,3.254,3.254,0,0,1,.308-1.5,2.68,2.68,0,0,1,.615-.786,2.831,2.831,0,0,1,.8-.519,4.461,4.461,0,0,1,1.674-.269,3.86,3.86,0,0,1,2.176.51,2.694,2.694,0,0,1,1.051,1.493l-2.1.28a.976.976,0,0,0-.36-.562,1.167,1.167,0,0,0-.7-.19,1.132,1.132,0,0,0-.9.4,1.8,1.8,0,0,0-.343,1.2,1.567,1.567,0,0,0,.341,1.091,1.124,1.124,0,0,0,.867.372,1.2,1.2,0,0,0,.738-.225,1.337,1.337,0,0,0,.449-.689Z" transform="translate(-3236.861 -2937.877)"/>
      <path id="Trazado_873911" data-name="Trazado 873911" d="M3253.619,2935.51h2.234v1.521h-2.234Zm0,2.217h2.234v5.828h-2.234Z" transform="translate(-3245.772 -2935.51)"/>
      <path id="Trazado_873912" data-name="Trazado 873912" d="M3263.16,2941.982l-2.135-.224a2.4,2.4,0,0,1,.348-.881,1.924,1.924,0,0,1,.656-.556,2.751,2.751,0,0,1,.845-.264,6.873,6.873,0,0,1,1.163-.093,9.326,9.326,0,0,1,1.614.112,2.072,2.072,0,0,1,1.015.469,1.642,1.642,0,0,1,.45.7,2.526,2.526,0,0,1,.165.864v2.574a3.108,3.108,0,0,0,.052.645,2.929,2.929,0,0,0,.228.6h-2.1a2.1,2.1,0,0,1-.164-.343,2.463,2.463,0,0,1-.077-.371,2.9,2.9,0,0,1-.873.6,3.64,3.64,0,0,1-1.377.241,2.3,2.3,0,0,1-1.583-.483,1.532,1.532,0,0,1-.54-1.19,1.558,1.558,0,0,1,.389-1.093,2.637,2.637,0,0,1,1.437-.636q1.258-.252,1.63-.354a7.621,7.621,0,0,0,.79-.266.788.788,0,0,0-.17-.576.855.855,0,0,0-.6-.164,1.547,1.547,0,0,0-.823.176.958.958,0,0,0-.339.514Zm1.937,1.175c-.306.11-.627.207-.96.291a2.222,2.222,0,0,0-.862.356.572.572,0,0,0,0,.843.777.777,0,0,0,.541.167,1.389,1.389,0,0,0,.694-.18,1.092,1.092,0,0,0,.455-.442,1.475,1.475,0,0,0,.134-.677Z" transform="translate(-3249.617 -2937.877)"/>
      <path id="Trazado_873913" data-name="Trazado 873913" d="M3277.443,2940.095h2.08v.949a3.113,3.113,0,0,1,.943-.832,2.491,2.491,0,0,1,1.164-.25,1.9,1.9,0,0,1,1.451.552,2.4,2.4,0,0,1,.524,1.7v3.7h-2.245v-3.2a1.161,1.161,0,0,0-.2-.776.723.723,0,0,0-.57-.228.809.809,0,0,0-.658.306,1.785,1.785,0,0,0-.253,1.1v2.8h-2.234Z" transform="translate(-3258.439 -2937.877)"/>
    </g>
  </g>
</svg>
