<svg xmlns="http://www.w3.org/2000/svg" xmlns:xlink="http://www.w3.org/1999/xlink" width="342.354" height="536.512" viewBox="0 0 342.354 536.512">
  <defs>
    <linearGradient id="linear-gradient" x1="0.5" x2="0.5" y2="1" gradientUnits="objectBoundingBox">
      <stop offset="0" stop-color="#fff"/>
      <stop offset="1" stop-color="#d3d3d3"/>
    </linearGradient>
  </defs>
  <g id="Grupo_1100945" data-name="Grupo 1100945" transform="translate(-178.991 -20866.818)">
    <g id="f33.fdeb9b32" transform="translate(-28.31 783.942)">
      <g id="Grupo_1099601" data-name="Grupo 1099601" transform="translate(444.475 20082.873)">
        <g id="Grupo_1099598" data-name="Grupo 1099598" transform="translate(4.055 2.665)">
          <path id="Trazado_873744" data-name="Trazado 873744" d="M291.023,1347.132a7.468,7.468,0,0,1-10.173,2.726l-30.262-17.471a7.469,7.469,0,0,1-2.727-10.174l55.983-96.965a7.469,7.469,0,0,1,10.172-2.725l30.262,17.471A7.471,7.471,0,0,1,347,1250.167Z" transform="translate(-246.869 -1221.531)" fill="#d8dff5"/>
          <path id="Trazado_873745" data-name="Trazado 873745" d="M497.2,1307.527l-43.162-24.92,11.7-20.272,43.161,24.918Z" transform="translate(-411.462 -1253.949)" fill="#7d6eb2"/>
          <rect id="Rectángulo_401462" data-name="Rectángulo 401462" width="23.41" height="49.838" transform="matrix(0.5, -0.866, 0.866, 0.5, 26.026, 57.323)" fill="#402f7c" opacity="0.75"/>
          <rect id="Rectángulo_401463" data-name="Rectángulo 401463" width="23.409" height="49.837" transform="translate(9.477 85.988) rotate(-60)" fill="#1f1164" opacity="0.5"/>
          <path id="Trazado_873746" data-name="Trazado 873746" d="M415.037,1792.63a3.776,3.776,0,1,0,5.158-1.38,3.776,3.776,0,0,0-5.158,1.38Z" transform="translate(-380.074 -1673.764)" fill="#8076f5"/>
        </g>
        <g id="Grupo_1099599" data-name="Grupo 1099599" transform="translate(0.869)">
          <path id="Trazado_873747" data-name="Trazado 873747" d="M279.761,1335.132a7.47,7.47,0,0,1-9.122,5.265l-33.753-9.046a7.466,7.466,0,0,1-5.265-9.119l28.979-108.15a7.472,7.472,0,0,1,9.122-5.268l33.752,9.045a7.47,7.47,0,0,1,5.266,9.12Z" transform="translate(-231.369 -1208.562)" fill="#eceffa"/>
          <rect id="Rectángulo_401464" data-name="Rectángulo 401464" width="23.409" height="49.838" transform="matrix(0.259, -0.966, 0.966, 0.259, 21.777, 33.337)" fill="#aee6e6"/>
          <path id="Trazado_873748" data-name="Trazado 873748" d="M343.788,1451.842l-48.139-12.9,6.058-22.612,48.14,12.9Z" transform="translate(-282.439 -1373.631)" fill="#167377" opacity="0.75"/>
          <rect id="Rectángulo_401465" data-name="Rectángulo 401465" width="23.41" height="49.837" transform="translate(4.644 97.283) rotate(-74.991)" fill="#26aab7" opacity="0.5"/>
          <path id="Trazado_873749" data-name="Trazado 873749" d="M414.661,1793.54a3.775,3.775,0,1,0,4.624-2.669,3.775,3.775,0,0,0-4.624,2.669Z" transform="translate(-376.89 -1671.097)" fill="#8076f5"/>
        </g>
        <g id="Grupo_1099600" data-name="Grupo 1099600" transform="translate(0 5.245)">
          <path id="Trazado_873750" data-name="Trazado 873750" d="M276.979,1353.5a7.47,7.47,0,0,1-7.448,7.447H234.587a7.469,7.469,0,0,1-7.447-7.447V1241.531a7.467,7.467,0,0,1,7.447-7.446h34.945a7.469,7.469,0,0,1,7.448,7.446Z" transform="translate(-227.14 -1234.085)" fill="#fff"/>
          <rect id="Rectángulo_401466" data-name="Rectángulo 401466" width="49.839" height="23.41" transform="translate(0 12.835)" fill="#f5ca56"/>
          <rect id="Rectángulo_401467" data-name="Rectángulo 401467" width="49.839" height="23.409" transform="translate(0 45.936)" fill="#f9c869" opacity="0.75"/>
          <rect id="Rectángulo_401468" data-name="Rectángulo 401468" width="49.839" height="23.41" transform="translate(0 79.036)" fill="#ffce83" opacity="0.5"/>
          <path id="Trazado_873751" data-name="Trazado 873751" d="M414.541,1794.521a3.775,3.775,0,1,0,3.774-3.777,3.775,3.775,0,0,0-3.774,3.777Z" transform="translate(-376.028 -1676.345)" fill="#00223d"/>
        </g>
      </g>
      <g id="Grupo_1099602" data-name="Grupo 1099602" transform="translate(327.104 20288.094)">
        <path id="Trazado_873752" data-name="Trazado 873752" d="M1322.931,1187.8a44.083,44.083,0,1,1,9.435-61.626A44.083,44.083,0,0,1,1322.931,1187.8Zm-5.269-9.614h0a33.248,33.248,0,0,0,5.09-46.742h0a33.248,33.248,0,0,0-46.743-5.091h0a33.247,33.247,0,0,0-5.09,46.743h0a33.247,33.247,0,0,0,46.743,5.091Z" transform="translate(-1222.625 -1078.463)" fill="url(#linear-gradient)"/>
        <path id="Trazado_873753" data-name="Trazado 873753" d="M1295,1177.9c-1.054.2-1.752-.542-3.5-2.371-3.126-3.274-6.253-6.549-9.489-9.709a2.924,2.924,0,0,0-2.413-.518c-4.262,1.209-8.451,2.675-12.724,3.84-1.324.36-1.945.755-2.2,2.179-1.015,5.691-2.189,11.354-3.291,16.967-5.208.816-18.168-.444-22.368-2.221.075-5.507.066-11.137.279-16.757.066-1.75-.367-2.453-2.046-3.21a115.991,115.991,0,0,1-11.32-6.047c-1.492-.883-2.53-1.254-4.117-.129-4.115,2.913-8.407,5.577-12.573,8.422-1.119.765-1.982.842-2.848-.219q-6.111-7.484-12.214-14.972c-1-1.227.064-1.91.749-2.6,3.462-3.463,6.906-6.947,10.481-10.291a3.167,3.167,0,0,0,.887-4.037c-1.707-4.629-3.112-9.37-4.754-14.426l-18.114-3.632a66.053,66.053,0,0,1,2.44-22.218l18.106.177c2.917-5.12,5.514-9.922,8.38-14.556a2.489,2.489,0,0,0-.06-3.279c-2.81-4.1-5.493-8.287-8.274-12.407-.6-.891-.929-1.591-.066-2.521a63.106,63.106,0,0,1,14.654-12.192,1.984,1.984,0,0,1,2.852.451c3.586,3.652,7.242,7.236,10.813,10.9a2.306,2.306,0,0,0,2.834.724c4.636-1.488,9.345-2.777,14.075-3.943a1.959,1.959,0,0,0,1.71-1.858c1.136-5.671,2.314-11.333,3.508-17.144a70.866,70.866,0,0,1,22,2.186c-.063,6.409-.126,12.776-.184,18.87l16.293,8.769c3.7-2.436,7.938-5.272,12.224-8.038,3.519-2.269,2.8-2.612,5.954.566a6.938,6.938,0,0,0,1.073.743q3.626,4.511,7.251,9.025a13.822,13.822,0,0,0,1.266,2.275c1.416,1.709,1.417,2.993-.368,4.625-3.717,3.4-7.223,7.034-10.729,10.656a2.677,2.677,0,0,0-.542,2.171c1.116,4.214,2.6,8.343,3.49,12.6.436,2.082,1.3,2.684,3.2,3.029,5.39.979,10.741,2.18,16.646,3.4-.74,7.45-1.461,14.718-2.188,22.067-1.4.013-2.208.034-3.013.025-4.969-.049-10.5.537-15.465.4-1.411-.04-1.976.5-2.619,1.715-2.209,4.174-4.126,7.616-6.364,11.776a2.954,2.954,0,0,0,.113,2.5c2.154,3.46,4.5,6.8,6.721,10.221,1.8,2.766,2.457,3.8,1.862,5.147Zm-10.474-27.082a21.936,21.936,0,1,0,.005,0Z" transform="translate(-1183.3 -1040.225)" fill="url(#linear-gradient)"/>
      </g>
      <g id="Grupo_1099626" data-name="Grupo 1099626" transform="translate(207.301 20137.781)">
        <g id="Grupo_1099603" data-name="Grupo 1099603" transform="translate(0 62.908)">
          <path id="Trazado_873754" data-name="Trazado 873754" d="M729.887,1473.615h46.588a10.441,10.441,0,0,1,10.442,10.442v21.717a10.442,10.442,0,0,1-10.441,10.441h-.347l3.739,12.527a.594.594,0,0,1-.929.641l-17.262-13.168h-31.79a10.442,10.442,0,0,1-10.442-10.441v-21.718A10.441,10.441,0,0,1,729.887,1473.615Z" transform="translate(-719.445 -1473.615)" fill="#dee7f3"/>
          <path id="Trazado_873755" data-name="Trazado 873755" d="M805.546,1524.172H760.817a5.169,5.169,0,0,1-5.169-5.169h0a5.169,5.169,0,0,1,5.169-5.168h44.729a5.168,5.168,0,0,1,5.168,5.168h0a5.168,5.168,0,0,1-5.169,5.169Z" transform="translate(-748.538 -1505.935)" fill="#00223d" opacity="0.25"/>
          <path id="Trazado_873756" data-name="Trazado 873756" d="M805.546,1604.531H760.817a5.168,5.168,0,0,1-5.169-5.169h0a5.168,5.168,0,0,1,5.17-5.169h44.728a5.168,5.168,0,0,1,5.168,5.169h0a5.168,5.168,0,0,1-5.168,5.168Z" transform="translate(-748.538 -1570.51)" fill="#00223d" opacity="0.25"/>
        </g>
        <g id="Grupo_1099604" data-name="Grupo 1099604" transform="translate(156.988 50.757)">
          <path id="Trazado_873757" data-name="Trazado 873757" d="M776.474,1473.615H729.887a10.441,10.441,0,0,0-10.442,10.442v21.717a10.442,10.442,0,0,0,10.441,10.441h.347l-3.739,12.527a.594.594,0,0,0,.929.641l17.262-13.168h31.79a10.441,10.441,0,0,0,10.442-10.442v-21.717A10.441,10.441,0,0,0,776.474,1473.615Z" transform="translate(-719.445 -1473.615)" fill="#dee7f3"/>
          <path id="Trazado_873758" data-name="Trazado 873758" d="M760.817,1524.172h44.728a5.168,5.168,0,0,0,5.168-5.169h0a5.168,5.168,0,0,0-5.168-5.168H760.817a5.168,5.168,0,0,0-5.168,5.168h0a5.168,5.168,0,0,0,5.169,5.169Z" transform="translate(-750.354 -1505.935)" fill="#00223d" opacity="0.25"/>
          <path id="Trazado_873759" data-name="Trazado 873759" d="M760.817,1604.531h44.728a5.168,5.168,0,0,0,5.168-5.168h0a5.168,5.168,0,0,0-5.169-5.169H760.817a5.168,5.168,0,0,0-5.168,5.169h0a5.168,5.168,0,0,0,5.168,5.168Z" transform="translate(-750.354 -1570.51)" fill="#00223d" opacity="0.25"/>
        </g>
        <g id="Grupo_1099616" data-name="Grupo 1099616" transform="translate(43.168 18.449)">
          <g id="Grupo_1099611" data-name="Grupo 1099611" transform="translate(31.979)">
            <path id="Trazado_873760" data-name="Trazado 873760" d="M1209.69,1625.025h.015l11.762.044,2.663,27.784-13.73,7.247-14.644-7.167,2.366-27.866Z" transform="translate(-1166.009 -1560.415)" fill="#e49963"/>
            <g id="Grupo_1099610" data-name="Grupo 1099610">
              <path id="Trazado_873761" data-name="Trazado 873761" d="M1148.858,1537.43c7.241,18.092,24.629,28.148,38.838,22.461s19.859-24.962,12.619-43.052-24.628-28.149-38.838-22.462S1141.619,1519.339,1148.858,1537.43Z" transform="translate(-1137.496 -1485.082)" fill="#e49963"/>
              <path id="Trazado_873762" data-name="Trazado 873762" d="M1257.62,1556.94a2.661,2.661,0,1,0,.665-3.7A2.661,2.661,0,0,0,1257.62,1556.94Z" transform="translate(-1200.981 -1519.245)"/>
              <path id="Trazado_873763" data-name="Trazado 873763" d="M1211.239,1575.391a2.881,2.881,0,1,0,.719-4.01A2.881,2.881,0,0,0,1211.239,1575.391Z" transform="translate(-1174.536 -1529.561)"/>
              <path id="Trazado_873764" data-name="Trazado 873764" d="M1248.857,1572.347c3.6,2.837,8.1,6.26,8.1,6.26s.046,4.338-5.024,6.219c1.836-1.664,3.445-3.877,1.536-6.434S1248.857,1572.347,1248.857,1572.347Z" transform="translate(-1196.26 -1530.405)" fill="#d68d5d"/>
              <g id="Grupo_1099605" data-name="Grupo 1099605" transform="translate(30.129 36.805)">
                <path id="Trazado_873765" data-name="Trazado 873765" d="M1197.974,1567.7a1.33,1.33,0,0,1-1.293-1.637c.465-1.948,2.414-5.637,6.464-5.656a1.328,1.328,0,1,1,.013,2.656c-3,.014-3.885,3.58-3.893,3.617A1.328,1.328,0,0,1,1197.974,1567.7Z" transform="translate(-1196.645 -1560.41)" fill="#201d40"/>
              </g>
              <g id="Grupo_1099606" data-name="Grupo 1099606" transform="translate(52.746 27.886)">
                <path id="Trazado_873766" data-name="Trazado 873766" d="M1250.309,1543.862a1.107,1.107,0,0,1-.953-1.667,5.453,5.453,0,0,1,3.41-2.437,5.672,5.672,0,0,1,4.612,1.462,1.107,1.107,0,0,1-1.382,1.729,3.6,3.6,0,0,0-2.827-1.014,3.2,3.2,0,0,0-1.9,1.379A1.108,1.108,0,0,1,1250.309,1543.862Z" transform="translate(-1249.203 -1539.683)" fill="#201d40"/>
              </g>
              <path id="Trazado_873767" data-name="Trazado 873767" d="M1128.1,1513.716c-6.123-17.434,8.793-27.457,8.793-27.457s-4-.358-4.48-5.978a14.784,14.784,0,0,0,9.3-.2c19.882-7.2,33.572-7.1,33.572,1.406,0,3.028,13.13.953,12.03,21.322.077-1.438-4.614-9.811-9.048-10.647-4.45-.839-.432,5.091-9.7,6.362-9.35,1.284-16.224-.986-21.935,4.285-4.469,4.6-5.576,28-4.9,29.407C1140.19,1528.987,1130.8,1521.378,1128.1,1513.716Z" transform="translate(-1126.629 -1474.88)" fill="#00223d"/>
              <path id="Trazado_873768" data-name="Trazado 873768" d="M1212.183,1572.347s.846,10.616-.684,13.9c-1.594-4.257-5.014.254-8.226.679-7.762,1.026-21.767-1.561-23.154,10.082-9.486,3-18.373-17.3-18.373-17.3-.545,22.685,16.056,35.568,39.945,31.793C1217.43,1609.01,1218.889,1587.094,1212.183,1572.347Z" transform="translate(-1146.626 -1530.405)" fill="#00223d"/>
              <g id="Grupo_1099607" data-name="Grupo 1099607" transform="translate(43.934 57.409)">
                <path id="Trazado_873769" data-name="Trazado 873769" d="M1233.985,1614.574a20.139,20.139,0,0,1-4.792-1.879.886.886,0,1,1,.836-1.562c3.674,1.965,6.969,2.524,9.792,1.662a9.238,9.238,0,0,0,5.1-4.034.886.886,0,0,1,1.569.822,10.887,10.887,0,0,1-6.117,4.9,11.968,11.968,0,0,1-6.388.091Z" transform="translate(-1228.725 -1608.291)" fill="#d68d5d"/>
              </g>
              <g id="Grupo_1099609" data-name="Grupo 1099609" transform="translate(3.606 48.186)">
                <path id="Trazado_873770" data-name="Trazado 873770" d="M1146.3,1588.12c4,2.243,5.746,6.713,3.909,9.983s-6.564,4.1-10.56,1.856-5.745-6.714-3.909-9.984S1142.3,1585.875,1146.3,1588.12Z" transform="translate(-1135.008 -1586.858)" fill="#e49963"/>
                <g id="Grupo_1099608" data-name="Grupo 1099608" transform="translate(4.455 3.698)">
                  <path id="Trazado_873771" data-name="Trazado 873771" d="M1151.587,1602.81a1.018,1.018,0,0,0,.306-.346,4.529,4.529,0,0,0-.482-5.542,4.829,4.829,0,0,0-5.5-1.008,1,1,0,1,0,.9,1.788,2.86,2.86,0,0,1,3.16.618,2.567,2.567,0,0,1,.154,3.194,1,1,0,0,0,1.458,1.3Z" transform="translate(-1145.361 -1595.453)" fill="#d68d5d"/>
                </g>
              </g>
            </g>
          </g>
          <path id="Trazado_873772" data-name="Trazado 873772" d="M1243.838,2477.281c2.5-6.8,7.854-7.555,7.854-7.555,10.4,14.351,35.944,5.544,35.1,24.956-38.843-.252-54.986,0-54.986,0,.051-4.458.819-15.04,1.715-19.183l2.023.372Z" transform="translate(-1154.568 -2041.628)" fill="#7d6eb2"/>
          <path id="Trazado_873773" data-name="Trazado 873773" d="M1108.783,2478.154c2.5-6.8,7.855-7.553,7.855-7.553,10.4,14.349,35.944,5.544,35.1,24.952-38.843-.248-54.986,0-54.986,0,.051-4.456.819-15.037,1.714-19.179l2.025.371Z" transform="translate(-1077.63 -2042.125)" fill="#36c"/>
          <path id="Trazado_873774" data-name="Trazado 873774" d="M1253.465,1960.59s6.306,91.977,3.745,112.427-11.635,46.665-10.606,114.3c-12.662,3.169-31.007,0-31.007,0s-2.719-76.48,10.666-110.641c-5.443-33.182-22.91-109.18-22.91-109.18Z" transform="translate(-1138.359 -1751.581)" fill="#213755"/>
          <path id="Trazado_873775" data-name="Trazado 873775" d="M1166.442,1966.431s-12.734,103.262-18.967,122.848-18.39,36.147-29.676,102.778c-13.012.652-25.13,0-25.13,0s1.757-84.518,22.023-103.74c.685-33.648-3.278-121.223-3.278-121.223Z" transform="translate(-1075.306 -1754.908)" fill="#344966"/>
          <g id="Grupo_1099612" data-name="Grupo 1099612" transform="translate(29.516 89.207)">
            <path id="Trazado_873776" data-name="Trazado 873776" d="M1123.824,1687.307s22.117-7.744,29.493-4.192c22.916,11.034,28.172,0,28.172,0,7.323.632,29.428,4.192,29.428,4.192,0,24.687,1.649,49.459,1.2,68.141-.316,16.27,2.784,60.542,2.784,60.542s-24.384,6.393-47.451,6.558c-23.068-.149-46.545-6.3-46.545-6.3s1.232-44.841,2.256-61.508C1122.829,1736.059,1123.824,1711.927,1123.824,1687.307Z" transform="translate(-1120.905 -1682.182)" fill="#7d6eb2"/>
          </g>
          <g id="Grupo_1099613" data-name="Grupo 1099613" transform="translate(113.245 94.328)">
            <path id="Trazado_873777" data-name="Trazado 873777" d="M1361.081,1730.78c-9.13-21.781-36.219-35.635-39.315-36.691l-6.283,27.963a163.6,163.6,0,0,1,22.46,16.022c-1.6,7.785-1.333,15.421-5.841,25.269,0,0,3.915-5.4,8.744-2.206,4.694,3.106,13.327-3.235,13.327-3.235S1368.053,1747.417,1361.081,1730.78Z" transform="translate(-1315.482 -1694.089)" fill="#5b4e86"/>
          </g>
          <g id="Grupo_1099615" data-name="Grupo 1099615" transform="translate(0 94.328)">
            <g id="Grupo_1099614" data-name="Grupo 1099614" transform="translate(90.419 8.438)">
              <path id="Trazado_873778" data-name="Trazado 873778" d="M1328.87,1796.994a2.506,2.506,0,0,0,.475.1h.519a2.47,2.47,0,0,0,2.1-1.724l24.336-78.47a2.534,2.534,0,0,0,.1-.475,2.479,2.479,0,0,0,0-.31c0-.061.005-.124,0-.186s-.023-.107-.031-.16a2.469,2.469,0,0,0-2.157-2.06,2.535,2.535,0,0,0-.527,0h-61.266l-24.551,83.378h61.042Z" transform="translate(-1265.534 -1713.698)" fill="#aee6e6"/>
              <path id="Trazado_873779" data-name="Trazado 873779" d="M1289.885,1713.809a2.473,2.473,0,0,0-3.094,1.628l-24.184,78.268-.055.183a2.471,2.471,0,0,0,1.618,3.085h0a2.472,2.472,0,0,0,3.094-1.627l24.247-78.448a2.472,2.472,0,0,0-1.626-3.089Z" transform="translate(-1262.441 -1713.697)" fill="#00223d"/>
            </g>
            <path id="Trazado_873780" data-name="Trazado 873780" d="M1432.16,1808.05a2.556,2.556,0,0,1,.733-.319c-.026-.039-.054-.074-.081-.114-1.523-2.3-1.422-5.048.227-6.14a2.66,2.66,0,0,1,.88-.369c-.429-1.7-.044-3.326,1.134-4.107a2.768,2.768,0,0,1,1.581-.442,3.69,3.69,0,0,1,1.208-4.3c1.649-1.092,4.042-.387,5.342,1.575s1.019,4.439-.631,5.532a3.1,3.1,0,0,1-1.366.492c1.1,2.14.877,4.482-.615,5.47a2.637,2.637,0,0,1-.88.369c.428,1.7.045,3.327-1.133,4.107a2.724,2.724,0,0,1-1.46.441,3.156,3.156,0,0,1-.961,3.808,3.655,3.655,0,0,1-3.979-6Z" transform="translate(-1268.01 -1749.721)" fill="#e49963"/>
            <path id="Trazado_873781" data-name="Trazado 873781" d="M1258.746,1803.091l5.585-3.236a10.552,10.552,0,0,1,10.515-8.112c-1.028,3.323-2.507,8.112-2.507,8.112s4.414,3.427,14.883-2.438c10.235-2.3,5.863,5.162,9.255,5.7,5.005.791-3.649,10.627-13.868,12.13-13.223,1.949-14.792-.758-14.792-.758l-7.482,2.615Z" transform="translate(-1169.917 -1749.721)" fill="#e49963"/>
            <path id="Trazado_873782" data-name="Trazado 873782" d="M1089.468,1755.923c18.666-1.3,50.51-10.524,50.51-10.524,5.1,7.817,3.687,18.2,3.687,18.2-28.988,25.415-72.616,33.631-86,27.514-12.221-5.584-3.594-79.978,27.091-97.02h0C1095.272,1711.889,1089.468,1755.923,1089.468,1755.923Z" transform="translate(-1052.319 -1694.089)" fill="#5b4e86"/>
          </g>
        </g>
        <g id="Grupo_1099619" data-name="Grupo 1099619" transform="translate(21.785 417.729)">
          <g id="Grupo_1099617" data-name="Grupo 1099617" transform="translate(13.978 45.725)">
            <path id="Trazado_873783" data-name="Trazado 873783" d="M1465.569,2094.844v9.091h2.474a2.177,2.177,0,0,1,2.178,2.178v.361a2.176,2.176,0,0,1-2.178,2.177h-105.49a2.533,2.533,0,0,1-2.532-2.532v-13.093a2.53,2.53,0,0,1,2.532-2.531h105.491a2.177,2.177,0,0,1,2.178,2.172h0a2.177,2.177,0,0,1-2.178,2.177Z" transform="translate(-1360.021 -2090.495)" fill="#12263f"/>
            <path id="Trazado_873784" data-name="Trazado 873784" d="M1.207,0H94.114V9.09H1.207A1.207,1.207,0,0,1,0,7.883V1.207A1.207,1.207,0,0,1,1.207,0Z" transform="translate(11.748 4.35)" fill="#fff"/>
          </g>
          <g id="Grupo_1099618" data-name="Grupo 1099618" transform="translate(0 25.634)">
            <path id="Trazado_873785" data-name="Trazado 873785" d="M1343.991,2065.582v10.06h-2.477a2.3,2.3,0,0,0-2.174,2.407v.406a2.3,2.3,0,0,0,2.174,2.405h105.494a2.679,2.679,0,0,0,2.533-2.8v-14.488a2.677,2.677,0,0,0-2.533-2.8H1341.514a2.3,2.3,0,0,0-2.174,2.406h0a2.3,2.3,0,0,0,2.174,2.406Z" transform="translate(-1339.34 -2060.77)" fill="#ffd947"/>
            <path id="Trazado_873786" data-name="Trazado 873786" d="M1.336,0H94.114V10.058H1.336A1.336,1.336,0,0,1,0,8.722V1.336A1.336,1.336,0,0,1,1.336,0Z" transform="translate(98.451 14.871) rotate(180)" fill="#fff"/>
          </g>
          <path id="Trazado_873787" data-name="Trazado 873787" d="M2.166,0h99.559a2.167,2.167,0,0,1,2.167,2.167V14.145a2.167,2.167,0,0,1-2.167,2.167H2.167A2.167,2.167,0,0,1,0,14.146V2.166A2.166,2.166,0,0,1,2.166,0Z" transform="translate(8.597)" fill="#5b7393"/>
          <rect id="Rectángulo_401469" data-name="Rectángulo 401469" width="103.892" height="9.322" rx="1.238" transform="translate(15.386 16.312)" fill="#ffd947"/>
        </g>
        <g id="Grupo_1099621" data-name="Grupo 1099621" transform="translate(12.587 187.331)">
          <path id="Trazado_873788" data-name="Trazado 873788" d="M2531.087,1127.775h-60.863c-2.879,0-5.212,2.806-5.212,6.267v45.3c0,3.461,2.333,6.267,5.212,6.267h60.863c2.878,0,5.212-2.806,5.212-6.267v-45.3C2536.3,1130.581,2533.965,1127.775,2531.087,1127.775Z" transform="translate(-2465.01 -1127.775)" fill="#d7e9f9"/>
          <path id="Trazado_873789" data-name="Trazado 873789" d="M2536.294,1134.045v2.484h-71.288v-2.484c0-3.461,2.333-6.267,5.212-6.267h60.864C2533.96,1127.778,2536.294,1130.583,2536.294,1134.045Z" transform="translate(-2465.006 -1127.777)" fill="#7d6eb2"/>
          <g id="Grupo_1099620" data-name="Grupo 1099620" transform="translate(10.781 19.439)">
            <rect id="Rectángulo_401470" data-name="Rectángulo 401470" width="8.762" height="17.069" rx="2" transform="translate(0 12.943)" fill="#7d6eb2"/>
            <rect id="Rectángulo_401471" data-name="Rectángulo 401471" width="8.762" height="21.25" rx="2" transform="translate(13.655 8.762)" fill="#7d6eb2"/>
            <rect id="Rectángulo_401472" data-name="Rectángulo 401472" width="8.762" height="25.46" rx="2" transform="translate(27.311 4.552)" fill="#00223d"/>
            <rect id="Rectángulo_401473" data-name="Rectángulo 401473" width="8.762" height="30.012" rx="2" transform="translate(40.966)" fill="#00223d"/>
          </g>
          <circle id="Elipse_11505" data-name="Elipse 11505" cx="1.705" cy="1.705" r="1.705" transform="translate(3.505 3.054)" fill="#d8e5ed"/>
          <circle id="Elipse_11506" data-name="Elipse 11506" cx="1.705" cy="1.705" r="1.705" transform="translate(8.15 3.054)" fill="#d8e5ed"/>
          <circle id="Elipse_11507" data-name="Elipse 11507" cx="1.705" cy="1.705" r="1.705" transform="translate(12.794 3.054)" fill="#d8e5ed"/>
        </g>
        <g id="Grupo_1099623" data-name="Grupo 1099623" transform="translate(177.846 215.286)">
          <g id="Grupo_1099622" data-name="Grupo 1099622" transform="translate(3.505 3.518)">
            <path id="Trazado_873790" data-name="Trazado 873790" d="M1386.086,211.725a26.928,26.928,0,0,1-35.172,40.6l-9.54,4.109,4.109-9.54a26.928,26.928,0,0,1,40.6-35.171Z" transform="translate(-1339.669 -203.4)" fill="#fdfdfd" fill-rule="evenodd"/>
            <path id="Trazado_873791" data-name="Trazado 873791" d="M1364.5,255.664a27.347,27.347,0,0,1-16.2-5.3l-9.3,4.006a.451.451,0,0,1-.592-.592l4.006-9.3a27.381,27.381,0,1,1,23.921,11.124C1365.725,255.644,1365.111,255.664,1364.5,255.664Zm-16.135-6.265a.45.45,0,0,1,.271.09,26.475,26.475,0,1,0-5.341-5.341.452.452,0,0,1,.053.449l-3.661,8.5,8.5-3.661a.446.446,0,0,1,.178-.036Z" transform="translate(-1337.12 -200.923)" fill="#00223d"/>
          </g>
          <circle id="Elipse_11508" data-name="Elipse 11508" cx="22.887" cy="22.887" r="22.887" transform="translate(7.994 7.996)" fill="#f5ca56"/>
          <path id="Trazado_873792" data-name="Trazado 873792" d="M1344.653,239.264a30.777,30.777,0,0,1-16.768-4.953.451.451,0,0,1,.491-.756,29.991,29.991,0,0,0,32.522.035.451.451,0,1,1,.488.758A30.876,30.876,0,0,1,1344.653,239.264Zm21.953-9.347a.45.45,0,0,1-.325-.763,29.9,29.9,0,0,0,3.767-36.742.451.451,0,1,1,.762-.48,31.027,31.027,0,0,1,4.592,19.436,30.549,30.549,0,0,1-8.471,18.412.449.449,0,0,1-.325.137Zm-47.493-4.551a.452.452,0,0,1-.379-.2,30.912,30.912,0,0,1-4.784-19.983.453.453,0,0,1,.9.094,30,30,0,0,0,4.644,19.4.451.451,0,0,1-.378.7Zm-3.14-26.675a.451.451,0,0,1-.425-.6,30.885,30.885,0,0,1,37.788-19.355.451.451,0,0,1-.253.865,29.986,29.986,0,0,0-36.686,18.79.451.451,0,0,1-.424.3Zm50.048-11.538a.45.45,0,0,1-.317-.13,30.025,30.025,0,0,0-6.238-4.72.451.451,0,0,1,.446-.784,30.933,30.933,0,0,1,6.424,4.862.45.45,0,0,1-.316.772Z" transform="translate(-1313.784 -177.498)" fill="#00223d"/>
        </g>
        <g id="Grupo_1099625" data-name="Grupo 1099625" transform="translate(149.577)">
          <g id="Grupo_1099624" data-name="Grupo 1099624">
            <path id="Trazado_873793" data-name="Trazado 873793" d="M2504.248,342.685h21.9a2.743,2.743,0,0,0,2.736-2.737V319.422h-10.948l-2.735,2.736h-10.948a2.745,2.745,0,0,0-2.737,2.737v15.053A2.743,2.743,0,0,0,2504.248,342.685Z" transform="translate(-2501.061 -318.971)" fill="#eff4ef" fill-rule="evenodd"/>
            <path id="Trazado_873794" data-name="Trazado 873794" d="M2523.593,340.586H2501.7a3.191,3.191,0,0,1-3.187-3.187V322.346a3.191,3.191,0,0,1,3.187-3.187h10.761l2.6-2.6a.449.449,0,0,1,.318-.132h10.947a.45.45,0,0,1,.45.45V337.4A3.191,3.191,0,0,1,2523.593,340.586ZM2501.7,320.06a2.289,2.289,0,0,0-2.287,2.286V337.4a2.289,2.289,0,0,0,2.287,2.286h21.894a2.288,2.288,0,0,0,2.286-2.286V317.323h-10.31l-2.6,2.6a.447.447,0,0,1-.318.132Z" transform="translate(-2498.511 -316.422)" fill="#00223d"/>
          </g>
          <path id="Trazado_873795" data-name="Trazado 873795" d="M2542.248,371.994h-6.843a.451.451,0,0,1,0-.9h6.843a.451.451,0,0,1,0,.9Z" transform="translate(-2529.482 -362.882)" fill="#00223d"/>
          <path id="Trazado_873796" data-name="Trazado 873796" d="M2538.143,408.44h-2.737a.45.45,0,0,1,0-.9h2.737a.45.45,0,1,1,0,.9Z" transform="translate(-2529.482 -393.855)" fill="#00223d"/>
        </g>
        <path id="Trazado_873797" data-name="Trazado 873797" d="M1434.089,282.747a15.064,15.064,0,1,0,14.193,9.983l-2.271,2.27a12.255,12.255,0,1,1-4.076-6.584l2.006-2.006a15.018,15.018,0,0,0-9.852-3.664Zm-7.929,13.582a1.885,1.885,0,1,1,2.666-2.665l5.264,5.264,11.859-11.859a1.884,1.884,0,0,1,2.665,2.665l-13.192,13.192a1.884,1.884,0,0,1-2.665,0Z" transform="translate(-1225.362 -51.653)" fill="#fff" fill-rule="evenodd"/>
      </g>
    </g>
  </g>
</svg>
